<?xml version="1.0" encoding="utf-8"?>
<!-- Generated by IcoMoon.io -->
<!DOCTYPE svg PUBLIC "-//W3C//DTD SVG 1.1//EN" "http://www.w3.org/Graphics/SVG/1.1/DTD/svg11.dtd">
<svg version="1.1" xmlns="http://www.w3.org/2000/svg" xmlns:xlink="http://www.w3.org/1999/xlink" width="32" height="32" viewBox="0 0 32 32">
<path fill="none" stroke="#fff" stroke-width="0.3556" stroke-miterlimit="10" stroke-linecap="butt" stroke-linejoin="miter" d="M10.453 12.825h3.104c0.87 0 1.575 0.705 1.575 1.575v4.828h-4.679v-6.4cz"></path>
<path fill="none" stroke="#fff" stroke-width="0.3556" stroke-miterlimit="10" stroke-linecap="butt" stroke-linejoin="miter" d="M17.54 12.825h-0.846c-0.87 0-1.575 0.705-1.575 1.575v4.828h4.679v-3.502"></path>
<path fill="none" stroke="#fff" stroke-width="0.3556" stroke-miterlimit="10" stroke-linecap="butt" stroke-linejoin="miter" d="M20.661 14.162c0 1.021-0.828 1.849-1.849 1.849s-1.849-0.828-1.849-1.849c0-1.021 0.828-1.849 1.849-1.849s1.849 0.828 1.849 1.849z"></path>
<path fill="none" stroke="#fff" stroke-width="0.3556" stroke-miterlimit="10" stroke-linecap="butt" stroke-linejoin="miter" d="M19.918 15.644l1.628 1.465"></path>
<path fill="#fff" stroke="#fff" stroke-width="0.3556" stroke-miterlimit="10" stroke-linecap="butt" stroke-linejoin="miter" d="M14.578 19.228c0.235 0.089 0.426 0.249 0.552 0.454 0.133-0.203 0.323-0.363 0.55-0.451"></path>
</svg>
