<?xml version="1.0" encoding="utf-8"?>
<!-- Generated by IcoMoon.io -->
<!DOCTYPE svg PUBLIC "-//W3C//DTD SVG 1.1//EN" "http://www.w3.org/Graphics/SVG/1.1/DTD/svg11.dtd">
<svg version="1.1" xmlns="http://www.w3.org/2000/svg" xmlns:xlink="http://www.w3.org/1999/xlink" width="32" height="32" viewBox="0 0 32 32">
<path fill="#fff" d="M20.171 12.016c-1.919-0.658-3.081 0.139-3.808 0.788-0.027-0.449-0.066-1.33-0.098-2.214 0.068-0.175 0.172-0.047 0.315 0.030 3.966 2.069 5.785-2.873 5.785-2.873s-1.168 0.454-2.475 0.052c-1.842-0.609-3.195-0.199-3.667 0.704 0-0.128 0.003-0.244 0.006-0.341 0.037-0.977-1.773-0.896-1.664 0.058 0.033 0.296 0.365 2.096 0.866 4.407-0.736-0.604-1.856-1.211-3.603-0.612-2.528 0.866-2.951 4.032-2.123 7.268 0.82 3.203 3.148 7.189 6.293 4.187 3.058 2.677 5.488-1.049 6.292-4.187 0.829-3.235 0.406-6.402-2.121-7.267z"></path>
</svg>
