<?xml version="1.0" encoding="utf-8"?>
<!-- Generated by IcoMoon.io -->
<!DOCTYPE svg PUBLIC "-//W3C//DTD SVG 1.1//EN" "http://www.w3.org/Graphics/SVG/1.1/DTD/svg11.dtd">
<svg version="1.1" xmlns="http://www.w3.org/2000/svg" xmlns:xlink="http://www.w3.org/1999/xlink" width="32" height="32" viewBox="0 0 32 32">
<path fill="#fff" d="M14.174 14.126l-1.902-1.902c0.955-0.947 2.269-1.532 3.721-1.532 0.003 0 0.005 0 0.008 0s0.005 0 0.008 0c1.463 0 2.787 0.594 3.744 1.554 0.96 0.957 1.554 2.281 1.554 3.743 0 0.004 0 0.008 0 0.012l2.308-0.001c0-4.206-3.408-7.614-7.614-7.615-2.089 0-3.984 0.844-5.36 2.207l-1.756-1.756v5.291h5.291zM19.772 19.732c-0.958 0.972-2.29 1.575-3.762 1.575-0.004 0-0.007 0-0.011 0s-0.007 0-0.011 0c-1.462 0-2.785-0.594-3.741-1.554-0.96-0.957-1.554-2.281-1.554-3.744 0-0.003 0-0.006 0-0.010h-2.308c0 4.206 3.408 7.613 7.614 7.615 2.111 0 4.025-0.862 5.404-2.252l1.708 1.709v-5.163h-5.163l1.822 1.822z"></path>
</svg>
