<?xml version="1.0" encoding="utf-8"?>
<!-- Generated by IcoMoon.io -->
<!DOCTYPE svg PUBLIC "-//W3C//DTD SVG 1.1//EN" "http://www.w3.org/Graphics/SVG/1.1/DTD/svg11.dtd">
<svg version="1.1" xmlns="http://www.w3.org/2000/svg" xmlns:xlink="http://www.w3.org/1999/xlink" width="32" height="32" viewBox="0 0 32 32">
<path fill="#fff" d="M15.776 8.197c2.611 0.282 3.131 2.858 3.131 3.742h1.77l-3.098 2.893-3.097-2.893h1.771c0-0.816-0.506-2.059-1.566-2.265-1.726-0.336-2.442 1.527-2.442 1.527s0.859-3.293 3.532-3.005zM16.281 23.803c-2.61-0.282-3.131-2.858-3.131-3.742h-1.769l3.097-2.893 3.097 2.891h-1.771c0 0.816 0.506 2.059 1.566 2.266 1.728 0.336 2.443-1.529 2.443-1.529s-0.859 3.294-3.532 3.006zM12.366 12.64c-2.61 0.283-3.131 2.858-3.131 3.742h-1.769l3.098 2.893 3.097-2.892h-1.771c0.001-0.816 0.507-2.059 1.566-2.265 1.726-0.336 2.442 1.529 2.442 1.529s-0.859-3.295-3.532-3.007zM19.634 19.257c2.611-0.282 3.131-2.857 3.131-3.742l1.769 0.002-3.097-2.893-3.097 2.892 1.771 0.001c0 0.816-0.507 2.059-1.566 2.265-1.727 0.336-2.443-1.528-2.443-1.527s0.859 3.293 3.532 3.005z"></path>
</svg>
