<?xml version="1.0" encoding="utf-8"?>
<!-- Generated by IcoMoon.io -->
<!DOCTYPE svg PUBLIC "-//W3C//DTD SVG 1.1//EN" "http://www.w3.org/Graphics/SVG/1.1/DTD/svg11.dtd">
<svg version="1.1" xmlns="http://www.w3.org/2000/svg" xmlns:xlink="http://www.w3.org/1999/xlink" width="32" height="32" viewBox="0 0 32 32">
<path fill="#fff" d="M21.867 10.133v12.711h-10.744c-0.024 0-0.048-0.004-0.073-0.005-0.041-0.002-0.077-0.006-0.114-0.011-0.206-0.029-0.41-0.107-0.562-0.263-0.132-0.145-0.198-0.328-0.225-0.512-0.008-0.059-0.018-0.117-0.018-0.187 0-0.787 0.539-0.966 0.977-0.978h9.778v-12.711h-4.887v6.844l-1.956-1.956-1.956 1.956v-6.845h-0.978s-1.956 0-1.956 1.956v11.733s0.005 0.167 0.052 0.396c0.063 0.379 0.202 0.67 0.389 0.885 0.034 0.043 0.073 0.082 0.112 0.123 0.039 0.037 0.079 0.077 0.122 0.11 0.217 0.188 0.507 0.325 0.885 0.389 0.229 0.046 0.397 0.052 0.397 0.052h11.733v-13.689h-0.979z"></path>
</svg>
