<?xml version="1.0" encoding="utf-8"?>
<!-- Generated by IcoMoon.io -->
<!DOCTYPE svg PUBLIC "-//W3C//DTD SVG 1.1//EN" "http://www.w3.org/Graphics/SVG/1.1/DTD/svg11.dtd">
<svg version="1.1" xmlns="http://www.w3.org/2000/svg" xmlns:xlink="http://www.w3.org/1999/xlink" width="32" height="32" viewBox="0 0 32 32">
<path fill="#fff" d="M17.957 16.494v2.289h-3.903v-2.289h-6.576v6.759h17.055v-6.76h-6.576zM14.053 13.932h3.904v1.56h6.574v-3.081c0-0.459-0.371-0.831-0.831-0.831h-3.065v-1.069c0 0 0 0 0-0.001 0-0.973-0.788-1.762-1.761-1.764h-5.749c-0.974 0-1.763 0.789-1.763 1.763 0 0 0 0.001 0 0.001v1.069h-3.065c-0.459 0.001-0.83 0.372-0.831 0.831v3.081h6.587v-1.56zM12.564 10.511c0-0.309 0.251-0.561 0.561-0.562h5.749c0.31 0 0.561 0.252 0.561 0.562v1.069h-6.871v-1.069zM16.973 17.803v-2.896h-1.946v2.896h1.946z"></path>
</svg>
