<?xml version="1.0" encoding="utf-8"?>
<!-- Generated by IcoMoon.io -->
<!DOCTYPE svg PUBLIC "-//W3C//DTD SVG 1.1//EN" "http://www.w3.org/Graphics/SVG/1.1/DTD/svg11.dtd">
<svg version="1.1" xmlns="http://www.w3.org/2000/svg" xmlns:xlink="http://www.w3.org/1999/xlink" width="32" height="32" viewBox="0 0 32 32">
<path fill="#fff" d="M21.672 6.925h-11.344c-0.627 0-1.134 0.508-1.134 1.134v15.883c0 0.627 0.507 1.134 1.134 1.134h11.344c0 0 0 0 0.001 0 0.626 0 1.134-0.508 1.134-1.134 0 0 0 0 0-0.001v-15.883c0-0.626-0.507-1.134-1.134-1.134zM12.597 22.806c-0.627 0-1.134-0.508-1.134-1.134s0.508-1.134 1.134-1.134c0.627 0 1.134 0.508 1.134 1.134s-0.508 1.134-1.134 1.134zM12.597 19.404c-0.627 0-1.135-0.508-1.135-1.135s0.508-1.135 1.135-1.135c0.627 0 1.134 0.508 1.134 1.134s-0.508 1.134-1.134 1.134zM12.597 16c-0.627 0-1.134-0.508-1.134-1.134s0.508-1.134 1.134-1.134c0.627 0 1.134 0.508 1.134 1.134s-0.508 1.134-1.134 1.134zM16 22.806c-0.627 0-1.134-0.508-1.134-1.134s0.508-1.134 1.134-1.134c0.627 0 1.134 0.508 1.134 1.134s-0.508 1.134-1.134 1.134zM16 19.404c-0.627 0-1.135-0.508-1.135-1.135s0.508-1.135 1.135-1.135c0.627 0 1.134 0.508 1.134 1.134s-0.508 1.134-1.134 1.134zM16 16c-0.627 0-1.134-0.508-1.134-1.134s0.508-1.134 1.134-1.134c0.627 0 1.134 0.508 1.134 1.134s-0.508 1.134-1.134 1.134zM19.403 22.806c-0.627 0-1.134-0.508-1.134-1.134s0.508-1.134 1.134-1.134c0.627 0 1.134 0.508 1.134 1.134s-0.508 1.134-1.134 1.134zM19.403 19.404c-0.627 0-1.135-0.508-1.135-1.135s0.508-1.135 1.135-1.135c0.627 0 1.134 0.508 1.134 1.134s-0.508 1.134-1.134 1.134zM19.403 16c-0.627 0-1.134-0.508-1.134-1.134s0.508-1.134 1.134-1.134c0.627 0 1.134 0.508 1.134 1.134s-0.508 1.134-1.134 1.134zM20.538 12.597h-9.075v-3.404h9.075v3.403z"></path>
</svg>
