<?xml version="1.0" encoding="utf-8"?>
<!-- Generated by IcoMoon.io -->
<!DOCTYPE svg PUBLIC "-//W3C//DTD SVG 1.1//EN" "http://www.w3.org/Graphics/SVG/1.1/DTD/svg11.dtd">
<svg version="1.1" xmlns="http://www.w3.org/2000/svg" xmlns:xlink="http://www.w3.org/1999/xlink" width="32" height="32" viewBox="0 0 32 32">
<path fill="#fff" d="M19.393 19.783h-1.755v1.754h1.755v-1.752zM16.922 15.090h-1.754v1.754h1.754v-1.751zM19.393 17.436h-1.755v1.753h1.755v-1.753zM21.862 15.090h-1.754v1.754h1.753v-1.751zM16.922 17.436h-1.754v1.753h1.754v-1.753zM19.393 15.090h-1.755v1.754h1.755v-1.751zM21.862 17.436h-1.754v1.753h1.753v-1.753zM11.981 19.783h-1.753v1.754h1.753v-1.752zM11.981 17.436h-1.753v1.753h1.753v-1.753zM21.411 8.908v0.77c0.303 0.269 0.494 0.66 0.494 1.095 0 0.806-0.654 1.46-1.46 1.46s-1.46-0.654-1.46-1.46c0-0.435 0.19-0.826 0.492-1.093l0.002-0.771h-6.822v0.77c0.303 0.269 0.494 0.66 0.494 1.095 0 0.806-0.654 1.46-1.46 1.46s-1.46-0.654-1.46-1.46c0-0.435 0.19-0.826 0.492-1.093l0.002-0.771h-3.257v15.541h17.067v-15.541h-3.123zM22.974 22.891h-13.949v-9.707h13.949v9.707zM14.452 15.092h-1.753v1.753h1.755l-0.001-1.753zM14.452 19.785h-1.753v1.753h1.755l-0.001-1.753zM16.921 19.785h-1.753v1.753h1.755v-1.753zM14.452 17.438h-1.753v1.753h1.755l-0.001-1.753zM11.688 11.621c0.402 0 0.727-0.325 0.727-0.727v-2.619c0-0.401-0.325-0.727-0.727-0.727s-0.727 0.325-0.727 0.727v2.619c0 0.401 0.325 0.726 0.727 0.726zM20.445 11.621c0.401 0 0.726-0.325 0.726-0.727v-2.619c0-0.401-0.325-0.727-0.727-0.727s-0.727 0.325-0.727 0.727v2.619c0 0.401 0.325 0.726 0.728 0.726z"></path>
<path fill="#fff" d="M20.134 19.783h1.755v1.755h-1.755z"></path>
</svg>
