<?xml version="1.0" encoding="utf-8"?>
<!-- Generated by IcoMoon.io -->
<!DOCTYPE svg PUBLIC "-//W3C//DTD SVG 1.1//EN" "http://www.w3.org/Graphics/SVG/1.1/DTD/svg11.dtd">
<svg version="1.1" xmlns="http://www.w3.org/2000/svg" xmlns:xlink="http://www.w3.org/1999/xlink" width="32" height="32" viewBox="0 0 32 32">
<path fill="#fff" d="M11.687 11.622c0.402 0 0.727-0.325 0.727-0.727v-2.619c0-0.401-0.325-0.727-0.727-0.727s-0.727 0.325-0.727 0.727v2.619c0 0.4 0.325 0.725 0.729 0.725zM20.445 11.622c0.401 0 0.726-0.325 0.726-0.727v-2.619c0-0.401-0.325-0.727-0.727-0.727s-0.727 0.325-0.727 0.727v2.619c0 0.4 0.325 0.725 0.727 0.725zM21.41 8.909v0.77c0.304 0.268 0.495 0.658 0.495 1.093-0.027 0.786-0.67 1.413-1.461 1.413s-1.434-0.627-1.46-1.411c0-0.438 0.192-0.829 0.494-1.096v-0.77h-6.822v0.77c0.303 0.268 0.494 0.658 0.494 1.093 0 0 0 0 0 0.001-0.027 0.786-0.67 1.413-1.461 1.413s-1.434-0.627-1.46-1.411c0-0.438 0.192-0.829 0.494-1.096v-0.77h-3.256v15.541h17.067v-15.541h-3.123zM22.974 22.892h-13.949v-9.71h13.949v9.71z"></path>
<path fill="#fff" d="M15.794 21.342h-4.895v-0.941h1.925v-4.037c-0.64 0.558-1.222 0.942-1.747 1.152v-1.152c0.533-0.204 0.868-0.348 1.003-0.434s0.331-0.245 0.59-0.478 0.442-0.444 0.548-0.635h0.768v5.584h1.808v0.941zM18.576 21.441c-0.784 0-1.388-0.304-1.812-0.911s-0.637-1.38-0.637-2.316c0-1.010 0.222-1.824 0.667-2.439s1.043-0.923 1.792-0.923c0.54 0 0.997 0.144 1.371 0.434 0.372 0.288 0.651 0.69 0.833 1.203s0.274 0.995 0.274 1.445c0 0.752-0.085 1.37-0.258 1.852-0.166 0.478-0.448 0.88-0.814 1.186-0.379 0.313-0.849 0.468-1.414 0.468zM18.572 20.537c0.325 0 0.587-0.1 0.787-0.3s0.336-0.48 0.407-0.838 0.108-0.855 0.108-1.49c0-0.525-0.089-1.023-0.265-1.494s-0.515-0.707-1.013-0.707c-0.869 0-1.303 0.803-1.303 2.407 0 0.727 0.092 1.313 0.276 1.756s0.517 0.664 1.003 0.664z"></path>
</svg>
