<?xml version="1.0" encoding="utf-8"?>
<!-- Generated by IcoMoon.io -->
<!DOCTYPE svg PUBLIC "-//W3C//DTD SVG 1.1//EN" "http://www.w3.org/Graphics/SVG/1.1/DTD/svg11.dtd">
<svg version="1.1" xmlns="http://www.w3.org/2000/svg" xmlns:xlink="http://www.w3.org/1999/xlink" width="32" height="32" viewBox="0 0 32 32">
<path fill="#fff" d="M16.332 8.877v-1.411h-0.969v1.411h-7.81v2.499h0.857v9.435h5.968l-3.629 2.973 0.613 0.749 4.545-3.723h0.032l4.546 3.723 0.613-0.749-3.63-2.973h5.945v-9.435h1.033v-2.499h-8.114zM22.444 19.843h-13.064v-8.467h13.065v8.467zM12.559 17.661v-2.517h2.517c0-1.39-1.127-2.517-2.517-2.517s-2.517 1.127-2.517 2.517c0 1.39 1.127 2.517 2.517 2.517zM13.265 18.348c1.39 0 2.517-1.127 2.517-2.517h-2.517v2.517zM20.965 13.179h-3.219v0.969h3.22v-0.969zM20.965 14.956h-3.219v0.969h3.22v-0.971zM20.965 16.734h-3.219v0.969h3.22v-0.969z"></path>
</svg>
