<?xml version="1.0" encoding="utf-8"?>
<!-- Generated by IcoMoon.io -->
<!DOCTYPE svg PUBLIC "-//W3C//DTD SVG 1.1//EN" "http://www.w3.org/Graphics/SVG/1.1/DTD/svg11.dtd">
<svg version="1.1" xmlns="http://www.w3.org/2000/svg" xmlns:xlink="http://www.w3.org/1999/xlink" width="32" height="32" viewBox="0 0 32 32">
<path fill="#fff" d="M9.644 8.736v14.528h12.711v-14.528h-12.711zM15.092 20.994h-3.178v-3.178h3.178v3.178zM15.092 14.638h-3.178v-3.178h3.178v3.178zM20.54 17.136c-1.362 1.362-2.043 3.405-2.043 3.405l-1.589-1.589 0.228-0.453 1.133 0.908c0.908-1.816 2.27-2.497 2.27-2.497v0.227zM20.54 11.687c-1.362 1.362-2.043 3.405-2.043 3.405l-1.589-1.589 0.228-0.453 1.133 0.908c0.908-1.816 2.27-2.497 2.27-2.497v0.227z"></path>
</svg>
