<?xml version="1.0" encoding="utf-8"?>
<!-- Generated by IcoMoon.io -->
<!DOCTYPE svg PUBLIC "-//W3C//DTD SVG 1.1//EN" "http://www.w3.org/Graphics/SVG/1.1/DTD/svg11.dtd">
<svg version="1.1" xmlns="http://www.w3.org/2000/svg" xmlns:xlink="http://www.w3.org/1999/xlink" width="32" height="32" viewBox="0 0 32 32">
<path fill="#fff" d="M21.694 20.939c-0.001 0.555-0.45 1.004-1.005 1.005h-9.38c-0.555-0.001-1.004-0.45-1.005-1.005v-9.878c0-0.555 0.45-1.005 1.005-1.005h8.453c0.375-0.326 0.768-0.656 1.175-0.988-0.074-0.010-0.16-0.017-0.248-0.017h-9.381c-1.11 0-2.010 0.9-2.010 2.010 0 0 0 0.001 0 0.001v9.877c0 0 0 0.001 0 0.002 0 1.11 0.899 2.009 2.009 2.009 0 0 0 0 0.001 0h9.38c1.11 0 2.010-0.9 2.010-2.010 0 0 0-0.001 0-0.001v-6.864c-0.248 0.318-0.577 0.761-0.899 1.209l-0.103 5.655z"></path>
<path fill="#fff" d="M23.345 9.317c-4.71 2.891-8.13 6.533-9.666 8.363l-3.762-2.947-1.661 1.339 6.5 6.611c1.118-2.866 4.661-8.466 8.988-12.445l-0.399-0.92z"></path>
</svg>
