<?xml version="1.0" encoding="utf-8"?>
<!-- Generated by IcoMoon.io -->
<!DOCTYPE svg PUBLIC "-//W3C//DTD SVG 1.1//EN" "http://www.w3.org/Graphics/SVG/1.1/DTD/svg11.dtd">
<svg version="1.1" xmlns="http://www.w3.org/2000/svg" xmlns:xlink="http://www.w3.org/1999/xlink" width="32" height="32" viewBox="0 0 32 32">
<path fill="#fff" d="M7.94 19.842c-0.069-0.647 0.326-1.132 0.326-1.132s-0.581-0.323-0.49-1.202c0.093-0.878 0.899-1.1 0.899-1.1s-0.598-0.379-0.229-1.28c0.371-0.901 1.117-0.715 1.117-0.715s-0.144-0.672 0.363-1.296c0.509-0.624 1.319-0.567 1.319-0.567s0.091-0.981 1.477-1.489c1.387-0.508 2.172 0.139 2.172 0.139s0.485-1.039 2.057-1.109c1.571-0.069 2.345 0.692 2.345 0.692s-0.057-0.946-1.282-1.223c-0.272-0.061-0.777-0.093-1.017 0.024-0.32-0.447-0.88-0.582-1.872-0.531-1.032 0.053-1.843 0.574-1.941 1.248-0.128-0.017-0.854-0.647-2.195-0.162s-1.429 1.216-1.543 1.553c-1.022-0.236-1.811 0.672-1.811 1.382 0 0.17 0.047 0.331 0.13 0.482-0.658 0.048-1.121 0.713-1.121 1.302 0 0.251 0.085 0.486 0.234 0.691-0.539 0.23-0.834 0.706-0.834 1.267 0 0.404 0.116 0.778 0.425 1.036-0.135 0.267-0.214 0.581-0.215 0.914 0 1.213 1.065 2.219 2.453 2.396-0.408-0.419-0.697-0.672-0.766-1.319z"></path>
<path fill="#fff" d="M25.956 19.025c0-0.004 0-0.008 0-0.012 0-0.553-0.22-1.055-0.578-1.422 0.134-0.262 0.213-0.571 0.213-0.899 0-0.918-0.613-1.697-1.467-1.981-0.068-0.896-0.837-1.614-1.811-1.698-0.275-0.811-0.983-1.389-1.817-1.389-0.285 0-0.555 0.068-0.794 0.187-0.31-0.451-1.34-0.867-2.565-0.728-1.216 0.138-1.664 1.294-1.664 1.294s-0.693-0.646-1.779-0.347c-1.086 0.301-1.271 1.364-1.271 1.364s-0.647-0.139-1.364 0.485c-0.617 0.538-0.531 1.393-0.531 1.393s-0.393-0.168-0.809 0.41c-0.416 0.578-0.093 1.109-0.093 1.109s-0.464 0.023-0.602 0.809c-0.132 0.747 0.231 1.131 0.231 1.131s-0.412 0.315-0.24 1.753c0.171 1.437 1.937 2.503 3.527 2.363 1.589-0.14 2.485-2.123 5.48-2.123 3.028 0 2.4 2.215 3.918 2.236s2.163-0.9 2.163-1.421c-0.001-0.181-0.027-0.356-0.074-0.522l0.009 0.014c1.056 0 1.915-0.898 1.915-2.006z"></path>
</svg>
