<?xml version="1.0" encoding="utf-8"?>
<!-- Generated by IcoMoon.io -->
<!DOCTYPE svg PUBLIC "-//W3C//DTD SVG 1.1//EN" "http://www.w3.org/Graphics/SVG/1.1/DTD/svg11.dtd">
<svg version="1.1" xmlns="http://www.w3.org/2000/svg" xmlns:xlink="http://www.w3.org/1999/xlink" width="32" height="32" viewBox="0 0 32 32">
<path fill="#fff" d="M22.187 15.242c0.083-0.306 0.131-0.657 0.131-1.020 0-2.223-1.802-4.026-4.026-4.026-1.662 0-3.088 1.007-3.703 2.443-0.536-0.591-1.314-0.979-2.182-0.979-1.573 0-2.849 1.276-2.849 2.849 0 0.278 0.040 0.547 0.114 0.802-1.301 0.465-2.206 1.692-2.206 3.131 0 0.001 0 0.002 0 0.004 0 0 0 0 0 0 0 1.854 1.503 3.358 3.357 3.358h4.381v-2.829h-1.809l2.773-3.36 2.773 3.36h-1.81v2.829h4.042c0 0 0 0 0.001 0 1.855 0 3.358-1.503 3.358-3.358 0 0 0-0.001 0-0.001 0-1.502-0.985-2.773-2.347-3.203z"></path>
</svg>
