<?xml version="1.0" encoding="utf-8"?>
<!-- Generated by IcoMoon.io -->
<!DOCTYPE svg PUBLIC "-//W3C//DTD SVG 1.1//EN" "http://www.w3.org/Graphics/SVG/1.1/DTD/svg11.dtd">
<svg version="1.1" xmlns="http://www.w3.org/2000/svg" xmlns:xlink="http://www.w3.org/1999/xlink" width="32" height="32" viewBox="0 0 32 32">
<path fill="none" stroke="#f2f2f2" stroke-width="0.3556" stroke-miterlimit="10" stroke-linecap="butt" stroke-linejoin="miter" d="M17.803 15.612c0 0.868-0.704 1.572-1.572 1.572s-1.572-0.704-1.572-1.572c0-0.868 0.704-1.572 1.572-1.572s1.572 0.704 1.572 1.572z"></path>
<path fill="none" stroke="#f2f2f2" stroke-width="0.3556" stroke-miterlimit="10" stroke-linecap="butt" stroke-linejoin="miter" d="M13.532 18.844s0.42-1.6 2.699-1.66"></path>
<path fill="none" stroke="#f2f2f2" stroke-width="0.3556" stroke-miterlimit="10" stroke-linecap="butt" stroke-linejoin="miter" d="M19.15 18.844s-0.42-1.6-2.699-1.66"></path>
<path fill="none" stroke="#f2f2f2" stroke-width="0.3556" stroke-miterlimit="10" stroke-linecap="butt" stroke-linejoin="miter" d="M9.582 17.273s0.42-1.6 2.699-1.66"></path>
<path fill="none" stroke="#f2f2f2" stroke-width="0.3556" stroke-miterlimit="10" stroke-linecap="butt" stroke-linejoin="miter" d="M15.2 17.273c-0.157-0.456-0.446-0.832-0.821-1.094-0.52-0.357-1.153-0.567-1.836-0.567-0.013 0-0.027 0-0.040 0"></path>
<path fill="none" stroke="#f2f2f2" stroke-width="0.3556" stroke-miterlimit="10" stroke-linecap="butt" stroke-linejoin="miter" d="M13.621 14.386c0 0.679-0.551 1.23-1.23 1.23s-1.23-0.551-1.23-1.23c0-0.679 0.551-1.23 1.23-1.23s1.23 0.551 1.23 1.23z"></path>
<path fill="none" stroke="#f2f2f2" stroke-width="0.3556" stroke-miterlimit="10" stroke-linecap="butt" stroke-linejoin="miter" d="M17.273 16.924s0.384-1.465 2.471-1.518"></path>
<path fill="none" stroke="#f2f2f2" stroke-width="0.3556" stroke-miterlimit="10" stroke-linecap="butt" stroke-linejoin="miter" d="M22.418 16.924c-0.145-0.417-0.41-0.762-0.754-1.002-0.475-0.325-1.054-0.517-1.678-0.517-0.014 0-0.027 0-0.041 0"></path>
<path fill="none" stroke="#f2f2f2" stroke-width="0.3556" stroke-miterlimit="10" stroke-linecap="butt" stroke-linejoin="miter" d="M20.974 14.279c0 0.623-0.505 1.127-1.127 1.127s-1.127-0.505-1.127-1.127c0-0.623 0.505-1.127 1.127-1.127s1.127 0.505 1.127 1.127z"></path>
</svg>
