<?xml version="1.0" encoding="utf-8"?>
<!-- Generated by IcoMoon.io -->
<!DOCTYPE svg PUBLIC "-//W3C//DTD SVG 1.1//EN" "http://www.w3.org/Graphics/SVG/1.1/DTD/svg11.dtd">
<svg version="1.1" xmlns="http://www.w3.org/2000/svg" xmlns:xlink="http://www.w3.org/1999/xlink" width="32" height="32" viewBox="0 0 32 32">
<path fill="#fff" d="M12.798 18.332c0.715-0.489 1.179-1.301 1.179-2.221 0-1.48-1.2-2.681-2.68-2.682-1.48 0.001-2.68 1.201-2.68 2.682 0 0.919 0.463 1.731 1.168 2.214-1.371 0.605-2.319 1.957-2.319 3.529 0 0 0 0.001 0 0.001 0 2.436 1.716 3.064 3.829 3.064s3.83-0.628 3.83-3.065c0 0 0-0.001 0-0.001 0-1.572-0.948-2.924-2.303-3.513zM22.205 18.332c0.716-0.488 1.18-1.299 1.18-2.219 0-0.001 0-0.001 0-0.002s0-0.001 0-0.002c0-1.481-1.201-2.682-2.682-2.682s-2.682 1.201-2.682 2.682c0 0.921 0.464 1.733 1.171 2.216-1.371 0.605-2.319 1.957-2.319 3.529 0 2.435 1.716 3.064 3.829 3.064s3.83-0.628 3.83-3.065c0 0 0-0.001 0-0.001 0-1.573-0.949-2.925-2.305-3.514zM18.187 12.325c0.87-0.547 1.422-1.356 1.422-2.256 0-1.652-1.849-2.99-4.128-2.99s-4.128 1.339-4.128 2.989c0 1.649 1.902 3.483 4.128 2.987 1.28-0.284 0.711 2.563 1.28 1.709 0.243-0.364 1.090-2.228 1.426-2.441z"></path>
</svg>
