<?xml version="1.0" encoding="utf-8"?>
<!-- Generated by IcoMoon.io -->
<!DOCTYPE svg PUBLIC "-//W3C//DTD SVG 1.1//EN" "http://www.w3.org/Graphics/SVG/1.1/DTD/svg11.dtd">
<svg version="1.1" xmlns="http://www.w3.org/2000/svg" xmlns:xlink="http://www.w3.org/1999/xlink" width="32" height="32" viewBox="0 0 32 32">
<path fill="#fff" d="M16.523 25.008h-0.957v-1.964c-1.297-0.144-2.265-0.428-2.902-0.849-1.125-0.757-1.678-2.047-1.659-3.87h2.666c0.092 0.828 0.221 1.384 0.386 1.667 0.256 0.441 0.76 0.727 1.51 0.859v-4.215l-0.8-0.236c-1.257-0.368-2.144-0.882-2.66-1.541-0.517-0.657-0.777-1.451-0.777-2.379 0-0.612 0.1-1.168 0.301-1.668 0.201-0.504 0.487-0.934 0.844-1.294 0.467-0.468 0.986-0.789 1.56-0.967 0.348-0.112 0.859-0.194 1.531-0.246v-1.313h0.957v1.333c1.068 0.085 1.907 0.348 2.516 0.789 1.107 0.704 1.68 1.845 1.719 3.426h-2.596c-0.052-0.587-0.149-1.013-0.293-1.284-0.246-0.467-0.695-0.724-1.346-0.77v3.762c1.561 0.54 2.608 1.017 3.146 1.432 0.885 0.69 1.327 1.664 1.327 2.921 0 1.659-0.609 2.863-1.827 3.613-0.743 0.46-1.625 0.731-2.645 0.81v1.984zM15.567 10.507c-0.573 0.013-0.997 0.165-1.275 0.459-0.276 0.293-0.414 0.693-0.414 1.2 0 0.552 0.208 0.99 0.623 1.312 0.23 0.178 0.586 0.343 1.067 0.494v-3.465zM16.523 20.821c0.515-0.066 0.889-0.184 1.123-0.355 0.411-0.302 0.614-0.827 0.614-1.57 0-0.565-0.192-1.013-0.576-1.342-0.228-0.19-0.614-0.388-1.162-0.592v3.86z"></path>
</svg>
