<?xml version="1.0" encoding="utf-8"?>
<!-- Generated by IcoMoon.io -->
<!DOCTYPE svg PUBLIC "-//W3C//DTD SVG 1.1//EN" "http://www.w3.org/Graphics/SVG/1.1/DTD/svg11.dtd">
<svg version="1.1" xmlns="http://www.w3.org/2000/svg" xmlns:xlink="http://www.w3.org/1999/xlink" width="32" height="32" viewBox="0 0 32 32">
<path fill="#fff" d="M24.040 14.464c-0.085 0-0.040 0.011-0.040 0.028v-1.158h-2.133v-2.133h-3.2v3.733h-5.333v-3.733h-3.2v2.133h-1.6v1.159c-0.533-0.018-0.359-0.028-0.445-0.028-0.672 0-1.314 0.579-1.314 1.291 0 0.714 0.691 1.291 1.363 1.291 0.085 0-0.137-0.009 0.396-0.027v1.647h1.6v2.133h3.2v-3.733h5.333v3.733h3.2v-2.133h2.133v-1.649c0 0.018-0.046 0.028 0.040 0.028 0.672 0 1.217-0.578 1.217-1.291s-0.545-1.291-1.217-1.291z"></path>
</svg>
