<?xml version="1.0" encoding="utf-8"?>
<!-- Generated by IcoMoon.io -->
<!DOCTYPE svg PUBLIC "-//W3C//DTD SVG 1.1//EN" "http://www.w3.org/Graphics/SVG/1.1/DTD/svg11.dtd">
<svg version="1.1" xmlns="http://www.w3.org/2000/svg" xmlns:xlink="http://www.w3.org/1999/xlink" width="32" height="32" viewBox="0 0 32 32">
<path fill="#fff" d="M24.533 21.842c0 0.587-0.48 1.067-1.067 1.067h-12.501c-0.587 0-1.067-0.48-1.067-1.067v-7.367c0-0.587 0.48-1.067 1.067-1.067h12.501c0.587 0 1.067 0.48 1.067 1.067v7.367z"></path>
<path fill="#fff" d="M18.59 9.092c-0.293 0-0.667 0.199-0.831 0.443l-0.83 1.235c-0.162 0.243-0.536 0.443-0.829 0.443h-8.099c-0.293 0-0.533 0.24-0.533 0.533v8.436c0 0.293 0.24 0.533 0.533 0.533h0.441c0.293 0 0.533-0.24 0.533-0.533v-7.053c0-0.293 0.24-0.533 0.533-0.533h12.059c0.293 0 0.533-0.197 0.533-0.44v-2.53c0-0.293-0.24-0.533-0.533-0.533h-2.976z"></path>
</svg>
