<?xml version="1.0" encoding="utf-8"?>
<!-- Generated by IcoMoon.io -->
<!DOCTYPE svg PUBLIC "-//W3C//DTD SVG 1.1//EN" "http://www.w3.org/Graphics/SVG/1.1/DTD/svg11.dtd">
<svg version="1.1" xmlns="http://www.w3.org/2000/svg" xmlns:xlink="http://www.w3.org/1999/xlink" width="32" height="32" viewBox="0 0 32 32">
<path fill="#fff" d="M24.414 18.627l-1.513-5.326c0-0.015 0.001-0.032 0.001-0.050 0-0.817-0.419-1.537-1.053-1.955l-0.111-0.53s0.033-0.461-1.097-0.384c-1.081-0.048-1.051 0.384-1.051 0.384l-0.075 0.283c-0.366 0.177-0.678 0.686-0.909 0.686h-5.204c-0.229 0-0.546-0.519-0.917-0.699l-0.075-0.329s0.030-0.409-1.051-0.361c-1.131-0.077-1.097 0.395-1.097 0.395l-0.104 0.531c-0.643 0.425-1.061 1.145-1.061 1.963v0.052l-1.511 5.327s-0.647 2.102 1.077 2.939c0 0 1.187 0.72 2.533-1.509 1.342-2.22 1.346-2.183 1.346-2.183s0.048 0.075 0.131 0.081c0.896 0.194 2.119 0.192 2.421-0.875h1.81l0.001-0.059c0.301 0.961 1.524 1.104 2.42 0.909 0.083-0.005 0.131-0.029 0.131-0.029s0.004-0.045 1.346 2.174c1.347 2.229 2.533 1.505 2.533 1.505 1.724-0.836 1.077-2.942 1.077-2.942zM11.467 14.917c-0.539 0-0.977-0.437-0.977-0.977s0.437-0.977 0.977-0.977c0.539 0 0.977 0.437 0.977 0.977s-0.437 0.977-0.977 0.977zM16.828 16.487h-0.171l-0.003-0.006h0.188v0.047l-0.016-0.041zM20.761 14.918c-0.539 0-0.976-0.437-0.976-0.976s0.437-0.976 0.976-0.976c0.539 0 0.977 0.437 0.977 0.977s-0.437 0.977-0.977 0.977z"></path>
</svg>
