<?xml version="1.0" encoding="utf-8"?>
<!-- Generated by IcoMoon.io -->
<!DOCTYPE svg PUBLIC "-//W3C//DTD SVG 1.1//EN" "http://www.w3.org/Graphics/SVG/1.1/DTD/svg11.dtd">
<svg version="1.1" xmlns="http://www.w3.org/2000/svg" xmlns:xlink="http://www.w3.org/1999/xlink" width="32" height="32" viewBox="0 0 32 32">
<path fill="#fff" d="M10.894 24.533h10.212v-10.859h-10.212v10.859zM17.931 15.849c0-0.33 0.267-0.597 0.597-0.597s0.597 0.267 0.597 0.597v6.292c0 0.33-0.267 0.597-0.597 0.597s-0.597-0.267-0.597-0.597v-6.292zM15.403 15.849c0-0.33 0.267-0.597 0.597-0.597s0.597 0.267 0.597 0.597v6.292c0 0.33-0.267 0.597-0.597 0.597s-0.597-0.267-0.597-0.597v-6.292zM12.877 15.849c0-0.33 0.267-0.597 0.597-0.597s0.597 0.267 0.597 0.597v6.292c0 0.33-0.267 0.597-0.597 0.597s-0.597-0.267-0.597-0.597v-6.292zM21.611 9.582h-2.219v-0.364c-0.001-0.967-0.784-1.751-1.751-1.752h-3.279c0 0 0 0-0.001 0-0.967 0-1.751 0.784-1.751 1.751 0 0 0 0 0 0.001v0.364h-2.221c-0.455 0-0.826 0.368-0.826 0.826v2.187h12.875v-2.187c0-0.457-0.369-0.826-0.827-0.826zM18.198 9.582h-4.395v-0.364c0-0.308 0.251-0.557 0.56-0.557h3.278c0.308 0 0.557 0.249 0.557 0.557v0.364z"></path>
</svg>
