<?xml version="1.0" encoding="utf-8"?>
<!-- Generated by IcoMoon.io -->
<!DOCTYPE svg PUBLIC "-//W3C//DTD SVG 1.1//EN" "http://www.w3.org/Graphics/SVG/1.1/DTD/svg11.dtd">
<svg version="1.1" xmlns="http://www.w3.org/2000/svg" xmlns:xlink="http://www.w3.org/1999/xlink" width="32" height="32" viewBox="0 0 32 32">
<path fill="#fff" d="M23.424 20.668l1.039-0.3 0.070-0.637-0.948-0.52c-0.025-0.239-0.069-0.457-0.133-0.667l0.686-0.852-0.323-0.58-1.094 0.139c-0.159-0.179-0.333-0.339-0.522-0.48l0.026-1.087-0.585-0.264-0.787 0.741c-0.093-0.021-0.212-0.041-0.333-0.054-0.173-0.019-0.275-0.021-0.326-0.023l-0.605-0.892-0.315 0.059 0.717-0.228 0.032-0.733-0.982-0.409-0.069-0.579 0.818-0.683-0.246-0.69-1.065-0.009-0.32-0.569 0.487-0.946-0.496-0.541-0.985 0.405-0.459-0.361 0.096-1.060-0.662-0.315-0.759 0.747s-0.174-0.026-0.432-0.086c-0.199-0.048-0.197-0.089-0.197-0.089l-0.323-1.015-0.734-0.032-0.409 0.983-0.579 0.069-0.681-0.819-0.69 0.246-0.010 1.065-0.569 0.32-0.945-0.488-0.541 0.496 0.405 0.983-0.361 0.459-1.061-0.096-0.314 0.662 0.745 0.759s-0.068 0.254-0.109 0.426c-0.029 0.123-0.067 0.203-0.067 0.203l-1.013 0.324-0.032 0.733 0.982 0.409 0.069 0.579-0.819 0.683 0.247 0.69 1.065 0.009 0.321 0.571-0.489 0.947 0.496 0.54 0.983-0.405 0.458 0.361-0.096 1.061 0.663 0.314 0.759-0.745s0.245 0.066 0.404 0.103c0.134 0.032 0.226 0.071 0.226 0.071l0.323 1.015 0.733 0.032 0.411-0.983 0.578-0.069 0.683 0.818 0.691-0.246 0.005-0.511 0.494 0.27c0.025 0.266 0.076 0.511 0.153 0.745l-0.671 0.83 0.318 0.558 1.073-0.135c0.171 0.19 0.358 0.359 0.563 0.506l-0.025 1.073 0.582 0.251 0.785-0.739c0.197 0.041 0.424 0.066 0.657 0.069l0.608 0.894 0.629-0.13 0.201-1.061c0.239-0.106 0.444-0.226 0.633-0.365l1.028 0.38 0.442-0.494-0.472-1.005c0.098-0.17 0.188-0.368 0.259-0.575zM18.884 15.564c0.029-0.122 0.053-0.173 0.071-0.197l-0.119 0.639-0.032-0.032s0.027-0.173 0.082-0.407zM13.15 16.916c-1.179-0.283-2.041-1.328-2.041-2.575 0-1.461 1.184-2.645 2.644-2.645 0.214 0 0.422 0.025 0.622 0.073 1.161 0.279 2.023 1.325 2.023 2.571 0 1.46-1.184 2.644-2.644 2.644-0.214 0-0.422-0.025-0.621-0.073zM21.003 21.109c-0.253 0.147-0.556 0.233-0.88 0.233-0.981 0-1.776-0.795-1.776-1.776 0-0.657 0.357-1.231 0.888-1.538 0.261-0.151 0.565-0.238 0.889-0.238 0.981 0 1.776 0.795 1.776 1.776 0 0.657-0.357 1.231-0.888 1.539z"></path>
</svg>
