<?xml version="1.0" encoding="utf-8"?>
<!-- Generated by IcoMoon.io -->
<!DOCTYPE svg PUBLIC "-//W3C//DTD SVG 1.1//EN" "http://www.w3.org/Graphics/SVG/1.1/DTD/svg11.dtd">
<svg version="1.1" xmlns="http://www.w3.org/2000/svg" xmlns:xlink="http://www.w3.org/1999/xlink" width="32" height="32" viewBox="0 0 32 32">
<path fill="#fff" d="M24.533 16.93v-1.941l-0.274-0.091-2.079-0.678-0.555-1.34 1.067-2.256-1.374-1.374-2.209 1.119-1.34-0.555-0.839-2.348h-1.941l-0.091 0.275-0.678 2.079-1.339 0.555-2.258-1.066-1.374 1.373 0.131 0.257 0.989 1.951-0.554 1.339-2.349 0.84v1.944l0.274 0.089 2.080 0.679 0.555 1.339-1.067 2.257 1.372 1.374 2.208-1.121 1.339 0.555 0.843 2.349h1.941l0.091-0.275 0.678-2.079 1.339-0.555 2.256 1.067 1.373-1.374-0.131-0.256-0.99-1.949 0.555-1.34 2.35-0.842zM16 18.72c-1.502 0-2.719-1.217-2.719-2.719 0 0 0-0.001 0-0.001 0-1.502 1.218-2.72 2.72-2.72s2.72 1.218 2.72 2.72c0 1.502-1.218 2.72-2.72 2.72 0 0-0.001 0-0.001 0z"></path>
</svg>
