<?xml version="1.0" encoding="utf-8"?>
<!-- Generated by IcoMoon.io -->
<!DOCTYPE svg PUBLIC "-//W3C//DTD SVG 1.1//EN" "http://www.w3.org/Graphics/SVG/1.1/DTD/svg11.dtd">
<svg version="1.1" xmlns="http://www.w3.org/2000/svg" xmlns:xlink="http://www.w3.org/1999/xlink" width="32" height="32" viewBox="0 0 32 32">
<path fill="#fff" d="M8.939 24.533h6.57v-7.308h-6.57v7.308zM23.744 12.124h-3.853c0.274-0.14 0.517-0.288 0.734-0.444 0.834-0.593 1.273-1.349 1.271-2.099 0-0.614-0.292-1.157-0.715-1.524-0.421-0.367-0.975-0.59-1.581-0.59-0.001 0-0.002 0-0.003 0-0.64 0-1.235 0.221-1.744 0.561-0.766 0.514-1.369 1.288-1.798 2.137-0.021 0.040-0.041 0.081-0.060 0.123-0.175-0.363-0.357-0.672-0.56-0.964-0.348-0.496-0.785-0.956-1.297-1.297-0.509-0.339-1.104-0.561-1.744-0.561-0.638 0.002-1.221 0.269-1.659 0.681-0.435 0.412-0.74 0.99-0.741 1.647-0.002 0.384 0.11 0.784 0.341 1.149 0.289 0.458 0.748 0.855 1.382 1.18h-3.461c-0.461 0-0.836 0.374-0.836 0.836v3.099h8.089v-3.934h0.983v3.934h8.089v-3.097c0-0.461-0.373-0.836-0.835-0.836zM11.997 10.896c-0.326-0.205-0.525-0.412-0.64-0.596-0.096-0.142-0.154-0.317-0.156-0.504-0.002-0.266 0.131-0.549 0.364-0.769 0.229-0.218 0.54-0.351 0.821-0.351h0.006c0.359 0 0.717 0.122 1.075 0.359 0.533 0.355 1.038 0.973 1.389 1.675 0.18 0.355 0.32 0.731 0.414 1.097-1.618-0.167-2.667-0.525-3.272-0.909zM17.533 10.041c0.291-0.419 0.635-0.77 0.99-1.006 0.357-0.237 0.716-0.358 1.076-0.359h0.002c0.301 0 0.587 0.116 0.784 0.289 0.199 0.177 0.301 0.388 0.301 0.615-0.002 0.269-0.144 0.661-0.771 1.12-0.597 0.434-1.628 0.88-3.219 1.19 0.176-0.704 0.463-1.321 0.846-1.867zM16.491 24.533h6.571v-7.308h-6.57v7.308z"></path>
</svg>
