<?xml version="1.0" encoding="utf-8"?>
<!-- Generated by IcoMoon.io -->
<!DOCTYPE svg PUBLIC "-//W3C//DTD SVG 1.1//EN" "http://www.w3.org/Graphics/SVG/1.1/DTD/svg11.dtd">
<svg version="1.1" xmlns="http://www.w3.org/2000/svg" xmlns:xlink="http://www.w3.org/1999/xlink" width="32" height="32" viewBox="0 0 32 32">
<path fill="#fff" d="M15.831 14.551c0.001-0.003 0.003-0.004 0.004-0.005-0.003-0.011-0.006-0.025-0.007-0.039l0.004 0.045zM19.109 18.13l-0.004-0.001s0.002 0 0.003 0.003zM19.191 18.14c-0.020-0.004-0.066 0.002-0.084-0.011-0.012 0.037 0.004 0.052 0.083 0.011zM16 7.467c-4.712 0-8.533 3.82-8.533 8.533s3.821 8.533 8.533 8.533 8.533-3.82 8.533-8.533-3.821-8.533-8.533-8.533zM21.451 10.8c-0.294 0.010-0.499 0.010-0.734 0.173-0.095 0.066-0.16 0.152-0.282 0.187-0.108 0.030-0.224 0.003-0.332 0.040-0.388 0.13-0.327 0.96-0.837 0.835-0.24-0.059-0.409-0.342-0.53-0.528-0.107-0.163-0.299-0.298-0.169-0.501-0.060 0.015-0.123-0.003-0.182 0.009 0.082-0.18 0.356-0.164 0.402-0.256 0.114-0.229-0.313-0.253-0.434-0.286 0.146-0.155 0.219 0.053 0.364 0.018 0.139-0.034-0.074-0.215-0.156-0.237-0.030-0.006-0.517 0.135-0.236-0.117-0.347-0.221-0.695-0.443-1.042-0.665-0.060 0.245 0.463 0.386 0.633 0.473-0.027 0.101-0.185 0.25-0.307 0.206-0.114-0.042-0.067-0.231-0.24-0.212-0.123 0.286 0.26 0.203 0.296 0.378 0.041 0.201-0.144 0.115-0.215 0.113-0.018-0.001-0.149-0.14-0.157-0.034-0.007 0.123 0.213 0.075 0.228 0.201-0.256 0.011-0.388-0.083-0.597-0.222-0.245-0.162-0.369-0.147-0.669-0.147 0.091-0.037 0.213-0.064 0.291-0.124 0.042-0.032 0.205-0.192 0.217-0.226 0.046-0.155-0.002-0.142-0.149-0.243-0.13-0.091-0.288-0.249-0.447-0.281-0.573-0.115-0.178 0.517-0.612 0.605l0.021 0.002h-0.023c0-0.001 0.001-0.001 0.003-0.001-0.101-0.003-0.29-0.027-0.356 0.026-0.046 0.036-0.050 0.187-0.101 0.242-0.091 0.096-0.226 0.115-0.336 0.187-0.107 0.068-0.339 0.243-0.401 0.363-0.23 0.437 0.517 0.576 0.8 0.704 0.128 0.059 0.501 0.137 0.572 0.235 0.094 0.128-0.080 0.252 0.115 0.343 0.061 0.029 0.19 0.034 0.245-0.026 0.086-0.099-0.036-0.121-0.059-0.235-0.040-0.219 0.027-0.132 0.138-0.213 0.223-0.164 0.174-0.174 0.093-0.437-0.037-0.124-0.179-0.466-0.054-0.556 0.162-0.119 0.507 0.064 0.631 0.078 0.145 0.018 0.228 0.219 0.306 0.301 0.052 0.053 0.146 0.169 0.237 0.157 0.146-0.021 0.085-0.148 0.169-0.206 0.225-0.157 0.285 0.056 0.375 0.269 0.084 0.198 0.164 0.273 0.315 0.401 0.070 0.059 0.377 0.272 0.348 0.403-0.019 0.089-0.37 0.223-0.463 0.252-0.342 0.109-0.985-0.178-1.053 0.366 0.131-0.050 0.508-0.359 0.622-0.213 0.050 0.068-0.043 0.164-0.020 0.229 0.064 0.198 0.217 0.13 0.377 0.097-0.010 0.006-0.021 0.013-0.032 0.018 0.217-0.111 0.194-0.088 0.294-0.271 0.033-0.059 0.082-0.203 0.128-0.245 0.158-0.146 0.184-0.046 0.282 0.067 0.026 0.031 0.269 0.379 0.182 0.363-0.283-0.057-0.555-0.049-0.788 0.106-0.136 0.088-0.264 0.208-0.425 0.268-0.037 0.014-0.324 0.043-0.292-0.007 0.050-0.071 0.219-0.118 0.286-0.196-0.185-0.077-0.341 0.092-0.487 0.192-0.155 0.073-0.191 0.21-0.323 0.331-0.059 0.051-0.167 0.060-0.223 0.128-0.057 0.067-0.062 0.172-0.115 0.236-0.037 0.044-0.131 0.016-0.169 0.084-0.050 0.087 0.045 0.168 0.025 0.231-0.037 0.114-0.256 0.212-0.34 0.293 0.011-0.011 0.021-0.022 0.033-0.032-0.084 0.087-0.19 0.151-0.255 0.253 0.029 0.144 0.124 0.486 0.098 0.565-0.086 0.259-0.256-0.141-0.324-0.245-0.236-0.355-0.709-0.117-1.031-0.087-0.412 0.036-0.815 0.572-0.562 1.006 0.122 0.208 0.327 0.289 0.563 0.241 0.208-0.043 0.272-0.336 0.469-0.342 0.363-0.009 0.007 0.356-0.025 0.489-0.029 0.124 0.046 0.137 0.174 0.167 0.093 0.021 0.228-0.041 0.309 0.013 0.051 0.035 0.049 0.221 0.12 0.163-0.14 0.115-0.108 0.389 0.035 0.487 0.16 0.11 0.347 0.009 0.512 0.051 0.315 0.080 0.165-0.025 0.44-0.191 0.185-0.112 0.215 0.021 0.343 0.021 0.085 0.001 0.14-0.124 0.284-0.087 0.117 0.030 0.165 0.121 0.304 0.141 0.059 0.009 0.117-0.021 0.172-0.015 0.26 0.029 0.46 0.195 0.664 0.345 0.169 0.125 0.283 0.099 0.478 0.156 0.144 0.041 0.411 0.25 0.397 0.432-0.002 0.033-0.128 0.197-0.149 0.272 0.037 0.027 0.293-0.031 0.37-0.037-0.026 0.029-0.201 0.152-0.201 0.086 0 0.034 0.124 0.103 0.154 0.124 0.091-0.297 0.241-0.107 0.421-0.033 0.153 0.063 0.341 0.067 0.505 0.106 0.139 0.033 0.444 0.127 0.548 0.24 0.123 0.135 0.037 0.357-0.054 0.493-0.119 0.179-0.299 0.245-0.373 0.457-0.060 0.165-0.016 0.333-0.050 0.517-0.046 0.249-0.081 0.161-0.242 0.313-0.134 0.128-0.003 0.106-0.185 0.188-0.185 0.081-0.347 0.057-0.475 0.26 0.005-0.013 0.011-0.025 0.013-0.039-0.053 0.076-0.080 0.229-0.107 0.28-0.064 0.13-0.152 0.212-0.255 0.32-0.040 0.041-0.398 0.531-0.419 0.491-0.027-0.051-0.309 0.052-0.323-0.021 0.011 0.062-0.003 0.042 0.068 0.077-0.066 0.403-0.236 0.462-0.631 0.466 0.034 0.194-0.144 0.155-0.226 0.259-0.048 0.061-0.071 0.231-0.106 0.309-0.021 0.050-0.176 0.249-0.176 0.288 0 0.036 0.052 0.089 0.101 0.14-0.237 0.049-0.529 0.091-0.826 0.116 0.028-0.067 0.041-0.126-0.13-0.134 0.045-0.125 0.153-0.196 0.198-0.318 0.023-0.057 0.004-0.080 0.023-0.135 0.064-0.196 0.036-0.123 0-0.275-0.084-0.356 0.029-0.453 0.127-0.78 0.101-0.334 0.091-0.77 0.155-1.131 0.031-0.172 0.080-0.532 0.020-0.696-0.067-0.185-0.365-0.329-0.501-0.453-0.192-0.175-0.295-0.365-0.437-0.583-0.073-0.108-0.156-0.218-0.212-0.336-0.123-0.258 0-0.105 0.020-0.256 0.019-0.146-0.018-0.277 0.040-0.43 0.064-0.17 0.224-0.276 0.277-0.448 0.048-0.151 0.011-0.343-0.145-0.394-0.087-0.028-0.183 0.037-0.272 0.023-0.121-0.020-0.259-0.112-0.355-0.184-0.134-0.103-0.184-0.268-0.327-0.364-0.118-0.080-0.204-0.032-0.331-0.070-0.133-0.039-0.215-0.203-0.323-0.255-0.162-0.077-0.253 0.034-0.421 0.011-0.146-0.019-0.366-0.179-0.501-0.239-0.276-0.123-0.443-0.259-0.552-0.539-0.094-0.238-0.231-0.35-0.393-0.549-0.165-0.203-0.216-0.373-0.468-0.428-0.030-0.006 0.062 0.212 0.071 0.229 0.091 0.167 0.226 0.32 0.334 0.475 0.16 0.229 0.091 0.272-0.071 0.051-0.187-0.253-0.404-0.506-0.565-0.774-0.062-0.101-0.050-0.165-0.151-0.262-0.098-0.094-0.224-0.139-0.323-0.227-0.352-0.318-0.416-0.741-0.376-1.195 0.013-0.147 0.066-0.265 0.043-0.406-0.020-0.117-0.088-0.215-0.176-0.301-0.052-0.086-0.086-0.139-0.12-0.192-0.062-0.102-0.124-0.234-0.251-0.344-0.128-0.106-0.272-0.215-0.42-0.318 0.777-1.005 1.801-1.782 2.975-2.273 0.061 0.042 0.085 0.102 0.125 0.16 0.097 0.146 0.192 0.135 0.384 0.176-0.021 0.224-0.283 0.226-0.459 0.203-0.211-0.030-0.433-0.099-0.615 0.085 0.1 0.060 0.377 0.297 0.34 0.050 0.202-0.011 0.398-0.016 0.596 0.007 0.079 0.011 0.346 0.098 0.418 0.059 0.029-0.018 0.062-0.167 0.094-0.213-0.057 0-0.117-0.027-0.173-0.022 0.131-0.168 0.261-0.036 0.427 0.040-0.181 0.114-0.075 0.379 0.106 0.163 0.147-0.179-0.035-0.309-0.223-0.412 0.189-0.236 0.306-0.257 0.483 0.009 0.030-0.165 0.163-0.099 0.301-0.085v-0.043c-0.061 0.003-0.128-0.032-0.187-0.027 0.141-0.226 0.051-0.276 0.252-0.351 0.161-0.059 0.62-0.004 0.677-0.155-0.323 0.062-0.71 0.077-0.999 0.223-0.126 0.064-0.274 0.263-0.398 0.133-0.128-0.133 0.091-0.347 0.203-0.411h-0.027c0.508-0.107 1.035-0.165 1.573-0.165 0.349 0 0.692 0.026 1.028 0.073-0.117 0.060-0.031 0.101-0.115 0.164-0.162 0.119-0.45 0.219-0.643 0.293 0.245 0 0.837 0.23 0.952-0.113-0.008-0.004-0.089-0.017-0.17-0.029 0.081-0.105 0.246-0.185 0.418-0.243 1.588 0.324 2.957 1.109 4 2.207l-0.021 0.003zM22.832 13.796c0.013-0.029 0.046-0.039 0.060-0.064 0.028-0.052 0.021-0.088 0.057-0.132 0.037-0.048 0.087-0.061 0.129-0.099 0.014-0.012 0.025-0.026 0.034-0.042 0.127 0.35 0.227 0.712 0.299 1.085 0 0.004-0.002 0.008-0.005 0.011-0.018 0.014-0.138 0.032-0.163 0.032-0.085 0.004-0.149-0.053-0.211-0.108-0.064-0.055-0.139-0.128-0.182-0.199-0.048-0.076-0.017-0.155-0.016-0.241 0.004-0.075-0.032-0.178 0-0.244zM22.929 17.709c-0.147-0.128-0.32-0.299-0.423-0.462-0.112-0.176-0.043-0.357-0.036-0.559 0.009-0.171-0.075-0.411-0.002-0.564 0.033-0.069 0.109-0.093 0.141-0.149 0.066-0.121 0.050-0.203 0.131-0.307 0.087-0.112 0.205-0.139 0.303-0.226 0.101-0.093 0.099-0.165 0.164-0.283 0.048-0.085 0.158-0.228 0.263-0.303 0.055 0.343 0.087 0.739 0.087 1.141 0 0.692-0.093 1.363-0.268 2-0.128-0.090-0.245-0.192-0.358-0.29z"></path>
</svg>
