<?xml version="1.0" encoding="utf-8"?>
<!-- Generated by IcoMoon.io -->
<!DOCTYPE svg PUBLIC "-//W3C//DTD SVG 1.1//EN" "http://www.w3.org/Graphics/SVG/1.1/DTD/svg11.dtd">
<svg version="1.1" xmlns="http://www.w3.org/2000/svg" xmlns:xlink="http://www.w3.org/1999/xlink" width="32" height="32" viewBox="0 0 32 32">
<path fill="#fff" d="M7.397 16c0 0.031 0.002 0.061 0.002 0.091v-0.182c0 0.031-0.002 0.061-0.002 0.092zM24.603 16c0-0.002 0-0.005 0-0.008 0-2.475-1.096-4.694-2.828-6.199l-4.772 6.058 4.229 6.79c2.044-1.498 3.371-3.914 3.371-6.641zM21.028 9.213c-1.298-0.904-2.908-1.444-4.644-1.444-0.004 0-0.007 0-0.011 0-4.335 0-7.887 3.354-8.205 7.608h8.020l4.839-6.164zM8.15 16.309c0.163 4.402 3.781 7.92 8.222 7.92 1.483 0 2.875-0.395 4.076-1.082l-4.257-6.838h-8.043z"></path>
</svg>
