<?xml version="1.0" encoding="utf-8"?>
<!-- Generated by IcoMoon.io -->
<!DOCTYPE svg PUBLIC "-//W3C//DTD SVG 1.1//EN" "http://www.w3.org/Graphics/SVG/1.1/DTD/svg11.dtd">
<svg version="1.1" xmlns="http://www.w3.org/2000/svg" xmlns:xlink="http://www.w3.org/1999/xlink" width="32" height="32" viewBox="0 0 32 32">
<path fill="#fff" d="M22.019 9.062c-0.547-0.264-1.189-0.418-1.868-0.418-1.741 0-3.246 1.016-3.952 2.488-0.085 0.186-0.149 0.374-0.195 0.57-0.054-0.195-0.118-0.383-0.2-0.562-0.71-1.477-2.214-2.492-3.954-2.492-2.419 0-4.381 1.961-4.381 4.381 0 0.677 0.154 1.318 0.428 1.89 1.020 2.163 8.102 8.438 8.102 8.438l0.001-0.020 0.002 0.020s7.083-6.275 8.113-8.464c0.264-0.547 0.418-1.189 0.418-1.866 0-1.741-1.016-3.245-2.487-3.952z"></path>
</svg>
