<?xml version="1.0" encoding="utf-8"?>
<!-- Generated by IcoMoon.io -->
<!DOCTYPE svg PUBLIC "-//W3C//DTD SVG 1.1//EN" "http://www.w3.org/Graphics/SVG/1.1/DTD/svg11.dtd">
<svg version="1.1" xmlns="http://www.w3.org/2000/svg" xmlns:xlink="http://www.w3.org/1999/xlink" width="32" height="32" viewBox="0 0 32 32">
<path fill="#fff" d="M23.183 19.163h-14.366l-1.067 2.078h16.499l-1.067-2.078zM14.202 20.741l0.443-0.841h2.756l0.399 0.841h-3.597zM22.937 18.681c0-0.013-0.003-0.026-0.004-0.038 0-0.013 0.002-0.026 0.002-0.038v-8.597c0-0.218-0.177-0.395-0.395-0.395h-13.083c-0.218 0-0.395 0.177-0.395 0.395v8.597c0 0.013 0.002 0.026 0.003 0.038 0 0.013-0.003 0.026-0.003 0.038l-0.004 0.006 13.877-0.008zM21.951 18.014h-11.903v-7.415h11.904v7.417zM24.49 21.714h-16.982l-0.041 0.080c0 0.219 0.176 0.593 0.395 0.593h16.277c0.219 0 0.395-0.373 0.395-0.592l-0.041-0.081z"></path>
</svg>
