<?xml version="1.0" encoding="utf-8"?>
<!-- Generated by IcoMoon.io -->
<!DOCTYPE svg PUBLIC "-//W3C//DTD SVG 1.1//EN" "http://www.w3.org/Graphics/SVG/1.1/DTD/svg11.dtd">
<svg version="1.1" xmlns="http://www.w3.org/2000/svg" xmlns:xlink="http://www.w3.org/1999/xlink" width="32" height="32" viewBox="0 0 32 32">
<path fill="#fff" d="M18.925 12.334c1.052 0.864 1.718 2.166 1.718 3.622 0 0.020 0 0.040 0 0.060l3.768 1.426c0.599-3.481-1.027-7.003-4.085-8.796l-1.399 3.687zM12.444 12.903c0.856-0.988 2.111-1.611 3.511-1.618l1.407-3.709c-3.387-0.551-6.803 1.003-8.612 3.925l3.694 1.401zM12.868 19.427c-0.957-0.86-1.557-2.103-1.557-3.485 0-0.034 0-0.069 0.001-0.103l-3.7-1.399c-0.091 0.469-0.144 1.008-0.144 1.56 0 3.018 1.566 5.671 3.929 7.19l1.47-3.763zM19.538 18.963c-0.863 1.013-2.14 1.652-3.566 1.652-0.065 0-0.129-0.001-0.193-0.004l-1.417 3.763c3.518 0.693 7.113-0.908 8.954-3.979l-3.776-1.431z"></path>
</svg>
