<?xml version="1.0" encoding="utf-8"?>
<!-- Generated by IcoMoon.io -->
<!DOCTYPE svg PUBLIC "-//W3C//DTD SVG 1.1//EN" "http://www.w3.org/Graphics/SVG/1.1/DTD/svg11.dtd">
<svg version="1.1" xmlns="http://www.w3.org/2000/svg" xmlns:xlink="http://www.w3.org/1999/xlink" width="32" height="32" viewBox="0 0 32 32">
<path fill="#fff" d="M23.213 9.9h-9.517v2.948h9.517v-2.947zM23.213 14.548h-9.517v2.948h9.517v-2.948zM13.696 19.196v2.948h9.517v-2.947h-9.517zM10.331 9.856c-0.853 0-1.544 0.691-1.544 1.544s0.691 1.544 1.544 1.544c0.853 0 1.544-0.691 1.544-1.544s-0.691-1.544-1.544-1.544zM10.331 14.295c-0.853 0-1.544 0.691-1.544 1.544s0.691 1.544 1.544 1.544c0.853 0 1.544-0.691 1.544-1.544s-0.691-1.544-1.544-1.544zM10.331 19.045c-0.853 0-1.544 0.691-1.544 1.544s0.691 1.544 1.544 1.544c0.853 0 1.544-0.691 1.544-1.544s-0.691-1.544-1.544-1.544z"></path>
</svg>
