<?xml version="1.0" encoding="utf-8"?>
<!-- Generated by IcoMoon.io -->
<!DOCTYPE svg PUBLIC "-//W3C//DTD SVG 1.1//EN" "http://www.w3.org/Graphics/SVG/1.1/DTD/svg11.dtd">
<svg version="1.1" xmlns="http://www.w3.org/2000/svg" xmlns:xlink="http://www.w3.org/1999/xlink" width="32" height="32" viewBox="0 0 32 32">
<path fill="#fff" d="M24.3 21.845l-4.217-4.218c0.567-0.959 0.904-2.113 0.911-3.344 0.024-3.737-2.985-6.784-6.72-6.807h-0.045c-3.716 0-6.74 2.999-6.763 6.72-0.025 3.735 2.984 6.782 6.72 6.807h0.044c1.242 0 2.405-0.336 3.406-0.922l4.213 4.213c0.144 0.145 0.343 0.234 0.563 0.234s0.419-0.089 0.563-0.234l1.323-1.323c0.144-0.144 0.233-0.343 0.233-0.563s-0.089-0.419-0.233-0.563zM14.199 19.276c-2.779-0.018-5.025-2.293-5.008-5.070 0.018-2.761 2.278-5.008 5.038-5.008h0.034c1.392 0.006 2.649 0.578 3.553 1.498 0.899 0.905 1.454 2.151 1.454 3.526 0 0.017 0 0.034 0 0.050-0.006 1.384-0.574 2.636-1.488 3.54-0.906 0.905-2.157 1.464-3.538 1.464-0.004 0-0.008 0-0.013 0h-0.032z"></path>
</svg>
