<?xml version="1.0" encoding="utf-8"?>
<!-- Generated by IcoMoon.io -->
<!DOCTYPE svg PUBLIC "-//W3C//DTD SVG 1.1//EN" "http://www.w3.org/Graphics/SVG/1.1/DTD/svg11.dtd">
<svg version="1.1" xmlns="http://www.w3.org/2000/svg" xmlns:xlink="http://www.w3.org/1999/xlink" width="32" height="32" viewBox="0 0 32 32">
<path fill="#fff" d="M22.156 25.004h-14.189v-16.064h3.825v12.24h10.365v3.824zM9.034 23.938h12.056v-1.691h-10.364v-12.24h-1.692v13.931z"></path>
<path fill="#fff" d="M19.346 6.996h-8.436v14.997h13.124v-10.309l-4.688-4.688zM19.346 9.808v-1.486l3.363 3.361h-3.36v-1.875zM23.095 21.056h-11.248v-13.122h6.562v4.687h4.687v8.435z"></path>
<path fill="#fff" d="M14.525 14.545h7.633v0.803h-7.633zM14.525 16.152h7.633v0.803h-7.633zM14.525 17.759h7.633v0.803h-7.633zM14.525 19.365h3.817v0.804h-3.815zM12.784 8.402h0.469v11.717h-0.469z"></path>
</svg>
