<?xml version="1.0" encoding="utf-8"?>
<!-- Generated by IcoMoon.io -->
<!DOCTYPE svg PUBLIC "-//W3C//DTD SVG 1.1//EN" "http://www.w3.org/Graphics/SVG/1.1/DTD/svg11.dtd">
<svg version="1.1" xmlns="http://www.w3.org/2000/svg" xmlns:xlink="http://www.w3.org/1999/xlink" width="32" height="32" viewBox="0 0 32 32">
<path fill="#fff" d="M10.876 23.774c-0.865 0-1.739-0.341-2.403-1.006-0.618-0.614-1.002-1.463-1.006-2.401 0-0.005 0-0.010 0-0.015 0-0.874 0.353-1.665 0.924-2.238l0.142-0.141 8.529-8.532c0.811-0.812 1.889-1.216 2.963-1.214 1.243 0.005 2.366 0.513 3.177 1.33 0.818 0.812 1.325 1.935 1.33 3.176 0.001 1.075-0.402 2.153-1.214 2.965l-7.694 7.694-1.066-1.067 7.694-7.693c0.515-0.517 0.772-1.192 0.773-1.899 0-0.748-0.293-1.515-0.889-2.11-0.539-0.545-1.285-0.885-2.111-0.89-0.706 0-1.381 0.256-1.897 0.773l-8.673 8.67c-0.32 0.322-0.48 0.741-0.481 1.187 0.004 0.524 0.219 0.997 0.565 1.338 0.341 0.346 0.813 0.561 1.336 0.564 0.005 0 0.011 0 0.016 0 0.457 0 0.871-0.184 1.172-0.483l6.539-6.54c0.121-0.122 0.181-0.277 0.182-0.455 0-0.187-0.073-0.384-0.229-0.542-0.138-0.141-0.329-0.228-0.541-0.229-0.004 0-0.008 0-0.012 0-0.173 0-0.33 0.070-0.445 0.183l-5.563 5.563-1.064-1.063 5.563-5.563c0.387-0.386 0.921-0.624 1.51-0.624 0.004 0 0.007 0 0.011 0 0.581 0 1.164 0.228 1.607 0.672 0.412 0.41 0.668 0.978 0.671 1.605 0 0.003 0 0.006 0 0.009 0 0.59-0.238 1.124-0.624 1.512l-0.507 0.506-6.036 6.035c-0.573 0.571-1.364 0.924-2.236 0.924-0.004 0-0.008 0-0.012 0h-0.005z"></path>
</svg>
