<?xml version="1.0" encoding="utf-8"?>
<!-- Generated by IcoMoon.io -->
<!DOCTYPE svg PUBLIC "-//W3C//DTD SVG 1.1//EN" "http://www.w3.org/Graphics/SVG/1.1/DTD/svg11.dtd">
<svg version="1.1" xmlns="http://www.w3.org/2000/svg" xmlns:xlink="http://www.w3.org/1999/xlink" width="32" height="32" viewBox="0 0 32 32">
<path fill="#fff" d="M23.348 13.763c0.979-1.226 1.987-3.495 0.209-5.261-0.639-0.631-1.383-0.952-2.213-0.952-1.289 0-2.437 0.789-3.001 1.248l-0.021-0.021-0.34 0.343-0.341 0.343h0.001l-0.965 0.971-0.005-0.004-0.334 0.347-0.341 0.344 0.005 0.005-6.325 6.562-1.529 1.536-0.048 2.389-0.631 2.839 2.729-0.403 2.509 0.262 1.403-1.328 0.009 0.008 0.345-0.343 0.349-0.331-0.007-0.007 6.979-6.923 0.908-0.914 0.006 0.006 0.336-0.352 0.338-0.34-0.021-0.021zM19.229 14.255l-6.219 6.187-1.193-1.243 6.176-6.147 1.236 1.2zM17.299 12.38l-6.151 6.123-0.459-0.478 6.006-6.23 0.603 0.586zM13.438 22.284l-1.075 1.019-1.933-0.203-1.36-1.604 0.036-1.869 0.909-0.913 3.426 3.57zM14.131 21.612l-0.452-0.472 6.243-6.213 0.481 0.467-6.272 6.219zM21.087 14.711l-3.715-3.607 0.957-0.963 3.675 3.648-0.917 0.923z"></path>
</svg>
