<?xml version="1.0" encoding="utf-8"?>
<!-- Generated by IcoMoon.io -->
<!DOCTYPE svg PUBLIC "-//W3C//DTD SVG 1.1//EN" "http://www.w3.org/Graphics/SVG/1.1/DTD/svg11.dtd">
<svg version="1.1" xmlns="http://www.w3.org/2000/svg" xmlns:xlink="http://www.w3.org/1999/xlink" width="32" height="32" viewBox="0 0 32 32">
<path fill="#fff" d="M11.817 12.427c1.371 0 2.48-1.109 2.48-2.48s-1.109-2.48-2.48-2.48c-1.37 0-2.48 1.11-2.48 2.48s1.11 2.48 2.48 2.48zM14.352 12.843h-5.070c-0.553 0-1.003 0.45-1.003 1.003v5.252h1.433v5.436h4.209v-5.436h1.433v-5.252c0-0.554-0.449-1.003-1.003-1.003zM20.183 12.427c1.371 0 2.48-1.109 2.48-2.48s-1.109-2.48-2.48-2.48c-1.37 0-2.48 1.11-2.48 2.48s1.11 2.48 2.48 2.48zM22.718 12.843h-5.070c-0.553 0-1.003 0.45-1.003 1.003v5.252h1.433v5.436h4.211v-5.436h1.435v-5.252c0-0.554-0.449-1.003-1.003-1.003z"></path>
</svg>
