<?xml version="1.0" encoding="utf-8"?>
<!-- Generated by IcoMoon.io -->
<!DOCTYPE svg PUBLIC "-//W3C//DTD SVG 1.1//EN" "http://www.w3.org/Graphics/SVG/1.1/DTD/svg11.dtd">
<svg version="1.1" xmlns="http://www.w3.org/2000/svg" xmlns:xlink="http://www.w3.org/1999/xlink" width="32" height="32" viewBox="0 0 32 32">
<path fill="#fff" d="M24.277 24.533c0-1.661-0.117-2.839-0.71-3.616-0.546-0.713-1.521-1.171-2.189-1.388-2.561-0.828-3.842-0.526-3.842-1.053s-0.080-1.28 0.118-1.408c0.447-0.29 0.754-0.619 1.108-1.072 0.354-0.451 0.64-0.99 0.838-1.588s0.307-1.255 0.307-1.945c0-0.006 0-0.013 0-0.020 0-0.689-0.112-1.352-0.32-1.971-0.188-0.564-0.473-1.091-0.835-1.556-0.345-0.44-0.767-0.806-1.235-1.059-0.44-0.245-0.964-0.39-1.523-0.391-0.559 0.002-1.084 0.147-1.54 0.401-0.452 0.244-0.873 0.61-1.227 1.063s-0.64 0.99-0.838 1.588-0.308 1.255-0.308 1.945c0 0.688 0.109 1.346 0.308 1.943 0.201 0.608 0.486 1.135 0.847 1.6 0.345 0.44 0.663 0.774 1.104 1.059 0.197 0.128 0.123 0.882 0.123 1.41s-1.28 0.226-3.842 1.054c-0.668 0.217-1.644 0.672-2.189 1.387-0.593 0.777-0.71 1.956-0.71 3.617h16.555z"></path>
</svg>
