<?xml version="1.0" encoding="utf-8"?>
<!-- Generated by IcoMoon.io -->
<!DOCTYPE svg PUBLIC "-//W3C//DTD SVG 1.1//EN" "http://www.w3.org/Graphics/SVG/1.1/DTD/svg11.dtd">
<svg version="1.1" xmlns="http://www.w3.org/2000/svg" xmlns:xlink="http://www.w3.org/1999/xlink" width="32" height="32" viewBox="0 0 32 32">
<path fill="#fff" d="M10.667 20.733h10.667v3.2h-10.667zM11.067 8.067h9.867v5.244h-9.867z"></path>
<path fill="#fff" d="M23.467 12.2h-1.067v2.133h-12.8v-2.133h-1.067c-0.589 0-1.067 0.478-1.067 1.067v7.467c0 0.589 0.478 1.067 1.067 1.067h1.067v-2.133h12.8v2.133h1.067c0.589 0 1.067-0.478 1.067-1.067v-7.467c0-0.589-0.478-1.067-1.067-1.067zM11.23 16.467h-1.6v-1.067h1.6v1.067zM12.83 16.467h-1.067v-1.067h1.067v1.067z"></path>
</svg>
