<?xml version="1.0" encoding="utf-8"?>
<!-- Generated by IcoMoon.io -->
<!DOCTYPE svg PUBLIC "-//W3C//DTD SVG 1.1//EN" "http://www.w3.org/Graphics/SVG/1.1/DTD/svg11.dtd">
<svg version="1.1" xmlns="http://www.w3.org/2000/svg" xmlns:xlink="http://www.w3.org/1999/xlink" width="32" height="32" viewBox="0 0 32 32">
<path fill="#fff" d="M21.366 16.636c0-0.297-0.24-0.537-0.537-0.537h-1.82l-1.5-4.041c0.486-0.433 0.791-1.060 0.791-1.759 0-0.001 0-0.002 0-0.003 0-1.098-0.751-2.021-1.767-2.283l-0.016-1.347h-1.275v1.38c-0.967 0.309-1.654 1.2-1.654 2.251 0 0.699 0.304 1.328 0.788 1.759l-1.499 4.044h-1.708c-0.296 0-0.537 0.24-0.537 0.537s0.24 0.537 0.537 0.537h1.311l-0.366 0.985 0.186 0.8-1.374 3.7 0.391 2.675 3.029-8.16h3.193l3.029 8.16 0.392-2.676-1.372-3.7 0.186-0.8-0.366-0.985h1.422c0.297 0 0.538-0.24 0.538-0.536zM15.942 8.96c0.011 0 0.024-0.001 0.037-0.001 0.704 0 1.275 0.571 1.275 1.275s-0.571 1.275-1.275 1.275c-0.013 0-0.026 0-0.039-0.001-0.702 0-1.273-0.571-1.273-1.275s0.571-1.275 1.275-1.275zM15.942 12.654l0.048-0.002-0.048 0.077-0.048-0.077 0.048 0.002zM14.745 16.1l1.197-3.227 1.198 3.227h-2.397z"></path>
</svg>
