<?xml version="1.0" encoding="utf-8"?>
<!-- Generated by IcoMoon.io -->
<!DOCTYPE svg PUBLIC "-//W3C//DTD SVG 1.1//EN" "http://www.w3.org/Graphics/SVG/1.1/DTD/svg11.dtd">
<svg version="1.1" xmlns="http://www.w3.org/2000/svg" xmlns:xlink="http://www.w3.org/1999/xlink" width="32" height="32" viewBox="0 0 32 32">
<path fill="#fff" d="M21.211 14.089c-0.363 0-0.944 0.108-0.944 0.287v-2.836c0-0.633-0.409-0.873-1.043-0.873h-2.963c0.178 0 0.286-0.729 0.286-1.093 0-1.038-0.842-1.932-1.88-1.932s-1.88 0.92-1.88 1.958c0 0.364 0.108 1.067 0.287 1.067h-2.836c-0.634 0-1.172 0.24-1.172 0.873v3.149c0.533-0.367 0.841-0.6 1.382-0.6 0 0 0.001 0 0.001 0 1.039 0 1.882 0.841 1.885 1.88 0 1.039-0.852 1.88-1.89 1.88-0.542 0-0.846-0.233-1.38-0.6v3.277c0.001 0.633 0.54 1.341 1.173 1.341h2.801c-0.156 0.533-0.252 0.425-0.252 0.763 0 1.039 0.842 1.8 1.88 1.8s1.88-0.721 1.88-1.759c0-0.338-0.096-0.27-0.252-0.803h2.928c0.635-0.001 1.044-0.708 1.044-1.341v-2.963c0 0.178 0.581 0.286 0.944 0.286 1.038 0 1.88-0.842 1.88-1.88s-0.842-1.88-1.88-1.88z"></path>
</svg>
