<?xml version="1.0" encoding="utf-8"?>
<!-- Generated by IcoMoon.io -->
<!DOCTYPE svg PUBLIC "-//W3C//DTD SVG 1.1//EN" "http://www.w3.org/Graphics/SVG/1.1/DTD/svg11.dtd">
<svg version="1.1" xmlns="http://www.w3.org/2000/svg" xmlns:xlink="http://www.w3.org/1999/xlink" width="32" height="32" viewBox="0 0 32 32">
<path fill="#fff" d="M16 7.467c-4.713 0-8.533 3.821-8.533 8.533s3.82 8.533 8.533 8.533c4.713 0 8.533-3.82 8.533-8.533s-3.821-8.533-8.533-8.533zM16 23.061c-3.893 0-7.061-3.168-7.061-7.061s3.168-7.061 7.061-7.061 7.061 3.168 7.061 7.061-3.168 7.061-7.061 7.061zM14.982 21.595h2.196v-2.123h-2.196v2.123zM18.652 11.451c-0.733-0.528-1.652-0.793-2.758-0.793-0.843 0-1.552 0.187-2.13 0.558-0.916 0.582-1.403 1.572-1.461 2.967h2.123c0-0.406 0.118-0.798 0.356-1.175 0.237-0.376 0.639-0.565 1.205-0.565 0.576 0 0.973 0.155 1.19 0.459 0.217 0.308 0.326 0.645 0.326 1.019 0 0.323-0.098 0.619-0.293 0.889-0.119 0.168-0.259 0.312-0.419 0.43l-0.538 0.422c-0.528 0.411-0.853 0.775-0.981 1.091s-0.205 0.887-0.235 1.714h1.991c0.005-0.392 0.036-0.681 0.095-0.867 0.093-0.295 0.281-0.552 0.565-0.772l0.519-0.404c0.528-0.411 0.884-0.749 1.069-1.013 0.317-0.436 0.476-0.972 0.476-1.609 0-1.038-0.366-1.822-1.099-2.35z"></path>
</svg>
