<?xml version="1.0" encoding="utf-8"?>
<!-- Generated by IcoMoon.io -->
<!DOCTYPE svg PUBLIC "-//W3C//DTD SVG 1.1//EN" "http://www.w3.org/Graphics/SVG/1.1/DTD/svg11.dtd">
<svg version="1.1" xmlns="http://www.w3.org/2000/svg" xmlns:xlink="http://www.w3.org/1999/xlink" width="32" height="32" viewBox="0 0 32 32">
<path fill="#fff" d="M20.267 8.596v2.604h2.133z"></path>
<path fill="#fff" d="M19.733 9.067h-10.133v14.4h12.8v-11.733h-2.667v-2.667zM17.067 21.333h-2.133v-2.133h2.133v2.133zM19.326 14.163c-0.062 0.246-0.154 0.462-0.273 0.659-0.106 0.171-0.232 0.329-0.375 0.469-0.134 0.13-0.276 0.252-0.425 0.366-0.162 0.12-0.312 0.232-0.462 0.339-0.154 0.111-0.29 0.227-0.416 0.352-0.126 0.128-0.133 0.269-0.228 0.424-0.093 0.155-0.080 0.336-0.080 0.542v0.82h-2.133v-0.919c0-0.31 0.080-0.578 0.16-0.804 0.082-0.229 0.181-0.427 0.302-0.611 0.105-0.163 0.233-0.314 0.369-0.44s0.277-0.246 0.418-0.359c0.141-0.112 0.274-0.219 0.396-0.317 0.121-0.098 0.227-0.204 0.322-0.32 0.092-0.116 0.168-0.243 0.224-0.381 0.058-0.15 0.089-0.311 0.089-0.479 0-0.009 0-0.017 0-0.026 0-0.431-0.107-0.751-0.318-0.957s-0.507-0.309-0.882-0.309c-0.254 0-0.473 0.049-0.656 0.147s-0.333 0.232-0.449 0.392c-0.12 0.168-0.205 0.54-0.262 0.76s-0.084 0.891-0.084 0.891h-2.074c0.009-0.533 0.096-1.152 0.261-1.573 0.163-0.423 0.394-0.88 0.69-1.189s0.653-0.597 1.072-0.771c0.414-0.178 0.896-0.282 1.403-0.283 0.666 0 1.224 0.080 1.669 0.263s0.805 0.405 1.078 0.678c0.272 0.272 0.467 0.563 0.585 0.877s0.178 0.607 0.178 0.88c0 0.339-0.033 0.631-0.099 0.88z"></path>
</svg>
