<?xml version="1.0" encoding="utf-8"?>
<!-- Generated by IcoMoon.io -->
<!DOCTYPE svg PUBLIC "-//W3C//DTD SVG 1.1//EN" "http://www.w3.org/Graphics/SVG/1.1/DTD/svg11.dtd">
<svg version="1.1" xmlns="http://www.w3.org/2000/svg" xmlns:xlink="http://www.w3.org/1999/xlink" width="32" height="32" viewBox="0 0 32 32">
<path fill="#fff" d="M10.903 19.17c-1.063 0-1.925 0.863-1.925 1.926s0.862 1.926 1.926 1.926c0 0 0.001 0 0.001 0 1.063 0 1.925-0.863 1.925-1.926s-0.862-1.926-1.926-1.926c0 0-0.001 0-0.001 0zM8.978 13.713v2.731c3.634 0 6.581 2.946 6.581 6.581h2.728c0-5.141-4.168-9.31-9.309-9.31zM8.978 8.979v2.807c6.205 0 11.236 5.030 11.236 11.236h2.809c0-7.757-6.288-14.045-14.044-14.045z"></path>
</svg>
