<?xml version="1.0" encoding="utf-8"?>
<!-- Generated by IcoMoon.io -->
<!DOCTYPE svg PUBLIC "-//W3C//DTD SVG 1.1//EN" "http://www.w3.org/Graphics/SVG/1.1/DTD/svg11.dtd">
<svg version="1.1" xmlns="http://www.w3.org/2000/svg" xmlns:xlink="http://www.w3.org/1999/xlink" width="32" height="32" viewBox="0 0 32 32">
<path fill="#fff" d="M20.876 7.467l-13.41 13.41 3.657 3.657 13.41-13.41-3.657-3.657zM20.226 9.036l1.184 1.184-0.474 0.474-1.184-1.184 0.474-0.472zM11.179 22.172l-2.045-2.044 0.474-0.474 2.045 2.045-0.474 0.474zM11.501 20.128l-1.184-1.184 0.475-0.474 1.184 1.184-0.475 0.474zM13.546 19.805l-2.046-2.045 0.474-0.473 2.045 2.045-0.474 0.474zM13.867 17.76l-1.184-1.184 0.474-0.472 1.184 1.184-0.473 0.474zM15.911 17.439l-2.045-2.045 0.474-0.474 2.045 2.045-0.474 0.473zM16.234 15.394l-1.184-1.184 0.475-0.474 1.184 1.184-0.475 0.474zM18.279 15.071l-2.045-2.045 0.475-0.474 2.045 2.045-0.474 0.474zM18.602 13.026l-1.184-1.184 0.475-0.474 1.184 1.184-0.475 0.474zM20.612 12.739l-2.045-2.045 0.474-0.473 2.046 2.045-0.474 0.473z"></path>
</svg>
