<?xml version="1.0" encoding="utf-8"?>
<!-- Generated by IcoMoon.io -->
<!DOCTYPE svg PUBLIC "-//W3C//DTD SVG 1.1//EN" "http://www.w3.org/Graphics/SVG/1.1/DTD/svg11.dtd">
<svg version="1.1" xmlns="http://www.w3.org/2000/svg" xmlns:xlink="http://www.w3.org/1999/xlink" width="32" height="32" viewBox="0 0 32 32">
<path fill="#fff" d="M7.467 17.115c0 2.322 2.359 4.231 5.378 4.453 0.703 1.514 3.575 1.515 3.575 1.515-0.894-0.447-1.248-1.157-1.391-1.659 2.52-0.523 4.373-2.252 4.373-4.309 0-2.473-2.672-4.477-5.968-4.477s-5.967 2.005-5.967 4.477zM21.116 8.917c-1.888 0-3.418 1.147-3.418 2.563 0 1.179 1.061 2.169 2.505 2.468-0.12 0.421-0.408 0.76-0.786 0.945s1.636 0.004 2.038-0.863c1.728-0.128 3.079-1.22 3.079-2.55 0-1.415-1.531-2.563-3.417-2.563z"></path>
</svg>
