<svg style="position: absolute; width: 0; height: 0; overflow: hidden;" version="1.1" xmlns="http://www.w3.org/2000/svg" xmlns:xlink="http://www.w3.org/1999/xlink">
<defs>
<symbol id="icon-check" viewBox="0 0 32 32">
<title>check</title>
<path class="path1"  d="M10.773 13.86l3.595 3.595 10.78-10.542"></path>
<path class="path2" fill="none" stroke="#f37e1f" stroke-width="0.7111" stroke-miterlimit="10" stroke-linecap="butt" stroke-linejoin="miter" d="M22.044 13.618v10.784h-13.579c-0.891 0-1.614 0.723-1.614 1.614v0.128c0 0.892 0.723 1.614 1.614 1.614h13.579"></path>
<path class="path3" fill="none" stroke="#f37e1f" stroke-width="0.7111" stroke-miterlimit="10" stroke-linecap="butt" stroke-linejoin="miter" d="M7.303 24.889v-16.828c0-2.107 1.708-3.815 3.815-3.815h10.926v5.867"></path>
</symbol>
<symbol id="icon-line-graph" viewBox="0 0 32 32">
<title>line-graph</title>
<path class="path1" fill="none" stroke="#000" stroke-width="0.7111" stroke-miterlimit="10" stroke-linecap="butt" stroke-linejoin="miter" d="M3.765 9.554l5.163 6.564 4.964-4.964 5.6 1.596 7.996-7.463"></path>
<path class="path2" d="M18.226 17.116l4.395 10.795 2.101-4.199 4.299-2.297-10.795-4.299z"></path>
<path class="path3" d="M2.052 7.278h3.424v3.424h-3.424v-3.424z"></path>
<path class="path4" d="M6.916 14.407h3.424v3.424h-3.424v-3.424z"></path>
<path class="path5" d="M12.203 9.397h3.424v3.424h-3.424v-3.424z"></path>
<path class="path6" d="M26.524 4.089h3.424v3.424h-3.424v-3.424z"></path>
<path class="path7" d="M17.6 11.108h3.424v3.424h-3.424v-3.424z"></path>
</symbol>
<symbol id="icon-handshake" viewBox="0 0 32 32">
<title>handshake</title>
<path class="path1" fill="none" stroke="#f37e1f" stroke-width="0.7111" stroke-miterlimit="10" stroke-linecap="butt" stroke-linejoin="miter" d="M0.683 14.741l3.022 2.933 9.774-9.806-3.598-3.527"></path>
<path class="path2" fill="none" stroke="#f37e1f" stroke-width="0.7111" stroke-miterlimit="10" stroke-linecap="butt" stroke-linejoin="miter" d="M5.888 15.563l12.039 12.096 7.644-7.701-7.883-7.883-3.317 3.495-2.133-2.012 9.301-9.067"></path>
<path class="path3" fill="none" stroke="#f37e1f" stroke-width="0.7111" stroke-miterlimit="10" stroke-linecap="butt" stroke-linejoin="miter" d="M17.892 8.046l9.614 9.877 3.812-3.716"></path>
<path class="path4" fill="none" stroke="#f37e1f" stroke-width="0.7111" stroke-miterlimit="10" stroke-linecap="butt" stroke-linejoin="miter" d="M8.053 17.739l-2.165 2.276 7.63 7.541 2.101-2.212"></path>
<path class="path5" fill="none" stroke="#f37e1f" stroke-width="0.7111" stroke-miterlimit="10" stroke-linecap="butt" stroke-linejoin="miter" d="M16.327 21.909l3.577 3.758"></path>
<path class="path6" fill="none" stroke="#f37e1f" stroke-width="0.7111" stroke-miterlimit="10" stroke-linecap="butt" stroke-linejoin="miter" d="M18.517 20.37l3.25 3.42"></path>
<path class="path7" fill="none" stroke="#f37e1f" stroke-width="0.7111" stroke-miterlimit="10" stroke-linecap="butt" stroke-linejoin="miter" d="M20.142 18.236l3.488 3.673"></path>
</symbol>
<symbol id="icon-n-globe-2" viewBox="0 0 32 32">
<title>n-globe-2</title>
<path class="path1" fill="none" stroke="#f37e1f" stroke-width="0.7111" stroke-miterlimit="10" stroke-linecap="butt" stroke-linejoin="miter" d="M27.755 16c0 6.492-5.263 11.755-11.755 11.755s-11.755-5.263-11.755-11.755c0-6.492 5.263-11.755 11.755-11.755s11.755 5.263 11.755 11.755z"></path>
<path class="path2" fill="none" stroke="#f37e1f" stroke-width="0.7111" stroke-miterlimit="10" stroke-linecap="butt" stroke-linejoin="miter" d="M5.035 11.772h21.618"></path>
<path class="path3" fill="none" stroke="#f37e1f" stroke-width="0.7111" stroke-miterlimit="10" stroke-linecap="butt" stroke-linejoin="miter" d="M5.035 19.495h22.19"></path>
<path class="path4" fill="none" stroke="#f37e1f" stroke-width="0.7111" stroke-miterlimit="10" stroke-linecap="butt" stroke-linejoin="miter" d="M16 4.245v23.509"></path>
<path class="path5" fill="none" stroke="#f37e1f" stroke-width="0.7111" stroke-miterlimit="10" stroke-linecap="butt" stroke-linejoin="miter" d="M17.817 4.388s10.069 10.19-0.395 23.278"></path>
<path class="path6" fill="none" stroke="#f37e1f" stroke-width="0.7111" stroke-miterlimit="10" stroke-linecap="butt" stroke-linejoin="miter" d="M14.030 4.388s-10.073 10.19 0.391 23.278"></path>
</symbol>
<symbol id="icon-checkmark2" viewBox="0 0 32 32">
<title>checkmark2</title>
<path class="path1" d="M15.14 17.291c1.721-3.442 4.302-4.732 4.302-4.732v0.43c-2.581 2.581-3.872 6.453-3.872 6.453l-3.012-3.012 0.43-0.86z"></path>
</symbol>
<symbol id="icon-06" viewBox="0 0 32 32">
<title>06</title>
<path class="path1" fill="none" stroke="#f2f2f2" stroke-width="0.3556" stroke-miterlimit="10" stroke-linecap="butt" stroke-linejoin="miter" d="M17.803 15.612c0 0.868-0.704 1.572-1.572 1.572s-1.572-0.704-1.572-1.572c0-0.868 0.704-1.572 1.572-1.572s1.572 0.704 1.572 1.572z"></path>
<path class="path2" fill="none" stroke="#f2f2f2" stroke-width="0.3556" stroke-miterlimit="10" stroke-linecap="butt" stroke-linejoin="miter" d="M13.532 18.844s0.42-1.6 2.699-1.66"></path>
<path class="path3" fill="none" stroke="#f2f2f2" stroke-width="0.3556" stroke-miterlimit="10" stroke-linecap="butt" stroke-linejoin="miter" d="M19.15 18.844s-0.42-1.6-2.699-1.66"></path>
<path class="path4" fill="none" stroke="#f2f2f2" stroke-width="0.3556" stroke-miterlimit="10" stroke-linecap="butt" stroke-linejoin="miter" d="M9.582 17.273s0.42-1.6 2.699-1.66"></path>
<path class="path5" fill="none" stroke="#f2f2f2" stroke-width="0.3556" stroke-miterlimit="10" stroke-linecap="butt" stroke-linejoin="miter" d="M15.2 17.273c-0.157-0.456-0.446-0.832-0.821-1.094-0.52-0.357-1.153-0.567-1.836-0.567-0.013 0-0.027 0-0.040 0"></path>
<path class="path6" fill="none" stroke="#f2f2f2" stroke-width="0.3556" stroke-miterlimit="10" stroke-linecap="butt" stroke-linejoin="miter" d="M13.621 14.386c0 0.679-0.551 1.23-1.23 1.23s-1.23-0.551-1.23-1.23c0-0.679 0.551-1.23 1.23-1.23s1.23 0.551 1.23 1.23z"></path>
<path class="path7" fill="none" stroke="#f2f2f2" stroke-width="0.3556" stroke-miterlimit="10" stroke-linecap="butt" stroke-linejoin="miter" d="M17.273 16.924s0.384-1.465 2.471-1.518"></path>
<path class="path8" fill="none" stroke="#f2f2f2" stroke-width="0.3556" stroke-miterlimit="10" stroke-linecap="butt" stroke-linejoin="miter" d="M22.418 16.924c-0.145-0.417-0.41-0.762-0.754-1.002-0.475-0.325-1.054-0.517-1.678-0.517-0.014 0-0.027 0-0.041 0"></path>
<path class="path9" fill="none" stroke="#f2f2f2" stroke-width="0.3556" stroke-miterlimit="10" stroke-linecap="butt" stroke-linejoin="miter" d="M20.974 14.279c0 0.623-0.505 1.127-1.127 1.127s-1.127-0.505-1.127-1.127c0-0.623 0.505-1.127 1.127-1.127s1.127 0.505 1.127 1.127z"></path>
</symbol>
<symbol id="icon-07" viewBox="0 0 32 32">
<title>07</title>
<path class="path1" fill="none" stroke="#fff" stroke-width="0.7111" stroke-miterlimit="10" stroke-linecap="butt" stroke-linejoin="miter" d="M23.477 16c0 4.13-3.348 7.477-7.477 7.477s-7.477-3.348-7.477-7.477c0-4.13 3.348-7.477 7.477-7.477s7.477 3.348 7.477 7.477z"></path>
<path class="path2" fill="none" stroke="#fff" stroke-width="0.7111" stroke-miterlimit="10" stroke-linecap="butt" stroke-linejoin="miter" d="M9.024 13.308h13.753"></path>
<path class="path3" fill="none" stroke="#fff" stroke-width="0.7111" stroke-miterlimit="10" stroke-linecap="butt" stroke-linejoin="miter" d="M9.024 18.222h14.116"></path>
<path class="path4" fill="none" stroke="#fff" stroke-width="0.7111" stroke-miterlimit="10" stroke-linecap="butt" stroke-linejoin="miter" d="M16 8.523v14.955"></path>
<path class="path5" fill="none" stroke="#fff" stroke-width="0.7111" stroke-miterlimit="10" stroke-linecap="butt" stroke-linejoin="miter" d="M17.156 8.612s6.4 6.478-0.249 14.809"></path>
<path class="path6" fill="none" stroke="#fff" stroke-width="0.7111" stroke-miterlimit="10" stroke-linecap="butt" stroke-linejoin="miter" d="M14.745 8.612s-6.4 6.478 0.249 14.809"></path>
</symbol>
<symbol id="icon-08" viewBox="0 0 32 32">
<title>08</title>
<path class="path1" fill="none" stroke="#fff" stroke-width="0.3556" stroke-miterlimit="10" stroke-linecap="butt" stroke-linejoin="miter" d="M10.453 12.825h3.104c0.87 0 1.575 0.705 1.575 1.575v4.828h-4.679v-6.4cz"></path>
<path class="path2" fill="none" stroke="#fff" stroke-width="0.3556" stroke-miterlimit="10" stroke-linecap="butt" stroke-linejoin="miter" d="M17.54 12.825h-0.846c-0.87 0-1.575 0.705-1.575 1.575v4.828h4.679v-3.502"></path>
<path class="path3" fill="none" stroke="#fff" stroke-width="0.3556" stroke-miterlimit="10" stroke-linecap="butt" stroke-linejoin="miter" d="M20.661 14.162c0 1.021-0.828 1.849-1.849 1.849s-1.849-0.828-1.849-1.849c0-1.021 0.828-1.849 1.849-1.849s1.849 0.828 1.849 1.849z"></path>
<path class="path4" fill="none" stroke="#fff" stroke-width="0.3556" stroke-miterlimit="10" stroke-linecap="butt" stroke-linejoin="miter" d="M19.918 15.644l1.628 1.465"></path>
<path class="path5"   stroke="#fff" stroke-width="0.3556" stroke-miterlimit="10" stroke-linecap="butt" stroke-linejoin="miter" d="M14.578 19.228c0.235 0.089 0.426 0.249 0.552 0.454 0.133-0.203 0.323-0.363 0.55-0.451"></path>
</symbol>
<symbol id="icon-angle-brackets" viewBox="0 0 32 32">
<title>angle-brackets</title>
<path class="path1"   d="M12.883 10.584l-5.416 5.416 5.416 5.416 1.847-1.846-3.57-3.57 3.569-3.569-1.846-1.847zM19.117 10.584l-1.846 1.846 3.57 3.57-3.571 3.569 1.846 1.846 5.417-5.415-5.416-5.416z"></path>
</symbol>
<symbol id="icon-apple" viewBox="0 0 32 32">
<title>apple</title>
<path class="path1"   d="M20.171 12.016c-1.919-0.658-3.081 0.139-3.808 0.788-0.027-0.449-0.066-1.33-0.098-2.214 0.068-0.175 0.172-0.047 0.315 0.030 3.966 2.069 5.785-2.873 5.785-2.873s-1.168 0.454-2.475 0.052c-1.842-0.609-3.195-0.199-3.667 0.704 0-0.128 0.003-0.244 0.006-0.341 0.037-0.977-1.773-0.896-1.664 0.058 0.033 0.296 0.365 2.096 0.866 4.407-0.736-0.604-1.856-1.211-3.603-0.612-2.528 0.866-2.951 4.032-2.123 7.268 0.82 3.203 3.148 7.189 6.293 4.187 3.058 2.677 5.488-1.049 6.292-4.187 0.829-3.235 0.406-6.402-2.121-7.267z"></path>
</symbol>
<symbol id="icon-arrow-down" viewBox="0 0 32 32">
<title>arrow-down</title>
<path class="path1"   d="M18.699 7.467v7.659h5.066l-7.764 9.408-7.764-9.408h5.065v-7.659z"></path>
</symbol>
<symbol id="icon-arrow-left" viewBox="0 0 32 32">
<title>arrow-left</title>
<path class="path1"   d="M24.533 13.301h-7.659v-5.066l-9.408 7.764 9.408 7.764v-5.066h7.659z"></path>
</symbol>
<symbol id="icon-arrow-right" viewBox="0 0 32 32">
<title>arrow-right</title>
<path class="path1" d="M7.467 13.301h7.659v-5.066l9.408 7.764-9.408 7.764v-5.066h-7.659z"></path>
</symbol>
<symbol id="icon-arrows-four" viewBox="0 0 32 32">
<title>arrows-four</title>
<path class="path1"   d="M15.776 8.197c2.611 0.282 3.131 2.858 3.131 3.742h1.77l-3.098 2.893-3.097-2.893h1.771c0-0.816-0.506-2.059-1.566-2.265-1.726-0.336-2.442 1.527-2.442 1.527s0.859-3.293 3.532-3.005zM16.281 23.803c-2.61-0.282-3.131-2.858-3.131-3.742h-1.769l3.097-2.893 3.097 2.891h-1.771c0 0.816 0.506 2.059 1.566 2.266 1.728 0.336 2.443-1.529 2.443-1.529s-0.859 3.294-3.532 3.006zM12.366 12.64c-2.61 0.283-3.131 2.858-3.131 3.742h-1.769l3.098 2.893 3.097-2.892h-1.771c0.001-0.816 0.507-2.059 1.566-2.265 1.726-0.336 2.442 1.529 2.442 1.529s-0.859-3.295-3.532-3.007zM19.634 19.257c2.611-0.282 3.131-2.857 3.131-3.742l1.769 0.002-3.097-2.893-3.097 2.892 1.771 0.001c0 0.816-0.507 2.059-1.566 2.265-1.727 0.336-2.443-1.528-2.443-1.527s0.859 3.293 3.532 3.005z"></path>
</symbol>
<symbol id="icon-arrows-repeat" viewBox="0 0 32 32">
<title>arrows-repeat</title>
<path class="path1"   d="M14.174 14.126l-1.902-1.902c0.955-0.947 2.269-1.532 3.721-1.532 0.003 0 0.005 0 0.008 0s0.005 0 0.008 0c1.463 0 2.787 0.594 3.744 1.554 0.96 0.957 1.554 2.281 1.554 3.743 0 0.004 0 0.008 0 0.012l2.308-0.001c0-4.206-3.408-7.614-7.614-7.615-2.089 0-3.984 0.844-5.36 2.207l-1.756-1.756v5.291h5.291zM19.772 19.732c-0.958 0.972-2.29 1.575-3.762 1.575-0.004 0-0.007 0-0.011 0s-0.007 0-0.011 0c-1.462 0-2.785-0.594-3.741-1.554-0.96-0.957-1.554-2.281-1.554-3.744 0-0.003 0-0.006 0-0.010h-2.308c0 4.206 3.408 7.613 7.614 7.615 2.111 0 4.025-0.862 5.404-2.252l1.708 1.709v-5.163h-5.163l1.822 1.822z"></path>
</symbol>
<symbol id="icon-arrows-switch" viewBox="0 0 32 32">
<title>arrows-switch</title>
<path class="path1"   d="M12.444 17.24c-4.605-0.547-2.667-3.341-0.091-6.003-8.973 6.067-3.533 8.705 0.124 9.272l0.023 2.288 4.587-3.923-4.665-3.819 0.022 2.184zM19.524 11.49l-0.023-2.286-4.587 3.921 4.665 3.82-0.021-2.184c4.606 0.547 2.667 3.341 0.091 6.003 8.974-6.067 3.533-8.704-0.123-9.273z"></path>
</symbol>
<symbol id="icon-arrow-up" viewBox="0 0 32 32">
<title>arrow-up</title>
<path class="path1"   d="M18.699 24.533v-7.659h5.066l-7.764-9.408-7.764 9.408h5.065v7.659z"></path>
</symbol>
<symbol id="icon-bookmark" viewBox="0 0 32 32">
<title>bookmark</title>
<path class="path1"   d="M21.867 10.133v12.711h-10.744c-0.024 0-0.048-0.004-0.073-0.005-0.041-0.002-0.077-0.006-0.114-0.011-0.206-0.029-0.41-0.107-0.562-0.263-0.132-0.145-0.198-0.328-0.225-0.512-0.008-0.059-0.018-0.117-0.018-0.187 0-0.787 0.539-0.966 0.977-0.978h9.778v-12.711h-4.887v6.844l-1.956-1.956-1.956 1.956v-6.845h-0.978s-1.956 0-1.956 1.956v11.733s0.005 0.167 0.052 0.396c0.063 0.379 0.202 0.67 0.389 0.885 0.034 0.043 0.073 0.082 0.112 0.123 0.039 0.037 0.079 0.077 0.122 0.11 0.217 0.188 0.507 0.325 0.885 0.389 0.229 0.046 0.397 0.052 0.397 0.052h11.733v-13.689h-0.979z"></path>
</symbol>
<symbol id="icon-briefcase" viewBox="0 0 32 32">
<title>briefcase</title>
<path class="path1"   d="M17.957 16.494v2.289h-3.903v-2.289h-6.576v6.759h17.055v-6.76h-6.576zM14.053 13.932h3.904v1.56h6.574v-3.081c0-0.459-0.371-0.831-0.831-0.831h-3.065v-1.069c0 0 0 0 0-0.001 0-0.973-0.788-1.762-1.761-1.764h-5.749c-0.974 0-1.763 0.789-1.763 1.763 0 0 0 0.001 0 0.001v1.069h-3.065c-0.459 0.001-0.83 0.372-0.831 0.831v3.081h6.587v-1.56zM12.564 10.511c0-0.309 0.251-0.561 0.561-0.562h5.749c0.31 0 0.561 0.252 0.561 0.562v1.069h-6.871v-1.069zM16.973 17.803v-2.896h-1.946v2.896h1.946z"></path>
</symbol>
<symbol id="icon-calculator" viewBox="0 0 32 32">
<title>calculator</title>
<path class="path1"   d="M21.672 6.925h-11.344c-0.627 0-1.134 0.508-1.134 1.134v15.883c0 0.627 0.507 1.134 1.134 1.134h11.344c0 0 0 0 0.001 0 0.626 0 1.134-0.508 1.134-1.134 0 0 0 0 0-0.001v-15.883c0-0.626-0.507-1.134-1.134-1.134zM12.597 22.806c-0.627 0-1.134-0.508-1.134-1.134s0.508-1.134 1.134-1.134c0.627 0 1.134 0.508 1.134 1.134s-0.508 1.134-1.134 1.134zM12.597 19.404c-0.627 0-1.135-0.508-1.135-1.135s0.508-1.135 1.135-1.135c0.627 0 1.134 0.508 1.134 1.134s-0.508 1.134-1.134 1.134zM12.597 16c-0.627 0-1.134-0.508-1.134-1.134s0.508-1.134 1.134-1.134c0.627 0 1.134 0.508 1.134 1.134s-0.508 1.134-1.134 1.134zM16 22.806c-0.627 0-1.134-0.508-1.134-1.134s0.508-1.134 1.134-1.134c0.627 0 1.134 0.508 1.134 1.134s-0.508 1.134-1.134 1.134zM16 19.404c-0.627 0-1.135-0.508-1.135-1.135s0.508-1.135 1.135-1.135c0.627 0 1.134 0.508 1.134 1.134s-0.508 1.134-1.134 1.134zM16 16c-0.627 0-1.134-0.508-1.134-1.134s0.508-1.134 1.134-1.134c0.627 0 1.134 0.508 1.134 1.134s-0.508 1.134-1.134 1.134zM19.403 22.806c-0.627 0-1.134-0.508-1.134-1.134s0.508-1.134 1.134-1.134c0.627 0 1.134 0.508 1.134 1.134s-0.508 1.134-1.134 1.134zM19.403 19.404c-0.627 0-1.135-0.508-1.135-1.135s0.508-1.135 1.135-1.135c0.627 0 1.134 0.508 1.134 1.134s-0.508 1.134-1.134 1.134zM19.403 16c-0.627 0-1.134-0.508-1.134-1.134s0.508-1.134 1.134-1.134c0.627 0 1.134 0.508 1.134 1.134s-0.508 1.134-1.134 1.134zM20.538 12.597h-9.075v-3.404h9.075v3.403z"></path>
</symbol>
<symbol id="icon-calendar" viewBox="0 0 32 32">
<title>calendar</title>
<path class="path1"   d="M11.687 11.622c0.402 0 0.727-0.325 0.727-0.727v-2.619c0-0.401-0.325-0.727-0.727-0.727s-0.727 0.325-0.727 0.727v2.619c0 0.4 0.325 0.725 0.729 0.725zM20.445 11.622c0.401 0 0.726-0.325 0.726-0.727v-2.619c0-0.401-0.325-0.727-0.727-0.727s-0.727 0.325-0.727 0.727v2.619c0 0.4 0.325 0.725 0.727 0.725zM21.41 8.909v0.77c0.304 0.268 0.495 0.658 0.495 1.093-0.027 0.786-0.67 1.413-1.461 1.413s-1.434-0.627-1.46-1.411c0-0.438 0.192-0.829 0.494-1.096v-0.77h-6.822v0.77c0.303 0.268 0.494 0.658 0.494 1.093 0 0 0 0 0 0.001-0.027 0.786-0.67 1.413-1.461 1.413s-1.434-0.627-1.46-1.411c0-0.438 0.192-0.829 0.494-1.096v-0.77h-3.256v15.541h17.067v-15.541h-3.123zM22.974 22.892h-13.949v-9.71h13.949v9.71z"></path>
<path class="path2"   d="M15.794 21.342h-4.895v-0.941h1.925v-4.037c-0.64 0.558-1.222 0.942-1.747 1.152v-1.152c0.533-0.204 0.868-0.348 1.003-0.434s0.331-0.245 0.59-0.478 0.442-0.444 0.548-0.635h0.768v5.584h1.808v0.941zM18.576 21.441c-0.784 0-1.388-0.304-1.812-0.911s-0.637-1.38-0.637-2.316c0-1.010 0.222-1.824 0.667-2.439s1.043-0.923 1.792-0.923c0.54 0 0.997 0.144 1.371 0.434 0.372 0.288 0.651 0.69 0.833 1.203s0.274 0.995 0.274 1.445c0 0.752-0.085 1.37-0.258 1.852-0.166 0.478-0.448 0.88-0.814 1.186-0.379 0.313-0.849 0.468-1.414 0.468zM18.572 20.537c0.325 0 0.587-0.1 0.787-0.3s0.336-0.48 0.407-0.838 0.108-0.855 0.108-1.49c0-0.525-0.089-1.023-0.265-1.494s-0.515-0.707-1.013-0.707c-0.869 0-1.303 0.803-1.303 2.407 0 0.727 0.092 1.313 0.276 1.756s0.517 0.664 1.003 0.664z"></path>
</symbol>
<symbol id="icon-calendar2" viewBox="0 0 32 32">
<title>calendar2</title>
<path class="path1"   d="M19.393 19.783h-1.755v1.754h1.755v-1.752zM16.922 15.090h-1.754v1.754h1.754v-1.751zM19.393 17.436h-1.755v1.753h1.755v-1.753zM21.862 15.090h-1.754v1.754h1.753v-1.751zM16.922 17.436h-1.754v1.753h1.754v-1.753zM19.393 15.090h-1.755v1.754h1.755v-1.751zM21.862 17.436h-1.754v1.753h1.753v-1.753zM11.981 19.783h-1.753v1.754h1.753v-1.752zM11.981 17.436h-1.753v1.753h1.753v-1.753zM21.411 8.908v0.77c0.303 0.269 0.494 0.66 0.494 1.095 0 0.806-0.654 1.46-1.46 1.46s-1.46-0.654-1.46-1.46c0-0.435 0.19-0.826 0.492-1.093l0.002-0.771h-6.822v0.77c0.303 0.269 0.494 0.66 0.494 1.095 0 0.806-0.654 1.46-1.46 1.46s-1.46-0.654-1.46-1.46c0-0.435 0.19-0.826 0.492-1.093l0.002-0.771h-3.257v15.541h17.067v-15.541h-3.123zM22.974 22.891h-13.949v-9.707h13.949v9.707zM14.452 15.092h-1.753v1.753h1.755l-0.001-1.753zM14.452 19.785h-1.753v1.753h1.755l-0.001-1.753zM16.921 19.785h-1.753v1.753h1.755v-1.753zM14.452 17.438h-1.753v1.753h1.755l-0.001-1.753zM11.688 11.621c0.402 0 0.727-0.325 0.727-0.727v-2.619c0-0.401-0.325-0.727-0.727-0.727s-0.727 0.325-0.727 0.727v2.619c0 0.401 0.325 0.726 0.727 0.726zM20.445 11.621c0.401 0 0.726-0.325 0.726-0.727v-2.619c0-0.401-0.325-0.727-0.727-0.727s-0.727 0.325-0.727 0.727v2.619c0 0.401 0.325 0.726 0.728 0.726z"></path>
<path class="path2"   d="M20.134 19.783h1.755v1.755h-1.755z"></path>
</symbol>
<symbol id="icon-chart-present" viewBox="0 0 32 32">
<title>chart-present</title>
<path class="path1"   d="M16.332 8.877v-1.411h-0.969v1.411h-7.81v2.499h0.857v9.435h5.968l-3.629 2.973 0.613 0.749 4.545-3.723h0.032l4.546 3.723 0.613-0.749-3.63-2.973h5.945v-9.435h1.033v-2.499h-8.114zM22.444 19.843h-13.064v-8.467h13.065v8.467zM12.559 17.661v-2.517h2.517c0-1.39-1.127-2.517-2.517-2.517s-2.517 1.127-2.517 2.517c0 1.39 1.127 2.517 2.517 2.517zM13.265 18.348c1.39 0 2.517-1.127 2.517-2.517h-2.517v2.517zM20.965 13.179h-3.219v0.969h3.22v-0.969zM20.965 14.956h-3.219v0.969h3.22v-0.971zM20.965 16.734h-3.219v0.969h3.22v-0.969z"></path>
</symbol>
<symbol id="icon-checkbox" viewBox="0 0 32 32">
<title>checkbox</title>
<path class="path1"   d="M21.694 20.939c-0.001 0.555-0.45 1.004-1.005 1.005h-9.38c-0.555-0.001-1.004-0.45-1.005-1.005v-9.878c0-0.555 0.45-1.005 1.005-1.005h8.453c0.375-0.326 0.768-0.656 1.175-0.988-0.074-0.010-0.16-0.017-0.248-0.017h-9.381c-1.11 0-2.010 0.9-2.010 2.010 0 0 0 0.001 0 0.001v9.877c0 0 0 0.001 0 0.002 0 1.11 0.899 2.009 2.009 2.009 0 0 0 0 0.001 0h9.38c1.11 0 2.010-0.9 2.010-2.010 0 0 0-0.001 0-0.001v-6.864c-0.248 0.318-0.577 0.761-0.899 1.209l-0.103 5.655z"></path>
<path class="path2"   d="M23.345 9.317c-4.71 2.891-8.13 6.533-9.666 8.363l-3.762-2.947-1.661 1.339 6.5 6.611c1.118-2.866 4.661-8.466 8.988-12.445l-0.399-0.92z"></path>
</symbol>
<symbol id="icon-checklist" viewBox="0 0 32 32">
<title>checklist</title>
<path class="path1"   d="M9.644 8.736v14.528h12.711v-14.528h-12.711zM15.092 20.994h-3.178v-3.178h3.178v3.178zM15.092 14.638h-3.178v-3.178h3.178v3.178zM20.54 17.136c-1.362 1.362-2.043 3.405-2.043 3.405l-1.589-1.589 0.228-0.453 1.133 0.908c0.908-1.816 2.27-2.497 2.27-2.497v0.227zM20.54 11.687c-1.362 1.362-2.043 3.405-2.043 3.405l-1.589-1.589 0.228-0.453 1.133 0.908c0.908-1.816 2.27-2.497 2.27-2.497v0.227z"></path>
</symbol>
<symbol id="icon-checkmark" viewBox="0 0 32 32">
<title>checkmark</title>
<path class="path1"   d="M24.094 8.636c-5.191 3.184-8.958 7.2-10.652 9.214l-4.145-3.248-1.83 1.476 7.163 7.285c1.233-3.158 5.137-9.33 9.904-13.714l-0.439-1.013z"></path>
</symbol>
<symbol id="icon-clipboard" viewBox="0 0 32 32">
<title>clipboard</title>
<path class="path1"   d="M19.733 9.467v1.867h-2.8v-1.867h-1.867v1.867h-2.8v-1.867h-1.867v14h11.2v-14h-1.867zM20.667 22.533h-9.333v-10.267h9.333v10.267z"></path>
<path class="path2"   d="M13.2 8.533h0.933v1.867h-0.933zM17.867 8.533h0.933v1.867h-0.933zM13.2 14.133h5.6v0.933h-5.6zM13.2 16.933h5.6v0.933h-5.6zM13.2 19.733h5.6v0.933h-5.6z"></path>
</symbol>
<symbol id="icon-clock" viewBox="0 0 32 32">
<title>clock</title>
<path class="path1"   d="M16 7.467c-4.713 0-8.533 3.82-8.533 8.533s3.82 8.533 8.533 8.533 8.533-3.82 8.533-8.533-3.82-8.533-8.533-8.533zM16 22.4c-3.534 0-6.4-2.866-6.4-6.4s2.866-6.4 6.4-6.4 6.4 2.866 6.4 6.4-2.866 6.4-6.4 6.4z"></path>
<path class="path2"   d="M17.067 10.667h-2.133v6.4h5.333v-2.133h-3.2z"></path>
</symbol>
<symbol id="icon-clouds" viewBox="0 0 32 32">
<title>clouds</title>
<path class="path1"   d="M7.94 19.842c-0.069-0.647 0.326-1.132 0.326-1.132s-0.581-0.323-0.49-1.202c0.093-0.878 0.899-1.1 0.899-1.1s-0.598-0.379-0.229-1.28c0.371-0.901 1.117-0.715 1.117-0.715s-0.144-0.672 0.363-1.296c0.509-0.624 1.319-0.567 1.319-0.567s0.091-0.981 1.477-1.489c1.387-0.508 2.172 0.139 2.172 0.139s0.485-1.039 2.057-1.109c1.571-0.069 2.345 0.692 2.345 0.692s-0.057-0.946-1.282-1.223c-0.272-0.061-0.777-0.093-1.017 0.024-0.32-0.447-0.88-0.582-1.872-0.531-1.032 0.053-1.843 0.574-1.941 1.248-0.128-0.017-0.854-0.647-2.195-0.162s-1.429 1.216-1.543 1.553c-1.022-0.236-1.811 0.672-1.811 1.382 0 0.17 0.047 0.331 0.13 0.482-0.658 0.048-1.121 0.713-1.121 1.302 0 0.251 0.085 0.486 0.234 0.691-0.539 0.23-0.834 0.706-0.834 1.267 0 0.404 0.116 0.778 0.425 1.036-0.135 0.267-0.214 0.581-0.215 0.914 0 1.213 1.065 2.219 2.453 2.396-0.408-0.419-0.697-0.672-0.766-1.319z"></path>
<path class="path2"   d="M25.956 19.025c0-0.004 0-0.008 0-0.012 0-0.553-0.22-1.055-0.578-1.422 0.134-0.262 0.213-0.571 0.213-0.899 0-0.918-0.613-1.697-1.467-1.981-0.068-0.896-0.837-1.614-1.811-1.698-0.275-0.811-0.983-1.389-1.817-1.389-0.285 0-0.555 0.068-0.794 0.187-0.31-0.451-1.34-0.867-2.565-0.728-1.216 0.138-1.664 1.294-1.664 1.294s-0.693-0.646-1.779-0.347c-1.086 0.301-1.271 1.364-1.271 1.364s-0.647-0.139-1.364 0.485c-0.617 0.538-0.531 1.393-0.531 1.393s-0.393-0.168-0.809 0.41c-0.416 0.578-0.093 1.109-0.093 1.109s-0.464 0.023-0.602 0.809c-0.132 0.747 0.231 1.131 0.231 1.131s-0.412 0.315-0.24 1.753c0.171 1.437 1.937 2.503 3.527 2.363 1.589-0.14 2.485-2.123 5.48-2.123 3.028 0 2.4 2.215 3.918 2.236s2.163-0.9 2.163-1.421c-0.001-0.181-0.027-0.356-0.074-0.522l0.009 0.014c1.056 0 1.915-0.898 1.915-2.006z"></path>
</symbol>
<symbol id="icon-cloud-upload" viewBox="0 0 32 32">
<title>cloud-upload</title>
<path class="path1"   d="M22.187 15.242c0.083-0.306 0.131-0.657 0.131-1.020 0-2.223-1.802-4.026-4.026-4.026-1.662 0-3.088 1.007-3.703 2.443-0.536-0.591-1.314-0.979-2.182-0.979-1.573 0-2.849 1.276-2.849 2.849 0 0.278 0.040 0.547 0.114 0.802-1.301 0.465-2.206 1.692-2.206 3.131 0 0.001 0 0.002 0 0.004 0 0 0 0 0 0 0 1.854 1.503 3.358 3.357 3.358h4.381v-2.829h-1.809l2.773-3.36 2.773 3.36h-1.81v2.829h4.042c0 0 0 0 0.001 0 1.855 0 3.358-1.503 3.358-3.358 0 0 0-0.001 0-0.001 0-1.502-0.985-2.773-2.347-3.203z"></path>
</symbol>
<symbol id="icon-convo" viewBox="0 0 32 32">
<title>convo</title>
<path class="path1"   d="M12.798 18.332c0.715-0.489 1.179-1.301 1.179-2.221 0-1.48-1.2-2.681-2.68-2.682-1.48 0.001-2.68 1.201-2.68 2.682 0 0.919 0.463 1.731 1.168 2.214-1.371 0.605-2.319 1.957-2.319 3.529 0 0 0 0.001 0 0.001 0 2.436 1.716 3.064 3.829 3.064s3.83-0.628 3.83-3.065c0 0 0-0.001 0-0.001 0-1.572-0.948-2.924-2.303-3.513zM22.205 18.332c0.716-0.488 1.18-1.299 1.18-2.219 0-0.001 0-0.001 0-0.002s0-0.001 0-0.002c0-1.481-1.201-2.682-2.682-2.682s-2.682 1.201-2.682 2.682c0 0.921 0.464 1.733 1.171 2.216-1.371 0.605-2.319 1.957-2.319 3.529 0 2.435 1.716 3.064 3.829 3.064s3.83-0.628 3.83-3.065c0 0 0-0.001 0-0.001 0-1.573-0.949-2.925-2.305-3.514zM18.187 12.325c0.87-0.547 1.422-1.356 1.422-2.256 0-1.652-1.849-2.99-4.128-2.99s-4.128 1.339-4.128 2.989c0 1.649 1.902 3.483 4.128 2.987 1.28-0.284 0.711 2.563 1.28 1.709 0.243-0.364 1.090-2.228 1.426-2.441z"></path>
</symbol>
<symbol id="icon-cursor-pointer" viewBox="0 0 32 32">
<title>cursor-pointer</title>
<path class="path1"   d="M18.723 16.742l4.715-1.874-15.971-6.775 7.888 15.469 0.208-0.646 1.353-4.235 5.403 4.88c0.234 0.213 0.546 0.343 0.889 0.343 0.39 0 0.74-0.168 0.982-0.436 0.213-0.235 0.343-0.548 0.343-0.89 0-0.389-0.167-0.739-0.434-0.982l-5.373-4.854z"></path>
</symbol>
<symbol id="icon-dollar-sign" viewBox="0 0 32 32">
<title>dollar-sign</title>
<path class="path1"   d="M16.523 25.008h-0.957v-1.964c-1.297-0.144-2.265-0.428-2.902-0.849-1.125-0.757-1.678-2.047-1.659-3.87h2.666c0.092 0.828 0.221 1.384 0.386 1.667 0.256 0.441 0.76 0.727 1.51 0.859v-4.215l-0.8-0.236c-1.257-0.368-2.144-0.882-2.66-1.541-0.517-0.657-0.777-1.451-0.777-2.379 0-0.612 0.1-1.168 0.301-1.668 0.201-0.504 0.487-0.934 0.844-1.294 0.467-0.468 0.986-0.789 1.56-0.967 0.348-0.112 0.859-0.194 1.531-0.246v-1.313h0.957v1.333c1.068 0.085 1.907 0.348 2.516 0.789 1.107 0.704 1.68 1.845 1.719 3.426h-2.596c-0.052-0.587-0.149-1.013-0.293-1.284-0.246-0.467-0.695-0.724-1.346-0.77v3.762c1.561 0.54 2.608 1.017 3.146 1.432 0.885 0.69 1.327 1.664 1.327 2.921 0 1.659-0.609 2.863-1.827 3.613-0.743 0.46-1.625 0.731-2.645 0.81v1.984zM15.567 10.507c-0.573 0.013-0.997 0.165-1.275 0.459-0.276 0.293-0.414 0.693-0.414 1.2 0 0.552 0.208 0.99 0.623 1.312 0.23 0.178 0.586 0.343 1.067 0.494v-3.465zM16.523 20.821c0.515-0.066 0.889-0.184 1.123-0.355 0.411-0.302 0.614-0.827 0.614-1.57 0-0.565-0.192-1.013-0.576-1.342-0.228-0.19-0.614-0.388-1.162-0.592v3.86z"></path>
</symbol>
<symbol id="icon-dropbox-tray" viewBox="0 0 32 32">
<title>dropbox-tray</title>
<path class="path1"   d="M20.959 11.175h-10.365l-3.127 3.573v6.077h17.067v-6.016l-3.574-3.634zM23.729 20.021h-15.458v-4.736h4.915v1.517h5.629v-1.517h4.915v4.736z"></path>
</symbol>
<symbol id="icon-dumbell" viewBox="0 0 32 32">
<title>dumbell</title>
<path class="path1"   d="M24.040 14.464c-0.085 0-0.040 0.011-0.040 0.028v-1.158h-2.133v-2.133h-3.2v3.733h-5.333v-3.733h-3.2v2.133h-1.6v1.159c-0.533-0.018-0.359-0.028-0.445-0.028-0.672 0-1.314 0.579-1.314 1.291 0 0.714 0.691 1.291 1.363 1.291 0.085 0-0.137-0.009 0.396-0.027v1.647h1.6v2.133h3.2v-3.733h5.333v3.733h3.2v-2.133h2.133v-1.649c0 0.018-0.046 0.028 0.040 0.028 0.672 0 1.217-0.578 1.217-1.291s-0.545-1.291-1.217-1.291z"></path>
</symbol>
<symbol id="icon-envelope-mail" viewBox="0 0 32 32">
<title>envelope-mail</title>
<path class="path1"   d="M24.407 10.643h-16.723l8.317 7.115 8.405-7.115zM15.998 19.042l-8.531-7.297v9.612h17.067v-9.539l-8.535 7.225z"></path>
</symbol>
<symbol id="icon-exclamation-mark" viewBox="0 0 32 32">
<title>exclamation-mark</title>
<path class="path1"   d="M14.133 19.733h3.733v3.733h-3.733zM14.133 8.533h3.733v9.333h-3.733z"></path>
</symbol>
<symbol id="icon-flag" viewBox="0 0 32 32">
<title>flag</title>
<path class="path1"   d="M8.816 23.733h1.716v-14.748h-1.716v14.748zM17.632 10.229v0.005c-1.918-3.534-6.171-1.23-6.171-1.23v7.769s1.916-2.761 5.139 0.198c3.223 2.959 6.583-4.515 6.583-4.515s-2.693 2.425-5.552-2.227z"></path>
</symbol>
<symbol id="icon-folder" viewBox="0 0 32 32">
<title>folder</title>
<path class="path1"   d="M24.533 21.842c0 0.587-0.48 1.067-1.067 1.067h-12.501c-0.587 0-1.067-0.48-1.067-1.067v-7.367c0-0.587 0.48-1.067 1.067-1.067h12.501c0.587 0 1.067 0.48 1.067 1.067v7.367z"></path>
<path class="path2"   d="M18.59 9.092c-0.293 0-0.667 0.199-0.831 0.443l-0.83 1.235c-0.162 0.243-0.536 0.443-0.829 0.443h-8.099c-0.293 0-0.533 0.24-0.533 0.533v8.436c0 0.293 0.24 0.533 0.533 0.533h0.441c0.293 0 0.533-0.24 0.533-0.533v-7.053c0-0.293 0.24-0.533 0.533-0.533h12.059c0.293 0 0.533-0.197 0.533-0.44v-2.53c0-0.293-0.24-0.533-0.533-0.533h-2.976z"></path>
</symbol>
<symbol id="icon-game-controller" viewBox="0 0 32 32">
<title>game-controller</title>
<path class="path1"   d="M24.414 18.627l-1.513-5.326c0-0.015 0.001-0.032 0.001-0.050 0-0.817-0.419-1.537-1.053-1.955l-0.111-0.53s0.033-0.461-1.097-0.384c-1.081-0.048-1.051 0.384-1.051 0.384l-0.075 0.283c-0.366 0.177-0.678 0.686-0.909 0.686h-5.204c-0.229 0-0.546-0.519-0.917-0.699l-0.075-0.329s0.030-0.409-1.051-0.361c-1.131-0.077-1.097 0.395-1.097 0.395l-0.104 0.531c-0.643 0.425-1.061 1.145-1.061 1.963v0.052l-1.511 5.327s-0.647 2.102 1.077 2.939c0 0 1.187 0.72 2.533-1.509 1.342-2.22 1.346-2.183 1.346-2.183s0.048 0.075 0.131 0.081c0.896 0.194 2.119 0.192 2.421-0.875h1.81l0.001-0.059c0.301 0.961 1.524 1.104 2.42 0.909 0.083-0.005 0.131-0.029 0.131-0.029s0.004-0.045 1.346 2.174c1.347 2.229 2.533 1.505 2.533 1.505 1.724-0.836 1.077-2.942 1.077-2.942zM11.467 14.917c-0.539 0-0.977-0.437-0.977-0.977s0.437-0.977 0.977-0.977c0.539 0 0.977 0.437 0.977 0.977s-0.437 0.977-0.977 0.977zM16.828 16.487h-0.171l-0.003-0.006h0.188v0.047l-0.016-0.041zM20.761 14.918c-0.539 0-0.976-0.437-0.976-0.976s0.437-0.976 0.976-0.976c0.539 0 0.977 0.437 0.977 0.977s-0.437 0.977-0.977 0.977z"></path>
</symbol>
<symbol id="icon-garbage-can" viewBox="0 0 32 32">
<title>garbage-can</title>
<path class="path1"   d="M10.894 24.533h10.212v-10.859h-10.212v10.859zM17.931 15.849c0-0.33 0.267-0.597 0.597-0.597s0.597 0.267 0.597 0.597v6.292c0 0.33-0.267 0.597-0.597 0.597s-0.597-0.267-0.597-0.597v-6.292zM15.403 15.849c0-0.33 0.267-0.597 0.597-0.597s0.597 0.267 0.597 0.597v6.292c0 0.33-0.267 0.597-0.597 0.597s-0.597-0.267-0.597-0.597v-6.292zM12.877 15.849c0-0.33 0.267-0.597 0.597-0.597s0.597 0.267 0.597 0.597v6.292c0 0.33-0.267 0.597-0.597 0.597s-0.597-0.267-0.597-0.597v-6.292zM21.611 9.582h-2.219v-0.364c-0.001-0.967-0.784-1.751-1.751-1.752h-3.279c0 0 0 0-0.001 0-0.967 0-1.751 0.784-1.751 1.751 0 0 0 0 0 0.001v0.364h-2.221c-0.455 0-0.826 0.368-0.826 0.826v2.187h12.875v-2.187c0-0.457-0.369-0.826-0.827-0.826zM18.198 9.582h-4.395v-0.364c0-0.308 0.251-0.557 0.56-0.557h3.278c0.308 0 0.557 0.249 0.557 0.557v0.364z"></path>
</symbol>
<symbol id="icon-gear" viewBox="0 0 32 32">
<title>gear</title>
<path class="path1"   d="M24.533 16.93v-1.941l-0.274-0.091-2.079-0.678-0.555-1.34 1.067-2.256-1.374-1.374-2.209 1.119-1.34-0.555-0.839-2.348h-1.941l-0.091 0.275-0.678 2.079-1.339 0.555-2.258-1.066-1.374 1.373 0.131 0.257 0.989 1.951-0.554 1.339-2.349 0.84v1.944l0.274 0.089 2.080 0.679 0.555 1.339-1.067 2.257 1.372 1.374 2.208-1.121 1.339 0.555 0.843 2.349h1.941l0.091-0.275 0.678-2.079 1.339-0.555 2.256 1.067 1.373-1.374-0.131-0.256-0.99-1.949 0.555-1.34 2.35-0.842zM16 18.72c-1.502 0-2.719-1.217-2.719-2.719 0 0 0-0.001 0-0.001 0-1.502 1.218-2.72 2.72-2.72s2.72 1.218 2.72 2.72c0 1.502-1.218 2.72-2.72 2.72 0 0-0.001 0-0.001 0z"></path>
</symbol>
<symbol id="icon-gears" viewBox="0 0 32 32">
<title>gears</title>
<path class="path1"   d="M23.424 20.668l1.039-0.3 0.070-0.637-0.948-0.52c-0.025-0.239-0.069-0.457-0.133-0.667l0.686-0.852-0.323-0.58-1.094 0.139c-0.159-0.179-0.333-0.339-0.522-0.48l0.026-1.087-0.585-0.264-0.787 0.741c-0.093-0.021-0.212-0.041-0.333-0.054-0.173-0.019-0.275-0.021-0.326-0.023l-0.605-0.892-0.315 0.059 0.717-0.228 0.032-0.733-0.982-0.409-0.069-0.579 0.818-0.683-0.246-0.69-1.065-0.009-0.32-0.569 0.487-0.946-0.496-0.541-0.985 0.405-0.459-0.361 0.096-1.060-0.662-0.315-0.759 0.747s-0.174-0.026-0.432-0.086c-0.199-0.048-0.197-0.089-0.197-0.089l-0.323-1.015-0.734-0.032-0.409 0.983-0.579 0.069-0.681-0.819-0.69 0.246-0.010 1.065-0.569 0.32-0.945-0.488-0.541 0.496 0.405 0.983-0.361 0.459-1.061-0.096-0.314 0.662 0.745 0.759s-0.068 0.254-0.109 0.426c-0.029 0.123-0.067 0.203-0.067 0.203l-1.013 0.324-0.032 0.733 0.982 0.409 0.069 0.579-0.819 0.683 0.247 0.69 1.065 0.009 0.321 0.571-0.489 0.947 0.496 0.54 0.983-0.405 0.458 0.361-0.096 1.061 0.663 0.314 0.759-0.745s0.245 0.066 0.404 0.103c0.134 0.032 0.226 0.071 0.226 0.071l0.323 1.015 0.733 0.032 0.411-0.983 0.578-0.069 0.683 0.818 0.691-0.246 0.005-0.511 0.494 0.27c0.025 0.266 0.076 0.511 0.153 0.745l-0.671 0.83 0.318 0.558 1.073-0.135c0.171 0.19 0.358 0.359 0.563 0.506l-0.025 1.073 0.582 0.251 0.785-0.739c0.197 0.041 0.424 0.066 0.657 0.069l0.608 0.894 0.629-0.13 0.201-1.061c0.239-0.106 0.444-0.226 0.633-0.365l1.028 0.38 0.442-0.494-0.472-1.005c0.098-0.17 0.188-0.368 0.259-0.575zM18.884 15.564c0.029-0.122 0.053-0.173 0.071-0.197l-0.119 0.639-0.032-0.032s0.027-0.173 0.082-0.407zM13.15 16.916c-1.179-0.283-2.041-1.328-2.041-2.575 0-1.461 1.184-2.645 2.644-2.645 0.214 0 0.422 0.025 0.622 0.073 1.161 0.279 2.023 1.325 2.023 2.571 0 1.46-1.184 2.644-2.644 2.644-0.214 0-0.422-0.025-0.621-0.073zM21.003 21.109c-0.253 0.147-0.556 0.233-0.88 0.233-0.981 0-1.776-0.795-1.776-1.776 0-0.657 0.357-1.231 0.888-1.538 0.261-0.151 0.565-0.238 0.889-0.238 0.981 0 1.776 0.795 1.776 1.776 0 0.657-0.357 1.231-0.888 1.539z"></path>
</symbol>
<symbol id="icon-gift" viewBox="0 0 32 32">
<title>gift</title>
<path class="path1"   d="M8.939 24.533h6.57v-7.308h-6.57v7.308zM23.744 12.124h-3.853c0.274-0.14 0.517-0.288 0.734-0.444 0.834-0.593 1.273-1.349 1.271-2.099 0-0.614-0.292-1.157-0.715-1.524-0.421-0.367-0.975-0.59-1.581-0.59-0.001 0-0.002 0-0.003 0-0.64 0-1.235 0.221-1.744 0.561-0.766 0.514-1.369 1.288-1.798 2.137-0.021 0.040-0.041 0.081-0.060 0.123-0.175-0.363-0.357-0.672-0.56-0.964-0.348-0.496-0.785-0.956-1.297-1.297-0.509-0.339-1.104-0.561-1.744-0.561-0.638 0.002-1.221 0.269-1.659 0.681-0.435 0.412-0.74 0.99-0.741 1.647-0.002 0.384 0.11 0.784 0.341 1.149 0.289 0.458 0.748 0.855 1.382 1.18h-3.461c-0.461 0-0.836 0.374-0.836 0.836v3.099h8.089v-3.934h0.983v3.934h8.089v-3.097c0-0.461-0.373-0.836-0.835-0.836zM11.997 10.896c-0.326-0.205-0.525-0.412-0.64-0.596-0.096-0.142-0.154-0.317-0.156-0.504-0.002-0.266 0.131-0.549 0.364-0.769 0.229-0.218 0.54-0.351 0.821-0.351h0.006c0.359 0 0.717 0.122 1.075 0.359 0.533 0.355 1.038 0.973 1.389 1.675 0.18 0.355 0.32 0.731 0.414 1.097-1.618-0.167-2.667-0.525-3.272-0.909zM17.533 10.041c0.291-0.419 0.635-0.77 0.99-1.006 0.357-0.237 0.716-0.358 1.076-0.359h0.002c0.301 0 0.587 0.116 0.784 0.289 0.199 0.177 0.301 0.388 0.301 0.615-0.002 0.269-0.144 0.661-0.771 1.12-0.597 0.434-1.628 0.88-3.219 1.19 0.176-0.704 0.463-1.321 0.846-1.867zM16.491 24.533h6.571v-7.308h-6.57v7.308z"></path>
</symbol>
<symbol id="icon-globe" viewBox="0 0 32 32">
<title>globe</title>
<path class="path1"   d="M15.831 14.551c0.001-0.003 0.003-0.004 0.004-0.005-0.003-0.011-0.006-0.025-0.007-0.039l0.004 0.045zM19.109 18.13l-0.004-0.001s0.002 0 0.003 0.003zM19.191 18.14c-0.020-0.004-0.066 0.002-0.084-0.011-0.012 0.037 0.004 0.052 0.083 0.011zM16 7.467c-4.712 0-8.533 3.82-8.533 8.533s3.821 8.533 8.533 8.533 8.533-3.82 8.533-8.533-3.821-8.533-8.533-8.533zM21.451 10.8c-0.294 0.010-0.499 0.010-0.734 0.173-0.095 0.066-0.16 0.152-0.282 0.187-0.108 0.030-0.224 0.003-0.332 0.040-0.388 0.13-0.327 0.96-0.837 0.835-0.24-0.059-0.409-0.342-0.53-0.528-0.107-0.163-0.299-0.298-0.169-0.501-0.060 0.015-0.123-0.003-0.182 0.009 0.082-0.18 0.356-0.164 0.402-0.256 0.114-0.229-0.313-0.253-0.434-0.286 0.146-0.155 0.219 0.053 0.364 0.018 0.139-0.034-0.074-0.215-0.156-0.237-0.030-0.006-0.517 0.135-0.236-0.117-0.347-0.221-0.695-0.443-1.042-0.665-0.060 0.245 0.463 0.386 0.633 0.473-0.027 0.101-0.185 0.25-0.307 0.206-0.114-0.042-0.067-0.231-0.24-0.212-0.123 0.286 0.26 0.203 0.296 0.378 0.041 0.201-0.144 0.115-0.215 0.113-0.018-0.001-0.149-0.14-0.157-0.034-0.007 0.123 0.213 0.075 0.228 0.201-0.256 0.011-0.388-0.083-0.597-0.222-0.245-0.162-0.369-0.147-0.669-0.147 0.091-0.037 0.213-0.064 0.291-0.124 0.042-0.032 0.205-0.192 0.217-0.226 0.046-0.155-0.002-0.142-0.149-0.243-0.13-0.091-0.288-0.249-0.447-0.281-0.573-0.115-0.178 0.517-0.612 0.605l0.021 0.002h-0.023c0-0.001 0.001-0.001 0.003-0.001-0.101-0.003-0.29-0.027-0.356 0.026-0.046 0.036-0.050 0.187-0.101 0.242-0.091 0.096-0.226 0.115-0.336 0.187-0.107 0.068-0.339 0.243-0.401 0.363-0.23 0.437 0.517 0.576 0.8 0.704 0.128 0.059 0.501 0.137 0.572 0.235 0.094 0.128-0.080 0.252 0.115 0.343 0.061 0.029 0.19 0.034 0.245-0.026 0.086-0.099-0.036-0.121-0.059-0.235-0.040-0.219 0.027-0.132 0.138-0.213 0.223-0.164 0.174-0.174 0.093-0.437-0.037-0.124-0.179-0.466-0.054-0.556 0.162-0.119 0.507 0.064 0.631 0.078 0.145 0.018 0.228 0.219 0.306 0.301 0.052 0.053 0.146 0.169 0.237 0.157 0.146-0.021 0.085-0.148 0.169-0.206 0.225-0.157 0.285 0.056 0.375 0.269 0.084 0.198 0.164 0.273 0.315 0.401 0.070 0.059 0.377 0.272 0.348 0.403-0.019 0.089-0.37 0.223-0.463 0.252-0.342 0.109-0.985-0.178-1.053 0.366 0.131-0.050 0.508-0.359 0.622-0.213 0.050 0.068-0.043 0.164-0.020 0.229 0.064 0.198 0.217 0.13 0.377 0.097-0.010 0.006-0.021 0.013-0.032 0.018 0.217-0.111 0.194-0.088 0.294-0.271 0.033-0.059 0.082-0.203 0.128-0.245 0.158-0.146 0.184-0.046 0.282 0.067 0.026 0.031 0.269 0.379 0.182 0.363-0.283-0.057-0.555-0.049-0.788 0.106-0.136 0.088-0.264 0.208-0.425 0.268-0.037 0.014-0.324 0.043-0.292-0.007 0.050-0.071 0.219-0.118 0.286-0.196-0.185-0.077-0.341 0.092-0.487 0.192-0.155 0.073-0.191 0.21-0.323 0.331-0.059 0.051-0.167 0.060-0.223 0.128-0.057 0.067-0.062 0.172-0.115 0.236-0.037 0.044-0.131 0.016-0.169 0.084-0.050 0.087 0.045 0.168 0.025 0.231-0.037 0.114-0.256 0.212-0.34 0.293 0.011-0.011 0.021-0.022 0.033-0.032-0.084 0.087-0.19 0.151-0.255 0.253 0.029 0.144 0.124 0.486 0.098 0.565-0.086 0.259-0.256-0.141-0.324-0.245-0.236-0.355-0.709-0.117-1.031-0.087-0.412 0.036-0.815 0.572-0.562 1.006 0.122 0.208 0.327 0.289 0.563 0.241 0.208-0.043 0.272-0.336 0.469-0.342 0.363-0.009 0.007 0.356-0.025 0.489-0.029 0.124 0.046 0.137 0.174 0.167 0.093 0.021 0.228-0.041 0.309 0.013 0.051 0.035 0.049 0.221 0.12 0.163-0.14 0.115-0.108 0.389 0.035 0.487 0.16 0.11 0.347 0.009 0.512 0.051 0.315 0.080 0.165-0.025 0.44-0.191 0.185-0.112 0.215 0.021 0.343 0.021 0.085 0.001 0.14-0.124 0.284-0.087 0.117 0.030 0.165 0.121 0.304 0.141 0.059 0.009 0.117-0.021 0.172-0.015 0.26 0.029 0.46 0.195 0.664 0.345 0.169 0.125 0.283 0.099 0.478 0.156 0.144 0.041 0.411 0.25 0.397 0.432-0.002 0.033-0.128 0.197-0.149 0.272 0.037 0.027 0.293-0.031 0.37-0.037-0.026 0.029-0.201 0.152-0.201 0.086 0 0.034 0.124 0.103 0.154 0.124 0.091-0.297 0.241-0.107 0.421-0.033 0.153 0.063 0.341 0.067 0.505 0.106 0.139 0.033 0.444 0.127 0.548 0.24 0.123 0.135 0.037 0.357-0.054 0.493-0.119 0.179-0.299 0.245-0.373 0.457-0.060 0.165-0.016 0.333-0.050 0.517-0.046 0.249-0.081 0.161-0.242 0.313-0.134 0.128-0.003 0.106-0.185 0.188-0.185 0.081-0.347 0.057-0.475 0.26 0.005-0.013 0.011-0.025 0.013-0.039-0.053 0.076-0.080 0.229-0.107 0.28-0.064 0.13-0.152 0.212-0.255 0.32-0.040 0.041-0.398 0.531-0.419 0.491-0.027-0.051-0.309 0.052-0.323-0.021 0.011 0.062-0.003 0.042 0.068 0.077-0.066 0.403-0.236 0.462-0.631 0.466 0.034 0.194-0.144 0.155-0.226 0.259-0.048 0.061-0.071 0.231-0.106 0.309-0.021 0.050-0.176 0.249-0.176 0.288 0 0.036 0.052 0.089 0.101 0.14-0.237 0.049-0.529 0.091-0.826 0.116 0.028-0.067 0.041-0.126-0.13-0.134 0.045-0.125 0.153-0.196 0.198-0.318 0.023-0.057 0.004-0.080 0.023-0.135 0.064-0.196 0.036-0.123 0-0.275-0.084-0.356 0.029-0.453 0.127-0.78 0.101-0.334 0.091-0.77 0.155-1.131 0.031-0.172 0.080-0.532 0.020-0.696-0.067-0.185-0.365-0.329-0.501-0.453-0.192-0.175-0.295-0.365-0.437-0.583-0.073-0.108-0.156-0.218-0.212-0.336-0.123-0.258 0-0.105 0.020-0.256 0.019-0.146-0.018-0.277 0.040-0.43 0.064-0.17 0.224-0.276 0.277-0.448 0.048-0.151 0.011-0.343-0.145-0.394-0.087-0.028-0.183 0.037-0.272 0.023-0.121-0.020-0.259-0.112-0.355-0.184-0.134-0.103-0.184-0.268-0.327-0.364-0.118-0.080-0.204-0.032-0.331-0.070-0.133-0.039-0.215-0.203-0.323-0.255-0.162-0.077-0.253 0.034-0.421 0.011-0.146-0.019-0.366-0.179-0.501-0.239-0.276-0.123-0.443-0.259-0.552-0.539-0.094-0.238-0.231-0.35-0.393-0.549-0.165-0.203-0.216-0.373-0.468-0.428-0.030-0.006 0.062 0.212 0.071 0.229 0.091 0.167 0.226 0.32 0.334 0.475 0.16 0.229 0.091 0.272-0.071 0.051-0.187-0.253-0.404-0.506-0.565-0.774-0.062-0.101-0.050-0.165-0.151-0.262-0.098-0.094-0.224-0.139-0.323-0.227-0.352-0.318-0.416-0.741-0.376-1.195 0.013-0.147 0.066-0.265 0.043-0.406-0.020-0.117-0.088-0.215-0.176-0.301-0.052-0.086-0.086-0.139-0.12-0.192-0.062-0.102-0.124-0.234-0.251-0.344-0.128-0.106-0.272-0.215-0.42-0.318 0.777-1.005 1.801-1.782 2.975-2.273 0.061 0.042 0.085 0.102 0.125 0.16 0.097 0.146 0.192 0.135 0.384 0.176-0.021 0.224-0.283 0.226-0.459 0.203-0.211-0.030-0.433-0.099-0.615 0.085 0.1 0.060 0.377 0.297 0.34 0.050 0.202-0.011 0.398-0.016 0.596 0.007 0.079 0.011 0.346 0.098 0.418 0.059 0.029-0.018 0.062-0.167 0.094-0.213-0.057 0-0.117-0.027-0.173-0.022 0.131-0.168 0.261-0.036 0.427 0.040-0.181 0.114-0.075 0.379 0.106 0.163 0.147-0.179-0.035-0.309-0.223-0.412 0.189-0.236 0.306-0.257 0.483 0.009 0.030-0.165 0.163-0.099 0.301-0.085v-0.043c-0.061 0.003-0.128-0.032-0.187-0.027 0.141-0.226 0.051-0.276 0.252-0.351 0.161-0.059 0.62-0.004 0.677-0.155-0.323 0.062-0.71 0.077-0.999 0.223-0.126 0.064-0.274 0.263-0.398 0.133-0.128-0.133 0.091-0.347 0.203-0.411h-0.027c0.508-0.107 1.035-0.165 1.573-0.165 0.349 0 0.692 0.026 1.028 0.073-0.117 0.060-0.031 0.101-0.115 0.164-0.162 0.119-0.45 0.219-0.643 0.293 0.245 0 0.837 0.23 0.952-0.113-0.008-0.004-0.089-0.017-0.17-0.029 0.081-0.105 0.246-0.185 0.418-0.243 1.588 0.324 2.957 1.109 4 2.207l-0.021 0.003zM22.832 13.796c0.013-0.029 0.046-0.039 0.060-0.064 0.028-0.052 0.021-0.088 0.057-0.132 0.037-0.048 0.087-0.061 0.129-0.099 0.014-0.012 0.025-0.026 0.034-0.042 0.127 0.35 0.227 0.712 0.299 1.085 0 0.004-0.002 0.008-0.005 0.011-0.018 0.014-0.138 0.032-0.163 0.032-0.085 0.004-0.149-0.053-0.211-0.108-0.064-0.055-0.139-0.128-0.182-0.199-0.048-0.076-0.017-0.155-0.016-0.241 0.004-0.075-0.032-0.178 0-0.244zM22.929 17.709c-0.147-0.128-0.32-0.299-0.423-0.462-0.112-0.176-0.043-0.357-0.036-0.559 0.009-0.171-0.075-0.411-0.002-0.564 0.033-0.069 0.109-0.093 0.141-0.149 0.066-0.121 0.050-0.203 0.131-0.307 0.087-0.112 0.205-0.139 0.303-0.226 0.101-0.093 0.099-0.165 0.164-0.283 0.048-0.085 0.158-0.228 0.263-0.303 0.055 0.343 0.087 0.739 0.087 1.141 0 0.692-0.093 1.363-0.268 2-0.128-0.090-0.245-0.192-0.358-0.29z"></path>
</symbol>
<symbol id="icon-graph-bar" viewBox="0 0 32 32">
<title>graph-bar</title>
<path class="path1"   d="M14.343 23.237h3.315v-9.733h-3.317v9.733zM19.084 8.763v14.475h3.316v-14.475h-3.316zM9.6 23.237h3.316v-4.99h-3.316v4.99z"></path>
</symbol>
<symbol id="icon-graph-pie" viewBox="0 0 32 32">
<title>graph-pie</title>
<path class="path1"   d="M7.397 16c0 0.031 0.002 0.061 0.002 0.091v-0.182c0 0.031-0.002 0.061-0.002 0.092zM24.603 16c0-0.002 0-0.005 0-0.008 0-2.475-1.096-4.694-2.828-6.199l-4.772 6.058 4.229 6.79c2.044-1.498 3.371-3.914 3.371-6.641zM21.028 9.213c-1.298-0.904-2.908-1.444-4.644-1.444-0.004 0-0.007 0-0.011 0-4.335 0-7.887 3.354-8.205 7.608h8.020l4.839-6.164zM8.15 16.309c0.163 4.402 3.781 7.92 8.222 7.92 1.483 0 2.875-0.395 4.076-1.082l-4.257-6.838h-8.043z"></path>
</symbol>
<symbol id="icon-heart" viewBox="0 0 32 32">
<title>heart</title>
<path class="path1"   d="M22.019 9.062c-0.547-0.264-1.189-0.418-1.868-0.418-1.741 0-3.246 1.016-3.952 2.488-0.085 0.186-0.149 0.374-0.195 0.57-0.054-0.195-0.118-0.383-0.2-0.562-0.71-1.477-2.214-2.492-3.954-2.492-2.419 0-4.381 1.961-4.381 4.381 0 0.677 0.154 1.318 0.428 1.89 1.020 2.163 8.102 8.438 8.102 8.438l0.001-0.020 0.002 0.020s7.083-6.275 8.113-8.464c0.264-0.547 0.418-1.189 0.418-1.866 0-1.741-1.016-3.245-2.487-3.952z"></path>
</symbol>
<symbol id="icon-image" viewBox="0 0 32 32">
<title>image</title>
<path class="path1"   d="M20.75 13.869c0 0.63-0.511 1.141-1.141 1.141s-1.141-0.511-1.141-1.141c0-0.63 0.511-1.141 1.141-1.141s1.141 0.511 1.141 1.141z"></path>
<path class="path2"   d="M7.467 9.982v12.037h17.067v-12.037h-17.067zM22.968 11.548h0.050v7.5h-2.194c-1.55-1.344-3.95-3.444-3.95-3.444l-1.211 2.098-3.362-3.573-2.285 4.227v0.695h-0.983l-0.001-7.501h13.936z"></path>
</symbol>
<symbol id="icon-info" viewBox="0 0 32 32">
<title>info</title>
<path class="path1"   d="M16 7.467c-4.713 0-8.533 3.82-8.533 8.533s3.82 8.533 8.533 8.533 8.533-3.82 8.533-8.533-3.82-8.533-8.533-8.533zM17.516 20.775h-3.033v-0.957s0.64 0.048 1.201-0.595v-3.911h-0.789v-0.979h2.619v6.443zM17.516 13.159h-2.619v-1.935h2.619v1.936z"></path>
</symbol>
<symbol id="icon-laptop" viewBox="0 0 32 32">
<title>laptop</title>
<path class="path1"   d="M23.183 19.163h-14.366l-1.067 2.078h16.499l-1.067-2.078zM14.202 20.741l0.443-0.841h2.756l0.399 0.841h-3.597zM22.937 18.681c0-0.013-0.003-0.026-0.004-0.038 0-0.013 0.002-0.026 0.002-0.038v-8.597c0-0.218-0.177-0.395-0.395-0.395h-13.083c-0.218 0-0.395 0.177-0.395 0.395v8.597c0 0.013 0.002 0.026 0.003 0.038 0 0.013-0.003 0.026-0.003 0.038l-0.004 0.006 13.877-0.008zM21.951 18.014h-11.903v-7.415h11.904v7.417zM24.49 21.714h-16.982l-0.041 0.080c0 0.219 0.176 0.593 0.395 0.593h16.277c0.219 0 0.395-0.373 0.395-0.592l-0.041-0.081z"></path>
</symbol>
<symbol id="icon-lifesaver" viewBox="0 0 32 32">
<title>lifesaver</title>
<path class="path1"   d="M18.925 12.334c1.052 0.864 1.718 2.166 1.718 3.622 0 0.020 0 0.040 0 0.060l3.768 1.426c0.599-3.481-1.027-7.003-4.085-8.796l-1.399 3.687zM12.444 12.903c0.856-0.988 2.111-1.611 3.511-1.618l1.407-3.709c-3.387-0.551-6.803 1.003-8.612 3.925l3.694 1.401zM12.868 19.427c-0.957-0.86-1.557-2.103-1.557-3.485 0-0.034 0-0.069 0.001-0.103l-3.7-1.399c-0.091 0.469-0.144 1.008-0.144 1.56 0 3.018 1.566 5.671 3.929 7.19l1.47-3.763zM19.538 18.963c-0.863 1.013-2.14 1.652-3.566 1.652-0.065 0-0.129-0.001-0.193-0.004l-1.417 3.763c3.518 0.693 7.113-0.908 8.954-3.979l-3.776-1.431z"></path>
</symbol>
<symbol id="icon-list" viewBox="0 0 32 32">
<title>list</title>
<path class="path1"   d="M23.213 9.9h-9.517v2.948h9.517v-2.947zM23.213 14.548h-9.517v2.948h9.517v-2.948zM13.696 19.196v2.948h9.517v-2.947h-9.517zM10.331 9.856c-0.853 0-1.544 0.691-1.544 1.544s0.691 1.544 1.544 1.544c0.853 0 1.544-0.691 1.544-1.544s-0.691-1.544-1.544-1.544zM10.331 14.295c-0.853 0-1.544 0.691-1.544 1.544s0.691 1.544 1.544 1.544c0.853 0 1.544-0.691 1.544-1.544s-0.691-1.544-1.544-1.544zM10.331 19.045c-0.853 0-1.544 0.691-1.544 1.544s0.691 1.544 1.544 1.544c0.853 0 1.544-0.691 1.544-1.544s-0.691-1.544-1.544-1.544z"></path>
</symbol>
<symbol id="icon-magnifying-glass-search" viewBox="0 0 32 32">
<title>magnifying-glass-search</title>
<path class="path1"   d="M24.3 21.845l-4.217-4.218c0.567-0.959 0.904-2.113 0.911-3.344 0.024-3.737-2.985-6.784-6.72-6.807h-0.045c-3.716 0-6.74 2.999-6.763 6.72-0.025 3.735 2.984 6.782 6.72 6.807h0.044c1.242 0 2.405-0.336 3.406-0.922l4.213 4.213c0.144 0.145 0.343 0.234 0.563 0.234s0.419-0.089 0.563-0.234l1.323-1.323c0.144-0.144 0.233-0.343 0.233-0.563s-0.089-0.419-0.233-0.563zM14.199 19.276c-2.779-0.018-5.025-2.293-5.008-5.070 0.018-2.761 2.278-5.008 5.038-5.008h0.034c1.392 0.006 2.649 0.578 3.553 1.498 0.899 0.905 1.454 2.151 1.454 3.526 0 0.017 0 0.034 0 0.050-0.006 1.384-0.574 2.636-1.488 3.54-0.906 0.905-2.157 1.464-3.538 1.464-0.004 0-0.008 0-0.013 0h-0.032z"></path>
</symbol>
<symbol id="icon-paperclip" viewBox="0 0 32 32">
<title>paperclip</title>
<path class="path1"   d="M10.876 23.774c-0.865 0-1.739-0.341-2.403-1.006-0.618-0.614-1.002-1.463-1.006-2.401 0-0.005 0-0.010 0-0.015 0-0.874 0.353-1.665 0.924-2.238l0.142-0.141 8.529-8.532c0.811-0.812 1.889-1.216 2.963-1.214 1.243 0.005 2.366 0.513 3.177 1.33 0.818 0.812 1.325 1.935 1.33 3.176 0.001 1.075-0.402 2.153-1.214 2.965l-7.694 7.694-1.066-1.067 7.694-7.693c0.515-0.517 0.772-1.192 0.773-1.899 0-0.748-0.293-1.515-0.889-2.11-0.539-0.545-1.285-0.885-2.111-0.89-0.706 0-1.381 0.256-1.897 0.773l-8.673 8.67c-0.32 0.322-0.48 0.741-0.481 1.187 0.004 0.524 0.219 0.997 0.565 1.338 0.341 0.346 0.813 0.561 1.336 0.564 0.005 0 0.011 0 0.016 0 0.457 0 0.871-0.184 1.172-0.483l6.539-6.54c0.121-0.122 0.181-0.277 0.182-0.455 0-0.187-0.073-0.384-0.229-0.542-0.138-0.141-0.329-0.228-0.541-0.229-0.004 0-0.008 0-0.012 0-0.173 0-0.33 0.070-0.445 0.183l-5.563 5.563-1.064-1.063 5.563-5.563c0.387-0.386 0.921-0.624 1.51-0.624 0.004 0 0.007 0 0.011 0 0.581 0 1.164 0.228 1.607 0.672 0.412 0.41 0.668 0.978 0.671 1.605 0 0.003 0 0.006 0 0.009 0 0.59-0.238 1.124-0.624 1.512l-0.507 0.506-6.036 6.035c-0.573 0.571-1.364 0.924-2.236 0.924-0.004 0-0.008 0-0.012 0h-0.005z"></path>
</symbol>
<symbol id="icon-paper-copy" viewBox="0 0 32 32">
<title>paper-copy</title>
<path class="path1"   d="M22.156 25.004h-14.189v-16.064h3.825v12.24h10.365v3.824zM9.034 23.938h12.056v-1.691h-10.364v-12.24h-1.692v13.931z"></path>
<path class="path2"   d="M19.346 6.996h-8.436v14.997h13.124v-10.309l-4.688-4.688zM19.346 9.808v-1.486l3.363 3.361h-3.36v-1.875zM23.095 21.056h-11.248v-13.122h6.562v4.687h4.687v8.435z"></path>
<path class="path3"   d="M14.525 14.545h7.633v0.803h-7.633zM14.525 16.152h7.633v0.803h-7.633zM14.525 17.759h7.633v0.803h-7.633zM14.525 19.365h3.817v0.804h-3.815zM12.784 8.402h0.469v11.717h-0.469z"></path>
</symbol>
<symbol id="icon-pencil" viewBox="0 0 32 32">
<title>pencil</title>
<path class="path1"   d="M23.348 13.763c0.979-1.226 1.987-3.495 0.209-5.261-0.639-0.631-1.383-0.952-2.213-0.952-1.289 0-2.437 0.789-3.001 1.248l-0.021-0.021-0.34 0.343-0.341 0.343h0.001l-0.965 0.971-0.005-0.004-0.334 0.347-0.341 0.344 0.005 0.005-6.325 6.562-1.529 1.536-0.048 2.389-0.631 2.839 2.729-0.403 2.509 0.262 1.403-1.328 0.009 0.008 0.345-0.343 0.349-0.331-0.007-0.007 6.979-6.923 0.908-0.914 0.006 0.006 0.336-0.352 0.338-0.34-0.021-0.021zM19.229 14.255l-6.219 6.187-1.193-1.243 6.176-6.147 1.236 1.2zM17.299 12.38l-6.151 6.123-0.459-0.478 6.006-6.23 0.603 0.586zM13.438 22.284l-1.075 1.019-1.933-0.203-1.36-1.604 0.036-1.869 0.909-0.913 3.426 3.57zM14.131 21.612l-0.452-0.472 6.243-6.213 0.481 0.467-6.272 6.219zM21.087 14.711l-3.715-3.607 0.957-0.963 3.675 3.648-0.917 0.923z"></path>
</symbol>
<symbol id="icon-people" viewBox="0 0 32 32">
<title>people</title>
<path class="path1"   d="M11.817 12.427c1.371 0 2.48-1.109 2.48-2.48s-1.109-2.48-2.48-2.48c-1.37 0-2.48 1.11-2.48 2.48s1.11 2.48 2.48 2.48zM14.352 12.843h-5.070c-0.553 0-1.003 0.45-1.003 1.003v5.252h1.433v5.436h4.209v-5.436h1.433v-5.252c0-0.554-0.449-1.003-1.003-1.003zM20.183 12.427c1.371 0 2.48-1.109 2.48-2.48s-1.109-2.48-2.48-2.48c-1.37 0-2.48 1.11-2.48 2.48s1.11 2.48 2.48 2.48zM22.718 12.843h-5.070c-0.553 0-1.003 0.45-1.003 1.003v5.252h1.433v5.436h4.211v-5.436h1.435v-5.252c0-0.554-0.449-1.003-1.003-1.003z"></path>
</symbol>
<symbol id="icon-plus" viewBox="0 0 32 32">
<title>plus</title>
<path class="path1"   d="M24.533 13.864h-6.398v-6.397h-4.271v6.397h-6.398v4.272h6.398v6.397h4.271v-6.398h6.398z"></path>
</symbol>
<symbol id="icon-portrait" viewBox="0 0 32 32">
<title>portrait</title>
<path class="path1"   d="M24.277 24.533c0-1.661-0.117-2.839-0.71-3.616-0.546-0.713-1.521-1.171-2.189-1.388-2.561-0.828-3.842-0.526-3.842-1.053s-0.080-1.28 0.118-1.408c0.447-0.29 0.754-0.619 1.108-1.072 0.354-0.451 0.64-0.99 0.838-1.588s0.307-1.255 0.307-1.945c0-0.006 0-0.013 0-0.020 0-0.689-0.112-1.352-0.32-1.971-0.188-0.564-0.473-1.091-0.835-1.556-0.345-0.44-0.767-0.806-1.235-1.059-0.44-0.245-0.964-0.39-1.523-0.391-0.559 0.002-1.084 0.147-1.54 0.401-0.452 0.244-0.873 0.61-1.227 1.063s-0.64 0.99-0.838 1.588-0.308 1.255-0.308 1.945c0 0.688 0.109 1.346 0.308 1.943 0.201 0.608 0.486 1.135 0.847 1.6 0.345 0.44 0.663 0.774 1.104 1.059 0.197 0.128 0.123 0.882 0.123 1.41s-1.28 0.226-3.842 1.054c-0.668 0.217-1.644 0.672-2.189 1.387-0.593 0.777-0.71 1.956-0.71 3.617h16.555z"></path>
</symbol>
<symbol id="icon-printer" viewBox="0 0 32 32">
<title>printer</title>
<path class="path1"   d="M10.667 20.733h10.667v3.2h-10.667zM11.067 8.067h9.867v5.244h-9.867z"></path>
<path class="path2"   d="M23.467 12.2h-1.067v2.133h-12.8v-2.133h-1.067c-0.589 0-1.067 0.478-1.067 1.067v7.467c0 0.589 0.478 1.067 1.067 1.067h1.067v-2.133h12.8v2.133h1.067c0.589 0 1.067-0.478 1.067-1.067v-7.467c0-0.589-0.478-1.067-1.067-1.067zM11.23 16.467h-1.6v-1.067h1.6v1.067zM12.83 16.467h-1.067v-1.067h1.067v1.067z"></path>
</symbol>
<symbol id="icon-protractor" viewBox="0 0 32 32">
<title>protractor</title>
<path class="path1"   d="M21.366 16.636c0-0.297-0.24-0.537-0.537-0.537h-1.82l-1.5-4.041c0.486-0.433 0.791-1.060 0.791-1.759 0-0.001 0-0.002 0-0.003 0-1.098-0.751-2.021-1.767-2.283l-0.016-1.347h-1.275v1.38c-0.967 0.309-1.654 1.2-1.654 2.251 0 0.699 0.304 1.328 0.788 1.759l-1.499 4.044h-1.708c-0.296 0-0.537 0.24-0.537 0.537s0.24 0.537 0.537 0.537h1.311l-0.366 0.985 0.186 0.8-1.374 3.7 0.391 2.675 3.029-8.16h3.193l3.029 8.16 0.392-2.676-1.372-3.7 0.186-0.8-0.366-0.985h1.422c0.297 0 0.538-0.24 0.538-0.536zM15.942 8.96c0.011 0 0.024-0.001 0.037-0.001 0.704 0 1.275 0.571 1.275 1.275s-0.571 1.275-1.275 1.275c-0.013 0-0.026 0-0.039-0.001-0.702 0-1.273-0.571-1.273-1.275s0.571-1.275 1.275-1.275zM15.942 12.654l0.048-0.002-0.048 0.077-0.048-0.077 0.048 0.002zM14.745 16.1l1.197-3.227 1.198 3.227h-2.397z"></path>
</symbol>
<symbol id="icon-puzzle-piece" viewBox="0 0 32 32">
<title>puzzle-piece</title>
<path class="path1"   d="M21.211 14.089c-0.363 0-0.944 0.108-0.944 0.287v-2.836c0-0.633-0.409-0.873-1.043-0.873h-2.963c0.178 0 0.286-0.729 0.286-1.093 0-1.038-0.842-1.932-1.88-1.932s-1.88 0.92-1.88 1.958c0 0.364 0.108 1.067 0.287 1.067h-2.836c-0.634 0-1.172 0.24-1.172 0.873v3.149c0.533-0.367 0.841-0.6 1.382-0.6 0 0 0.001 0 0.001 0 1.039 0 1.882 0.841 1.885 1.88 0 1.039-0.852 1.88-1.89 1.88-0.542 0-0.846-0.233-1.38-0.6v3.277c0.001 0.633 0.54 1.341 1.173 1.341h2.801c-0.156 0.533-0.252 0.425-0.252 0.763 0 1.039 0.842 1.8 1.88 1.8s1.88-0.721 1.88-1.759c0-0.338-0.096-0.27-0.252-0.803h2.928c0.635-0.001 1.044-0.708 1.044-1.341v-2.963c0 0.178 0.581 0.286 0.944 0.286 1.038 0 1.88-0.842 1.88-1.88s-0.842-1.88-1.88-1.88z"></path>
</symbol>
<symbol id="icon-question-mark" viewBox="0 0 32 32">
<title>question-mark</title>
<path class="path1"   d="M16 7.467c-4.713 0-8.533 3.821-8.533 8.533s3.82 8.533 8.533 8.533c4.713 0 8.533-3.82 8.533-8.533s-3.821-8.533-8.533-8.533zM16 23.061c-3.893 0-7.061-3.168-7.061-7.061s3.168-7.061 7.061-7.061 7.061 3.168 7.061 7.061-3.168 7.061-7.061 7.061zM14.982 21.595h2.196v-2.123h-2.196v2.123zM18.652 11.451c-0.733-0.528-1.652-0.793-2.758-0.793-0.843 0-1.552 0.187-2.13 0.558-0.916 0.582-1.403 1.572-1.461 2.967h2.123c0-0.406 0.118-0.798 0.356-1.175 0.237-0.376 0.639-0.565 1.205-0.565 0.576 0 0.973 0.155 1.19 0.459 0.217 0.308 0.326 0.645 0.326 1.019 0 0.323-0.098 0.619-0.293 0.889-0.119 0.168-0.259 0.312-0.419 0.43l-0.538 0.422c-0.528 0.411-0.853 0.775-0.981 1.091s-0.205 0.887-0.235 1.714h1.991c0.005-0.392 0.036-0.681 0.095-0.867 0.093-0.295 0.281-0.552 0.565-0.772l0.519-0.404c0.528-0.411 0.884-0.749 1.069-1.013 0.317-0.436 0.476-0.972 0.476-1.609 0-1.038-0.366-1.822-1.099-2.35z"></path>
</symbol>
<symbol id="icon-question-paper" viewBox="0 0 32 32">
<title>question-paper</title>
<path class="path1"   d="M20.267 8.596v2.604h2.133z"></path>
<path class="path2"   d="M19.733 9.067h-10.133v14.4h12.8v-11.733h-2.667v-2.667zM17.067 21.333h-2.133v-2.133h2.133v2.133zM19.326 14.163c-0.062 0.246-0.154 0.462-0.273 0.659-0.106 0.171-0.232 0.329-0.375 0.469-0.134 0.13-0.276 0.252-0.425 0.366-0.162 0.12-0.312 0.232-0.462 0.339-0.154 0.111-0.29 0.227-0.416 0.352-0.126 0.128-0.133 0.269-0.228 0.424-0.093 0.155-0.080 0.336-0.080 0.542v0.82h-2.133v-0.919c0-0.31 0.080-0.578 0.16-0.804 0.082-0.229 0.181-0.427 0.302-0.611 0.105-0.163 0.233-0.314 0.369-0.44s0.277-0.246 0.418-0.359c0.141-0.112 0.274-0.219 0.396-0.317 0.121-0.098 0.227-0.204 0.322-0.32 0.092-0.116 0.168-0.243 0.224-0.381 0.058-0.15 0.089-0.311 0.089-0.479 0-0.009 0-0.017 0-0.026 0-0.431-0.107-0.751-0.318-0.957s-0.507-0.309-0.882-0.309c-0.254 0-0.473 0.049-0.656 0.147s-0.333 0.232-0.449 0.392c-0.12 0.168-0.205 0.54-0.262 0.76s-0.084 0.891-0.084 0.891h-2.074c0.009-0.533 0.096-1.152 0.261-1.573 0.163-0.423 0.394-0.88 0.69-1.189s0.653-0.597 1.072-0.771c0.414-0.178 0.896-0.282 1.403-0.283 0.666 0 1.224 0.080 1.669 0.263s0.805 0.405 1.078 0.678c0.272 0.272 0.467 0.563 0.585 0.877s0.178 0.607 0.178 0.88c0 0.339-0.033 0.631-0.099 0.88z"></path>
</symbol>
<symbol id="icon-rss" viewBox="0 0 32 32">
<title>rss</title>
<path class="path1"   d="M10.903 19.17c-1.063 0-1.925 0.863-1.925 1.926s0.862 1.926 1.926 1.926c0 0 0.001 0 0.001 0 1.063 0 1.925-0.863 1.925-1.926s-0.862-1.926-1.926-1.926c0 0-0.001 0-0.001 0zM8.978 13.713v2.731c3.634 0 6.581 2.946 6.581 6.581h2.728c0-5.141-4.168-9.31-9.309-9.31zM8.978 8.979v2.807c6.205 0 11.236 5.030 11.236 11.236h2.809c0-7.757-6.288-14.045-14.044-14.045z"></path>
</symbol>
<symbol id="icon-ruler" viewBox="0 0 32 32">
<title>ruler</title>
<path class="path1"   d="M20.876 7.467l-13.41 13.41 3.657 3.657 13.41-13.41-3.657-3.657zM20.226 9.036l1.184 1.184-0.474 0.474-1.184-1.184 0.474-0.472zM11.179 22.172l-2.045-2.044 0.474-0.474 2.045 2.045-0.474 0.474zM11.501 20.128l-1.184-1.184 0.475-0.474 1.184 1.184-0.475 0.474zM13.546 19.805l-2.046-2.045 0.474-0.473 2.045 2.045-0.474 0.474zM13.867 17.76l-1.184-1.184 0.474-0.472 1.184 1.184-0.473 0.474zM15.911 17.439l-2.045-2.045 0.474-0.474 2.045 2.045-0.474 0.473zM16.234 15.394l-1.184-1.184 0.475-0.474 1.184 1.184-0.475 0.474zM18.279 15.071l-2.045-2.045 0.475-0.474 2.045 2.045-0.474 0.474zM18.602 13.026l-1.184-1.184 0.475-0.474 1.184 1.184-0.475 0.474zM20.612 12.739l-2.045-2.045 0.474-0.473 2.046 2.045-0.474 0.473z"></path>
</symbol>
<symbol id="icon-speech-bubble" viewBox="0 0 32 32">
<title>speech-bubble</title>
<path class="path1"   d="M24.533 14.862c0-3.456-3.821-6.258-8.533-6.258s-8.533 2.802-8.533 6.258c0 3.149 3.176 5.748 7.307 6.187-0.171 0.591-0.678 1.592-2.187 2.347 0 0 3.902 0.11 4.961-2.384 3.973-0.534 6.986-3.081 6.986-6.149z"></path>
</symbol>
<symbol id="icon-speech-bubbles" viewBox="0 0 32 32">
<title>speech-bubbles</title>
<path class="path1"   d="M7.467 17.115c0 2.322 2.359 4.231 5.378 4.453 0.703 1.514 3.575 1.515 3.575 1.515-0.894-0.447-1.248-1.157-1.391-1.659 2.52-0.523 4.373-2.252 4.373-4.309 0-2.473-2.672-4.477-5.968-4.477s-5.967 2.005-5.967 4.477zM21.116 8.917c-1.888 0-3.418 1.147-3.418 2.563 0 1.179 1.061 2.169 2.505 2.468-0.12 0.421-0.408 0.76-0.786 0.945s1.636 0.004 2.038-0.863c1.728-0.128 3.079-1.22 3.079-2.55 0-1.415-1.531-2.563-3.417-2.563z"></path>
</symbol>
<symbol id="icon-symbol-defs" viewBox="0 0 32 32">
<title>symbol-defs</title>
<path class="path1"   d="M7.467 17.115c0 2.322 2.359 4.231 5.378 4.453 0.703 1.514 3.575 1.515 3.575 1.515-0.894-0.447-1.248-1.157-1.391-1.659 2.52-0.523 4.373-2.252 4.373-4.309 0-2.473-2.672-4.477-5.968-4.477s-5.967 2.005-5.967 4.477zM21.116 8.917c-1.888 0-3.418 1.147-3.418 2.563 0 1.179 1.061 2.169 2.505 2.468-0.12 0.421-0.408 0.76-0.786 0.945s1.636 0.004 2.038-0.863c1.728-0.128 3.079-1.22 3.079-2.55 0-1.415-1.531-2.563-3.417-2.563z"></path>
</symbol>
<symbol id="icon-umbrella" viewBox="0 0 32 32">
<title>umbrella</title>
<path class="path1"   d="M15.498 8.802v-1.134h1.005v1.134c4.478 0.26 8.030 3.974 8.030 8.518h-0.181c-0.298-0.816-1.067-1.388-1.97-1.389-0.904 0-1.673 0.573-1.966 1.375l-0.317 0.015c-0.298-0.816-1.067-1.389-1.971-1.389 0 0 0 0 0 0-0.662 0-1.252 0.308-1.634 0.789l-0.003 5.796c-0.025 0.984-0.828 1.773-1.816 1.773s-1.791-0.788-1.816-1.77c0.015-0.26 0.228-0.464 0.489-0.464s0.474 0.204 0.489 0.46c0 0.464 0.375 0.839 0.837 0.839s0.837-0.375 0.837-0.837v-5.791c-0.385-0.485-0.974-0.794-1.636-0.794-0.001 0-0.001 0-0.002 0-0.903 0-1.673 0.573-1.966 1.375l-0.318 0.015c-0.298-0.817-1.068-1.389-1.971-1.389s-1.673 0.573-1.966 1.375l-0.186 0.015c0-4.544 3.552-8.258 8.031-8.518z"></path>
</symbol>
<symbol id="icon-video" viewBox="0 0 32 32">
<title>video</title>
<path class="path1"   d="M18.8 14.133l4.667-3.733v11.2l-4.667-3.733z"></path>
<path class="path2"   d="M17.867 10.4h-7.467c-1.031 0-1.867 0.836-1.867 1.867v7.467c0 1.031 0.836 1.867 1.867 1.867h7.467c1.031 0 1.867-0.836 1.867-1.867v-7.467c0-1.031-0.836-1.867-1.867-1.867zM12.267 18.8v-5.6l5.6 2.8-5.6 2.8z"></path>
</symbol>
<symbol id="icon-wrench" viewBox="0 0 32 32">
<title>wrench</title>
<path class="path1"   d="M22.377 12.146l-1.989-0.533-0.533-1.99 2.032-2.032c-0.281-0.079-0.605-0.125-0.939-0.125-0.99 0-1.887 0.402-2.535 1.051s-1.050 1.544-1.050 2.534c0 0.342 0.048 0.673 0.137 0.986l-5.489 5.456c-0.289-0.084-0.62-0.132-0.963-0.132-1.979 0-3.584 1.605-3.584 3.584 0 0.335 0.046 0.659 0.132 0.966l2.026-2.056 1.99 0.533 0.532 1.989-2.031 2.032c0.281 0.079 0.605 0.125 0.938 0.125 1.98 0 3.586-1.605 3.586-3.586 0-0.399-0.065-0.784-0.186-1.142l5.378-5.345c0.333 0.113 0.718 0.178 1.117 0.178 1.981 0 3.586-1.606 3.586-3.586 0-0.334-0.046-0.657-0.131-0.963l-2.026 2.056z"></path>
</symbol>
<symbol id="icon-Arrow2" viewBox="0 0 32 32">
<title>Arrow2</title>
<path fill="#c3e297" style="fill: var(--color1, #c3e297)" d="M12 22c8-16 20-22 20-22v2c-12 12-18 30-18 30l-14-14 2-4 10 8z"></path>
</symbol>
<symbol id="icon-x-svg" viewBox="0 0 32 32">
<title>x-svg</title>
<path class="path1"   d="M24.533 10.883l-3.416-3.416-5.117 5.117-5.117-5.117-3.417 3.416 5.118 5.117-5.118 5.118 3.416 3.415 5.117-5.117 5.118 5.117 3.415-3.416-5.117-5.117z"></path>
</symbol>
</defs>
</svg>
