<?xml version="1.0" encoding="utf-8"?>
<!-- Generated by IcoMoon.io -->
<!DOCTYPE svg PUBLIC "-//W3C//DTD SVG 1.1//EN" "http://www.w3.org/Graphics/SVG/1.1/DTD/svg11.dtd">
<svg version="1.1" xmlns="http://www.w3.org/2000/svg" xmlns:xlink="http://www.w3.org/1999/xlink" width="32" height="32" viewBox="0 0 32 32">
<path fill="#fff" d="M15.498 8.802v-1.134h1.005v1.134c4.478 0.26 8.030 3.974 8.030 8.518h-0.181c-0.298-0.816-1.067-1.388-1.97-1.389-0.904 0-1.673 0.573-1.966 1.375l-0.317 0.015c-0.298-0.816-1.067-1.389-1.971-1.389 0 0 0 0 0 0-0.662 0-1.252 0.308-1.634 0.789l-0.003 5.796c-0.025 0.984-0.828 1.773-1.816 1.773s-1.791-0.788-1.816-1.77c0.015-0.26 0.228-0.464 0.489-0.464s0.474 0.204 0.489 0.46c0 0.464 0.375 0.839 0.837 0.839s0.837-0.375 0.837-0.837v-5.791c-0.385-0.485-0.974-0.794-1.636-0.794-0.001 0-0.001 0-0.002 0-0.903 0-1.673 0.573-1.966 1.375l-0.318 0.015c-0.298-0.817-1.068-1.389-1.971-1.389s-1.673 0.573-1.966 1.375l-0.186 0.015c0-4.544 3.552-8.258 8.031-8.518z"></path>
</svg>
