<?xml version="1.0" encoding="utf-8"?>
<!-- Generated by IcoMoon.io -->
<!DOCTYPE svg PUBLIC "-//W3C//DTD SVG 1.1//EN" "http://www.w3.org/Graphics/SVG/1.1/DTD/svg11.dtd">
<svg version="1.1" xmlns="http://www.w3.org/2000/svg" xmlns:xlink="http://www.w3.org/1999/xlink" width="32" height="32" viewBox="0 0 32 32">
<path fill="#fff" d="M22.377 12.146l-1.989-0.533-0.533-1.99 2.032-2.032c-0.281-0.079-0.605-0.125-0.939-0.125-0.99 0-1.887 0.402-2.535 1.051s-1.050 1.544-1.050 2.534c0 0.342 0.048 0.673 0.137 0.986l-5.489 5.456c-0.289-0.084-0.62-0.132-0.963-0.132-1.979 0-3.584 1.605-3.584 3.584 0 0.335 0.046 0.659 0.132 0.966l2.026-2.056 1.99 0.533 0.532 1.989-2.031 2.032c0.281 0.079 0.605 0.125 0.938 0.125 1.98 0 3.586-1.605 3.586-3.586 0-0.399-0.065-0.784-0.186-1.142l5.378-5.345c0.333 0.113 0.718 0.178 1.117 0.178 1.981 0 3.586-1.606 3.586-3.586 0-0.334-0.046-0.657-0.131-0.963l-2.026 2.056z"></path>
</svg>
