<?xml version="1.0" encoding="utf-8"?>
<!-- Generated by IcoMoon.io -->
<!DOCTYPE svg PUBLIC "-//W3C//DTD SVG 1.1//EN" "http://www.w3.org/Graphics/SVG/1.1/DTD/svg11.dtd">
<svg version="1.1" xmlns="http://www.w3.org/2000/svg" xmlns:xlink="http://www.w3.org/1999/xlink" width="32" height="32" viewBox="0 0 32 32">
<path fill="#72777a" d="M24.889 14.222c-0.064 0.581-0.295 1.099-0.642 1.516l-0.741 1.050-10.183 14.4c-0.281 0.472-0.78 0.789-1.355 0.812-0.524-0.015-0.98-0.276-1.262-0.671-0.225-0.306-0.359-0.684-0.359-1.094 0-0.005 0-0.009 0-0.014 0.018-0.33 0.1-0.655 0.244-0.954l0.231-0.565c0.126-0.311 3.739-9.147 3.756-9.147-0.514 0-5.417 0.028-5.929 0-0.834-0.098-1.482-0.773-1.537-1.611 0.035-0.77 0.352-1.491 0.889-2.035l10.176-14.375c0.279-0.46 0.596-0.857 0.957-1.21 0.256-0.196 0.579-0.313 0.929-0.313 0.576 0 1.078 0.317 1.342 0.786 0.129 0.332 0.201 0.707 0.201 1.1 0 0.641-0.193 1.237-0.524 1.734l-3.42 8.813h4.54c0.145-0.019 0.312-0.029 0.482-0.029 0.464 0 0.909 0.079 1.323 0.224 0.47 0.258 0.802 0.756 0.861 1.318 0.014 0.089 0.021 0.178 0.021 0.265z"></path>
</svg>
