<?xml version="1.0" encoding="utf-8"?>
<!-- Generated by IcoMoon.io -->
<!DOCTYPE svg PUBLIC "-//W3C//DTD SVG 1.1//EN" "http://www.w3.org/Graphics/SVG/1.1/DTD/svg11.dtd">
<svg version="1.1" xmlns="http://www.w3.org/2000/svg" xmlns:xlink="http://www.w3.org/1999/xlink" width="32" height="32" viewBox="0 0 32 32">
<path fill="#72777a" d="M30.222 23.111c0 0.982-0.796 1.778-1.778 1.778h-1.778v1.778c0 0.982-0.796 1.778-1.778 1.778s-1.778-0.796-1.778-1.778v-1.778h-1.778c-0.982 0-1.778-0.796-1.778-1.778s0.796-1.778 1.778-1.778h1.778v-1.778c0-0.982 0.796-1.778 1.778-1.778s1.778 0.796 1.778 1.778v1.778h1.778c0.982 0 1.778 0.796 1.778 1.778z"></path>
<path fill="#72777a" d="M24.178 0h-19.911c-1.378 0.017-2.489 1.138-2.489 2.519 0 0.008 0 0.016 0 0.025v26.914c-0 0.007-0 0.015-0 0.023 0 1.381 1.111 2.502 2.487 2.519h19.913c0.128-0.003 0.251-0.016 0.37-0.038-4.761-0.194-8.534-4.089-8.534-8.865 0-4.901 3.973-8.875 8.875-8.875 0 0 0 0 0 0 0.632 0.005 1.246 0.069 1.84 0.188l-0.062-11.868c0-0.007 0-0.015 0-0.023 0-1.381-1.111-2.502-2.487-2.519zM10.667 21.333h-3.556c-0.982 0-1.778-0.796-1.778-1.778s0.796-1.778 1.778-1.778h3.556c0.982 0 1.778 0.796 1.778 1.778s-0.796 1.778-1.778 1.778zM16 14.222h-8.889c-0.982 0-1.778-0.796-1.778-1.778s0.796-1.778 1.778-1.778h8.889c0.982 0 1.778 0.796 1.778 1.778s-0.796 1.778-1.778 1.778zM21.333 7.111h-14.169c-0.982 0-1.778-0.796-1.778-1.778s0.796-1.778 1.778-1.778h14.169c0.982 0 1.778 0.796 1.778 1.778s-0.796 1.778-1.778 1.778z"></path>
</svg>
