<?xml version="1.0" encoding="utf-8"?>
<!-- Generated by IcoMoon.io -->
<!DOCTYPE svg PUBLIC "-//W3C//DTD SVG 1.1//EN" "http://www.w3.org/Graphics/SVG/1.1/DTD/svg11.dtd">
<svg version="1.1" xmlns="http://www.w3.org/2000/svg" xmlns:xlink="http://www.w3.org/1999/xlink" width="32" height="32" viewBox="0 0 32 32">
<path fill="#72777a" d="M21.333 19.596v-8.93h3.556v7.289c0.534-0.114 1.148-0.179 1.778-0.179s1.243 0.065 1.836 0.189l-0.058-12.632c-0.008-0.375-0.238-0.694-0.563-0.833l-11.562-4.447c-0.095-0.034-0.205-0.053-0.32-0.053s-0.225 0.020-0.327 0.056l-11.549 4.442c-0.331 0.141-0.56 0.461-0.569 0.835l-0 16.001h-1.778c-0.982 0-1.778 0.796-1.778 1.778v7.111c0 0.982 0.796 1.778 1.778 1.778h17.819c-1.134-1.464-1.818-3.327-1.818-5.349 0-2.881 1.388-5.438 3.532-7.038zM10.667 21.333h-3.556v-10.667h3.556v10.667zM14.222 10.667h3.556v10.667h-3.556v-10.667z"></path>
<path fill="#72777a" d="M32 26.667c0 0.982-0.796 1.778-1.778 1.778h-1.778v1.778c0 0.982-0.796 1.778-1.778 1.778s-1.778-0.796-1.778-1.778v-1.778h-1.778c-0.982 0-1.778-0.796-1.778-1.778s0.796-1.778 1.778-1.778h1.778v-1.778c0-0.982 0.796-1.778 1.778-1.778s1.778 0.796 1.778 1.778v1.778h1.778c0.982 0 1.778 0.796 1.778 1.778z"></path>
</svg>
