<?xml version="1.0" encoding="utf-8"?>
<!-- Generated by IcoMoon.io -->
<!DOCTYPE svg PUBLIC "-//W3C//DTD SVG 1.1//EN" "http://www.w3.org/Graphics/SVG/1.1/DTD/svg11.dtd">
<svg version="1.1" xmlns="http://www.w3.org/2000/svg" xmlns:xlink="http://www.w3.org/1999/xlink" width="32" height="32" viewBox="0 0 32 32">
<path fill="#72777a" d="M31.982 20.444c0 0.982-0.796 1.778-1.778 1.778h-3.556v3.556c0 0.982-0.796 1.778-1.778 1.778s-1.778-0.796-1.778-1.778v-3.556h-3.556c-0.982 0-1.778-0.796-1.778-1.778s0.796-1.778 1.778-1.778h3.556v-3.556c0-0.982 0.796-1.778 1.778-1.778s1.778 0.796 1.778 1.778v3.556h3.556c0.982 0 1.778 0.796 1.778 1.778z"></path>
<path fill="#72777a" d="M24.889 9.778c0.001 0 0.002 0 0.004 0 2.738 0 5.234 1.037 7.116 2.741l-0.009-6.296c-0.006-1.961-1.594-3.55-3.555-3.556h-24.889c-0.013-0-0.029-0-0.045-0-0.218 0-0.429 0.026-0.632 0.075-1.421 0.267-2.537 1.384-2.805 2.801-0.049 0.206-0.075 0.418-0.075 0.635 0 0.016 0 0.031 0 0.047l-0 14.22c-0 0.013-0 0.029-0 0.044 0 0.218 0.026 0.429 0.075 0.632 0.267 1.421 1.384 2.537 2.801 2.805 0.206 0.049 0.418 0.075 0.635 0.075 0.016 0 0.031-0 0.047-0l-0.002 3.556c0 0.002 0 0.004 0 0.007 0 0.734 0.451 1.363 1.091 1.625 0.198 0.094 0.417 0.147 0.649 0.147 0.014 0 0.027-0 0.040-0.001-0 0 0.001 0 0.003 0 0.49 0 0.934-0.197 1.257-0.516l4.071-4.818h4.178c-0.393-1.066-0.62-2.297-0.62-3.58 0-5.877 4.764-10.642 10.642-10.642 0.008 0 0.016 0 0.024 0z"></path>
</svg>
