<?xml version="1.0" encoding="utf-8"?>
<!-- Generated by IcoMoon.io -->
<!DOCTYPE svg PUBLIC "-//W3C//DTD SVG 1.1//EN" "http://www.w3.org/Graphics/SVG/1.1/DTD/svg11.dtd">
<svg version="1.1" xmlns="http://www.w3.org/2000/svg" xmlns:xlink="http://www.w3.org/1999/xlink" width="32" height="32" viewBox="0 0 32 32">
<path fill="#72777a" d="M8.203 0h-0.405c-3.198 0.009-5.788 2.599-5.797 5.796v2.406c0.009 3.198 2.599 5.788 5.796 5.797h0.406c3.198-0.009 5.788-2.599 5.797-5.796v-2.406c-0.009-3.198-2.599-5.788-5.796-5.797zM32 23.111c0 0.982-0.796 1.778-1.778 1.778h-5.333v5.333c0 0.982-0.796 1.778-1.778 1.778s-1.778-0.796-1.778-1.778v-5.333h-5.333c-0.982 0-1.778-0.796-1.778-1.778s0.796-1.778 1.778-1.778h5.333v-5.333c0-0.982 0.796-1.778 1.778-1.778s1.778 0.796 1.778 1.778v5.333h5.333c0.982 0 1.778 0.796 1.778 1.778z"></path>
<path fill="#72777a" d="M10.667 23.111c0.007-2.080 1.207-3.879 2.95-4.749-1.416-1.465-3.417-2.363-5.628-2.363-4.412 0-7.989 3.577-7.989 7.989 0 0.004 0 0.008 0 0.012v5.333c0.001 1.463 1.187 2.649 2.651 2.649 0.006 0 0.011-0 0.017-0l10.666 0.018c1.473 0 2.667-1.194 2.667-2.667v-0.889c-2.946 0-5.333-2.388-5.333-5.333z"></path>
</svg>
