<?xml version="1.0" encoding="utf-8"?>
<!-- Generated by IcoMoon.io -->
<!DOCTYPE svg PUBLIC "-//W3C//DTD SVG 1.1//EN" "http://www.w3.org/Graphics/SVG/1.1/DTD/svg11.dtd">
<svg version="1.1" xmlns="http://www.w3.org/2000/svg" xmlns:xlink="http://www.w3.org/1999/xlink" width="32" height="32" viewBox="0 0 32 32">
<path fill="#72777a" d="M28.444 0h-24.889c-1.961 0.006-3.55 1.594-3.556 3.555v24.889c0.006 1.961 1.594 3.55 3.555 3.556h24.889c1.961-0.006 3.55-1.594 3.556-3.555v-24.889c-0.006-1.961-1.594-3.55-3.555-3.556zM28.444 17.778c0 0.982-0.796 1.778-1.778 1.778h-7.111v7.111c0 0.982-0.796 1.778-1.778 1.778h-3.556c-0.982 0-1.778-0.796-1.778-1.778v-7.111h-7.111c-0.982 0-1.778-0.796-1.778-1.778v-3.556c0-0.982 0.796-1.778 1.778-1.778h7.111v-7.111c0-0.982 0.796-1.778 1.778-1.778h3.556c0.982 0 1.778 0.796 1.778 1.778v7.111h7.111c0.982 0 1.778 0.796 1.778 1.778v3.556z"></path>
</svg>
