<?xml version="1.0" encoding="utf-8"?>
<!-- Generated by IcoMoon.io -->
<!DOCTYPE svg PUBLIC "-//W3C//DTD SVG 1.1//EN" "http://www.w3.org/Graphics/SVG/1.1/DTD/svg11.dtd">
<svg version="1.1" xmlns="http://www.w3.org/2000/svg" xmlns:xlink="http://www.w3.org/1999/xlink" width="32" height="32" viewBox="0 0 32 32">
<path fill="#72777a" d="M29.065 23.111c-1.412-1.376-2.123-2.034-2.123-7.111 0.003-0.1 0.005-0.218 0.005-0.337 0-4.309-2.214-8.102-5.567-10.301l-0.047-1.095c0-0.015 0-0.032 0-0.050 0-2.329-1.888-4.217-4.217-4.217-0.008 0-0.016 0-0.025 0h-2.187c-0.006-0-0.014-0-0.022-0-2.329 0-4.217 1.888-4.217 4.217 0 0.018 0 0.035 0 0.053l-0 1.064c-3.399 2.229-5.613 6.021-5.613 10.331 0 0.118 0.002 0.236 0.005 0.353-0 5.060-0.712 5.718-2.123 7.094-1.653 1.611-1.653 3.556 0.766 3.556h6.965c-0.003 0.064-0.005 0.14-0.005 0.216 0 2.829 2.293 5.122 5.122 5.122 0.076 0 0.152-0.002 0.227-0.005 0.068 0.005 0.161 0.007 0.254 0.007 2.803 0 5.076-2.272 5.076-5.076 0-0.093-0.003-0.186-0.007-0.277l6.966 0.013c2.42 0 2.42-1.945 0.766-3.556zM17.778 26.77c-0.003 0.924-0.751 1.672-1.674 1.675h-0.207c-0.924-0.003-1.672-0.751-1.675-1.674v-0.206c0.003-0.924 0.751-1.672 1.674-1.675h0.207c0.924 0.004 1.671 0.75 1.675 1.675v0.206z"></path>
</svg>
