<?xml version="1.0" encoding="utf-8"?>
<!-- Generated by IcoMoon.io -->
<!DOCTYPE svg PUBLIC "-//W3C//DTD SVG 1.1//EN" "http://www.w3.org/Graphics/SVG/1.1/DTD/svg11.dtd">
<svg version="1.1" xmlns="http://www.w3.org/2000/svg" xmlns:xlink="http://www.w3.org/1999/xlink" width="32" height="32" viewBox="0 0 32 32">
<path fill="#72777a" d="M31.627 26.862l-12.444-24.889c-0.596-1.177-1.797-1.97-3.182-1.97s-2.586 0.793-3.173 1.949l-12.454 24.909c-0.238 0.461-0.377 1.005-0.377 1.583 0 0.692 0.2 1.337 0.545 1.88 0.628 1.005 1.743 1.673 3.014 1.675h24.889c0.001 0 0.001 0 0.002 0 1.271 0 2.386-0.669 3.011-1.674 0.347-0.544 0.548-1.189 0.548-1.88 0-0.578-0.14-1.123-0.388-1.603zM16 28.444c-1.473 0-2.667-1.194-2.667-2.667s1.194-2.667 2.667-2.667c1.473 0 2.667 1.194 2.667 2.667s-1.194 2.667-2.667 2.667zM17.742 19.9c-0.171 0.818-0.886 1.424-1.742 1.424s-1.572-0.606-1.74-1.412l-1.762-8.9c-0.021-0.104-0.034-0.223-0.034-0.345 0-0.981 0.795-1.777 1.776-1.778h3.525c0.981 0.001 1.776 0.797 1.776 1.778 0 0.122-0.012 0.241-0.036 0.356z"></path>
</svg>
