<?xml version="1.0" encoding="utf-8"?>
<!-- Generated by IcoMoon.io -->
<!DOCTYPE svg PUBLIC "-//W3C//DTD SVG 1.1//EN" "http://www.w3.org/Graphics/SVG/1.1/DTD/svg11.dtd">
<svg version="1.1" xmlns="http://www.w3.org/2000/svg" xmlns:xlink="http://www.w3.org/1999/xlink" width="32" height="32" viewBox="0 0 32 32">
<path fill="#72777a" d="M8.889 32c-0.002 0-0.004 0-0.006 0-0.244 0-0.476-0.050-0.687-0.139-0.638-0.27-1.085-0.902-1.085-1.638 0-0 0-0 0-0v-28.444c0-0.982 0.796-1.777 1.778-1.777 0.491 0 0.935 0.199 1.257 0.52l14.222 14.222c0.322 0.322 0.52 0.766 0.52 1.257s-0.199 0.935-0.52 1.257l-14.222 14.222c-0.322 0.322-0.766 0.521-1.257 0.521zM10.667 6.069v19.861l9.931-9.931z"></path>
</svg>
