<?xml version="1.0" encoding="utf-8"?>
<!-- Generated by IcoMoon.io -->
<!DOCTYPE svg PUBLIC "-//W3C//DTD SVG 1.1//EN" "http://www.w3.org/Graphics/SVG/1.1/DTD/svg11.dtd">
<svg version="1.1" xmlns="http://www.w3.org/2000/svg" xmlns:xlink="http://www.w3.org/1999/xlink" width="32" height="32" viewBox="0 0 32 32">
<path fill="#72777a" d="M20.592 7.289c-0.603 0.291-1.013 0.898-1.015 1.6v5.334h-17.799c-0.982 0-1.778 0.796-1.778 1.778s0.796 1.778 1.778 1.778h17.799v5.333c0.002 0.702 0.412 1.309 1.005 1.595 0.235 0.116 0.498 0.182 0.778 0.182 0.419 0 0.803-0.147 1.104-0.393l8.896-7.109c0.393-0.336 0.641-0.832 0.641-1.387s-0.248-1.051-0.638-1.385l-8.902-7.113c-0.298-0.243-0.682-0.391-1.101-0.391-0.279 0-0.543 0.066-0.777 0.182z"></path>
</svg>
