<?xml version="1.0" encoding="utf-8"?>
<!-- Generated by IcoMoon.io -->
<!DOCTYPE svg PUBLIC "-//W3C//DTD SVG 1.1//EN" "http://www.w3.org/Graphics/SVG/1.1/DTD/svg11.dtd">
<svg version="1.1" xmlns="http://www.w3.org/2000/svg" xmlns:xlink="http://www.w3.org/1999/xlink" width="32" height="32" viewBox="0 0 32 32">
<path fill="#72777a" d="M31.479 10.146l-14.222 14.222c-0.322 0.322-0.766 0.52-1.257 0.52s-0.935-0.199-1.257-0.52l-14.222-14.222c-0.322-0.322-0.52-0.766-0.52-1.257 0-0.982 0.796-1.778 1.777-1.778h28.444c0 0 0 0 0 0 0.736 0 1.368 0.447 1.638 1.085 0.090 0.209 0.14 0.439 0.14 0.681 0 0.004 0 0.008-0 0.012-0 0.49-0.199 0.935-0.521 1.256z"></path>
</svg>
