<?xml version="1.0" encoding="utf-8"?>
<!-- Generated by IcoMoon.io -->
<!DOCTYPE svg PUBLIC "-//W3C//DTD SVG 1.1//EN" "http://www.w3.org/Graphics/SVG/1.1/DTD/svg11.dtd">
<svg version="1.1" xmlns="http://www.w3.org/2000/svg" xmlns:xlink="http://www.w3.org/1999/xlink" width="32" height="32" viewBox="0 0 32 32">
<path fill="#72777a" d="M24.37 11.182c-0.323-0.319-0.767-0.516-1.256-0.516-0.001 0-0.002 0-0.003 0h-14.213c-0 0-0.001 0-0.001 0-0.982 0-1.778 0.796-1.778 1.778 0 0.493 0.201 0.94 0.526 1.262l7.111 7.111c0.325 0.319 0.77 0.516 1.262 0.516s0.937-0.197 1.262-0.517l7.111-7.111c0.314-0.323 0.507-0.764 0.507-1.251 0-0.498-0.203-0.949-0.53-1.274z"></path>
</svg>
