<?xml version="1.0" encoding="utf-8"?>
<!-- Generated by IcoMoon.io -->
<!DOCTYPE svg PUBLIC "-//W3C//DTD SVG 1.1//EN" "http://www.w3.org/Graphics/SVG/1.1/DTD/svg11.dtd">
<svg version="1.1" xmlns="http://www.w3.org/2000/svg" xmlns:xlink="http://www.w3.org/1999/xlink" width="32" height="32" viewBox="0 0 32 32">
<path fill="#72777a" d="M24.711 20.592c-0.291-0.603-0.898-1.013-1.6-1.015h-5.334v-17.799c0-0.982-0.796-1.778-1.778-1.778s-1.778 0.796-1.778 1.778v17.799h-5.333c-0.702 0.002-1.309 0.412-1.595 1.005-0.117 0.235-0.182 0.498-0.182 0.778 0 0.419 0.147 0.803 0.393 1.104l7.109 8.896c0.336 0.393 0.832 0.641 1.387 0.641s1.051-0.248 1.385-0.638l7.113-8.902c0.243-0.298 0.391-0.682 0.391-1.101 0-0.279-0.066-0.543-0.182-0.777z"></path>
</svg>
