<?xml version="1.0" encoding="utf-8"?>
<!-- Generated by IcoMoon.io -->
<!DOCTYPE svg PUBLIC "-//W3C//DTD SVG 1.1//EN" "http://www.w3.org/Graphics/SVG/1.1/DTD/svg11.dtd">
<svg version="1.1" xmlns="http://www.w3.org/2000/svg" xmlns:xlink="http://www.w3.org/1999/xlink" width="32" height="32" viewBox="0 0 32 32">
<path fill="#72777a" d="M12.267 0h0.356c2.847 0 5.156 2.308 5.156 5.156v2.133c0 2.847-2.308 5.156-5.156 5.156h-0.356c-2.847 0-5.156-2.308-5.156-5.156v-2.133c0-2.847 2.308-5.156 5.156-5.156zM26.329 8.142l-7.378 10.347c0.402 0.894 0.606 1.865 0.604 2.844v8.302c-0.006 1.303-1.061 2.358-2.364 2.364l-9.494-0.018c-0.002 0-0.003 0-0.005 0-1.299 0-2.352-1.049-2.359-2.346v-8.303c0.012-3.922 3.189-7.099 7.11-7.111 0.005 0 0.009 0 0.013 0 1.579 0 3.035 0.528 4.201 1.417l6.792-9.559c0.328-0.381 0.811-0.622 1.35-0.622 0.982 0 1.778 0.796 1.778 1.778 0 0.334-0.092 0.647-0.253 0.914z"></path>
</svg>
