<?xml version="1.0" encoding="utf-8"?>
<!-- Generated by IcoMoon.io -->
<!DOCTYPE svg PUBLIC "-//W3C//DTD SVG 1.1//EN" "http://www.w3.org/Graphics/SVG/1.1/DTD/svg11.dtd">
<svg version="1.1" xmlns="http://www.w3.org/2000/svg" xmlns:xlink="http://www.w3.org/1999/xlink" width="32" height="32" viewBox="0 0 32 32">
<path fill="#72777a" d="M30.756 4.284c-0.575-0.456-1.31-0.731-2.11-0.731-0.040 0-0.080 0.001-0.12 0.002-1.348 0.066-2.595 0.468-3.672 1.122l0.035-1.122c0.007-0.078 0.010-0.17 0.010-0.262 0-1.712-1.299-3.12-2.965-3.292l-11.854-0.001c-1.68 0.174-2.979 1.582-2.979 3.294 0 0.092 0.004 0.183 0.011 0.274l-0.001 1.090c-1.042-0.635-2.289-1.036-3.624-1.101-0.052-0.002-0.092-0.003-0.132-0.003-0.8 0-1.535 0.275-2.117 0.736-2.268 1.861-1.344 6.75 2.087 10.928 1.787 2.39 4.34 4.122 7.29 4.835 0.594 0.324 1.177 0.585 1.794 0.769l0.054 4.067h-0.018c-0.002 0-0.005-0-0.008-0-0.686 0-1.281 0.394-1.57 0.968l-1.8 3.566c-0.122 0.232-0.193 0.508-0.193 0.799 0 0.343 0.098 0.662 0.268 0.932 0.312 0.506 0.87 0.843 1.506 0.846h10.685c0.98-0.003 1.772-0.798 1.772-1.778 0-0.292-0.070-0.567-0.195-0.81l-1.773-3.546c-0.295-0.571-0.873-0.959-1.544-0.978l-0.003-4.071c0.65-0.191 1.216-0.445 1.738-0.764 3.006-0.714 5.558-2.446 7.321-4.802 3.455-4.211 4.38-9.1 2.106-10.967zM6.082 12.96c-1.449-1.537-2.385-3.572-2.525-5.822 1.394 0.258 2.604 0.918 3.556 1.842l-0.002 3.465c0 0.267 0.018 0.533 0.036 0.8 0.018 0.213 0.036 0.409 0.071 0.622 0 0.133 0.020 0.262 0.056 0.383-0.421-0.408-0.81-0.825-1.173-1.265zM25.918 12.96c-0.382 0.464-0.772 0.882-1.185 1.274l0.047-0.368c0.036-0.213 0.053-0.409 0.071-0.622 0.018-0.267 0.037-0.533 0.037-0.8v-3.467c0.95-0.922 2.16-1.581 3.51-1.859-0.095 2.269-1.031 4.304-2.485 5.846z"></path>
</svg>
