<?xml version="1.0" encoding="utf-8"?>
<!-- Generated by IcoMoon.io -->
<!DOCTYPE svg PUBLIC "-//W3C//DTD SVG 1.1//EN" "http://www.w3.org/Graphics/SVG/1.1/DTD/svg11.dtd">
<svg version="1.1" xmlns="http://www.w3.org/2000/svg" xmlns:xlink="http://www.w3.org/1999/xlink" width="32" height="32" viewBox="0 0 32 32">
<path fill="#72777a" d="M27.733 0h-19.911c-0.005-0-0.012-0-0.018-0-1.365 0-2.471 1.106-2.471 2.471 0 0.006 0 0.013 0 0.019v2.843h-1.778c-0.982 0-1.778 0.796-1.778 1.778s0.796 1.778 1.778 1.778h1.778v5.333h-1.778c-0.982 0-1.778 0.796-1.778 1.778s0.796 1.778 1.778 1.778h1.778v5.333h-1.778c-0.982 0-1.778 0.796-1.778 1.778s0.796 1.778 1.778 1.778h1.778v2.738c-0 0.009-0 0.019-0 0.030 0 1.39 1.105 2.523 2.485 2.566l19.915 0c1.384-0.043 2.489-1.176 2.489-2.566 0-0.010-0-0.021-0-0.031v-26.861c0-0.007 0-0.015 0-0.023 0-1.381-1.111-2.502-2.487-2.519zM9.778 27.556c-0 0-0.001 0-0.001 0-0.833 0-1.575-0.387-2.057-0.99 0.685-0.261 1.167-0.912 1.167-1.676s-0.482-1.416-1.159-1.667c0.474-0.613 1.216-1 2.049-1 0 0 0.001 0 0.001 0 1.473 0 2.667 1.194 2.667 2.667s-1.194 2.667-2.667 2.667zM9.778 18.667c-0 0-0.001 0-0.001 0-0.833 0-1.575-0.387-2.057-0.99 0.685-0.261 1.167-0.912 1.167-1.676s-0.482-1.416-1.159-1.667c0.474-0.613 1.216-1 2.049-1 0 0 0.001 0 0.001 0 1.473 0 2.667 1.194 2.667 2.667s-1.194 2.667-2.667 2.667zM9.778 9.778c-0 0-0.001 0-0.001 0-0.833 0-1.575-0.387-2.057-0.99 0.685-0.261 1.167-0.912 1.167-1.676s-0.482-1.416-1.159-1.667c0.474-0.613 1.216-1 2.049-1 0 0 0.001 0 0.001 0 1.473 0 2.667 1.194 2.667 2.667s-1.194 2.667-2.667 2.667z"></path>
</svg>
