<?xml version="1.0" encoding="utf-8"?>
<!-- Generated by IcoMoon.io -->
<!DOCTYPE svg PUBLIC "-//W3C//DTD SVG 1.1//EN" "http://www.w3.org/Graphics/SVG/1.1/DTD/svg11.dtd">
<svg version="1.1" xmlns="http://www.w3.org/2000/svg" xmlns:xlink="http://www.w3.org/1999/xlink" width="32" height="32" viewBox="0 0 32 32">
<path fill="#72777a" d="M16 0c-8.837 0-16 7.163-16 16s7.163 16 16 16c8.837 0 16-7.163 16-16s-7.163-16-16-16zM3.556 16c0-0.005 0-0.010 0-0.015 0-6.865 5.565-12.43 12.43-12.43 2.815 0 5.411 0.935 7.494 2.512l-17.436 17.382c-1.554-2.043-2.489-4.629-2.489-7.434 0-0.005 0-0.010 0-0.016zM16 28.444c-0.005 0-0.010 0-0.015 0-2.805 0-5.391-0.935-7.464-2.511l17.435-17.382c1.554 2.053 2.49 4.649 2.49 7.463 0 6.865-5.565 12.43-12.43 12.43-0.005 0-0.011 0-0.016 0z"></path>
</svg>
