<?xml version="1.0" encoding="utf-8"?>
<!-- Generated by IcoMoon.io -->
<!DOCTYPE svg PUBLIC "-//W3C//DTD SVG 1.1//EN" "http://www.w3.org/Graphics/SVG/1.1/DTD/svg11.dtd">
<svg version="1.1" xmlns="http://www.w3.org/2000/svg" xmlns:xlink="http://www.w3.org/1999/xlink" width="32" height="32" viewBox="0 0 32 32">
<path fill="#72777a" d="M21.404 0h-10.809c-0.943 0-1.707 0.764-1.707 1.707v29.404c0.001 0.233 0.088 0.445 0.232 0.605 0.157 0.174 0.385 0.284 0.638 0.284 0 0 0.001 0 0.001 0h0.018c0.233-0.001 0.445-0.088 0.605-0.232l0.035-0.035 5.582-5.084 5.618 5.12c0.16 0.143 0.372 0.23 0.604 0.231h0.018c0 0 0 0 0.001 0 0.253 0 0.481-0.109 0.639-0.284 0.144-0.161 0.231-0.373 0.232-0.605v-29.405c0-0.943-0.764-1.707-1.707-1.707zM19.556 25.084l-1.156-1.067-1.831-1.653c-0.148-0.132-0.344-0.213-0.559-0.213-0.003 0-0.007 0-0.010 0-0.226 0.001-0.433 0.088-0.587 0.232-0.017-0-1.813 1.635-1.813 1.635l-1.156 1.067v-20.64c0-0.491 0.398-0.889 0.889-0.889h5.333c0.491 0 0.889 0.398 0.889 0.889v20.64z"></path>
</svg>
