<?xml version="1.0" encoding="utf-8"?>
<!-- Generated by IcoMoon.io -->
<!DOCTYPE svg PUBLIC "-//W3C//DTD SVG 1.1//EN" "http://www.w3.org/Graphics/SVG/1.1/DTD/svg11.dtd">
<svg version="1.1" xmlns="http://www.w3.org/2000/svg" xmlns:xlink="http://www.w3.org/1999/xlink" width="32" height="32" viewBox="0 0 32 32">
<path fill="#72777a" d="M23.111 1.707v29.404c0 0.002 0 0.004 0 0.007 0 0.231-0.088 0.441-0.232 0.599-0.158 0.174-0.386 0.284-0.64 0.284-0.006 0-0.012-0-0.019-0-0.001 0-0.003 0-0.006 0-0.231 0-0.441-0.088-0.599-0.232l-5.617-5.119-5.618 5.12c-0.157 0.143-0.367 0.231-0.598 0.231-0.002 0-0.005 0-0.007-0-0.005 0-0.011 0-0.017 0-0.254 0-0.482-0.11-0.639-0.284-0.144-0.158-0.232-0.368-0.232-0.599 0-0.002 0-0.005 0-0.007v-29.404c0-0.943 0.764-1.707 1.707-1.707h10.809c0.943 0 1.707 0.764 1.707 1.707z"></path>
</svg>
