<?xml version="1.0" encoding="utf-8"?>
<!-- Generated by IcoMoon.io -->
<!DOCTYPE svg PUBLIC "-//W3C//DTD SVG 1.1//EN" "http://www.w3.org/Graphics/SVG/1.1/DTD/svg11.dtd">
<svg version="1.1" xmlns="http://www.w3.org/2000/svg" xmlns:xlink="http://www.w3.org/1999/xlink" width="32" height="32" viewBox="0 0 32 32">
<path fill="#72777a" d="M17.867 6.507c-0.053-0.164-0.085-0.353-0.089-0.549 0.003-0.79 0.519-1.458 1.232-1.687l3.479-1.106c0.161-0.053 0.346-0.084 0.538-0.084 0.787 0 1.454 0.515 1.681 1.227l5.479 17.15c0.054 0.163 0.086 0.35 0.086 0.545 0 0.79-0.516 1.46-1.229 1.691l-3.479 1.106c-0.159 0.053-0.342 0.085-0.531 0.089-0.79-0.003-1.458-0.519-1.687-1.232z"></path>
<path fill="#72777a" d="M30.222 24.889h-14.222c0.982 0 1.778-0.796 1.778-1.778v-17.778c0-0.982-0.796-1.778-1.778-1.778h-3.556c-0.982 0-1.778 0.796-1.778 1.778v-3.556c0-0.982-0.796-1.778-1.778-1.778h-5.333c-0.982 0-1.778 0.796-1.778 1.778v21.333c0 0.982 0.796 1.778 1.778 1.778h-1.778c-0.982 0-1.778 0.796-1.778 1.778s0.796 1.778 1.778 1.778v1.778c0 0.982 0.796 1.778 1.778 1.778s1.778-0.796 1.778-1.778v-1.778h21.333v1.778c0 0.982 0.796 1.778 1.778 1.778s1.778-0.796 1.778-1.778v-1.778c0.982 0 1.778-0.796 1.778-1.778s-0.796-1.778-1.778-1.778z"></path>
</svg>
