<?xml version="1.0" encoding="utf-8"?>
<!-- Generated by IcoMoon.io -->
<!DOCTYPE svg PUBLIC "-//W3C//DTD SVG 1.1//EN" "http://www.w3.org/Graphics/SVG/1.1/DTD/svg11.dtd">
<svg version="1.1" xmlns="http://www.w3.org/2000/svg" xmlns:xlink="http://www.w3.org/1999/xlink" width="32" height="32" viewBox="0 0 32 32">
<path fill="#72777a" d="M17.412 18.898l-0.196-1.067-1.412 0.684c-1.317-1.545-3.265-2.518-5.44-2.518-1.139 0-2.215 0.267-3.17 0.741l-3.173 1.546c-2.401 1.187-4.022 3.619-4.022 6.43 0 3.949 3.202 7.151 7.151 7.151 1.139 0 2.215-0.266 3.171-0.74l3.176-1.546c2.397-1.185 4.017-3.613 4.017-6.42 0-0.507-0.053-1.002-0.154-1.479l1.43-0.647 0.13-1.911zM11.932 26.364l-3.214 1.564c-0.457 0.227-0.995 0.36-1.564 0.36-1.975 0-3.576-1.601-3.576-3.576 0-1.406 0.811-2.622 1.991-3.207l3.233-1.574c0.455-0.226 0.991-0.358 1.557-0.358 0.746 0 1.438 0.229 2.011 0.62l-2.791 1.343c-0.601 0.297-1.007 0.905-1.007 1.609 0 0.988 0.801 1.789 1.789 1.789 0.285 0 0.554-0.066 0.793-0.185l2.77-1.35c-0.090 1.303-0.866 2.405-1.967 2.956zM31.111 3.698c-1.241-2.223-3.578-3.701-6.261-3.701-1.269 0-2.461 0.331-3.494 0.911l-3.093 1.709c-2.218 1.24-3.693 3.573-3.693 6.252 0 0.634 0.083 1.249 0.238 1.834l-1.327 0.676 0.030 0.804 1.547 0.149 0.053 0.708v1.54l1.422-0.789c1.304 1.382 3.149 2.243 5.194 2.243 1.268 0 2.459-0.331 3.49-0.91l3.093-1.706c2.219-1.242 3.694-3.577 3.694-6.257 0-1.27-0.331-2.463-0.912-3.496zM26.578 10.276l-3.129 1.728c-0.497 0.28-1.092 0.445-1.725 0.445-0.683 0-1.321-0.192-1.864-0.525l2.718-1.479c0.573-0.305 0.956-0.899 0.956-1.582 0-0.987-0.8-1.787-1.787-1.787-0.329 0-0.637 0.089-0.902 0.244l-2.701 1.489c0.024-1.314 0.754-2.451 1.826-3.052l3.142-1.734c0.483-0.259 1.056-0.411 1.664-0.411 1.975 0 3.577 1.601 3.577 3.577 0 1.313-0.707 2.46-1.761 3.083z"></path>
</svg>
