<?xml version="1.0" encoding="utf-8"?>
<!-- Generated by IcoMoon.io -->
<!DOCTYPE svg PUBLIC "-//W3C//DTD SVG 1.1//EN" "http://www.w3.org/Graphics/SVG/1.1/DTD/svg11.dtd">
<svg version="1.1" xmlns="http://www.w3.org/2000/svg" xmlns:xlink="http://www.w3.org/1999/xlink" width="32" height="32" viewBox="0 0 32 32">
<path fill="#72777a" d="M31.893 14.222c-0.795-6.81-5.752-12.272-12.229-13.809-1.178-0.27-2.404-0.413-3.665-0.413s-2.487 0.143-3.665 0.412c-7.059 1.672-12.312 8.017-12.312 15.588s5.253 13.915 12.313 15.587c0.695 0.153 1.289 0.247 1.887 0.306 1.18 0.142 2.375 0.142 3.556 0 0.597-0.059 1.191-0.153 1.778-0.284 6.586-1.559 11.543-7.021 12.331-13.756 0.149-1.256 0.149-2.45 0.007-3.631zM12.444 4.071c-2.855 2.549-4.777 6.091-5.22 10.079l-3.526 0.072c0.712-4.848 4.137-8.742 8.659-10.128zM3.698 17.778h3.52c0.45 4.060 2.372 7.602 5.211 10.137-4.594-1.395-8.019-5.29-8.723-10.070zM14.222 24.693c-1.792-1.82-3.022-4.198-3.405-6.849l3.405-0.066v6.916zM14.222 14.222h-3.413c0.392-2.718 1.622-5.096 3.415-6.917l-0.002 6.917zM17.778 7.307c1.792 1.82 3.022 4.198 3.405 6.849l-3.405 0.066v-6.916zM17.778 24.693v-6.916h3.413c-0.392 2.718-1.622 5.096-3.415 6.917zM19.556 27.929c2.855-2.549 4.777-6.091 5.22-10.079l3.526-0.072c-0.712 4.848-4.137 8.742-8.659 10.128zM24.782 14.222c-0.45-4.060-2.372-7.602-5.211-10.137 4.594 1.395 8.019 5.29 8.723 10.070l-3.512 0.068z"></path>
</svg>
