<?xml version="1.0" encoding="utf-8"?>
<!-- Generated by IcoMoon.io -->
<!DOCTYPE svg PUBLIC "-//W3C//DTD SVG 1.1//EN" "http://www.w3.org/Graphics/SVG/1.1/DTD/svg11.dtd">
<svg version="1.1" xmlns="http://www.w3.org/2000/svg" xmlns:xlink="http://www.w3.org/1999/xlink" width="32" height="32" viewBox="0 0 32 32">
<path fill="#72777a" d="M26.667 0h-21.333c-0.982 0-1.778 0.796-1.778 1.778v28.444c0 0.982 0.796 1.778 1.778 1.778h21.333c0.982 0 1.778-0.796 1.778-1.778v-28.444c0-0.982-0.796-1.778-1.778-1.778zM8.889 28.444c-0.982 0-1.778-0.796-1.778-1.778s0.796-1.778 1.778-1.778c0.982 0 1.778 0.796 1.778 1.778s-0.796 1.778-1.778 1.778zM8.889 21.333c-0.982 0-1.778-0.796-1.778-1.778s0.796-1.778 1.778-1.778c0.982 0 1.778 0.796 1.778 1.778s-0.796 1.778-1.778 1.778zM8.889 14.222c-0.982 0-1.778-0.796-1.778-1.778s0.796-1.778 1.778-1.778c0.982 0 1.778 0.796 1.778 1.778s-0.796 1.778-1.778 1.778zM16 28.444c-0.982 0-1.778-0.796-1.778-1.778s0.796-1.778 1.778-1.778c0.982 0 1.778 0.796 1.778 1.778s-0.796 1.778-1.778 1.778zM16 21.333c-0.982 0-1.778-0.796-1.778-1.778s0.796-1.778 1.778-1.778c0.982 0 1.778 0.796 1.778 1.778s-0.796 1.778-1.778 1.778zM16 14.222c-0.982 0-1.778-0.796-1.778-1.778s0.796-1.778 1.778-1.778c0.982 0 1.778 0.796 1.778 1.778s-0.796 1.778-1.778 1.778zM23.111 28.444c-0.982 0-1.778-0.796-1.778-1.778s0.796-1.778 1.778-1.778c0.982 0 1.778 0.796 1.778 1.778s-0.796 1.778-1.778 1.778zM23.111 21.333c-0.982 0-1.778-0.796-1.778-1.778s0.796-1.778 1.778-1.778c0.982 0 1.778 0.796 1.778 1.778s-0.796 1.778-1.778 1.778zM23.111 14.222c-0.982 0-1.778-0.796-1.778-1.778s0.796-1.778 1.778-1.778c0.982 0 1.778 0.796 1.778 1.778s-0.796 1.778-1.778 1.778zM23.111 7.111h-14.222c-0.982 0-1.778-0.796-1.778-1.778s0.796-1.778 1.778-1.778h14.222c0.982 0 1.778 0.796 1.778 1.778s-0.796 1.778-1.778 1.778z"></path>
</svg>
