<?xml version="1.0" encoding="utf-8"?>
<!-- Generated by IcoMoon.io -->
<!DOCTYPE svg PUBLIC "-//W3C//DTD SVG 1.1//EN" "http://www.w3.org/Graphics/SVG/1.1/DTD/svg11.dtd">
<svg version="1.1" xmlns="http://www.w3.org/2000/svg" xmlns:xlink="http://www.w3.org/1999/xlink" width="32" height="32" viewBox="0 0 32 32">
<path fill="#72777a" d="M30.222 5.333h-5.333v-3.556c0-0.982-0.796-1.778-1.778-1.778s-1.778 0.796-1.778 1.778v3.556h-10.667v-3.556c0-0.982-0.796-1.778-1.778-1.778s-1.778 0.796-1.778 1.778v3.556h-5.333c-0.982 0-1.778 0.796-1.778 1.778v23.111c0 0.982 0.796 1.778 1.778 1.778h28.444c0.982 0 1.778-0.796 1.778-1.778v-23.111c0-0.982-0.796-1.778-1.778-1.778zM28.444 28.444h-24.889v-12.444h24.889v12.444z"></path>
</svg>
