<?xml version="1.0" encoding="utf-8"?>
<!-- Generated by IcoMoon.io -->
<!DOCTYPE svg PUBLIC "-//W3C//DTD SVG 1.1//EN" "http://www.w3.org/Graphics/SVG/1.1/DTD/svg11.dtd">
<svg version="1.1" xmlns="http://www.w3.org/2000/svg" xmlns:xlink="http://www.w3.org/1999/xlink" width="32" height="32" viewBox="0 0 32 32">
<path fill="#72777a" d="M10.667 23.147c0 0.982 0.796 1.778 1.778 1.778 0.566-0.002 1.071-0.264 1.402-0.672l0.074-0.11c1.346-2 3.283-3.512 5.558-4.297 0.608-0.186 1.219-0.283 1.851-0.29l0.004 1.813c0.006 0.677 0.399 1.261 0.968 1.542 0.244 0.126 0.521 0.197 0.814 0.197 0.4 0 0.77-0.132 1.067-0.356l7.107-5.33c0.434-0.328 0.711-0.843 0.711-1.422s-0.277-1.094-0.707-1.419l-7.116-5.337c-0.291-0.222-0.66-0.355-1.061-0.355-0.294 0-0.572 0.072-0.816 0.2-0.566 0.285-0.957 0.867-0.968 1.541l-0 1.815c-3.822 0-10.507 5.511-10.667 10.702z"></path>
<path fill="#72777a" d="M2.489 0h19.911c1.388 0.018 2.501 1.154 2.489 2.542v3.108c-0.517-0.2-1.115-0.316-1.741-0.316-0.682 0-1.331 0.138-1.922 0.387 0.069-0.122 0.095-0.249 0.107-0.381 0-0.988-0.796-1.784-1.777-1.784h-14.222c-0.982 0-1.778 0.796-1.778 1.778s0.796 1.778 1.778 1.778h13.847c-0.624 0.67-1.077 1.508-1.284 2.438-0.865 0.376-1.591 0.74-2.281 1.156l-10.282-0.038c-0.982 0-1.778 0.796-1.778 1.778s0.796 1.778 1.778 1.778h5.906c-0.978 1.036-1.837 2.203-2.541 3.467l-3.364 0.088c-0.982 0-1.778 0.796-1.778 1.778s0.796 1.778 1.778 1.778h2c-0.128 0.483-0.201 1.039-0.201 1.611 0 0.694 0.108 1.363 0.308 1.991l-2.107-0.046c-0.982 0-1.778 0.796-1.778 1.778s0.796 1.778 1.778 1.778h14.222c0.982 0 1.778-0.796 1.778-1.778-0.012-0.139-0.040-0.267-0.080-0.389 0.566 0.249 1.22 0.386 1.907 0.386 0.62 0 1.215-0.112 1.763-0.318l-0.035 3.058c0 0.009 0 0.019 0 0.030 0 1.39-1.105 2.523-2.485 2.566l-19.915 0c-1.384-0.042-2.489-1.174-2.489-2.564 0-0.011 0-0.022 0-0.033l-0-26.914c-0-0.005-0-0.010-0-0.016 0-1.366 1.107-2.473 2.473-2.473 0.006 0 0.011 0 0.017 0z"></path>
</svg>
