<?xml version="1.0" encoding="utf-8"?>
<!-- Generated by IcoMoon.io -->
<!DOCTYPE svg PUBLIC "-//W3C//DTD SVG 1.1//EN" "http://www.w3.org/Graphics/SVG/1.1/DTD/svg11.dtd">
<svg version="1.1" xmlns="http://www.w3.org/2000/svg" xmlns:xlink="http://www.w3.org/1999/xlink" width="32" height="32" viewBox="0 0 32 32">
<path fill="#72777a" d="M16 0c-8.837 0-16 7.163-16 16s7.163 16 16 16c8.837 0 16-7.163 16-16s-7.163-16-16-16zM23.982 12.309l-8.924 9.796c-0.32 0.345-0.776 0.56-1.282 0.56s-0.962-0.215-1.281-0.559l-4.41-4.414c-0.327-0.318-0.529-0.762-0.529-1.253 0-0.498 0.208-0.947 0.543-1.266 0.323-0.294 0.754-0.473 1.226-0.473 0.491 0 0.936 0.194 1.264 0.508l3.121 3.102 7.644-8.409c0.331-0.349 0.797-0.566 1.315-0.566 0.449 0 0.86 0.164 1.177 0.435 0.368 0.327 0.601 0.805 0.601 1.337 0 0.464-0.177 0.886-0.466 1.204z"></path>
</svg>
