<?xml version="1.0" encoding="utf-8"?>
<!-- Generated by IcoMoon.io -->
<!DOCTYPE svg PUBLIC "-//W3C//DTD SVG 1.1//EN" "http://www.w3.org/Graphics/SVG/1.1/DTD/svg11.dtd">
<svg version="1.1" xmlns="http://www.w3.org/2000/svg" xmlns:xlink="http://www.w3.org/1999/xlink" width="32" height="32" viewBox="0 0 32 32">
<path fill="#72777a" d="M30.222 0h-28.444c-0.982 0-1.778 0.796-1.778 1.778v28.444c0 0.982 0.796 1.778 1.778 1.778h28.444c0.982 0 1.778-0.796 1.778-1.778v-28.444c0-0.982-0.796-1.778-1.778-1.778zM6.222 28.444c-1.473 0-2.667-1.194-2.667-2.667s1.194-2.667 2.667-2.667c1.473 0 2.667 1.194 2.667 2.667s-1.194 2.667-2.667 2.667zM6.222 19.556c-1.473 0-2.667-1.194-2.667-2.667s1.194-2.667 2.667-2.667c1.473 0 2.667 1.194 2.667 2.667s-1.194 2.667-2.667 2.667zM11.925 6.608l-3.474 3.484c-0.355 0.353-0.845 0.572-1.386 0.572-0.112 0-0.222-0.009-0.329-0.027-0.897-0.404-1.679-0.863-2.402-1.397-0.46-0.297-0.783-0.847-0.783-1.472 0-0.982 0.796-1.778 1.778-1.778 0.357 0 0.689 0.105 0.967 0.286l0.562 0.351 2.542-2.549c0.325-0.335 0.78-0.543 1.283-0.543 0.988 0 1.788 0.801 1.788 1.788 0 0.505-0.21 0.962-0.547 1.287zM26.667 28.444h-10.667c-0.982 0-1.778-0.796-1.778-1.778s0.796-1.778 1.778-1.778h10.667c0.982 0 1.778 0.796 1.778 1.778s-0.796 1.778-1.778 1.778zM26.667 19.556h-10.667c-0.982 0-1.778-0.796-1.778-1.778s0.796-1.778 1.778-1.778h10.667c0.982 0 1.778 0.796 1.778 1.778s-0.796 1.778-1.778 1.778zM26.667 10.667h-10.667c-0.982 0-1.778-0.796-1.778-1.778s0.796-1.778 1.778-1.778h10.667c0.982 0 1.778 0.796 1.778 1.778s-0.796 1.778-1.778 1.778z"></path>
</svg>
