<?xml version="1.0" encoding="utf-8"?>
<!-- Generated by IcoMoon.io -->
<!DOCTYPE svg PUBLIC "-//W3C//DTD SVG 1.1//EN" "http://www.w3.org/Graphics/SVG/1.1/DTD/svg11.dtd">
<svg version="1.1" xmlns="http://www.w3.org/2000/svg" xmlns:xlink="http://www.w3.org/1999/xlink" width="32" height="32" viewBox="0 0 32 32">
<path fill="#72777a" d="M31.566 5.909l-15.104 23.104c-0.486 0.733-1.307 1.209-2.239 1.209-0 0-0.001 0-0.001 0s-0.002 0-0.003 0c-0.518 0-1.002-0.145-1.413-0.398l-11.544-7.104c-0.767-0.479-1.27-1.319-1.27-2.276 0-1.477 1.197-2.674 2.674-2.674 0.52 0 1.005 0.148 1.416 0.405l9.317 5.736 13.689-20.919c0.484-0.736 1.306-1.215 2.24-1.215 1.476 0 2.673 1.197 2.673 2.673 0 0.542-0.161 1.047-0.439 1.468z"></path>
</svg>
