<?xml version="1.0" encoding="utf-8"?>
<!-- Generated by IcoMoon.io -->
<!DOCTYPE svg PUBLIC "-//W3C//DTD SVG 1.1//EN" "http://www.w3.org/Graphics/SVG/1.1/DTD/svg11.dtd">
<svg version="1.1" xmlns="http://www.w3.org/2000/svg" xmlns:xlink="http://www.w3.org/1999/xlink" width="32" height="32" viewBox="0 0 32 32">
<path fill="#72777a" d="M4.427 18.471l9.796-8.907c0.472-0.417 1.095-0.672 1.777-0.676 0.007-0 0.015-0 0.022-0 0.677 0 1.294 0.257 1.759 0.678l9.793 8.905c0.537 0.49 0.872 1.192 0.872 1.973 0 1.473-1.195 2.668-2.668 2.668-0.693 0-1.323-0.264-1.798-0.697l-7.98-7.251-7.982 7.253c-0.472 0.431-1.103 0.695-1.796 0.695-1.473 0-2.668-1.195-2.668-2.668 0-0.781 0.336-1.484 0.87-1.971z"></path>
</svg>
