<?xml version="1.0" encoding="utf-8"?>
<!-- Generated by IcoMoon.io -->
<!DOCTYPE svg PUBLIC "-//W3C//DTD SVG 1.1//EN" "http://www.w3.org/Graphics/SVG/1.1/DTD/svg11.dtd">
<svg version="1.1" xmlns="http://www.w3.org/2000/svg" xmlns:xlink="http://www.w3.org/1999/xlink" width="32" height="32" viewBox="0 0 32 32">
<path fill="#72777a" d="M25.6 9.643l-9.6 9.063-9.591-9.067c-0.502-0.465-1.177-0.751-1.918-0.751s-1.416 0.285-1.92 0.752c-0.487 0.45-0.792 1.094-0.792 1.81 0 0.645 0.248 1.232 0.653 1.671q0.066 0.073 0.141 0.141l11.508 10.88c0.503 0.466 1.178 0.752 1.92 0.752s1.417-0.286 1.922-0.754l11.506-10.873c0.49-0.452 0.796-1.097 0.796-1.813 0-0.646-0.248-1.233-0.655-1.673q-0.057-0.069-0.141-0.137c-0.502-0.463-1.175-0.746-1.914-0.746s-1.412 0.284-1.916 0.748z"></path>
</svg>
