<?xml version="1.0" encoding="utf-8"?>
<!-- Generated by IcoMoon.io -->
<!DOCTYPE svg PUBLIC "-//W3C//DTD SVG 1.1//EN" "http://www.w3.org/Graphics/SVG/1.1/DTD/svg11.dtd">
<svg version="1.1" xmlns="http://www.w3.org/2000/svg" xmlns:xlink="http://www.w3.org/1999/xlink" width="32" height="32" viewBox="0 0 32 32">
<path fill="#72777a" d="M4.249 11.538c0.49-0.537 1.192-0.873 1.973-0.873 0.693 0 1.324 0.264 1.798 0.697l7.98 7.251 7.982-7.253c0.472-0.431 1.103-0.695 1.796-0.695 1.473 0 2.668 1.194 2.668 2.668 0 0.781-0.336 1.484-0.87 1.971l-9.798 8.909c-0.463 0.419-1.080 0.676-1.756 0.676-0.008 0-0.015-0-0.023-0-0.682-0.003-1.305-0.259-1.78-0.678l-9.793-8.904c-0.537-0.49-0.873-1.192-0.873-1.973 0-0.693 0.264-1.324 0.697-1.798z"></path>
</svg>
