<?xml version="1.0" encoding="utf-8"?>
<!-- Generated by IcoMoon.io -->
<!DOCTYPE svg PUBLIC "-//W3C//DTD SVG 1.1//EN" "http://www.w3.org/Graphics/SVG/1.1/DTD/svg11.dtd">
<svg version="1.1" xmlns="http://www.w3.org/2000/svg" xmlns:xlink="http://www.w3.org/1999/xlink" width="32" height="32" viewBox="0 0 32 32">
<path fill="#72777a" d="M16.693 27.573l-8.907-9.796c-0.417-0.472-0.672-1.095-0.676-1.777-0-0.007-0-0.015-0-0.022 0-0.677 0.257-1.294 0.678-1.758l8.905-9.793c0.49-0.537 1.192-0.872 1.973-0.872 1.473 0 2.668 1.194 2.668 2.668 0 0.693-0.264 1.323-0.697 1.798l-7.251 7.98 7.253 7.982c0.431 0.472 0.695 1.103 0.695 1.796 0 1.473-1.195 2.668-2.668 2.668-0.781 0-1.484-0.336-1.971-0.87z"></path>
</svg>
