<?xml version="1.0" encoding="utf-8"?>
<!-- Generated by IcoMoon.io -->
<!DOCTYPE svg PUBLIC "-//W3C//DTD SVG 1.1//EN" "http://www.w3.org/Graphics/SVG/1.1/DTD/svg11.dtd">
<svg version="1.1" xmlns="http://www.w3.org/2000/svg" xmlns:xlink="http://www.w3.org/1999/xlink" width="32" height="32" viewBox="0 0 32 32">
<path fill="#72777a" d="M30.222 0h-28.444c-0.982 0-1.778 0.796-1.778 1.778v28.444c0 0.982 0.796 1.778 1.778 1.778h28.444c0.982 0 1.778-0.796 1.778-1.778v-28.444c0-0.982-0.796-1.778-1.778-1.778zM19.556 10.667c0-1.964 1.592-3.556 3.556-3.556s3.556 1.592 3.556 3.556v1.778c0 1.964-1.592 3.556-3.556 3.556s-3.556-1.592-3.556-3.556v-1.778zM11.924 24.368l-3.556 3.556c-0.322 0.322-0.766 0.52-1.257 0.52s-0.935-0.199-1.257-0.52l-1.778-1.778c-0.309-0.319-0.499-0.755-0.499-1.235 0-0.982 0.796-1.778 1.778-1.778 0.48 0 0.916 0.19 1.236 0.5l0.52 0.52 2.299-2.299c0.319-0.309 0.755-0.499 1.235-0.499 0.982 0 1.778 0.796 1.778 1.778 0 0.48-0.19 0.916-0.5 1.236zM11.924 15.479l-3.556 3.556c-0.322 0.322-0.766 0.52-1.257 0.52s-0.935-0.199-1.257-0.52l-1.778-1.778c-0.335-0.324-0.543-0.777-0.543-1.279 0-0.982 0.796-1.778 1.778-1.778 0.502 0 0.955 0.208 1.278 0.542l0.521 0.521 2.299-2.299c0.319-0.309 0.755-0.499 1.235-0.499 0.982 0 1.778 0.796 1.778 1.778 0 0.48-0.19 0.916-0.5 1.236zM11.924 6.59l-3.556 3.556c-0.322 0.322-0.766 0.521-1.257 0.521s-0.935-0.199-1.257-0.521l-1.778-1.778c-0.335-0.324-0.543-0.777-0.543-1.279 0-0.982 0.796-1.778 1.778-1.778 0.502 0 0.955 0.208 1.278 0.542l0.521 0.521 2.299-2.299c0.319-0.309 0.755-0.499 1.235-0.499 0.982 0 1.778 0.796 1.778 1.778 0 0.48-0.19 0.916-0.5 1.236zM28.444 26.667c0 0.982-0.796 1.778-1.778 1.778l-7.111-0.012c-0.003 0-0.007 0-0.011 0-0.975 0-1.766-0.79-1.767-1.765v-3.556c0-2.946 2.388-5.333 5.333-5.333s5.333 2.388 5.333 5.333v3.556z"></path>
</svg>
