<?xml version="1.0" encoding="utf-8"?>
<!-- Generated by IcoMoon.io -->
<!DOCTYPE svg PUBLIC "-//W3C//DTD SVG 1.1//EN" "http://www.w3.org/Graphics/SVG/1.1/DTD/svg11.dtd">
<svg version="1.1" xmlns="http://www.w3.org/2000/svg" xmlns:xlink="http://www.w3.org/1999/xlink" width="32" height="32" viewBox="0 0 32 32">
<path fill="#72777a" d="M1.778 0h1.778v17.223c0 0.14 0.050 0.276 0.144 0.379 0.098 0.109 0.24 0.178 0.398 0.178 0.005 0 0.009-0 0.014-0 0 0 0.001 0 0.002 0 0.145 0 0.277-0.055 0.376-0.144l3.511-3.413 3.511 3.412c0.099 0.089 0.231 0.144 0.376 0.144 0.001 0 0.002 0 0.003 0 0.004 0 0.008 0 0.013 0 0.158 0 0.3-0.069 0.397-0.177 0.090-0.099 0.144-0.231 0.144-0.375 0-0.001 0-0.002 0-0.003v-17.223h7.111c0.982 0 1.778 0.796 1.778 1.778v28.444c0 0.982-0.796 1.778-1.778 1.778h-17.778c-0.982 0-1.778-0.796-1.778-1.778v-28.444c0-0.982 0.796-1.778 1.778-1.778z"></path>
</svg>
