<?xml version="1.0" encoding="utf-8"?>
<!-- Generated by IcoMoon.io -->
<!DOCTYPE svg PUBLIC "-//W3C//DTD SVG 1.1//EN" "http://www.w3.org/Graphics/SVG/1.1/DTD/svg11.dtd">
<svg version="1.1" xmlns="http://www.w3.org/2000/svg" xmlns:xlink="http://www.w3.org/1999/xlink" width="32" height="32" viewBox="0 0 32 32">
<path fill="#72777a" d="M31.214 27.449c0.486 0.48 0.787 1.147 0.787 1.884s-0.301 1.404-0.787 1.884c-0.483 0.482-1.149 0.78-1.885 0.78s-1.402-0.298-1.884-0.78l-11.445-11.449-11.445 11.449c-0.482 0.482-1.149 0.78-1.884 0.78s-1.402-0.298-1.884-0.78c-0.486-0.48-0.787-1.147-0.787-1.884s0.301-1.404 0.787-1.884l11.446-11.449-11.445-11.444c-0.443-0.475-0.716-1.115-0.716-1.818 0-1.473 1.194-2.667 2.667-2.667 0.703 0 1.343 0.272 1.819 0.717l11.444 11.447 11.445-11.449c0.475-0.443 1.115-0.716 1.818-0.716 1.473 0 2.667 1.194 2.667 2.667 0 0.703-0.272 1.343-0.717 1.819l-11.444 11.442z"></path>
</svg>
