<?xml version="1.0" encoding="utf-8"?>
<!-- Generated by IcoMoon.io -->
<!DOCTYPE svg PUBLIC "-//W3C//DTD SVG 1.1//EN" "http://www.w3.org/Graphics/SVG/1.1/DTD/svg11.dtd">
<svg version="1.1" xmlns="http://www.w3.org/2000/svg" xmlns:xlink="http://www.w3.org/1999/xlink" width="32" height="32" viewBox="0 0 32 32">
<path fill="#72777a" d="M31.479 28.96c0.325 0.322 0.525 0.769 0.525 1.262 0 0.982-0.796 1.779-1.779 1.779-0.489 0-0.932-0.197-1.253-0.517l-12.963-12.96-12.987 12.96c-0.321 0.319-0.764 0.517-1.253 0.517-0.982 0-1.779-0.796-1.779-1.779 0-0.493 0.201-0.94 0.525-1.262l12.969-12.96-12.964-12.956c-0.321-0.324-0.52-0.77-0.52-1.262s0.199-0.938 0.52-1.262c0.321-0.319 0.764-0.517 1.253-0.517s0.932 0.197 1.253 0.517l12.978 12.978 12.964-12.978c0.321-0.32 0.764-0.517 1.253-0.517s0.932 0.197 1.253 0.517c0.321 0.324 0.52 0.77 0.52 1.262s-0.199 0.938-0.52 1.262l-12.96 12.956z"></path>
</svg>
