<?xml version="1.0" encoding="utf-8"?>
<!-- Generated by IcoMoon.io -->
<!DOCTYPE svg PUBLIC "-//W3C//DTD SVG 1.1//EN" "http://www.w3.org/Graphics/SVG/1.1/DTD/svg11.dtd">
<svg version="1.1" xmlns="http://www.w3.org/2000/svg" xmlns:xlink="http://www.w3.org/1999/xlink" width="32" height="32" viewBox="0 0 32 32">
<path fill="#72777a" d="M27.925 25.404c0.321 0.324 0.52 0.77 0.52 1.262s-0.199 0.938-0.52 1.262c-0.325 0.319-0.77 0.516-1.262 0.516s-0.937-0.197-1.262-0.516l-9.401-9.404-9.401 9.404c-0.325 0.319-0.771 0.516-1.262 0.516s-0.937-0.197-1.263-0.516c-0.321-0.323-0.52-0.77-0.52-1.262s0.199-0.938 0.52-1.262l9.401-9.404-9.399-9.401c-0.323-0.323-0.523-0.769-0.523-1.262 0-0.986 0.799-1.785 1.785-1.785 0.493 0 0.939 0.2 1.262 0.523l9.399 9.404 9.401-9.408c0.323-0.323 0.769-0.523 1.262-0.523 0.986 0 1.785 0.799 1.785 1.785 0 0.493-0.2 0.939-0.523 1.262l-9.404 9.404z"></path>
</svg>
