<?xml version="1.0" encoding="utf-8"?>
<!-- Generated by IcoMoon.io -->
<!DOCTYPE svg PUBLIC "-//W3C//DTD SVG 1.1//EN" "http://www.w3.org/Graphics/SVG/1.1/DTD/svg11.dtd">
<svg version="1.1" xmlns="http://www.w3.org/2000/svg" xmlns:xlink="http://www.w3.org/1999/xlink" width="32" height="32" viewBox="0 0 32 32">
<path fill="#72777a" d="M28.14 0h-19.911c-0.005-0-0.010-0-0.016-0-1.36 0-2.464 1.098-2.473 2.456v2.877h-1.778c-0.982 0-1.778 0.796-1.778 1.778s0.796 1.778 1.778 1.778h1.778v5.333h-1.778c-0.982 0-1.778 0.796-1.778 1.778s0.796 1.778 1.778 1.778h1.778v5.333h-1.778c-0.982 0-1.778 0.796-1.778 1.778s0.796 1.778 1.778 1.778h1.778v2.738c-0 0.009-0 0.019-0 0.030 0 1.39 1.105 2.523 2.485 2.566l19.915 0c1.384-0.043 2.489-1.176 2.489-2.566 0-0.010-0-0.021-0-0.031v-26.861c0-0.007 0-0.015 0-0.023 0-1.381-1.111-2.502-2.487-2.519zM10.185 27.556c-0 0-0.001 0-0.001 0-0.833 0-1.575-0.387-2.057-0.99 0.685-0.261 1.167-0.912 1.167-1.676s-0.482-1.416-1.159-1.667c0.474-0.613 1.216-1 2.049-1 0 0 0.001 0 0.001 0 1.473 0 2.667 1.194 2.667 2.667s-1.194 2.667-2.667 2.667zM10.185 18.667c-0 0-0.001 0-0.001 0-0.833 0-1.575-0.387-2.057-0.99 0.685-0.261 1.167-0.912 1.167-1.676s-0.482-1.416-1.159-1.667c0.474-0.613 1.216-1 2.049-1 0 0 0.001 0 0.001 0 1.473 0 2.667 1.194 2.667 2.667s-1.194 2.667-2.667 2.667zM10.185 9.778c-0 0-0.001 0-0.001 0-0.833 0-1.575-0.387-2.057-0.99 0.685-0.261 1.167-0.912 1.167-1.676s-0.482-1.416-1.159-1.667c0.474-0.613 1.216-1 2.049-1 0 0 0.001 0 0.001 0 1.473 0 2.667 1.194 2.667 2.667s-1.194 2.667-2.667 2.667zM26.853 16.5c-0.146 0.411-0.356 0.765-0.62 1.071-0.254 0.29-0.565 0.529-0.916 0.699-0.352 0.17-0.746 0.265-1.161 0.265-0.009 0-0.018-0-0.027-0-0.010 0-0.024 0-0.037 0-0.3 0-0.581-0.078-0.825-0.215-0.244-0.144-0.431-0.382-0.51-0.665-0.239 0.276-0.532 0.505-0.865 0.663-0.304 0.136-0.641 0.211-0.995 0.211-0.007 0-0.014-0-0.021-0-0.012 0-0.027 0-0.043 0-0.261 0-0.51-0.053-0.737-0.149-0.204-0.090-0.388-0.225-0.536-0.392-0.146-0.169-0.259-0.368-0.327-0.587-0.073-0.229-0.113-0.48-0.113-0.74 0-0.008 0-0.017 0-0.025 0.001-0.269 0.038-0.53 0.106-0.779 0.072-0.261 0.177-0.508 0.311-0.737 0.14-0.24 0.309-0.46 0.503-0.656 0.206-0.209 0.439-0.391 0.695-0.537 0.283-0.16 0.591-0.286 0.917-0.37 0.351-0.090 0.723-0.138 1.107-0.138 0.017 0 0.034 0 0.051 0 0.020-0 0.047-0.001 0.074-0.001 0.304 0 0.602 0.029 0.89 0.084 0.256 0.053 0.505 0.13 0.743 0.228l-0.696 2.431c-0.064 0.204-0.102 0.44-0.107 0.684-0 0.013-0.001 0.026-0.001 0.038 0 0.139 0.032 0.271 0.088 0.389 0.049 0.092 0.133 0.167 0.235 0.207 0.105 0.039 0.222 0.061 0.345 0.061 0.212 0 0.409-0.066 0.572-0.177 0.184-0.127 0.338-0.29 0.453-0.48 0.137-0.222 0.244-0.472 0.313-0.736 0.079-0.292 0.122-0.606 0.122-0.93 0-0.012-0-0.025-0-0.037 0-0.019 0.001-0.044 0.001-0.069 0-0.517-0.105-1.010-0.294-1.458-0.177-0.407-0.446-0.771-0.78-1.062-0.347-0.292-0.754-0.517-1.201-0.653-0.471-0.146-0.984-0.227-1.517-0.227-0.020 0-0.039 0-0.059 0-0.011-0-0.028-0-0.045-0-0.6 0-1.173 0.119-1.695 0.335-0.5 0.208-0.954 0.508-1.339 0.879-0.378 0.37-0.684 0.813-0.895 1.307-0.217 0.505-0.337 1.063-0.337 1.648 0 0.012 0 0.023 0 0.035-0.001 0.029-0.001 0.066-0.001 0.102 0 0.647 0.131 1.263 0.368 1.823 0.221 0.509 0.554 0.965 0.968 1.333 0.416 0.363 0.907 0.645 1.446 0.82 0.562 0.183 1.175 0.284 1.812 0.284 0.017 0 0.034-0 0.051-0 0.003 0 0.009 0 0.015 0 0.35 0 0.696-0.021 1.035-0.061 0.294-0.035 0.588-0.088 0.875-0.158 0.236-0.060 0.474-0.134 0.705-0.221 0.185-0.073 0.375-0.16 0.558-0.258 0.038-0.029 0.119-0.054 0.205-0.054 0.031 0 0.062 0.003 0.092 0.010 0.094 0.028 0.168 0.102 0.199 0.195l0.241 0.585c-0.491 0.299-1.059 0.548-1.66 0.719-0.687 0.194-1.421 0.299-2.178 0.299-0.032 0-0.064-0-0.096-0.001-0.016 0-0.041 0-0.067 0-0.817 0-1.603-0.137-2.335-0.389-0.673-0.229-1.296-0.593-1.83-1.057-0.518-0.459-0.939-1.028-1.225-1.67-0.29-0.667-0.451-1.407-0.451-2.185 0-0.040 0-0.080 0.001-0.12-0 0.003-0-0.001-0-0.005 0-0.483 0.071-0.95 0.203-1.39 0.13-0.439 0.318-0.852 0.555-1.231 0.24-0.383 0.526-0.733 0.85-1.044 0.33-0.316 0.699-0.593 1.098-0.821 0.843-0.48 1.82-0.754 2.86-0.754 0.005 0 0.009 0 0.014 0s0.013-0 0.021-0c0.678 0 1.33 0.115 1.937 0.325 0.582 0.197 1.121 0.499 1.591 0.884 0.457 0.38 0.836 0.853 1.108 1.39 0.277 0.555 0.432 1.18 0.432 1.841 0 0.026-0 0.052-0.001 0.078 0 0.006 0 0.017 0 0.028 0 0.461-0.081 0.904-0.229 1.314z"></path>
<path fill="#72777a" d="M21.721 14.617c-0.257 0.12-0.476 0.281-0.656 0.478-0.182 0.198-0.33 0.427-0.435 0.68-0.109 0.255-0.169 0.534-0.169 0.828-0.001 0.018-0.002 0.039-0.002 0.060 0 0.224 0.073 0.43 0.198 0.596 0.125 0.141 0.311 0.232 0.517 0.232 0.016 0 0.032-0.001 0.049-0.002 0.129-0.001 0.256-0.020 0.375-0.056 0.127-0.039 0.246-0.104 0.348-0.187 0.12-0.099 0.222-0.216 0.304-0.348 0.102-0.167 0.181-0.353 0.232-0.55l0.519-1.867c-0.14-0.025-0.301-0.040-0.465-0.041-0.005-0-0.011-0-0.017-0-0.289 0-0.563 0.065-0.808 0.181z"></path>
</svg>
