<?xml version="1.0" encoding="utf-8"?>
<!-- Generated by IcoMoon.io -->
<!DOCTYPE svg PUBLIC "-//W3C//DTD SVG 1.1//EN" "http://www.w3.org/Graphics/SVG/1.1/DTD/svg11.dtd">
<svg version="1.1" xmlns="http://www.w3.org/2000/svg" xmlns:xlink="http://www.w3.org/1999/xlink" width="32" height="32" viewBox="0 0 32 32">
<path fill="#72777a" d="M31.733 12.711l-5.316-5.333c-0.163-0.165-0.39-0.266-0.64-0.267h-9.067c-1.378 0.017-2.489 1.138-2.489 2.519 0 0.008 0 0.016 0 0.025v19.803c-0 0.007-0 0.015-0 0.023 0 1.381 1.111 2.502 2.487 2.519h12.802c1.378-0.017 2.489-1.138 2.489-2.519 0-0.008-0-0.016-0-0.025v-16.123c0-0.003 0-0.007 0-0.010 0-0.241-0.102-0.459-0.266-0.612zM19.556 10.667h3.556c0.982 0 1.778 0.796 1.778 1.778s-0.796 1.778-1.778 1.778h-3.556c-0.982 0-1.778-0.796-1.778-1.778s0.796-1.778 1.778-1.778zM26.667 28.444h-7.111c-0.982 0-1.778-0.796-1.778-1.778s0.796-1.778 1.778-1.778h7.111c0.982 0 1.778 0.796 1.778 1.778s-0.796 1.778-1.778 1.778zM26.667 21.333h-7.111c-0.982 0-1.778-0.796-1.778-1.778s0.796-1.778 1.778-1.778h7.111c0.982 0 1.778 0.796 1.778 1.778s-0.796 1.778-1.778 1.778z"></path>
<path fill="#72777a" d="M17.778 3.556v-1.778c-0.055-0.959-0.819-1.723-1.773-1.778l-14.227-0c-0.982 0-1.778 0.796-1.778 1.778v23.111c0 0.982 0.796 1.778 1.778 1.778h8.889v-3.556h-5.333c-0.982 0-1.778-0.796-1.778-1.778s0.796-1.778 1.778-1.778h5.333v-3.556h-5.333c-0.982 0-1.778-0.796-1.778-1.778s0.796-1.778 1.778-1.778h5.333v-3.556h-5.333c-0.982 0-1.778-0.796-1.778-1.778s0.796-1.778 1.778-1.778h5.831c0.623-1.064 1.757-1.77 3.057-1.778h3.557z"></path>
</svg>
