<?xml version="1.0" encoding="utf-8"?>
<!-- Generated by IcoMoon.io -->
<!DOCTYPE svg PUBLIC "-//W3C//DTD SVG 1.1//EN" "http://www.w3.org/Graphics/SVG/1.1/DTD/svg11.dtd">
<svg version="1.1" xmlns="http://www.w3.org/2000/svg" xmlns:xlink="http://www.w3.org/1999/xlink" width="32" height="32" viewBox="0 0 32 32">
<path fill="#72777a" d="M16 32c5.628-0.021 10.376-3.761 11.917-8.889l-23.858-0.088c1.564 5.217 6.313 8.957 11.939 8.978zM32 16v1.778c0.001 0.018 0.001 0.040 0.001 0.062 0 0.948-0.769 1.717-1.717 1.717-0.022 0-0.043-0-0.065-0.001l-14.219-0.018-14.222 0.018c-0.018 0.001-0.040 0.001-0.062 0.001-0.948 0-1.717-0.769-1.717-1.717 0-0.022 0-0.043 0.001-0.065l-0-1.775c-0.001-0.018-0.001-0.040-0.001-0.062 0-0.948 0.769-1.717 1.717-1.717 0.022 0 0.043 0 0.065 0.001l-0.003-1.209c0.121-3.586 1.561-6.813 3.846-9.233 0.153-0.136 0.365-0.224 0.598-0.224 0.001 0 0.001 0 0.002 0 0.472 0 0.858 0.368 0.887 0.833l0 8.056c0 0.982 0.796 1.778 1.778 1.778s1.778-0.796 1.778-1.778v-8.889c0.006-1.961 1.594-3.55 3.555-3.556h3.556c1.961 0.006 3.55 1.594 3.556 3.555v8.889c0 0.982 0.796 1.778 1.778 1.778s1.778-0.796 1.778-1.778v-8.053c0.029-0.467 0.415-0.836 0.887-0.836 0.001 0 0.001 0 0.002 0 0.233 0 0.445 0.088 0.605 0.232 2.278 2.413 3.718 5.64 3.838 9.202l0.001 1.232c0.018-0.001 0.040-0.001 0.062-0.001 0.948 0 1.717 0.769 1.717 1.717 0 0.022-0 0.043-0.001 0.065z"></path>
</svg>
