<?xml version="1.0" encoding="utf-8"?>
<!-- Generated by IcoMoon.io -->
<!DOCTYPE svg PUBLIC "-//W3C//DTD SVG 1.1//EN" "http://www.w3.org/Graphics/SVG/1.1/DTD/svg11.dtd">
<svg version="1.1" xmlns="http://www.w3.org/2000/svg" xmlns:xlink="http://www.w3.org/1999/xlink" width="32" height="32" viewBox="0 0 32 32">
<path fill="#72777a" d="M10.667 32h-8.889c-0.982 0-1.778-0.796-1.778-1.778v-8.889c0-0.982 0.796-1.778 1.778-1.778h8.889c0.982 0 1.778 0.796 1.778 1.778v8.889c0 0.982-0.796 1.778-1.778 1.778zM30.222 32h-8.889c-0.982 0-1.778-0.796-1.778-1.778v-8.889c0-0.982 0.796-1.778 1.778-1.778h8.889c0.982 0 1.778 0.796 1.778 1.778v8.889c0 0.982-0.796 1.778-1.778 1.778zM10.667 12.444h-8.889c-0.982 0-1.778-0.796-1.778-1.778v-8.889c0-0.982 0.796-1.778 1.778-1.778h8.889c0.982 0 1.778 0.796 1.778 1.778v8.889c0 0.982-0.796 1.778-1.778 1.778zM31.481 9.316l-6.284 6.284c-0.322 0.322-0.766 0.52-1.257 0.52s-0.935-0.199-1.257-0.521l-6.284-6.284c-0.321-0.322-0.52-0.766-0.52-1.256s0.199-0.934 0.52-1.256l6.286-6.284c0.322-0.322 0.766-0.52 1.257-0.52s0.935 0.199 1.257 0.52l6.284 6.284c0.321 0.322 0.519 0.765 0.519 1.255 0 0.492-0.2 0.937-0.522 1.259z"></path>
</svg>
