<?xml version="1.0" encoding="utf-8"?>
<!-- Generated by IcoMoon.io -->
<!DOCTYPE svg PUBLIC "-//W3C//DTD SVG 1.1//EN" "http://www.w3.org/Graphics/SVG/1.1/DTD/svg11.dtd">
<svg version="1.1" xmlns="http://www.w3.org/2000/svg" xmlns:xlink="http://www.w3.org/1999/xlink" width="32" height="32" viewBox="0 0 32 32">
<path fill="#72777a" d="M23.111 32h-14.222c-1.964 0-3.556-1.592-3.556-3.556v-16c0-0.982 0.796-1.778 1.778-1.778h17.778c0.982 0 1.778 0.796 1.778 1.778v16c0 1.964-1.592 3.556-3.556 3.556zM28.444 5.333c0 0.982-0.796 1.778-1.778 1.778h-21.333c-0.982 0-1.778-0.796-1.778-1.778s0.796-1.778 1.778-1.778h5.333v-1.778c0-0.982 0.796-1.778 1.778-1.778h7.111c0.982 0 1.778 0.796 1.778 1.778v1.778h5.333c0.982 0 1.778 0.796 1.778 1.778z"></path>
</svg>
