<?xml version="1.0" encoding="utf-8"?>
<!-- Generated by IcoMoon.io -->
<!DOCTYPE svg PUBLIC "-//W3C//DTD SVG 1.1//EN" "http://www.w3.org/Graphics/SVG/1.1/DTD/svg11.dtd">
<svg version="1.1" xmlns="http://www.w3.org/2000/svg" xmlns:xlink="http://www.w3.org/1999/xlink" width="32" height="32" viewBox="0 0 32 32">
<path fill="#72777a" d="M21.333 14.222v8.889c-0.006 1.961-1.594 3.55-3.555 3.556h-7.112l-4.071 4.818c-0.323 0.319-0.767 0.516-1.257 0.516-0.002 0-0.004 0-0.005 0-0.011 0-0.025 0.001-0.038 0.001-0.231 0-0.451-0.053-0.646-0.147-0.643-0.262-1.093-0.891-1.093-1.625 0-0.002 0-0.005 0-0.007v-3.555c-0.013 0-0.029 0-0.045 0-0.218 0-0.429-0.026-0.632-0.075-1.421-0.267-2.537-1.384-2.805-2.801-0.049-0.206-0.075-0.418-0.075-0.635 0-0.016 0-0.031 0-0.047l-0-8.887c-0-0.013-0-0.029-0-0.044 0-0.218 0.026-0.429 0.075-0.632 0.267-1.421 1.384-2.537 2.801-2.805 0.206-0.049 0.418-0.075 0.635-0.075 0.016 0 0.031 0 0.047 0l14.22-0c1.961 0.006 3.55 1.594 3.556 3.555z"></path>
<path fill="#72777a" d="M28.444 0h-14.222c-0.013-0-0.029-0-0.044-0-0.218 0-0.429 0.026-0.632 0.075-1.421 0.267-2.537 1.384-2.805 2.801-0.049 0.206-0.075 0.418-0.075 0.635 0 0.016 0 0.031 0 0.047l-0 3.553h7.111c3.927 0 7.111 3.184 7.111 7.111v1.778h3.556c1.961-0.006 3.549-1.594 3.556-3.555v-8.889c-0.006-1.961-1.594-3.55-3.555-3.556z"></path>
</svg>
