<?xml version="1.0" encoding="utf-8"?>
<!-- Generated by IcoMoon.io -->
<!DOCTYPE svg PUBLIC "-//W3C//DTD SVG 1.1//EN" "http://www.w3.org/Graphics/SVG/1.1/DTD/svg11.dtd">
<svg version="1.1" xmlns="http://www.w3.org/2000/svg" xmlns:xlink="http://www.w3.org/1999/xlink" width="32" height="32" viewBox="0 0 32 32">
<path fill="#72777a" d="M20.818 26.987l-3.556 3.604c-0.323 0.322-0.77 0.521-1.262 0.521s-0.939-0.199-1.262-0.521l-3.556-3.604c-0.315-0.327-0.51-0.773-0.51-1.264 0-0.249 0.050-0.487 0.141-0.704 0.255-0.651 0.889-1.112 1.631-1.113h1.778v-9.908c0-0.982 0.796-1.778 1.778-1.778s1.778 0.796 1.778 1.778v9.908h1.778c0 0 0.001 0 0.001 0 0.739 0 1.372 0.457 1.63 1.105 0.092 0.218 0.143 0.458 0.143 0.709 0 0.492-0.195 0.939-0.512 1.268z"></path>
<path fill="#72777a" d="M25.404 8.112c-1.146-4.193-4.921-7.224-9.404-7.224s-8.259 3.031-9.389 7.156c-3.753 0.364-6.674 3.47-6.674 7.258 0 3.969 3.207 7.189 7.171 7.211h1.056c0.618-0.865 1.47-1.526 2.465-1.896l0.036-6.618c0-2.946 2.388-5.333 5.333-5.333s5.333 2.388 5.333 5.333v6.61c1.031 0.379 1.884 1.039 2.491 1.886l1.065 0.016c3.941-0.054 7.114-3.262 7.114-7.21 0-3.767-2.888-6.859-6.571-7.183z"></path>
</svg>
