<?xml version="1.0" encoding="utf-8"?>
<!-- Generated by IcoMoon.io -->
<!DOCTYPE svg PUBLIC "-//W3C//DTD SVG 1.1//EN" "http://www.w3.org/Graphics/SVG/1.1/DTD/svg11.dtd">
<svg version="1.1" xmlns="http://www.w3.org/2000/svg" xmlns:xlink="http://www.w3.org/1999/xlink" width="32" height="32" viewBox="0 0 32 32">
<path fill="#72777a" d="M31.479 15.751l-10.233 10.066c-0.697 0.688-4.418 3.2-5.124 2.507s1.87-4.332 2.569-5.020l10.233-10.066c0.327-0.317 0.773-0.512 1.265-0.512 0.498 0 0.949 0.2 1.278 0.524 0.329 0.318 0.533 0.763 0.533 1.257 0 0.487-0.199 0.928-0.521 1.244z"></path>
<path fill="#72777a" d="M22.4 0h-19.911c-1.378 0.017-2.489 1.138-2.489 2.519 0 0.008 0 0.016 0 0.025v26.914c-0 0.007-0 0.015-0 0.023 0 1.381 1.111 2.502 2.487 2.519h19.913c1.378-0.017 2.489-1.138 2.489-2.519 0-0.008-0-0.016-0-0.025v-4.834l-2.471 2.471c-0.036 0.036-3.431 3.129-5.956 3.129-0.023 0.001-0.051 0.001-0.078 0.001-0.593 0-1.131-0.238-1.522-0.624-1.422-1.44-0.106-3.698 0.463-4.675 0.632-1.082 1.314-2.019 2.078-2.881l7.486-7.484v-12.018c0-0.007 0-0.015 0-0.023 0-1.381-1.111-2.502-2.487-2.519zM5.387 3.556h8.836c0.982 0 1.778 0.796 1.778 1.778s-0.796 1.778-1.778 1.778h-8.836c-0.982 0-1.778-0.796-1.778-1.778s0.796-1.778 1.778-1.778zM12.444 21.351l-7.111-0.018c-0.053 0.006-0.115 0.009-0.178 0.009-0.982 0-1.778-0.796-1.778-1.778s0.796-1.778 1.778-1.778c0.063 0 0.124 0.003 0.185 0.010l7.104-0.001c0.982 0 1.778 0.796 1.778 1.778s-0.796 1.778-1.778 1.778zM19.556 14.222h-14.222c-0.982 0-1.778-0.796-1.778-1.778s0.796-1.778 1.778-1.778h14.222c0.982 0 1.778 0.796 1.778 1.778s-0.796 1.778-1.778 1.778z"></path>
</svg>
