<?xml version="1.0" encoding="utf-8"?>
<!-- Generated by IcoMoon.io -->
<!DOCTYPE svg PUBLIC "-//W3C//DTD SVG 1.1//EN" "http://www.w3.org/Graphics/SVG/1.1/DTD/svg11.dtd">
<svg version="1.1" xmlns="http://www.w3.org/2000/svg" xmlns:xlink="http://www.w3.org/1999/xlink" width="32" height="32" viewBox="0 0 32 32">
<path fill="#72777a" d="M5.067 19.39l-1.195 2.501-3.813 8.793c-0.037 0.097-0.058 0.21-0.058 0.327s0.021 0.23 0.060 0.334c0.078 0.118 0.169 0.225 0.272 0.319 0.097 0.106 0.204 0.197 0.322 0.273 0.105 0.041 0.218 0.063 0.337 0.063 0.001 0 0.003 0 0.004 0 0.002 0 0.006 0 0.009 0 0.112 0 0.219-0.022 0.317-0.061l8.787-3.811 2.501-1.195 15.164-15.164-7.545-7.543zM8.635 24.889l-2.693 1.168 1.17-2.692 0.903-1.892 2.516 2.512zM29.701 9.844l-7.545-7.545 1.257-1.257c0.644-0.644 1.533-1.043 2.516-1.043s1.872 0.399 2.516 1.043l2.514 2.514c0.644 0.644 1.043 1.533 1.043 2.516s-0.399 1.872-1.043 2.516z"></path>
</svg>
