<?xml version="1.0" encoding="utf-8"?>
<!-- Generated by IcoMoon.io -->
<!DOCTYPE svg PUBLIC "-//W3C//DTD SVG 1.1//EN" "http://www.w3.org/Graphics/SVG/1.1/DTD/svg11.dtd">
<svg version="1.1" xmlns="http://www.w3.org/2000/svg" xmlns:xlink="http://www.w3.org/1999/xlink" width="32" height="32" viewBox="0 0 32 32">
<path fill="#72777a" d="M5.076 19.392l-1.191 2.501-3.817 8.791c-0.037 0.097-0.058 0.21-0.058 0.327s0.021 0.23 0.060 0.334c0.077 0.118 0.168 0.225 0.27 0.32 0.097 0.105 0.204 0.197 0.322 0.273 0.106 0.041 0.221 0.062 0.34 0.063 0.003 0 0.006 0 0.009 0 0.112 0 0.219-0.022 0.317-0.061l8.785-3.808 2.507-1.195 15.159-15.161-7.545-7.543zM8.644 24.889l-2.693 1.168 1.161-2.69 0.91-1.892 2.514 2.514zM29.703 9.849l-7.541-7.538 1.257-1.257c0.644-0.644 1.533-1.043 2.516-1.043 0.98 0 1.867 0.396 2.51 1.038l2.515 2.507c0.644 0.644 1.043 1.533 1.043 2.516s-0.399 1.872-1.043 2.516zM13.76 1.588l-1.12-1.12c-0.286-0.289-0.682-0.468-1.12-0.468s-0.834 0.179-1.12 0.467l-8.139 8.16-0.533 1.102-1.707 3.911c-0.013 0.043-0.020 0.092-0.020 0.142s0.007 0.1 0.021 0.146c0.039 0.056 0.080 0.109 0.124 0.157 0.047 0.043 0.099 0.084 0.155 0.121 0.040 0.003 0.094 0.021 0.147 0.021 0.007 0 0.015 0.001 0.023 0.001 0.042 0 0.083-0.007 0.122-0.019l3.908-1.706 1.102-0.533 8.156-8.142c0.288-0.286 0.467-0.682 0.467-1.12s-0.178-0.834-0.467-1.12zM31.529 19.36l-1.12-1.12c-0.286-0.289-0.682-0.468-1.12-0.468s-0.834 0.179-1.12 0.467l-8.139 8.16-0.533 1.102-1.707 3.911c-0.013 0.043-0.020 0.092-0.020 0.142s0.007 0.1 0.021 0.146c0.070 0.114 0.166 0.21 0.28 0.279 0.039 0.002 0.093 0.020 0.146 0.020 0.007 0 0.015 0.001 0.023 0.001 0.042 0 0.083-0.007 0.122-0.019l3.908-1.706 1.102-0.533 8.16-8.142c0.287-0.286 0.465-0.681 0.465-1.118 0-0.439-0.179-0.836-0.468-1.122z"></path>
</svg>
