<?xml version="1.0" encoding="utf-8"?>
<!-- Generated by IcoMoon.io -->
<!DOCTYPE svg PUBLIC "-//W3C//DTD SVG 1.1//EN" "http://www.w3.org/Graphics/SVG/1.1/DTD/svg11.dtd">
<svg version="1.1" xmlns="http://www.w3.org/2000/svg" xmlns:xlink="http://www.w3.org/1999/xlink" width="32" height="32" viewBox="0 0 32 32">
<path fill="#72777a" d="M15.936 26.667c-1.073-0.001-2.073-0.306-2.921-0.835l-12.99-7.954v12.345c0 0.982 0.796 1.778 1.778 1.778h28.277c0.982 0 1.778-0.796 1.778-1.778v-12.345l-13.013 7.964c-0.827 0.518-1.832 0.825-2.908 0.825-0 0-0 0-0 0z"></path>
<path fill="#72777a" d="M31.52 11.218l-3.2-3.396v-5.973c-0.003-1.020-0.829-1.846-1.849-1.849h-21.074c-1.016 0.008-1.838 0.832-1.842 1.849v6.080l-3.079 3.289c-0.295 0.304-0.478 0.719-0.478 1.177 0 0.080 0.006 0.159 0.016 0.236-0.001-0-0.002 0.010-0.002 0.021 0 0.053 0.007 0.104 0.019 0.153 0.048 0.632 0.403 1.175 0.915 1.484l13.934 8.52c0.304 0.189 0.672 0.302 1.066 0.302 0.388-0.004 0.748-0.116 1.054-0.307l13.915-8.511c0.312-0.189 0.561-0.454 0.724-0.771 0.23-0.305 0.365-0.679 0.365-1.084 0-0.473-0.185-0.903-0.486-1.221zM19.467 14.222h-10.601c-0.982 0-1.778-0.796-1.778-1.778s0.796-1.778 1.778-1.778h10.601c0.982 0 1.778 0.796 1.778 1.778s-0.796 1.778-1.778 1.778zM23.004 7.129h-14.139c-0.992 0-1.796-0.804-1.796-1.796s0.804-1.796 1.796-1.796h14.139c0.992 0 1.796 0.804 1.796 1.796s-0.804 1.796-1.796 1.796z"></path>
</svg>
