<?xml version="1.0" encoding="utf-8"?>
<!-- Generated by IcoMoon.io -->
<!DOCTYPE svg PUBLIC "-//W3C//DTD SVG 1.1//EN" "http://www.w3.org/Graphics/SVG/1.1/DTD/svg11.dtd">
<svg version="1.1" xmlns="http://www.w3.org/2000/svg" xmlns:xlink="http://www.w3.org/1999/xlink" width="32" height="32" viewBox="0 0 32 32">
<path fill="#72777a" d="M16 21.333c-0 0-0.001 0-0.001 0-1.078 0-2.085-0.306-2.938-0.835l-13.061-7.954v12.345c0 0.982 0.796 1.778 1.778 1.778h28.444c0.982 0 1.778-0.796 1.778-1.778v-12.345l-13.074 7.964c-0.832 0.518-1.843 0.825-2.924 0.825-0.001 0-0.001 0-0.002 0z"></path>
<path fill="#72777a" d="M31.051 8.96l-13.984 8.516c-0.303 0.19-0.672 0.302-1.067 0.302s-0.763-0.113-1.075-0.307l-13.975-8.511c-0.571-0.344-0.948-0.961-0.948-1.666 0-0.192 0.028-0.377 0.080-0.553 0.262-0.817 1.027-1.409 1.931-1.409 0.001 0 0.002 0 0.004 0h27.97c0.002 0 0.004 0 0.006 0 0.903 0 1.668 0.591 1.928 1.408 0.052 0.176 0.080 0.361 0.080 0.553 0 0.705-0.376 1.322-0.939 1.661z"></path>
</svg>
