<?xml version="1.0" encoding="utf-8"?>
<!-- Generated by IcoMoon.io -->
<!DOCTYPE svg PUBLIC "-//W3C//DTD SVG 1.1//EN" "http://www.w3.org/Graphics/SVG/1.1/DTD/svg11.dtd">
<svg version="1.1" xmlns="http://www.w3.org/2000/svg" xmlns:xlink="http://www.w3.org/1999/xlink" width="32" height="32" viewBox="0 0 32 32">
<path fill="#72777a" d="M16.551 16.8c-0.164 0.056-0.354 0.088-0.551 0.089-0.001 0-0.001 0-0.001 0-0.197 0-0.386-0.033-0.563-0.093l0.002 0.004-15.438-5.15v14.128c0.006 1.961 1.594 3.549 3.555 3.556h24.889c1.961-0.006 3.549-1.594 3.556-3.555v-14.127l-15.449 5.148z"></path>
<path fill="#72777a" d="M28.444 6.222h-7.111v-1.778c-0.006-1.961-1.594-3.55-3.555-3.556h-3.556c-1.961 0.006-3.55 1.594-3.556 3.555v1.778h-7.111c-1.328 0.010-2.481 0.746-3.084 1.831l15.529 5.191 15.538-5.173c-0.612-1.103-1.766-1.839-3.092-1.849zM17.778 6.222h-3.556v-1.778h3.556v1.778z"></path>
</svg>
