<?xml version="1.0" encoding="utf-8"?>
<!-- Generated by IcoMoon.io -->
<!DOCTYPE svg PUBLIC "-//W3C//DTD SVG 1.1//EN" "http://www.w3.org/Graphics/SVG/1.1/DTD/svg11.dtd">
<svg version="1.1" xmlns="http://www.w3.org/2000/svg" xmlns:xlink="http://www.w3.org/1999/xlink" width="32" height="32" viewBox="0 0 32 32">
<path fill="#72777a" d="M21.511 1.067c-0.086 0.196-0.137 0.424-0.137 0.663 0 0.464 0.188 0.884 0.492 1.187l2.404 2.404-5.996 6.002c-0.308 0.308-0.498 0.732-0.498 1.202 0 0.939 0.761 1.7 1.7 1.7 0.469 0 0.894-0.19 1.202-0.498l6.011-6.011 2.404 2.404c0.304 0.304 0.724 0.492 1.187 0.492 0.24 0 0.468-0.050 0.674-0.141 0.609-0.254 1.038-0.852 1.047-1.55v-7.214c-0.004-0.941-0.766-1.703-1.706-1.707h-7.213c-0.707 0.004-1.312 0.439-1.566 1.055z"></path>
<path fill="#72777a" d="M24.889 19.556v8.889c-0.006 1.961-1.594 3.55-3.555 3.556h-17.778c-1.961-0.006-3.55-1.594-3.556-3.555v-17.778c0.006-1.961 1.594-3.55 3.555-3.556h8.889c0.982 0 1.778 0.796 1.778 1.778s-0.796 1.778-1.778 1.778h-8.889v17.778h17.778v-8.889c0-0.982 0.796-1.778 1.778-1.778s1.778 0.796 1.778 1.778z"></path>
</svg>
