<?xml version="1.0" encoding="utf-8"?>
<!-- Generated by IcoMoon.io -->
<!DOCTYPE svg PUBLIC "-//W3C//DTD SVG 1.1//EN" "http://www.w3.org/Graphics/SVG/1.1/DTD/svg11.dtd">
<svg version="1.1" xmlns="http://www.w3.org/2000/svg" xmlns:xlink="http://www.w3.org/1999/xlink" width="32" height="32" viewBox="0 0 32 32">
<path fill="#72777a" d="M23.111 0c0.982 0 1.778 0.796 1.778 1.778-0.002 0.566-0.263 1.071-0.67 1.402l-0.11 0.074c-1.994 1.348-3.501 3.284-4.281 5.558-0.186 0.608-0.283 1.219-0.29 1.851l1.808 0.004c0.658 0.005 1.257 0.384 1.543 0.978 0.121 0.234 0.192 0.511 0.192 0.804 0 0.4-0.132 0.77-0.356 1.067l-5.316 7.107c-0.328 0.434-0.843 0.711-1.422 0.711s-1.094-0.277-1.419-0.707l-5.322-7.116c-0.222-0.292-0.355-0.661-0.355-1.061 0-0.294 0.072-0.572 0.199-0.815 0.285-0.569 0.869-0.96 1.546-0.968h1.807c0-3.822 5.499-10.507 10.667-10.667z"></path>
<path fill="#72777a" d="M32 14.222c0 0.009 0.001 0.019 0.001 0.029 0 0.053-0.007 0.104-0.019 0.153l0.001 15.818c0 0.982-0.796 1.778-1.778 1.778h-28.427c-0.982 0-1.778-0.796-1.778-1.778l0.018-16c0-0.982 0.796-1.778 1.778-1.778s1.778 0.796 1.778 1.778c0 0.009 0.001 0.019 0.001 0.029 0 0.053-0.007 0.104-0.019 0.153l0.001 14.040h24.873v-14.222h0.016c0-0.982 0.796-1.778 1.778-1.778s1.778 0.796 1.778 1.778z"></path>
</svg>
