<?xml version="1.0" encoding="utf-8"?>
<!-- Generated by IcoMoon.io -->
<!DOCTYPE svg PUBLIC "-//W3C//DTD SVG 1.1//EN" "http://www.w3.org/Graphics/SVG/1.1/DTD/svg11.dtd">
<svg version="1.1" xmlns="http://www.w3.org/2000/svg" xmlns:xlink="http://www.w3.org/1999/xlink" width="32" height="32" viewBox="0 0 32 32">
<path fill="#72777a" d="M7.289 3.556h-0.356c-2.845 0.006-5.149 2.311-5.156 5.155v2.134c0.006 2.845 2.311 5.149 5.155 5.156h0.356c2.845-0.006 5.149-2.311 5.156-5.155v-2.134c-0.006-2.845-2.311-5.149-5.155-5.156zM7.111 17.778c-3.922 0.012-7.099 3.189-7.111 7.11v4.742c0.002 1.3 1.057 2.354 2.357 2.354 0.004 0 0.009 0 0.013-0l9.48 0.018c1.309-0.003 2.369-1.063 2.372-2.371v-4.742c-0.010-3.923-3.188-7.101-7.11-7.111zM32 1.778v7.111c0 0.982-0.796 1.778-1.778 1.778h-7.093l-2.116 3.342c-0.147 0.132-0.343 0.213-0.558 0.213-0.004 0-0.008-0-0.012-0-0.136-0.004-0.263-0.037-0.379-0.091-0.301-0.139-0.51-0.443-0.51-0.796 0-0 0-0.001 0-0.001v-2.667h-1.778c-0.982 0-1.778-0.796-1.778-1.778v-7.111c0-0.982 0.796-1.778 1.778-1.778h12.444c0.982 0 1.778 0.796 1.778 1.778z"></path>
</svg>
