<?xml version="1.0" encoding="utf-8"?>
<!-- Generated by IcoMoon.io -->
<!DOCTYPE svg PUBLIC "-//W3C//DTD SVG 1.1//EN" "http://www.w3.org/Graphics/SVG/1.1/DTD/svg11.dtd">
<svg version="1.1" xmlns="http://www.w3.org/2000/svg" xmlns:xlink="http://www.w3.org/1999/xlink" width="32" height="32" viewBox="0 0 32 32">
<path fill="#72777a" d="M32 24.889c0 0.008 0 0.016 0 0.025 0 2.438-1.649 4.49-3.892 5.104-0.633 1.186-1.834 1.978-3.219 1.978-1.962 0-3.553-1.59-3.556-3.552v-7.111c0.015-1.958 1.598-3.541 3.554-3.556 1.066 0 2.020 0.474 2.664 1.222l0.004-4.031c0-6.382-5.174-11.556-11.556-11.556s-11.556 5.174-11.556 11.556l0.018 4.018c0.044-0.059 0.091-0.112 0.142-0.159 0.633-0.648 1.514-1.050 2.489-1.050 0.006 0 0.013 0 0.019 0 1.96 0.006 3.548 1.594 3.555 3.555v7.112c-0.002 1.962-1.593 3.552-3.556 3.552-1.386 0-2.586-0.793-3.173-1.949-2.29-0.642-3.938-2.695-3.938-5.133 0-0.009 0-0.018 0-0.027 0.006-1.097 0.337-2.118 0.901-2.97l-0.013-6.949c0-8.346 6.765-15.111 15.111-15.111s15.111 6.765 15.111 15.111v6.969c0.552 0.832 0.883 1.852 0.889 2.95z"></path>
</svg>
