<?xml version="1.0" encoding="utf-8"?>
<!-- Generated by IcoMoon.io -->
<!DOCTYPE svg PUBLIC "-//W3C//DTD SVG 1.1//EN" "http://www.w3.org/Graphics/SVG/1.1/DTD/svg11.dtd">
<svg version="1.1" xmlns="http://www.w3.org/2000/svg" xmlns:xlink="http://www.w3.org/1999/xlink" width="32" height="32" viewBox="0 0 32 32">
<path fill="#72777a" d="M31.253 9.209c-0.289-0.198-0.646-0.318-1.031-0.32-0.218 0.001-0.425 0.040-0.618 0.111l-6.494 2.343v-0.533c-0.010-2.038-1.66-3.688-3.697-3.698h-15.717c-2.038 0.010-3.688 1.66-3.698 3.697v10.383c0.010 2.038 1.66 3.688 3.697 3.698h15.717c2.038-0.010 3.688-1.66 3.698-3.697v-0.854l6.436 2.649c0.192 0.079 0.415 0.125 0.649 0.125 0.009 0 0.019-0 0.028-0 0.98 0 1.776-0.796 1.776-1.778v-10.667c-0.001-0.598-0.293-1.127-0.742-1.454zM5.333 14.222c-0.982 0-1.778-0.796-1.778-1.778s0.796-1.778 1.778-1.778c0.982 0 1.778 0.796 1.778 1.778s-0.796 1.778-1.778 1.778z"></path>
</svg>
