<?xml version="1.0" encoding="utf-8"?>
<!-- Generated by IcoMoon.io -->
<!DOCTYPE svg PUBLIC "-//W3C//DTD SVG 1.1//EN" "http://www.w3.org/Graphics/SVG/1.1/DTD/svg11.dtd">
<svg version="1.1" xmlns="http://www.w3.org/2000/svg" xmlns:xlink="http://www.w3.org/1999/xlink" width="32" height="32" viewBox="0 0 32 32">
<path fill="#72777a" d="M28.178 5.6l-5.316-5.333c-0.163-0.165-0.39-0.266-0.64-0.267h-16.178c-1.378 0.017-2.489 1.138-2.489 2.519 0 0.008 0 0.016 0 0.025v26.914c-0 0.007-0 0.015-0 0.023 0 1.381 1.111 2.502 2.487 2.519h19.913c1.378-0.017 2.489-1.138 2.489-2.519 0-0.008-0-0.016-0-0.025v-23.234c0-0.003 0-0.007 0-0.010 0-0.241-0.102-0.459-0.266-0.612zM8.935 3.556h8.843c0.982 0 1.778 0.796 1.778 1.778s-0.796 1.778-1.778 1.778h-8.843c-0.982 0-1.778-0.796-1.778-1.778s0.796-1.778 1.778-1.778zM23.111 28.444h-14.222c-0.982 0-1.778-0.796-1.778-1.778s0.796-1.778 1.778-1.778h14.222c0.982 0 1.778 0.796 1.778 1.778s-0.796 1.778-1.778 1.778zM23.111 21.333h-14.222c-0.982 0-1.778-0.796-1.778-1.778s0.796-1.778 1.778-1.778h14.222c0.982 0 1.778 0.796 1.778 1.778s-0.796 1.778-1.778 1.778zM23.111 14.222h-14.222c-0.982 0-1.778-0.796-1.778-1.778s0.796-1.778 1.778-1.778h14.222c0.982 0 1.778 0.796 1.778 1.778s-0.796 1.778-1.778 1.778z"></path>
</svg>
