<?xml version="1.0" encoding="utf-8"?>
<!-- Generated by IcoMoon.io -->
<!DOCTYPE svg PUBLIC "-//W3C//DTD SVG 1.1//EN" "http://www.w3.org/Graphics/SVG/1.1/DTD/svg11.dtd">
<svg version="1.1" xmlns="http://www.w3.org/2000/svg" xmlns:xlink="http://www.w3.org/1999/xlink" width="32" height="32" viewBox="0 0 32 32">
<path fill="#72777a" d="M30.222 4.444h-28.444c-0.982 0-1.778 0.796-1.778 1.778v18.684c0.004 1.461 1.188 2.645 2.649 2.649h26.703c1.461-0.004 2.645-1.188 2.649-2.648v-18.685c0-0.982-0.796-1.778-1.778-1.778zM12.444 9.778c0.982 0 1.778 0.796 1.778 1.778s-0.796 1.778-1.778 1.778c-0.982 0-1.778-0.796-1.778-1.778s0.796-1.778 1.778-1.778zM3.556 24c0.070-0.077 0.125-0.169 0.159-0.27 0.144-0.236 0.304-0.473 0.446-0.716 0.213-0.32 0.409-0.658 0.622-0.996 0.231-0.391 0.48-0.786 0.711-1.177s0.498-0.782 0.729-1.173c0.231-0.356 0.444-0.711 0.658-1.049 0.16-0.267 0.32-0.516 0.462-0.764 0.116-0.217 0.252-0.404 0.41-0.57 0.185-0.147 0.405-0.262 0.643-0.333 0.147-0.037 0.3-0.057 0.458-0.057s0.311 0.019 0.457 0.056c0.238 0.058 0.458 0.162 0.65 0.303l2.573 1.952 5.778 4.795h-14.756zM23.876 24l-7.787-6.462 6.098-3.911c0.271-0.178 0.602-0.286 0.958-0.293 0.009-0 0.017-0 0.025-0 0.157 0 0.308 0.026 0.449 0.074 0.492 0.127 0.895 0.469 1.106 0.918l3.72 9.674h-4.569z"></path>
</svg>
