<?xml version="1.0" encoding="utf-8"?>
<!-- Generated by IcoMoon.io -->
<!DOCTYPE svg PUBLIC "-//W3C//DTD SVG 1.1//EN" "http://www.w3.org/Graphics/SVG/1.1/DTD/svg11.dtd">
<svg version="1.1" xmlns="http://www.w3.org/2000/svg" xmlns:xlink="http://www.w3.org/1999/xlink" width="32" height="32" viewBox="0 0 32 32">
<path fill="#72777a" d="M25.511 8.631l-7.733 7.742v4.978c0 2.329-3.556 4.356-3.556 3.36v-8.356l-7.733-7.723c-0.165-0.155-0.268-0.374-0.268-0.618 0-0.124 0.027-0.242 0.074-0.348 0.131-0.324 0.446-0.553 0.815-0.556h17.778c0.367 0.002 0.682 0.226 0.816 0.545 0.050 0.108 0.077 0.228 0.077 0.354 0 0.245-0.104 0.465-0.27 0.62z"></path>
<path fill="#72777a" d="M17.778 30.222c0 0.982-0.796 1.778-1.778 1.778s-1.778-0.796-1.778-1.778c0-0.982 0.796-1.778 1.778-1.778s1.778 0.796 1.778 1.778z"></path>
<path fill="#72777a" d="M10.667 1.778c0 0.982-0.796 1.778-1.778 1.778s-1.778-0.796-1.778-1.778c0-0.982 0.796-1.778 1.778-1.778s1.778 0.796 1.778 1.778z"></path>
<path fill="#72777a" d="M24.889 1.778c0 0.982-0.796 1.778-1.778 1.778s-1.778-0.796-1.778-1.778c0-0.982 0.796-1.778 1.778-1.778s1.778 0.796 1.778 1.778z"></path>
<path fill="#72777a" d="M17.778 1.778c0 0.982-0.796 1.778-1.778 1.778s-1.778-0.796-1.778-1.778c0-0.982 0.796-1.778 1.778-1.778s1.778 0.796 1.778 1.778z"></path>
</svg>
