<?xml version="1.0" encoding="utf-8"?>
<!-- Generated by IcoMoon.io -->
<!DOCTYPE svg PUBLIC "-//W3C//DTD SVG 1.1//EN" "http://www.w3.org/Graphics/SVG/1.1/DTD/svg11.dtd">
<svg version="1.1" xmlns="http://www.w3.org/2000/svg" xmlns:xlink="http://www.w3.org/1999/xlink" width="32" height="32" viewBox="0 0 32 32">
<path fill="#72777a" d="M8 0c-0.982 0-1.778 0.796-1.778 1.778v28.444c0 0.982 0.796 1.778 1.778 1.778s1.778-0.796 1.778-1.778v-15.36c0.448-0.123 0.962-0.194 1.492-0.196 2.041 0.048 3.842 1.027 5.003 2.527 1.097 1.379 2.726 2.271 4.566 2.361 0.038 0.001 0.066 0.001 0.094 0.001 0.141 0 0.28-0.007 0.417-0.020 0.511-0.040 1-0.147 1.462-0.313 0.451-0.178 0.873-0.399 1.265-0.661 0.378-0.264 0.727-0.574 1.037-0.921 0.36-0.344 0.599-0.8 0.662-1.311l0.001-9.219c-0.010-0.758-0.627-1.369-1.387-1.369-0.006 0-0.013 0-0.019 0s-0.014-0-0.022-0c-0.235 0-0.454 0.066-0.64 0.181-0.048 0.015-0.066 0.033-0.119 0.050-0.832 0.435-1.817 0.691-2.862 0.693-1.997-0.015-3.768-0.967-4.896-2.438-1.098-1.447-2.776-2.381-4.676-2.45-0.022-0-0.034-0-0.047-0-0.474 0-0.933 0.065-1.368 0.186l0.036-0.186c0-0.982-0.796-1.778-1.778-1.778z"></path>
</svg>
