<?xml version="1.0" encoding="utf-8"?>
<!-- Generated by IcoMoon.io -->
<!DOCTYPE svg PUBLIC "-//W3C//DTD SVG 1.1//EN" "http://www.w3.org/Graphics/SVG/1.1/DTD/svg11.dtd">
<svg version="1.1" xmlns="http://www.w3.org/2000/svg" xmlns:xlink="http://www.w3.org/1999/xlink" width="32" height="32" viewBox="0 0 32 32">
<path fill="#72777a" d="M32 8.889v7.111c-1.422-1.067-3.556-1.778-5.333-1.778-4.978 0-8.889 3.911-8.889 8.889 0 1.778 0.711 3.911 1.778 5.333h-17.778c-1.067 0-1.778-0.889-1.778-1.778v-21.333c0-1.067 0.889-1.778 1.778-1.778h12.444c0.889 0 1.778 0.711 1.778 1.778v1.778h14.222c1.067 0 1.778 0.889 1.778 1.778z"></path>
<path fill="#72777a" d="M31.467 24.356c-0.356 0.356-0.889 0.533-1.244 0.533-0.533 0-0.889 0-1.244-0.533l-0.533-0.533v6.4c0 1.067-0.889 1.778-1.778 1.778s-1.778-0.889-1.778-1.778v-6.4l-0.533 0.533c-0.356 0.356-0.889 0.533-1.244 0.533-0.533 0-0.889 0-1.244-0.533-0.711-0.711-0.711-1.778 0-2.489l3.556-3.556c0.711-0.711 1.778-0.711 2.489 0l3.556 3.556c0.711 0.711 0.711 1.778 0 2.489z"></path>
</svg>
