<?xml version="1.0" encoding="utf-8"?>
<!-- Generated by IcoMoon.io -->
<!DOCTYPE svg PUBLIC "-//W3C//DTD SVG 1.1//EN" "http://www.w3.org/Graphics/SVG/1.1/DTD/svg11.dtd">
<svg version="1.1" xmlns="http://www.w3.org/2000/svg" xmlns:xlink="http://www.w3.org/1999/xlink" width="32" height="32" viewBox="0 0 32 32">
<path fill="#72777a" d="M25.956 0h-19.911c-1.378 0.017-2.489 1.138-2.489 2.519 0 0.008 0 0.016 0 0.025v26.914c-0 0.007-0 0.015-0 0.023 0 1.381 1.111 2.502 2.487 2.519h19.913c1.378-0.017 2.489-1.138 2.489-2.519 0-0.008-0-0.016-0-0.025v-26.914c0-0.007 0-0.015 0-0.023 0-1.381-1.111-2.502-2.487-2.519zM7.111 5.529c0-1.080 0.876-1.956 1.956-1.956h3.2c1.080 0 1.956 0.876 1.956 1.956v6.773c0 1.080-0.876 1.956-1.956 1.956h-3.209c-1.076-0.005-1.947-0.879-1.947-1.956 0 0 0 0 0-0v-6.773zM12.444 28.444h-3.556c-0.982 0-1.778-0.796-1.778-1.778s0.796-1.778 1.778-1.778h3.556c0.982 0 1.778 0.796 1.778 1.778s-0.796 1.778-1.778 1.778zM23.111 28.444h-3.556c-0.982 0-1.778-0.796-1.778-1.778s0.796-1.778 1.778-1.778h3.556c0.982 0 1.778 0.796 1.778 1.778s-0.796 1.778-1.778 1.778zM24.889 19.883c-0.002 0.8-0.65 1.449-1.45 1.451h-14.877c-0.8-0.002-1.449-0.65-1.451-1.45v-0.653c0.001-0.801 0.65-1.45 1.45-1.452h14.875c0.801 0.001 1.45 0.65 1.452 1.45v0.654zM23.111 14.222h-3.556c-0.982 0-1.778-0.796-1.778-1.778s0.796-1.778 1.778-1.778h3.556c0.982 0 1.778 0.796 1.778 1.778s-0.796 1.778-1.778 1.778zM23.111 7.111h-3.556c-0.982 0-1.778-0.796-1.778-1.778s0.796-1.778 1.778-1.778h3.556c0.982 0 1.778 0.796 1.778 1.778s-0.796 1.778-1.778 1.778z"></path>
</svg>
