<?xml version="1.0" encoding="utf-8"?>
<!-- Generated by IcoMoon.io -->
<!DOCTYPE svg PUBLIC "-//W3C//DTD SVG 1.1//EN" "http://www.w3.org/Graphics/SVG/1.1/DTD/svg11.dtd">
<svg version="1.1" xmlns="http://www.w3.org/2000/svg" xmlns:xlink="http://www.w3.org/1999/xlink" width="32" height="32" viewBox="0 0 32 32">
<path fill="#72777a" d="M13.701 20.668l-5.849 5.804 2.293 2.279c0.314 0.32 0.508 0.76 0.508 1.244 0 0.979-0.792 1.774-1.77 1.778h-7.106c0 0-0 0-0 0-0.977 0-1.771-0.789-1.778-1.765v-7.058c0-0.001 0-0.003 0-0.004 0-0.732 0.451-1.358 1.091-1.616 0.215-0.092 0.452-0.142 0.701-0.142 0.486 0 0.927 0.194 1.249 0.508l2.293 2.268 5.849-5.803c0.324-0.319 0.769-0.515 1.26-0.515s0.936 0.197 1.261 0.516c0.322 0.32 0.521 0.763 0.521 1.253s-0.199 0.933-0.521 1.253zM18.299 20.667l5.849 5.804-2.293 2.276c-0.314 0.32-0.508 0.76-0.508 1.244 0 0.979 0.792 1.774 1.77 1.778h7.111c0 0 0 0 0 0 0.977 0 1.77-0.788 1.778-1.763v-7.059c0-0.001 0-0.002 0-0.003 0-0.732-0.451-1.358-1.091-1.616-0.215-0.092-0.452-0.142-0.701-0.142-0.486 0-0.927 0.194-1.249 0.508l-2.298 2.27-5.849-5.803c-0.324-0.319-0.769-0.515-1.26-0.515s-0.936 0.197-1.261 0.516c-0.323 0.32-0.523 0.763-0.523 1.253s0.2 0.934 0.523 1.253zM18.299 11.097l5.849-5.803-2.293-2.272c-0.316-0.318-0.511-0.756-0.511-1.24 0-0.247 0.051-0.482 0.142-0.695 0.263-0.638 0.89-1.087 1.623-1.087 0.001 0 0.002 0 0.003 0h7.111c0 0 0 0 0 0 0.977 0 1.771 0.789 1.778 1.765v7.058c0 0 0 0.001 0 0.001 0 0.732-0.451 1.358-1.091 1.616-0.215 0.092-0.452 0.142-0.701 0.142-0.486 0-0.927-0.194-1.249-0.508l-2.293-2.275-5.845 5.801c-0.325 0.32-0.77 0.517-1.262 0.517s-0.938-0.197-1.262-0.517c-0.322-0.319-0.521-0.762-0.521-1.251s0.199-0.932 0.521-1.251zM13.701 11.097l-5.844-5.804 2.293-2.27c0.314-0.32 0.508-0.76 0.508-1.244 0-0.979-0.792-1.774-1.77-1.778h-7.112c0 0-0 0-0 0-0.977 0-1.771 0.789-1.778 1.765v7.058c0 0.001 0 0.002 0 0.003 0 0.732 0.451 1.358 1.091 1.616 0.215 0.092 0.452 0.142 0.701 0.142 0.486 0 0.927-0.194 1.249-0.508l2.293-2.275 5.845 5.799c0.325 0.32 0.77 0.517 1.262 0.517s0.938-0.197 1.262-0.517c0.322-0.32 0.521-0.763 0.521-1.253s-0.199-0.933-0.521-1.253zM20.978 37.209c0.039-0.088 0.080-0.162 0.128-0.233-0.071 0.107-0.125 0.226-0.161 0.352 0.002-0.037 0.014-0.079 0.034-0.117zM21.351 36.645c0.018-0.018 0.036-0.018 0.053-0.036-0.052 0.048-0.098 0.101-0.14 0.157 0.018-0.046 0.048-0.088 0.086-0.121z"></path>
</svg>
