<?xml version="1.0" encoding="utf-8"?>
<!-- Generated by IcoMoon.io -->
<!DOCTYPE svg PUBLIC "-//W3C//DTD SVG 1.1//EN" "http://www.w3.org/Graphics/SVG/1.1/DTD/svg11.dtd">
<svg version="1.1" xmlns="http://www.w3.org/2000/svg" xmlns:xlink="http://www.w3.org/1999/xlink" width="32" height="32" viewBox="0 0 32 32">
<path fill="#72777a" d="M30.222 12.444h-1.351c-0.979-0.004-1.77-0.799-1.77-1.778 0-0.493 0.201-0.94 0.526-1.262l0.942-0.942c0.321-0.324 0.52-0.77 0.52-1.262s-0.199-0.938-0.52-1.262l-2.507-2.507c-0.324-0.321-0.77-0.52-1.262-0.52s-0.938 0.199-1.262 0.52l-0.907 0.907c-0.318 0.35-0.775 0.569-1.283 0.569-0.005 0-0.010-0-0.015-0-0.981 0-1.777-0.796-1.777-1.778v-1.351c0-0.982-0.796-1.778-1.778-1.778h-3.556c-0.982 0-1.778 0.796-1.778 1.778v1.351c0 0.982-0.796 1.778-1.778 1.778-0.004 0-0.009 0-0.015 0-0.508 0-0.965-0.219-1.282-0.568l-0.908-0.908c-0.324-0.321-0.77-0.52-1.262-0.52s-0.938 0.199-1.262 0.52l-2.507 2.507c-0.321 0.324-0.52 0.77-0.52 1.262s0.199 0.938 0.52 1.262c0.338 0.338 0.711 0.658 1.031 1.013 0.276 0.292 0.446 0.687 0.446 1.122 0 0.024-0.001 0.048-0.002 0.072 0 0.978-0.796 1.774-1.778 1.774h-1.351c-0.982 0-1.778 0.796-1.778 1.778v3.556c0 0.982 0.796 1.778 1.778 1.778h1.351c0.982 0 1.778 0.796 1.778 1.778 0.001 0.020 0.001 0.045 0.001 0.069 0 0.435-0.17 0.83-0.447 1.123-0.319 0.355-0.693 0.675-1.030 1.013-0.321 0.324-0.52 0.77-0.52 1.262s0.199 0.938 0.52 1.262l2.507 2.507c0.324 0.321 0.77 0.52 1.262 0.52s0.938-0.199 1.262-0.52l0.907-0.907c0.318-0.35 0.775-0.569 1.283-0.569 0.005 0 0.010 0 0.015 0 0.981 0 1.777 0.796 1.777 1.778v1.351c0 0.982 0.796 1.778 1.778 1.778h3.556c0.982 0 1.778-0.796 1.778-1.778v-1.351c0-0.982 0.796-1.778 1.778-1.778 0.004-0 0.009-0 0.015-0 0.508 0 0.965 0.219 1.282 0.568l0.908 0.908c0.324 0.321 0.77 0.52 1.262 0.52s0.938-0.199 1.262-0.52l2.507-2.507c0.321-0.324 0.52-0.77 0.52-1.262s-0.199-0.938-0.52-1.262l-0.942-0.942c-0.325-0.322-0.526-0.769-0.526-1.262 0-0.979 0.792-1.774 1.77-1.778h1.352c0.982 0 1.778-0.796 1.778-1.778v-3.556c0-0.982-0.796-1.778-1.778-1.778zM16 21.333c-2.946 0-5.333-2.388-5.333-5.333s2.388-5.333 5.333-5.333c2.946 0 5.333 2.388 5.333 5.333s-2.388 5.333-5.333 5.333z"></path>
</svg>
