<?xml version="1.0" encoding="utf-8"?>
<!-- Generated by IcoMoon.io -->
<!DOCTYPE svg PUBLIC "-//W3C//DTD SVG 1.1//EN" "http://www.w3.org/Graphics/SVG/1.1/DTD/svg11.dtd">
<svg version="1.1" xmlns="http://www.w3.org/2000/svg" xmlns:xlink="http://www.w3.org/1999/xlink" width="32" height="32" viewBox="0 0 32 32">
<path fill="#72777a" d="M31.484 0.516c-0.323-0.319-0.767-0.516-1.257-0.516-0.002 0-0.004 0-0.005 0-7.2 0.018-11.609 2.062-14.222 4.124-1.535-1.198-3.324-2.16-5.263-2.792-2.654-0.859-5.566-1.335-8.589-1.335-0.13 0-0.26 0.001-0.39 0.003-0.453-0-0.905 0.183-1.243 0.515-0.327 0.338-0.512 0.791-0.516 1.262v28.444c0.004 0.471 0.188 0.924 0.516 1.262 0.341 0.325 0.791 0.508 1.262 0.516 7.2-0.018 11.609-2.062 14.222-4.124 2.613 2.062 7.022 4.107 14.222 4.124 0.49-0.007 0.934-0.202 1.263-0.516 0.326-0.337 0.511-0.79 0.515-1.262v-28.444c-0.004-0.491-0.2-0.936-0.516-1.263zM3.609 6.679c0.2-0.779 0.896-1.345 1.724-1.345 0.153 0 0.301 0.019 0.443 0.056l7.099 1.775c0.8 0.185 1.387 0.891 1.387 1.734 0 0.982-0.796 1.778-1.778 1.778-0.167 0-0.329-0.023-0.483-0.066l-7.099-1.775c-0.78-0.199-1.347-0.896-1.347-1.725 0-0.153 0.019-0.302 0.056-0.444zM12.875 24.836l-7.111 1.778c-0.117 0.028-0.252 0.043-0.39 0.043-0.982 0-1.778-0.796-1.778-1.778 0-0.815 0.548-1.501 1.295-1.711l7.124-1.781c0.117-0.028 0.252-0.043 0.39-0.043 0.982 0 1.778 0.796 1.778 1.778 0 0.815-0.548 1.501-1.295 1.711zM12.444 17.778h-7.111c-0.982 0-1.778-0.796-1.778-1.778s0.796-1.778 1.778-1.778h7.111c0.982 0 1.778 0.796 1.778 1.778s-0.796 1.778-1.778 1.778zM19.125 7.164l7.111-1.778c0.117-0.028 0.252-0.043 0.39-0.043 0.982 0 1.778 0.796 1.778 1.778 0 0.815-0.548 1.501-1.295 1.711l-7.124 1.781c-0.117 0.028-0.252 0.043-0.39 0.043-0.982 0-1.778-0.796-1.778-1.778 0-0.815 0.548-1.501 1.295-1.711zM28.391 25.321c-0.2 0.78-0.896 1.347-1.725 1.347-0.153 0-0.301-0.019-0.442-0.055l-7.099-1.775c-0.76-0.213-1.308-0.9-1.308-1.714 0-0.982 0.796-1.778 1.778-1.778 0.138 0 0.273 0.016 0.402 0.046l7.099 1.775c0.78 0.2 1.347 0.896 1.347 1.725 0 0.153-0.019 0.301-0.055 0.442zM26.667 17.778h-7.111c-0.982 0-1.778-0.796-1.778-1.778s0.796-1.778 1.778-1.778h7.111c0.982 0 1.778 0.796 1.778 1.778s-0.796 1.778-1.778 1.778z"></path>
</svg>
