<?xml version="1.0" encoding="utf-8"?>
<!-- Generated by IcoMoon.io -->
<!DOCTYPE svg PUBLIC "-//W3C//DTD SVG 1.1//EN" "http://www.w3.org/Graphics/SVG/1.1/DTD/svg11.dtd">
<svg version="1.1" xmlns="http://www.w3.org/2000/svg" xmlns:xlink="http://www.w3.org/1999/xlink" width="32" height="32" viewBox="0 0 32 32">
<path fill="#72777a" d="M24.782 6.542c-0.212-0.817-0.748-1.481-1.46-1.859-0.015-0.035-0.014-0.066-0.014-0.098 0-0.831-0.333-1.583-0.873-2.132-0.536-0.539-1.279-0.873-2.099-0.873-0.043 0-0.086 0.001-0.129 0.003-0.507-0.945-1.492-1.575-2.624-1.575-0.587 0-1.134 0.17-1.596 0.462-0.437-0.293-0.984-0.462-1.571-0.462-1.132 0-2.117 0.63-2.622 1.559-0.044 0.014-0.087 0.013-0.13 0.013-0.821 0-1.563 0.334-2.1 0.874-0.54 0.548-0.873 1.301-0.873 2.132 0 0.032 0.001 0.064 0.001 0.095-0.945 0.509-1.575 1.493-1.575 2.625 0 0.587 0.17 1.134 0.462 1.596-0.293 0.437-0.462 0.984-0.462 1.571 0 1.132 0.63 2.117 1.559 2.622 0.015 0.035 0.014 0.067 0.014 0.098 0 0.831 0.333 1.583 0.873 2.132 0.526 0.54 1.26 0.875 2.073 0.875 0.052 0 0.104-0.001 0.156-0.004 0.157 0.324 0.378 0.597 0.646 0.814l0.005 14.492c-0 0.006-0 0.012-0 0.019 0 0.123 0.047 0.235 0.125 0.319 0.070 0.097 0.182 0.16 0.31 0.16 0.003 0 0.007-0 0.010-0 0.001 0 0.003 0 0.005 0 0.116 0 0.221-0.048 0.297-0.124l0.018-0.018 2.791-2.524 2.809 2.542c0.076 0.077 0.181 0.124 0.297 0.124 0.002 0 0.004 0 0.006-0s0.006 0 0.010 0c0.128 0 0.24-0.063 0.309-0.159 0.078-0.085 0.126-0.197 0.126-0.32 0-0.007-0-0.013-0-0.020l0-14.488c0.272-0.221 0.493-0.494 0.651-0.804 0.051-0.012 0.103-0.010 0.155-0.010 0.813 0 1.547-0.335 2.073-0.874 0.54-0.549 0.873-1.302 0.873-2.132 0-0.032-0-0.064-0.001-0.095 0.945-0.509 1.575-1.493 1.575-2.625 0-0.587-0.169-1.134-0.462-1.596 0.296-0.432 0.468-0.976 0.468-1.56 0-0.276-0.038-0.542-0.11-0.795zM16 12.444c-1.964 0-3.556-1.592-3.556-3.556s1.592-3.556 3.556-3.556c1.964 0 3.556 1.592 3.556 3.556s-1.592 3.556-3.556 3.556z"></path>
</svg>
