<?xml version="1.0" encoding="utf-8"?>
<!-- Generated by IcoMoon.io -->
<!DOCTYPE svg PUBLIC "-//W3C//DTD SVG 1.1//EN" "http://www.w3.org/Graphics/SVG/1.1/DTD/svg11.dtd">
<svg version="1.1" xmlns="http://www.w3.org/2000/svg" xmlns:xlink="http://www.w3.org/1999/xlink" width="32" height="32" viewBox="0 0 32 32">
<path fill="#72777a" d="M28.444 0h-8.889c-1.961 0.006-3.55 1.594-3.556 3.555-0.006-1.961-1.594-3.549-3.555-3.555h-8.889c-1.961 0.006-3.55 1.594-3.556 3.555v24.889c0.006 1.961 1.594 3.55 3.555 3.556h8.889c1.961-0.006 3.55-1.594 3.556-3.555 0.006 1.961 1.594 3.549 3.555 3.555h8.889c1.961-0.006 3.55-1.594 3.556-3.555v-24.889c-0.006-1.961-1.594-3.55-3.555-3.556zM5.333 21.333c0 0.982-0.796 1.778-1.778 1.778s-1.778-0.796-1.778-1.778v-1.778c0-0.982 0.796-1.778 1.778-1.778s1.778 0.796 1.778 1.778v1.778zM9.897 7.253l2.222 1.778c0.203 0.189 0.329 0.458 0.329 0.756 0 0.091-0.012 0.18-0.034 0.264-0.063 0.337-0.354 0.597-0.708 0.615l-2.224 0c0.156 0.003 0.3 0.056 0.416 0.144l2.22 1.776c0.203 0.189 0.329 0.458 0.329 0.756 0 0.091-0.012 0.18-0.034 0.264-0.063 0.337-0.354 0.597-0.708 0.615l-7.41 0c-0.356-0.018-0.646-0.278-0.71-0.617-0.021-0.082-0.033-0.17-0.033-0.262 0-0.298 0.127-0.567 0.329-0.756l2.223-1.778c0.114-0.086 0.258-0.139 0.414-0.142h-2.222c-0.356-0.018-0.646-0.278-0.71-0.617-0.021-0.082-0.033-0.17-0.033-0.262 0-0.298 0.127-0.567 0.329-0.756l2.223-1.778c0.114-0.086 0.258-0.139 0.414-0.142h-2.222c-0.356-0.018-0.646-0.278-0.71-0.617-0.021-0.082-0.033-0.17-0.033-0.262 0-0.298 0.127-0.567 0.329-0.756l2.223-1.778c0.114-0.086 0.258-0.139 0.414-0.142h2.964c0.156 0.003 0.3 0.056 0.416 0.144l2.22 1.776c0.203 0.189 0.329 0.458 0.329 0.756 0 0.091-0.012 0.18-0.034 0.264-0.063 0.337-0.354 0.597-0.708 0.615l-2.224 0c0.156 0.003 0.3 0.056 0.416 0.144zM21.333 21.333c0 0.982-0.796 1.778-1.778 1.778s-1.778-0.796-1.778-1.778v-1.778c0-0.982 0.796-1.778 1.778-1.778s1.778 0.796 1.778 1.778v1.778zM25.897 7.253l2.222 1.778c0.203 0.189 0.329 0.458 0.329 0.756 0 0.091-0.012 0.18-0.034 0.264-0.064 0.337-0.354 0.597-0.708 0.615l-2.224 0c0.157 0.003 0.3 0.056 0.416 0.144l2.22 1.776c0.203 0.189 0.329 0.458 0.329 0.756 0 0.091-0.012 0.18-0.034 0.264-0.064 0.337-0.354 0.597-0.708 0.615l-7.41 0c-0.356-0.018-0.646-0.278-0.71-0.617-0.021-0.082-0.033-0.17-0.033-0.262 0-0.298 0.127-0.567 0.329-0.756l2.223-1.778c0.114-0.086 0.258-0.139 0.414-0.142h-2.222c-0.356-0.018-0.646-0.278-0.71-0.617-0.021-0.082-0.033-0.17-0.033-0.262 0-0.298 0.127-0.567 0.329-0.756l2.223-1.778c0.114-0.086 0.258-0.139 0.414-0.142h-2.222c-0.356-0.018-0.646-0.278-0.71-0.617-0.021-0.082-0.033-0.17-0.033-0.262 0-0.298 0.127-0.567 0.329-0.756l2.223-1.778c0.114-0.086 0.258-0.139 0.414-0.142h2.964c0.157 0.003 0.3 0.056 0.416 0.144l2.22 1.776c0.203 0.189 0.329 0.458 0.329 0.756 0 0.091-0.012 0.18-0.034 0.264-0.064 0.337-0.354 0.597-0.708 0.615l-2.224 0c0.157 0.003 0.3 0.056 0.416 0.144z"></path>
</svg>
