<?xml version="1.0" encoding="utf-8"?>
<!-- Generated by IcoMoon.io -->
<!DOCTYPE svg PUBLIC "-//W3C//DTD SVG 1.1//EN" "http://www.w3.org/Graphics/SVG/1.1/DTD/svg11.dtd">
<svg version="1.1" xmlns="http://www.w3.org/2000/svg" xmlns:xlink="http://www.w3.org/1999/xlink" width="32" height="32" viewBox="0 0 32 32">
<path fill="#72777a" d="M30.222 17.778c0 7.855-6.367 14.222-14.222 14.222s-14.222-6.367-14.222-14.222c0-0.982 0.796-1.778 1.778-1.778s1.778 0.796 1.778 1.778c0.001 5.89 4.776 10.665 10.667 10.665s10.667-4.776 10.667-10.667c0-5.578-4.282-10.156-9.738-10.627l-0.040 2.628c0 0.005 0 0.012 0 0.018 0 0.335-0.194 0.624-0.475 0.762-0.122 0.069-0.262 0.109-0.412 0.109-0.001 0-0.002 0-0.002 0-0.193-0.001-0.371-0.061-0.519-0.162l-6.219-4.442c-0.227-0.165-0.374-0.43-0.374-0.729s0.146-0.564 0.371-0.727l6.225-4.446c0.14-0.101 0.315-0.162 0.504-0.162 0.154 0 0.299 0.040 0.424 0.111 0.282 0.138 0.476 0.427 0.476 0.762 0 0.006-0 0.013-0 0.019l0 2.701c7.46 0.47 13.333 6.635 13.333 14.173 0 0.005 0 0.010 0 0.015z"></path>
<path fill="#72777a" d="M20.818 15.484l-3.040 3.040v4.587c0 0.982-0.796 1.778-1.778 1.778s-1.778-0.796-1.778-1.778v-5.333c-0-0.009-0-0.021-0-0.032 0-0.148 0.026-0.29 0.074-0.421 0.005-0.084 0.030-0.168 0.070-0.244 0.089-0.217 0.216-0.406 0.372-0.566l3.555-3.555c0.323-0.323 0.769-0.523 1.262-0.523 0.986 0 1.785 0.799 1.785 1.785 0 0.493-0.2 0.939-0.523 1.262z"></path>
</svg>
