<?xml version="1.0" encoding="utf-8"?>
<!-- Generated by IcoMoon.io -->
<!DOCTYPE svg PUBLIC "-//W3C//DTD SVG 1.1//EN" "http://www.w3.org/Graphics/SVG/1.1/DTD/svg11.dtd">
<svg version="1.1" xmlns="http://www.w3.org/2000/svg" xmlns:xlink="http://www.w3.org/1999/xlink" width="32" height="32" viewBox="0 0 32 32">
<path fill="#72777a" d="M31.556 15.396c-0.328 0.369-0.803 0.601-1.333 0.604-0.002 0-0.003 0-0.005 0-0.45 0-0.86-0.169-1.171-0.446l-0.603-0.518v13.408c-0.006 1.961-1.594 3.55-3.555 3.556h-4.445c-0.491 0-0.889-0.398-0.889-0.889v-9.778c0-0.982-0.796-1.778-1.778-1.778h-3.556c-0.982 0-1.778 0.796-1.778 1.778v9.778c0 0.491-0.398 0.889-0.889 0.889h-4.444c-1.961-0.006-3.55-1.594-3.556-3.555v-5.334c-0.018-2.507-0.018-5.796 0-8.053l-0.604 0.498c-0.319 0.307-0.753 0.496-1.232 0.496-0.982 0-1.778-0.796-1.778-1.778 0-0.558 0.257-1.056 0.659-1.382l14.226-12.447c0.311-0.275 0.723-0.442 1.173-0.442s0.862 0.168 1.175 0.444l4.407 3.856c0.37-0.441 0.914-0.726 1.525-0.747l1.781-0c0.943 0.090 1.688 0.834 1.777 1.77l0.001 3.563 4.729 4c0.37 0.327 0.602 0.803 0.602 1.333 0 0.45-0.168 0.862-0.444 1.175z"></path>
</svg>
