<?xml version="1.0" encoding="utf-8"?>
<!-- Generated by IcoMoon.io -->
<!DOCTYPE svg PUBLIC "-//W3C//DTD SVG 1.1//EN" "http://www.w3.org/Graphics/SVG/1.1/DTD/svg11.dtd">
<svg version="1.1" xmlns="http://www.w3.org/2000/svg" xmlns:xlink="http://www.w3.org/1999/xlink" width="32" height="32" viewBox="0 0 32 32">
<path fill="#72777a" d="M28.267 13.156c0.086-0.196 0.137-0.424 0.137-0.663 0-0.464-0.188-0.884-0.492-1.187l-2.416-2.395 6.011-6.011c0.307-0.308 0.498-0.732 0.498-1.202 0-0.939-0.761-1.7-1.7-1.7-0.47 0-0.895 0.19-1.203 0.498l-6.011 6.009-2.404-2.404c-0.304-0.308-0.727-0.498-1.193-0.498-0.234 0-0.457 0.048-0.659 0.134-0.615 0.253-1.048 0.854-1.056 1.558v7.22c0.004 0.941 0.766 1.703 1.706 1.707h7.213c0.707-0.004 1.312-0.439 1.566-1.055z"></path>
<path fill="#72777a" d="M24.889 19.556v8.889c-0.006 1.961-1.594 3.55-3.555 3.556h-17.778c-1.961-0.006-3.55-1.594-3.556-3.555v-17.778c0.006-1.961 1.594-3.55 3.555-3.556h8.889c0.982 0 1.778 0.796 1.778 1.778s-0.796 1.778-1.778 1.778h-8.889v17.778h17.778v-8.889c0-0.982 0.796-1.778 1.778-1.778s1.778 0.796 1.778 1.778z"></path>
</svg>
