<?xml version="1.0" encoding="utf-8"?>
<!-- Generated by IcoMoon.io -->
<!DOCTYPE svg PUBLIC "-//W3C//DTD SVG 1.1//EN" "http://www.w3.org/Graphics/SVG/1.1/DTD/svg11.dtd">
<svg version="1.1" xmlns="http://www.w3.org/2000/svg" xmlns:xlink="http://www.w3.org/1999/xlink" width="32" height="32" viewBox="0 0 32 32">
<path fill="#72777a" d="M19.792 2.098l-2.53 2.524c-1.293 1.292-2.093 3.078-2.093 5.050 0 1.341 0.37 2.595 1.013 3.667l-2.875 2.826c-1.039-0.624-2.293-0.994-3.633-0.994-1.973 0-3.76 0.801-5.052 2.096l-2.528 2.525c-1.295 1.294-2.096 3.082-2.096 5.058 0 3.95 3.202 7.152 7.152 7.152 1.974 0 3.762-0.8 5.056-2.094l2.528-2.53c1.295-1.292 2.096-3.079 2.096-5.052 0-1.34-0.369-2.593-1.011-3.665l2.873-2.824c1.039 0.625 2.293 0.994 3.634 0.994 1.974 0 3.76-0.801 5.052-2.097l2.528-2.525c1.294-1.294 2.095-3.083 2.095-5.058 0-3.95-3.202-7.153-7.153-7.153-1.975 0-3.763 0.801-5.058 2.095zM12.208 24.853l-2.528 2.524c-0.651 0.673-1.562 1.090-2.571 1.090-1.975 0-3.577-1.601-3.577-3.577 0-1.009 0.418-1.92 1.089-2.57l2.529-2.529c0.646-0.646 1.538-1.046 2.524-1.046 0.329 0 0.647 0.044 0.95 0.128l-2.212 2.181c-0.324 0.324-0.524 0.771-0.524 1.265 0 0.988 0.801 1.789 1.789 1.789 0.494 0 0.941-0.2 1.265-0.524l2.187-2.187c0.078 0.278 0.123 0.598 0.123 0.928 0 0.984-0.399 1.876-1.044 2.521zM27.378 9.678l-2.53 2.528c-0.646 0.646-1.538 1.046-2.524 1.046-0.329 0-0.647-0.044-0.95-0.128l2.212-2.181c0.324-0.324 0.524-0.771 0.524-1.265 0-0.988-0.801-1.789-1.789-1.789-0.494 0-0.941 0.2-1.265 0.524l-2.187 2.187c-0.078-0.277-0.122-0.596-0.122-0.925 0-0.986 0.4-1.878 1.046-2.524l2.524-2.532c0.647-0.647 1.542-1.048 2.53-1.048 1.976 0 3.578 1.602 3.578 3.578 0 0.988-0.4 1.882-1.048 2.53z"></path>
</svg>
