<?xml version="1.0" encoding="utf-8"?>
<!-- Generated by IcoMoon.io -->
<!DOCTYPE svg PUBLIC "-//W3C//DTD SVG 1.1//EN" "http://www.w3.org/Graphics/SVG/1.1/DTD/svg11.dtd">
<svg version="1.1" xmlns="http://www.w3.org/2000/svg" xmlns:xlink="http://www.w3.org/1999/xlink" width="32" height="32" viewBox="0 0 32 32">
<path fill="#72777a" d="M30.222 28.444h-1.778v-24.871c0-0.005 0-0.012 0-0.018 0-1.964-1.592-3.556-3.556-3.556 0 0-0 0-0 0h-17.778c0 0-0 0-0 0-1.964 0-3.556 1.592-3.556 3.556 0 0.006 0 0.013 0 0.019v24.87h-1.778c-0.982 0-1.778 0.796-1.778 1.778-0.001 0.025-0.002 0.054-0.002 0.084 0 0.928 0.747 1.682 1.672 1.694h28.641c0.936-0.010 1.69-0.771 1.69-1.708 0-0.024-0.001-0.049-0.002-0.073 0-0.978-0.796-1.774-1.778-1.774zM10.667 28.444h-3.556v-3.556h3.556v3.556zM10.667 21.321h-3.543v-3.543h3.543v3.543zM10.667 14.21h-3.543v-3.543h3.543v3.543zM10.667 7.099h-3.543v-3.543h3.543v3.543zM17.778 19.556v8.889h-3.543v-8.889h-0.012c0-0.002 0-0.003 0-0.005 0-0.982 0.796-1.778 1.778-1.778 0.98 0 1.775 0.793 1.778 1.772v0.011zM17.778 14.21h-3.543v-3.543h3.543v3.543zM17.778 7.099h-3.543v-3.543h3.543v3.543zM24.889 28.444h-3.556v-3.556h3.556v3.556zM24.889 21.321h-3.543v-3.543h3.543v3.543zM24.889 14.21h-3.543v-3.543h3.543v3.543zM24.889 7.099h-3.543v-3.543h3.543v3.543z"></path>
</svg>
