<?xml version="1.0" encoding="utf-8"?>
<!-- Generated by IcoMoon.io -->
<!DOCTYPE svg PUBLIC "-//W3C//DTD SVG 1.1//EN" "http://www.w3.org/Graphics/SVG/1.1/DTD/svg11.dtd">
<svg version="1.1" xmlns="http://www.w3.org/2000/svg" xmlns:xlink="http://www.w3.org/1999/xlink" width="32" height="32" viewBox="0 0 32 32">
<path fill="#72777a" d="M16 0c-6.873 0-12.444 5.572-12.444 12.444v0.071c0.004 2.444 0.726 4.719 1.967 6.625l9.056 12.148c0.328 0.434 0.843 0.711 1.422 0.711s1.094-0.277 1.419-0.707l8.021-10.76 1.067-1.44c1.212-1.859 1.934-4.134 1.938-6.577v-0.072c0-6.873-5.572-12.444-12.444-12.444zM16 19.556c-3.927 0-7.111-3.184-7.111-7.111s3.184-7.111 7.111-7.111c3.927 0 7.111 3.184 7.111 7.111s-3.184 7.111-7.111 7.111z"></path>
</svg>
