<?xml version="1.0" encoding="utf-8"?>
<!-- Generated by IcoMoon.io -->
<!DOCTYPE svg PUBLIC "-//W3C//DTD SVG 1.1//EN" "http://www.w3.org/Graphics/SVG/1.1/DTD/svg11.dtd">
<svg version="1.1" xmlns="http://www.w3.org/2000/svg" xmlns:xlink="http://www.w3.org/1999/xlink" width="32" height="32" viewBox="0 0 32 32">
<path fill="#72777a" d="M24.889 0c-3.927 0-7.111 3.184-7.111 7.111v5.333h-14.222c-1.961 0.006-3.55 1.594-3.556 3.555v12.445c0.006 1.961 1.594 3.55 3.555 3.556h17.778c1.961-0.006 3.55-1.594 3.556-3.555v-12.445c-0.006-1.961-1.594-3.55-3.555-3.556l-0.001-5.333c0-1.964 1.592-3.556 3.556-3.556s3.556 1.592 3.556 3.556v7.111c0 0.982 0.796 1.778 1.778 1.778s1.778-0.796 1.778-1.778v-7.111c0-3.927-3.184-7.111-7.111-7.111zM14.222 22.631v4.036c0 0.982-0.796 1.778-1.778 1.778s-1.778-0.796-1.778-1.778v-4.036c-1.070-0.626-1.778-1.77-1.778-3.079 0-1.964 1.592-3.556 3.556-3.556s3.556 1.592 3.556 3.556c0 1.309-0.707 2.453-1.761 3.070z"></path>
</svg>
