<?xml version="1.0" encoding="utf-8"?>
<!-- Generated by IcoMoon.io -->
<!DOCTYPE svg PUBLIC "-//W3C//DTD SVG 1.1//EN" "http://www.w3.org/Graphics/SVG/1.1/DTD/svg11.dtd">
<svg version="1.1" xmlns="http://www.w3.org/2000/svg" xmlns:xlink="http://www.w3.org/1999/xlink" width="32" height="32" viewBox="0 0 32 32">
<path fill="#72777a" d="M20.914 0h-9.828c-2.193 0.007-3.968 1.783-3.975 3.974v24.050c0.007 2.193 1.783 3.968 3.974 3.975h9.828c2.193-0.007 3.968-1.783 3.975-3.974v-24.050c-0.007-2.193-1.783-3.968-3.974-3.975zM14.151 23.111c0 0.982-0.796 1.778-1.778 1.778s-1.778-0.796-1.778-1.778v-3.556c0-0.982 0.796-1.778 1.778-1.778s1.778 0.796 1.778 1.778v3.556zM19.296 7.371l1.778 1.778c0.161 0.161 0.261 0.383 0.261 0.629 0 0.491-0.398 0.889-0.889 0.889-0.001 0-0.001 0-0.002 0h-1.778c0 0 0.001 0 0.002 0 0.245 0 0.467 0.099 0.628 0.26l1.778 1.778c0.161 0.161 0.261 0.383 0.261 0.629 0 0.491-0.398 0.889-0.889 0.889-0.001 0-0.001 0-0.002 0h-8.889c-0 0-0.001 0-0.002 0-0.491 0-0.889-0.398-0.889-0.889 0-0.246 0.1-0.468 0.261-0.629l1.778-1.778c0.161-0.16 0.383-0.26 0.628-0.26 0.001 0 0.001 0 0.002 0h-1.778c-0 0-0.001 0-0.002 0-0.491 0-0.889-0.398-0.889-0.889 0-0.246 0.1-0.468 0.261-0.629l1.778-1.778c0.161-0.16 0.383-0.26 0.628-0.26 0.001 0 0.001 0 0.002 0h-1.778c-0 0-0.001 0-0.002 0-0.491 0-0.889-0.398-0.889-0.889 0-0.246 0.1-0.468 0.261-0.629l1.778-1.778c0.161-0.16 0.383-0.26 0.628-0.26 0.001 0 0.001 0 0.002 0h5.333c0 0 0.001 0 0.002 0 0.245 0 0.467 0.099 0.628 0.26l1.778 1.778c0.161 0.161 0.261 0.383 0.261 0.629 0 0.491-0.398 0.889-0.889 0.889-0.001 0-0.001 0-0.002 0h-1.778c0 0 0.001 0 0.002 0 0.245 0 0.467 0.099 0.628 0.26z"></path>
</svg>
