<?xml version="1.0" encoding="utf-8"?>
<!-- Generated by IcoMoon.io -->
<!DOCTYPE svg PUBLIC "-//W3C//DTD SVG 1.1//EN" "http://www.w3.org/Graphics/SVG/1.1/DTD/svg11.dtd">
<svg version="1.1" xmlns="http://www.w3.org/2000/svg" xmlns:xlink="http://www.w3.org/1999/xlink" width="32" height="32" viewBox="0 0 32 32">
<path fill="#72777a" d="M24.889 12.444h-1.778v-5.333c0-3.927-3.184-7.111-7.111-7.111s-7.111 3.184-7.111 7.111v5.333h-1.778c-1.961 0.006-3.55 1.594-3.556 3.555v12.445c0.006 1.961 1.594 3.55 3.555 3.556h17.778c1.961-0.006 3.549-1.594 3.556-3.555v-12.445c-0.006-1.961-1.594-3.55-3.555-3.556zM12.444 7.111c0-1.964 1.592-3.556 3.556-3.556s3.556 1.592 3.556 3.556v5.333h-7.111v-5.333zM17.778 22.667v4c0 0.982-0.796 1.778-1.778 1.778s-1.778-0.796-1.778-1.778v-4.036c-1.068-0.591-1.779-1.711-1.779-2.996 0-0.028 0-0.056 0.001-0.083-0-1.96 1.592-3.551 3.555-3.551s3.556 1.592 3.556 3.556c0.001 0.024 0.001 0.052 0.001 0.080 0 1.296-0.71 2.425-1.761 3.022z"></path>
</svg>
