<?xml version="1.0" encoding="utf-8"?>
<!-- Generated by IcoMoon.io -->
<!DOCTYPE svg PUBLIC "-//W3C//DTD SVG 1.1//EN" "http://www.w3.org/Graphics/SVG/1.1/DTD/svg11.dtd">
<svg version="1.1" xmlns="http://www.w3.org/2000/svg" xmlns:xlink="http://www.w3.org/1999/xlink" width="32" height="32" viewBox="0 0 32 32">
<path fill="#72777a" d="M30.222 21.333h-1.778v-16c-0.008-0.375-0.238-0.694-0.563-0.833l-11.562-4.447c-0.095-0.034-0.205-0.053-0.32-0.053s-0.225 0.020-0.327 0.056l-11.549 4.442c-0.331 0.141-0.56 0.461-0.569 0.835l-0 16.001h-1.778c-0.982 0-1.778 0.796-1.778 1.778v7.111c0 0.982 0.796 1.778 1.778 1.778h28.444c0.982 0 1.778-0.796 1.778-1.778v-7.111c0-0.982-0.796-1.778-1.778-1.778zM10.667 21.333h-3.556v-10.667h3.556v10.667zM17.778 21.333h-3.556v-10.667h3.556v10.667zM21.333 10.667h3.556v10.667h-3.556v-10.667z"></path>
</svg>
