<?xml version="1.0" encoding="utf-8"?>
<!-- Generated by IcoMoon.io -->
<!DOCTYPE svg PUBLIC "-//W3C//DTD SVG 1.1//EN" "http://www.w3.org/Graphics/SVG/1.1/DTD/svg11.dtd">
<svg version="1.1" xmlns="http://www.w3.org/2000/svg" xmlns:xlink="http://www.w3.org/1999/xlink" width="32" height="32" viewBox="0 0 32 32">
<path fill="#72777a" d="M31.211 23.308h-0.601c-0.001 0-0.002 0-0.003 0-0.435 0-0.788-0.353-0.788-0.788 0-0.221 0.091-0.42 0.237-0.563l0.42-0.42c0.143-0.144 0.231-0.342 0.231-0.561s-0.088-0.417-0.231-0.561l-1.115-1.115c-0.144-0.143-0.342-0.231-0.561-0.231s-0.417 0.088-0.561 0.231l-0.404 0.404c-0.141 0.155-0.344 0.252-0.57 0.252-0.002 0-0.004 0-0.006-0-0.435-0.002-0.787-0.354-0.789-0.789v-0.601c-0.002-0.436-0.356-0.789-0.793-0.789 0 0 0 0 0 0h-1.579c-0.435 0.002-0.787 0.354-0.789 0.789v0.601c-0.002 0.435-0.354 0.787-0.789 0.789-0.002 0-0.004 0-0.006 0-0.226 0-0.429-0.097-0.57-0.252l-0.404-0.404c-0.144-0.143-0.342-0.231-0.561-0.231s-0.417 0.088-0.561 0.231l-1.115 1.115c-0.143 0.144-0.231 0.342-0.231 0.561s0.088 0.417 0.231 0.561c0.149 0.149 0.316 0.291 0.459 0.45 0.135 0.142 0.206 0.338 0.197 0.533-0.002 0.435-0.354 0.787-0.789 0.789h-0.605c-0.435 0.002-0.787 0.354-0.789 0.789v1.581c0.002 0.436 0.356 0.788 0.789 0.789h0.601c0.436 0.002 0.788 0.356 0.789 0.789 0.001 0.011 0.001 0.023 0.001 0.035 0 0.193-0.075 0.369-0.198 0.499-0.142 0.158-0.307 0.3-0.458 0.449-0.143 0.144-0.231 0.342-0.231 0.561s0.088 0.417 0.231 0.561l1.115 1.115c0.144 0.143 0.342 0.231 0.561 0.231s0.417-0.088 0.561-0.231l0.404-0.404c0.141-0.155 0.344-0.252 0.57-0.252 0.002 0 0.004 0 0.006 0 0.435 0.002 0.787 0.356 0.789 0.789v0.601c0.002 0.436 0.356 0.788 0.789 0.789h1.58c0.435-0.002 0.787-0.354 0.789-0.789v-0.603c0.002-0.435 0.354-0.787 0.789-0.789 0.002 0 0.004-0 0.006-0 0.226 0 0.429 0.097 0.57 0.252l0.404 0.404c0.144 0.143 0.342 0.231 0.561 0.231s0.417-0.088 0.561-0.231l1.115-1.115c0.143-0.144 0.231-0.342 0.231-0.561s-0.088-0.417-0.231-0.561l-0.419-0.419c-0.147-0.143-0.237-0.343-0.237-0.564 0-0.435 0.353-0.788 0.788-0.788 0.001 0 0.002 0 0.003 0h0.601c0.001 0 0.001 0 0.002 0 0.437 0 0.792-0.354 0.793-0.791v-1.579c-0.001-0.436-0.354-0.789-0.789-0.791zM24.889 27.259c-1.309 0-2.37-1.061-2.37-2.37s1.061-2.37 2.37-2.37c1.309 0 2.37 1.061 2.37 2.37s-1.061 2.37-2.37 2.37z"></path>
<path fill="#72777a" d="M32 7.111v9.849c-1.875-1.698-4.373-2.738-7.115-2.738-2.191 0-4.227 0.664-5.918 1.802l-15.411-0.024v12.444h11.289c0.462 1.316 1.18 2.524 2.116 3.556h-15.182c-0.982 0-1.778-0.796-1.778-1.778v-23.111c0-0.982 0.796-1.778 1.778-1.778h5.333v-3.556c0-0.982 0.796-1.778 1.778-1.778s1.778 0.796 1.778 1.778v3.556h10.667v-3.556c0-0.982 0.796-1.778 1.778-1.778s1.778 0.796 1.778 1.778v3.556h5.333c0.982 0 1.778 0.796 1.778 1.778z"></path>
</svg>
