<?xml version="1.0" encoding="utf-8"?>
<!-- Generated by IcoMoon.io -->
<!DOCTYPE svg PUBLIC "-//W3C//DTD SVG 1.1//EN" "http://www.w3.org/Graphics/SVG/1.1/DTD/svg11.dtd">
<svg version="1.1" xmlns="http://www.w3.org/2000/svg" xmlns:xlink="http://www.w3.org/1999/xlink" width="32" height="32" viewBox="0 0 32 32">
<path fill="#72777a" d="M31.408 21.925h-0.45c-0.001 0-0.002 0-0.003 0-0.326 0-0.59-0.264-0.59-0.59 0-0.166 0.068-0.316 0.179-0.423l0.32-0.315c0.107-0.108 0.173-0.256 0.173-0.42s-0.066-0.313-0.173-0.421l-0.835-0.835c-0.108-0.107-0.257-0.174-0.421-0.174s-0.313 0.066-0.421 0.174l-0.302 0.302c-0.108 0.117-0.262 0.19-0.432 0.19-0.002 0-0.003 0-0.005-0-0.326-0.001-0.591-0.265-0.592-0.592v-0.45c0 0 0 0 0 0 0-0.327-0.265-0.593-0.592-0.594h-1.186c-0.327 0.001-0.591 0.265-0.592 0.592v0.45c0 0.328-0.266 0.594-0.594 0.594-0.002 0-0.004 0-0.006 0-0.169 0-0.321-0.073-0.426-0.19l-0.303-0.303c-0.108-0.107-0.256-0.173-0.42-0.173s-0.313 0.066-0.421 0.173l-0.835 0.835c-0.107 0.108-0.173 0.256-0.173 0.42s0.066 0.313 0.173 0.421c0.112 0.112 0.236 0.219 0.343 0.338 0.092 0.097 0.148 0.229 0.148 0.373 0 0.008-0 0.016-0.001 0.025-0.004 0.323-0.267 0.585-0.592 0.585h-0.448c-0.327 0.001-0.592 0.266-0.592 0.594 0 0 0 0 0 0v1.186c0 0 0 0 0 0 0 0.327 0.265 0.593 0.592 0.594h0.45c0.327 0.001 0.591 0.265 0.592 0.592 0 0.009 0.001 0.019 0.001 0.029 0 0.142-0.054 0.271-0.143 0.368-0.106 0.12-0.231 0.227-0.345 0.337-0.107 0.108-0.174 0.257-0.174 0.421s0.066 0.313 0.174 0.421l0.836 0.836c0.108 0.107 0.256 0.173 0.42 0.173s0.313-0.066 0.421-0.173l0.302-0.302c0.106-0.117 0.258-0.19 0.427-0.19 0 0 0 0 0 0 0.327 0 0.593 0.265 0.594 0.592v0.45c0.001 0.327 0.265 0.591 0.592 0.592h1.186c0.327-0.001 0.591-0.265 0.592-0.592v-0.45c0.001-0.327 0.266-0.592 0.594-0.592 0 0 0 0 0 0 0.002-0 0.005-0 0.008-0 0.169 0 0.321 0.073 0.426 0.19l0.303 0.303c0.108 0.107 0.256 0.173 0.42 0.173s0.313-0.066 0.421-0.173l0.835-0.835c0.107-0.108 0.173-0.256 0.173-0.42s-0.066-0.313-0.173-0.421l-0.315-0.311c-0.11-0.107-0.179-0.257-0.179-0.423 0-0.326 0.264-0.59 0.59-0.59 0 0 0.001 0 0.001 0h0.45c0.327-0.001 0.592-0.266 0.592-0.594 0-0.001 0-0.003 0-0.004v-1.184c0 0 0 0 0-0 0-0.324-0.263-0.587-0.587-0.587-0.002 0-0.004 0-0.006 0zM26.667 24.889c-0.982 0-1.778-0.796-1.778-1.778s0.796-1.778 1.778-1.778c0.982 0 1.778 0.796 1.778 1.778s-0.796 1.778-1.778 1.778z"></path>
<path fill="#72777a" d="M32 8.889v7.147c-1.472-1.132-3.342-1.815-5.37-1.815-4.89 0-8.853 3.964-8.853 8.853 0 2.029 0.682 3.898 1.83 5.391l-17.829-0.021c-0.982 0-1.778-0.796-1.778-1.778v-21.333c0-0.982 0.796-1.778 1.778-1.778h12.462c0.002 0 0.005 0 0.007 0 0.916 0 1.668 0.699 1.752 1.593l0.001 1.963h14.222c0.982 0 1.778 0.796 1.778 1.778z"></path>
</svg>
