<?xml version="1.0" encoding="utf-8"?>
<!-- Generated by IcoMoon.io -->
<!DOCTYPE svg PUBLIC "-//W3C//DTD SVG 1.1//EN" "http://www.w3.org/Graphics/SVG/1.1/DTD/svg11.dtd">
<svg version="1.1" xmlns="http://www.w3.org/2000/svg" xmlns:xlink="http://www.w3.org/1999/xlink" width="32" height="32" viewBox="0 0 32 32">
<path fill="#72777a" d="M28.444 3.556h-24.889c-0.013-0-0.029-0-0.045-0-0.218 0-0.429 0.026-0.632 0.075-1.42 0.268-2.537 1.384-2.805 2.801-0.049 0.206-0.075 0.418-0.075 0.635 0 0.016 0 0.031 0 0.047l-0 14.22c-0 0.013-0 0.029-0 0.044 0 0.218 0.026 0.429 0.075 0.632 0.268 1.42 1.384 2.537 2.801 2.805 0.206 0.049 0.418 0.075 0.635 0.075 0.016 0 0.031-0 0.047-0l3.553 0.036v3.52c0 0.002 0 0.004 0 0.007 0 0.734 0.451 1.363 1.091 1.625 0.198 0.094 0.417 0.147 0.648 0.147 0.014 0 0.027-0 0.041-0.001 0.471 0 0.922-0.183 1.26-0.515l4.071-4.818h14.222c1.961-0.006 3.55-1.594 3.556-3.555v-14.223c-0.006-1.961-1.594-3.55-3.555-3.556zM5.333 16c-0.982 0-1.778-0.796-1.778-1.778s0.796-1.778 1.778-1.778c0.982 0 1.778 0.796 1.778 1.778s-0.796 1.778-1.778 1.778zM12.444 16c-0.982 0-1.778-0.796-1.778-1.778s0.796-1.778 1.778-1.778c0.982 0 1.778 0.796 1.778 1.778s-0.796 1.778-1.778 1.778zM19.556 16c-0.982 0-1.778-0.796-1.778-1.778s0.796-1.778 1.778-1.778c0.982 0 1.778 0.796 1.778 1.778s-0.796 1.778-1.778 1.778zM26.667 16c-0.982 0-1.778-0.796-1.778-1.778s0.796-1.778 1.778-1.778c0.982 0 1.778 0.796 1.778 1.778s-0.796 1.778-1.778 1.778z"></path>
</svg>
