<?xml version="1.0" encoding="utf-8"?>
<!-- Generated by IcoMoon.io -->
<!DOCTYPE svg PUBLIC "-//W3C//DTD SVG 1.1//EN" "http://www.w3.org/Graphics/SVG/1.1/DTD/svg11.dtd">
<svg version="1.1" xmlns="http://www.w3.org/2000/svg" xmlns:xlink="http://www.w3.org/1999/xlink" width="32" height="32" viewBox="0 0 32 32">
<path fill="#72777a" d="M16 19.556c-2.941-0.010-5.323-2.392-5.333-5.332v-8.89c0.010-2.941 2.392-5.323 5.332-5.333 2.942 0.010 5.324 2.392 5.334 5.332v8.89c-0.010 2.941-2.392 5.323-5.332 5.333z"></path>
<path fill="#72777a" d="M28.444 12.444v1.778c-0.008 6.24-4.606 11.403-10.599 12.294l-0.068 1.928h5.333c0.982 0 1.778 0.796 1.778 1.778s-0.796 1.778-1.778 1.778h-14.222c-0.982 0-1.778-0.796-1.778-1.778s0.796-1.778 1.778-1.778h5.333v-1.92c-6.061-0.899-10.659-6.063-10.667-12.301v-1.779c0-0.982 0.796-1.778 1.778-1.778s1.778 0.796 1.778 1.778v1.778c0 4.909 3.98 8.889 8.889 8.889s8.889-3.98 8.889-8.889v-1.778c0-0.982 0.796-1.778 1.778-1.778s1.778 0.796 1.778 1.778z"></path>
</svg>
