<?xml version="1.0" encoding="utf-8"?>
<!-- Generated by IcoMoon.io -->
<!DOCTYPE svg PUBLIC "-//W3C//DTD SVG 1.1//EN" "http://www.w3.org/Graphics/SVG/1.1/DTD/svg11.dtd">
<svg version="1.1" xmlns="http://www.w3.org/2000/svg" xmlns:xlink="http://www.w3.org/1999/xlink" width="32" height="32" viewBox="0 0 32 32">
<path fill="#72777a" d="M3.556 12.444c-1.964 0-3.556 1.591-3.556 3.556s1.591 3.556 3.556 3.556c1.964 0 3.556-1.591 3.556-3.556s-1.591-3.556-3.556-3.556zM28.444 12.444c-1.964 0-3.556 1.591-3.556 3.556s1.591 3.556 3.556 3.556c1.964 0 3.556-1.591 3.556-3.556s-1.591-3.556-3.556-3.556zM16 12.444c-1.964 0-3.556 1.591-3.556 3.556s1.591 3.556 3.556 3.556c1.964 0 3.556-1.591 3.556-3.556s-1.591-3.556-3.556-3.556z"></path>
</svg>
