<?xml version="1.0" encoding="utf-8"?>
<!-- Generated by IcoMoon.io -->
<!DOCTYPE svg PUBLIC "-//W3C//DTD SVG 1.1//EN" "http://www.w3.org/Graphics/SVG/1.1/DTD/svg11.dtd">
<svg version="1.1" xmlns="http://www.w3.org/2000/svg" xmlns:xlink="http://www.w3.org/1999/xlink" width="32" height="32" viewBox="0 0 32 32">
<path fill="#72777a" d="M32 30.222v-28.444c0-0.982-0.796-1.778-1.778-1.778h-28.444c-0.982 0-1.778 0.796-1.778 1.778v28.444c0 0.982 0.796 1.778 1.778 1.778h28.444c0.982 0 1.778-0.796 1.778-1.778zM17.778 5.333c0 0.982-0.796 1.778-1.778 1.778h-10.667c-0.982 0-1.778-0.796-1.778-1.778s0.796-1.778 1.778-1.778h10.667c0.982 0 1.778 0.796 1.778 1.778zM17.778 12.444c0 0.982-0.796 1.778-1.778 1.778h-10.667c-0.982 0-1.778-0.796-1.778-1.778s0.796-1.778 1.778-1.778h10.667c0.982 0 1.778 0.796 1.778 1.778zM17.778 19.556c0 0.982-0.796 1.778-1.778 1.778h-10.667c-0.982 0-1.778-0.796-1.778-1.778s0.796-1.778 1.778-1.778h10.667c0.982 0 1.778 0.796 1.778 1.778zM28.356 20.836c-0.152 0.294-0.452 0.493-0.799 0.498h-0.889v0.587c0 0.002 0 0.005 0 0.007 0 3.599-2.918 6.517-6.517 6.517-0.003 0-0.005 0-0.008 0h-14.809c-0.982 0-1.778-0.796-1.778-1.778s0.796-1.778 1.778-1.778h14.809c1.638-0.003 2.966-1.33 2.969-2.969v-0.587h-0.889c-0.491 0-0.889-0.398-0.889-0.889 0-0.201 0.067-0.387 0.179-0.536l2.665-3.553c0.164-0.217 0.421-0.356 0.711-0.356s0.547 0.139 0.709 0.353l2.668 3.558c0.11 0.148 0.175 0.335 0.175 0.537 0 0.141-0.032 0.274-0.089 0.393z"></path>
</svg>
