<?xml version="1.0" encoding="utf-8"?>
<!-- Generated by IcoMoon.io -->
<!DOCTYPE svg PUBLIC "-//W3C//DTD SVG 1.1//EN" "http://www.w3.org/Graphics/SVG/1.1/DTD/svg11.dtd">
<svg version="1.1" xmlns="http://www.w3.org/2000/svg" xmlns:xlink="http://www.w3.org/1999/xlink" width="32" height="32" viewBox="0 0 32 32">
<path fill="#72777a" d="M30.222 0h-28.444c-0.982 0-1.778 0.796-1.778 1.778v28.444c0 0.982 0.796 1.778 1.778 1.778h28.444c0.982 0 1.778-0.796 1.778-1.778v-28.444c0-0.982-0.796-1.778-1.778-1.778zM16 28.444h-10.667c-0.982 0-1.778-0.796-1.778-1.778s0.796-1.778 1.778-1.778h10.667c0.982 0 1.778 0.796 1.778 1.778s-0.796 1.778-1.778 1.778zM16 21.333h-10.667c-0.982 0-1.778-0.796-1.778-1.778s0.796-1.778 1.778-1.778h10.667c0.982 0 1.778 0.796 1.778 1.778s-0.796 1.778-1.778 1.778zM16 14.222h-10.667c-0.982 0-1.778-0.796-1.778-1.778s0.796-1.778 1.778-1.778h10.667c0.982 0 1.778 0.796 1.778 1.778s-0.796 1.778-1.778 1.778zM28.267 12.089l-2.667 3.556c-0.164 0.217-0.421 0.356-0.711 0.356s-0.547-0.139-0.709-0.353l-2.668-3.558c-0.111-0.147-0.178-0.332-0.178-0.533 0-0.491 0.398-0.889 0.889-0.889h0.889v-0.587c-0.003-1.638-1.33-2.966-2.969-2.969h-14.809c-0.982 0-1.778-0.796-1.778-1.778s0.796-1.778 1.778-1.778h14.809c0.002 0 0.005 0 0.007 0 3.599 0 6.517 2.918 6.517 6.517 0 0.002 0 0.005 0 0.008v0.586h0.889c0.491 0 0.889 0.398 0.889 0.889 0 0.201-0.067 0.387-0.179 0.536z"></path>
</svg>
