<?xml version="1.0" encoding="utf-8"?>
<!-- Generated by IcoMoon.io -->
<!DOCTYPE svg PUBLIC "-//W3C//DTD SVG 1.1//EN" "http://www.w3.org/Graphics/SVG/1.1/DTD/svg11.dtd">
<svg version="1.1" xmlns="http://www.w3.org/2000/svg" xmlns:xlink="http://www.w3.org/1999/xlink" width="32" height="32" viewBox="0 0 32 32">
<path fill="#72777a" d="M24.889 2.542v8.676c-0.137 0.035-0.256 0.077-0.368 0.13-1.25 0.571-2.23 1.585-2.747 2.839l-12.884 0.036c-0.016-0-0.035-0-0.054-0-2.899 0-5.252 2.336-5.28 5.228l-0 0.052c0 0.004-0 0.009-0 0.014 0 2.953 2.383 5.35 5.331 5.372h12.767c0.511 1.417 1.58 2.527 2.934 3.081 0.124 0.048 0.212 0.066 0.301 0.101v1.333c0 0.009 0 0.019 0 0.030 0 1.39-1.105 2.523-2.485 2.566l-19.915 0c-1.384-0.043-2.489-1.176-2.489-2.566 0-0.010 0-0.021 0-0.031v-26.914c-0-0.005-0-0.012-0-0.018 0-1.36 1.098-2.463 2.456-2.471h19.944c1.378 0.017 2.489 1.138 2.489 2.519 0 0.008-0 0.016-0 0.025z"></path>
<path fill="#72777a" d="M32 19.378v0.356c-0.016 0.515-0.23 0.978-0.569 1.316l-3.556 3.36c-0.308 0.299-0.728 0.483-1.192 0.483-0.265 0-0.515-0.060-0.739-0.167-0.624-0.292-1.056-0.925-1.056-1.659 0-0.003 0-0.005 0-0.008v-1.724h-16c-0.982 0-1.778-0.796-1.778-1.778s0.796-1.778 1.778-1.778h16v-1.724c0-0.002 0-0.005 0-0.007 0-0.734 0.432-1.367 1.055-1.659 0.225-0.107 0.475-0.167 0.74-0.167 0.463 0 0.884 0.184 1.192 0.483l3.555 3.36c0.339 0.338 0.553 0.8 0.569 1.313z"></path>
</svg>
