<?xml version="1.0" encoding="utf-8"?>
<!-- Generated by IcoMoon.io -->
<!DOCTYPE svg PUBLIC "-//W3C//DTD SVG 1.1//EN" "http://www.w3.org/Graphics/SVG/1.1/DTD/svg11.dtd">
<svg version="1.1" xmlns="http://www.w3.org/2000/svg" xmlns:xlink="http://www.w3.org/1999/xlink" width="32" height="32" viewBox="0 0 32 32">
<path fill="#72777a" d="M14.222 10.667c0 0.982-0.796 1.778-1.778 1.778s-1.778-0.796-1.778-1.778c0-0.982 0.796-1.778 1.778-1.778s1.778 0.796 1.778 1.778z"></path>
<path fill="#72777a" d="M28.444 1.778h-24.889c-1.961 0.006-3.55 1.594-3.556 3.555v14.223c0.046 1.884 1.512 3.412 3.365 3.555l9.612 0.001-5.156 3.911c-0.399 0.311-0.653 0.791-0.653 1.331 0 0.225 0.044 0.439 0.124 0.635 0.2 0.699 0.835 1.213 1.594 1.233l14.224 0c0.761-0.020 1.396-0.534 1.597-1.232 0.056-0.178 0.086-0.369 0.086-0.567 0-0.554-0.237-1.052-0.615-1.399l-5.157-3.912h9.422c1.961-0.006 3.55-1.594 3.556-3.555v-14.223c-0.006-1.961-1.594-3.55-3.555-3.556zM28.444 15.289l-5.867-5.867c-0.314-0.329-0.755-0.533-1.244-0.533s-0.931 0.204-1.244 0.532l-7.645 7.645-2.311-2.311c-0.314-0.329-0.755-0.533-1.244-0.533s-0.931 0.204-1.244 0.532l-4.090 4.090v-13.511h24.889v9.956z"></path>
</svg>
