<?xml version="1.0" encoding="utf-8"?>
<!-- Generated by IcoMoon.io -->
<!DOCTYPE svg PUBLIC "-//W3C//DTD SVG 1.1//EN" "http://www.w3.org/Graphics/SVG/1.1/DTD/svg11.dtd">
<svg version="1.1" xmlns="http://www.w3.org/2000/svg" xmlns:xlink="http://www.w3.org/1999/xlink" width="32" height="32" viewBox="0 0 32 32">
<path fill="#72777a" d="M17.778 16c0 0.982-0.796 1.778-1.778 1.778s-1.778-0.796-1.778-1.778c0-0.982 0.796-1.778 1.778-1.778s1.778 0.796 1.778 1.778z"></path>
<path fill="#72777a" d="M28.53 16c0 0 0-0 0-0 0-0.982 0.796-1.778 1.778-1.778 0.004 0 0.009 0 0.013 0h1.679c-0.842-7.492-6.731-13.38-14.149-14.216l-0.073 1.673c0 0.982-0.796 1.778-1.778 1.778s-1.778-0.796-1.778-1.778v-1.68c-7.492 0.842-13.38 6.731-14.216 14.149l1.673 0.073c0.001 0 0.003 0 0.005 0 0.080 0 0.16 0.005 0.237 0.015 0.871 0.114 1.544 0.86 1.544 1.763 0 0.982-0.796 1.778-1.778 1.778-0.003 0-0.006 0-0.009-0h-1.68c0.842 7.492 6.731 13.38 14.149 14.216l0.073-1.673c0-0.982 0.796-1.778 1.778-1.778s1.778 0.796 1.778 1.778v1.68c7.492-0.842 13.38-6.731 14.216-14.149l-1.673-0.073c-0.004 0-0.008 0-0.012 0-0.982 0-1.778-0.796-1.778-1.778 0 0 0-0 0-0zM25.045 8.137l-5.063 11.39c-0.093 0.203-0.252 0.363-0.449 0.453l-11.396 5.065c-0.111 0.053-0.24 0.084-0.377 0.084-0.491 0-0.889-0.398-0.889-0.889 0-0.137 0.031-0.267 0.086-0.383l5.061-11.385c0.093-0.203 0.252-0.362 0.449-0.453l11.396-5.065c0.089-0.031 0.191-0.049 0.298-0.049 0.515 0 0.933 0.418 0.933 0.933 0 0.106-0.018 0.209-0.051 0.304z"></path>
</svg>
