<?xml version="1.0" encoding="utf-8"?>
<!-- Generated by IcoMoon.io -->
<!DOCTYPE svg PUBLIC "-//W3C//DTD SVG 1.1//EN" "http://www.w3.org/Graphics/SVG/1.1/DTD/svg11.dtd">
<svg version="1.1" xmlns="http://www.w3.org/2000/svg" xmlns:xlink="http://www.w3.org/1999/xlink" width="32" height="32" viewBox="0 0 32 32">
<path fill="#72777a" d="M30.222 7.111h-5.333v-5.333c0-0.982-0.796-1.778-1.778-1.778h-21.333c-0.982 0-1.778 0.796-1.778 1.778v24.889c0 2.946 2.388 5.333 5.333 5.333h19.556c3.922-0.012 7.099-3.189 7.111-7.11v-16.001c0-0.982-0.796-1.778-1.778-1.778zM3.573 26.667l-0.018-10.667c0-0.982 0.796-1.778 1.778-1.778h1.778c0.982 0 1.778 0.796 1.778 1.778l0.018 10.667c0 0.982-0.796 1.778-1.778 1.778h-1.778c-0.982 0-1.778-0.796-1.778-1.778zM19.556 26.667h-5.333c-0.982 0-1.778-0.796-1.778-1.778s0.796-1.778 1.778-1.778h5.333c0.982 0 1.778 0.796 1.778 1.778s-0.796 1.778-1.778 1.778zM19.591 19.556h-5.369c-0.982 0-1.778-0.796-1.778-1.778s0.796-1.778 1.778-1.778h5.333c0.982 0 1.778 0.796 1.778 1.778 0 0.008 0 0.017 0 0.027 0 0.964-0.779 1.746-1.742 1.751zM21.333 8.889c0 0.982-0.796 1.778-1.778 1.778h-14.222c-0.982 0-1.778-0.796-1.778-1.778v-3.556c0-0.982 0.796-1.778 1.778-1.778h14.222c0.982 0 1.778 0.796 1.778 1.778v3.556zM28.444 26.667c0 0.982-0.796 1.778-1.778 1.778s-1.778-0.796-1.778-1.778v-16h3.556v16z"></path>
</svg>
