<?xml version="1.0" encoding="utf-8"?>
<!-- Generated by IcoMoon.io -->
<!DOCTYPE svg PUBLIC "-//W3C//DTD SVG 1.1//EN" "http://www.w3.org/Graphics/SVG/1.1/DTD/svg11.dtd">
<svg version="1.1" xmlns="http://www.w3.org/2000/svg" xmlns:xlink="http://www.w3.org/1999/xlink" width="32" height="32" viewBox="0 0 32 32">
<path fill="#72777a" d="M9.052 16.279c0.725-3.218 3.559-5.587 6.946-5.587 2.218 0 4.199 1.015 5.503 2.607 0.982-0.522 2.14-0.837 3.372-0.837 0.006 0 0.011 0 0.017 0l-0.001-0.018c-0.003-3.925-3.186-7.105-7.111-7.105-2.73 0-5.101 1.538-6.292 3.796-0.508-0.142-1.073-0.246-1.662-0.246-0.016 0-0.032 0-0.048 0-2.943-0-5.331 2.388-5.331 5.333-2.455 0-4.444 1.99-4.444 4.444s1.99 4.444 4.444 4.444h1.164c-0.168-0.514-0.268-1.105-0.276-1.719-0-0.004-0-0.004-0-0.004 0-2.376 1.543-4.391 3.681-5.098z"></path>
<path fill="#72777a" d="M32 21.333c0.004 0.114-0.002 0.226-0.018 0.338 0 0 0.018 0 0 0.018-0.192 1.802-1.701 3.195-3.537 3.2h-17.263c-0.008 0-0.017 0.001-0.027 0.001-0.048 0-0.093-0.007-0.137-0.019-0.014 0.019-0.014 0.001-0.014 0.001-0.106 0.011-0.23 0.018-0.355 0.018-1.964 0-3.556-1.592-3.556-3.556s1.592-3.556 3.556-3.556c0.006 0 0.012 0 0.018 0 0.010-2.937 2.393-5.314 5.332-5.314 2.275 0 4.217 1.424 4.983 3.429 0.986-1.014 2.373-1.669 3.913-1.669 2.442 0 4.499 1.647 5.121 3.891 1.187 0.632 1.981 1.833 1.982 3.219z"></path>
</svg>
