<?xml version="1.0" encoding="utf-8"?>
<!-- Generated by IcoMoon.io -->
<!DOCTYPE svg PUBLIC "-//W3C//DTD SVG 1.1//EN" "http://www.w3.org/Graphics/SVG/1.1/DTD/svg11.dtd">
<svg version="1.1" xmlns="http://www.w3.org/2000/svg" xmlns:xlink="http://www.w3.org/1999/xlink" width="32" height="32" viewBox="0 0 32 32">
<path fill="#72777a" d="M20.978 33.653c0.039-0.088 0.080-0.162 0.128-0.233-0.071 0.107-0.125 0.226-0.161 0.352 0.002-0.037 0.014-0.079 0.034-0.117zM21.404 33.056c-0.052 0.048-0.098 0.101-0.14 0.157 0.018-0.046 0.048-0.088 0.086-0.121 0.018-0.025 0.036-0.025 0.054-0.036zM30.222 12.363c-0.002 0-0.003 0-0.005 0-0.413 0-0.792-0.14-1.094-0.376-3.508-2.998-8.103-4.824-13.124-4.824-4.973 0-9.527 1.791-13.053 4.763-0.284 0.263-0.705 0.439-1.168 0.439-0.519 0-0.986-0.222-1.311-0.577-0.288-0.313-0.464-0.731-0.464-1.189 0-0.515 0.222-0.978 0.575-1.3 0.133-0.135 14.441-12.794 30.739-0.090 0.416 0.324 0.681 0.826 0.681 1.389 0 0.413-0.143 0.793-0.381 1.093-0.326 0.409-0.828 0.672-1.392 0.672-0.001 0-0.002 0-0.003 0zM20.697 22.532c-0.31 0.25-0.708 0.401-1.141 0.401-0.542 0-1.030-0.237-1.364-0.613-0.551-0.622-1.315-1.041-2.176-1.142-0.893 0.103-1.655 0.524-2.2 1.141-0.339 0.382-0.827 0.62-1.37 0.62-0.434 0-0.834-0.152-1.147-0.406-0.387-0.32-0.634-0.804-0.634-1.346 0-0.427 0.153-0.818 0.408-1.122 1.222-1.379 2.957-2.285 4.903-2.419 1.991 0.133 3.725 1.037 4.944 2.409 0.258 0.308 0.411 0.699 0.411 1.125 0 0.541-0.246 1.025-0.633 1.346z"></path>
<path fill="#72777a" d="M26.169 17.106c-0.324 0.336-0.778 0.544-1.28 0.544-0.476 0-0.908-0.187-1.227-0.492-2.037-1.804-4.71-2.932-7.645-3.014-2.969 0.084-5.642 1.215-7.691 3.033-0.306 0.293-0.738 0.48-1.214 0.48-0.503 0-0.956-0.208-1.28-0.544-0.309-0.317-0.498-0.75-0.498-1.227 0-0.495 0.204-0.942 0.533-1.262 2.659-2.458 6.215-3.979 10.125-4.022 3.927 0.041 7.483 1.561 10.152 4.027 0.318 0.311 0.521 0.757 0.521 1.251 0 0.476-0.189 0.908-0.497 1.225z"></path>
<path fill="#72777a" d="M17.778 26.457c0 0.973-0.796 1.762-1.778 1.762s-1.778-0.789-1.778-1.762c0-0.973 0.796-1.762 1.778-1.762s1.778 0.789 1.778 1.762z"></path>
</svg>
