<?xml version="1.0" encoding="utf-8"?>
<!-- Generated by IcoMoon.io -->
<!DOCTYPE svg PUBLIC "-//W3C//DTD SVG 1.1//EN" "http://www.w3.org/Graphics/SVG/1.1/DTD/svg11.dtd">
<svg version="1.1" xmlns="http://www.w3.org/2000/svg" xmlns:xlink="http://www.w3.org/1999/xlink" width="32" height="32" viewBox="0 0 32 32">
<path fill="#72777a" d="M31.989 15.851c0.238 0.756-3.545 4.747-5.022 6.176-0.26 0.262-0.621 0.425-1.019 0.425-0.056 0-0.112-0.003-0.166-0.010-0.32-0.27-0.532-0.668-0.553-1.116-0.046-1.596-1.065-2.94-2.48-3.465-0.404-0.145-0.84-0.224-1.294-0.224-1.114 0-2.117 0.474-2.819 1.231-0.862 0.716-1.405 1.785-1.405 2.981 0 2.040 1.581 3.71 3.584 3.853 0.479 0.026 0.891 0.241 1.177 0.568 0.243 1.17-5.661 7.419-7.812 5.293-1.348-1.333-1.305-1.333-2.649-2.667-0.633-0.604-1.492-0.976-2.438-0.976-0.087 0-0.173 0.003-0.258 0.009-0.868 0.166-1.563 0.808-1.803 1.643-0.299 1.144-1.201 2.002-2.331 2.23-0.146 0.019-0.292 0.028-0.441 0.028-1.758 0-3.221-1.268-3.522-2.94-0.050-0.228-0.077-0.465-0.077-0.708 0-1.672 1.274-3.047 2.905-3.206 0.68-0.246 1.161-0.844 1.232-1.563 0.036-0.15 0.056-0.313 0.056-0.48 0-0.66-0.312-1.247-0.797-1.622-1.271-1.314-1.783-1.781-3.038-3.1-1.227-1.28-1.44-2.071-0.178-3.36 1.44-1.467 2.862-2.939 4.325-4.361 0.204-0.192 0.48-0.311 0.783-0.311 0.080 0 0.159 0.008 0.234 0.024 0.304 0.26 0.512 0.635 0.552 1.059 0.006 2.086 1.693 3.769 3.773 3.769 1.013 0 1.933-0.4 2.611-1.050 0.951-0.747 1.556-1.898 1.556-3.191 0-0.814-0.24-1.572-0.653-2.207-0.681-0.949-1.775-1.586-3.021-1.65-0.433-0.027-0.803-0.236-1.045-0.548-0.374-0.983 4.956-6.387 5.674-6.387 0.005-0 0.012-0 0.018-0 0.825 0 1.559 0.387 2.031 0.99 1.384 1.375 1.581 1.606 2.959 2.975 0.549 0.559 1.312 0.905 2.157 0.905 0.111 0 0.22-0.006 0.328-0.018 0.894-0.503 1.53-1.403 1.663-2.459 0.536-0.955 1.529-1.577 2.668-1.577 0.039 0 0.079 0.001 0.118 0.002 0.032-0.002 0.076-0.002 0.12-0.002 1.817 0 3.317 1.352 3.552 3.104 0.058 0.233 0.091 0.479 0.091 0.733 0 1.497-1.129 2.731-2.582 2.897-0.811 0.097-1.462 0.639-1.716 1.366-0.029 0.149-0.043 0.303-0.043 0.461 0 0.79 0.349 1.499 0.901 1.981 0.732 0.767 0.764 0.735 1.486 1.505 1.057 0.81 1.93 1.803 2.583 2.939z"></path>
</svg>
