<?xml version="1.0" encoding="utf-8"?>
<!-- Generated by IcoMoon.io -->
<!DOCTYPE svg PUBLIC "-//W3C//DTD SVG 1.1//EN" "http://www.w3.org/Graphics/SVG/1.1/DTD/svg11.dtd">
<svg version="1.1" xmlns="http://www.w3.org/2000/svg" xmlns:xlink="http://www.w3.org/1999/xlink" width="32" height="32" viewBox="0 0 32 32">
<path fill="#72777a" d="M30.948 6.066c0.65-0.637 1.053-1.525 1.053-2.507s-0.403-1.869-1.053-2.506c-0.638-0.651-1.525-1.054-2.506-1.054s-1.869 0.403-2.505 1.053l-0.516 0.516-1.049-1.049c-0.324-0.321-0.77-0.519-1.262-0.519-0.756 0-1.403 0.468-1.667 1.129l-0.626-0.61c-0.323-0.323-0.769-0.523-1.262-0.523-0.986 0-1.785 0.799-1.785 1.785 0 0.493 0.2 0.939 0.523 1.262l0.622 0.622c-0.473 0.191-0.84 0.558-1.027 1.019l-0.627-0.61c-0.323-0.323-0.769-0.523-1.262-0.523-0.986 0-1.785 0.799-1.785 1.785 0 0.493 0.2 0.939 0.523 1.262l2.827 2.823-5.369 5.351c-0.018 0.018-0.036 0.053-0.053 0.071-0.956-0.394-2.065-0.622-3.228-0.622-0.008 0-0.017 0-0.025 0-4.908 0-8.888 3.98-8.888 8.889s3.98 8.889 8.889 8.889c4.909 0 8.889-3.98 8.889-8.889 0-0.007 0-0.016 0-0.025 0-1.163-0.229-2.272-0.643-3.286 0.039 0.040 0.074 0.022 0.092 0.005l13.721-13.739zM8.889 26.667c-1.964 0-3.556-1.592-3.556-3.556s1.592-3.556 3.556-3.556c1.964 0 3.556 1.592 3.556 3.556s-1.592 3.556-3.556 3.556z"></path>
</svg>
