<?xml version="1.0" encoding="utf-8"?>
<!-- Generated by IcoMoon.io -->
<!DOCTYPE svg PUBLIC "-//W3C//DTD SVG 1.1//EN" "http://www.w3.org/Graphics/SVG/1.1/DTD/svg11.dtd">
<svg version="1.1" xmlns="http://www.w3.org/2000/svg" xmlns:xlink="http://www.w3.org/1999/xlink" width="32" height="32" viewBox="0 0 32 32">
<path fill="#72777a" d="M32 11.556v1.778h-9.867c-1.24-2.139-3.518-3.555-6.127-3.555-2.631 0-4.925 1.439-6.139 3.573l-0.018-0.018h-9.849v-1.778c0.006-1.961 1.594-3.55 3.555-3.556 0.001-0.982 0.797-1.778 1.778-1.778s1.778 0.796 1.778 1.778h1.422l3.289-3.289c0.153-0.164 0.371-0.267 0.612-0.267 0.004 0 0.007 0 0.011 0h7.111c0.003-0 0.007-0 0.010-0 0.241 0 0.459 0.102 0.612 0.266l3.289 3.289h4.978c1.961 0.006 3.55 1.594 3.556 3.555zM16 24c-3.927 0-7.111-3.184-7.111-7.111h-8.889v7.111c0.006 1.961 1.594 3.55 3.555 3.556h24.889c1.961-0.006 3.549-1.594 3.556-3.555v-7.112h-8.889c0 3.927-3.184 7.111-7.111 7.111z"></path>
<path fill="#72777a" d="M19.556 16.889c0 1.964-1.592 3.556-3.556 3.556s-3.556-1.592-3.556-3.556c0-1.964 1.592-3.556 3.556-3.556s3.556 1.592 3.556 3.556z"></path>
</svg>
