<?xml version="1.0" encoding="utf-8"?>
<!-- Generated by IcoMoon.io -->
<!DOCTYPE svg PUBLIC "-//W3C//DTD SVG 1.1//EN" "http://www.w3.org/Graphics/SVG/1.1/DTD/svg11.dtd">
<svg version="1.1" xmlns="http://www.w3.org/2000/svg" xmlns:xlink="http://www.w3.org/1999/xlink" width="32" height="32" viewBox="0 0 32 32">
<path fill="#72777a" d="M21.333 12.444v-8.889c0.982 0 1.778-0.796 1.778-1.778s-0.796-1.778-1.778-1.778h-10.667c-0.982 0-1.778 0.796-1.778 1.778s0.796 1.778 1.778 1.778v8.889c-1.956 0-3.556 3.378-3.556 5.333 0 0.982 0.796 1.778 1.778 1.778h5.333v7.111l1.778 5.333 1.778-5.333v-7.111h5.333c0.982 0 1.778-0.796 1.778-1.778 0-1.956-1.6-5.333-3.556-5.333zM14.222 14.222v-8.889c0-0.982 0.796-1.778 1.778-1.778s1.778 0.796 1.778 1.778v8.889h-3.556z"></path>
</svg>
