<?xml version="1.0" encoding="utf-8"?>
<!-- Generated by IcoMoon.io -->
<!DOCTYPE svg PUBLIC "-//W3C//DTD SVG 1.1//EN" "http://www.w3.org/Graphics/SVG/1.1/DTD/svg11.dtd">
<svg version="1.1" xmlns="http://www.w3.org/2000/svg" xmlns:xlink="http://www.w3.org/1999/xlink" width="32" height="32" viewBox="0 0 32 32">
<path fill="#72777a" d="M31.479 28.956l-6.098-6.098c0.757-1.195 1.207-2.65 1.207-4.21 0-4.389-3.558-7.947-7.947-7.947s-7.947 3.558-7.947 7.947c0 4.389 3.558 7.947 7.947 7.947 1.564 0 3.022-0.452 4.252-1.232l6.065 6.117c0.323 0.322 0.768 0.521 1.26 0.521 0.985 0 1.783-0.798 1.783-1.783 0-0.493-0.2-0.939-0.524-1.262zM14.222 18.628c0-2.435 1.974-4.409 4.409-4.409s4.409 1.974 4.409 4.409c0 2.435-1.974 4.409-4.409 4.409-2.434 0-4.407-1.972-4.409-4.405z"></path>
<path fill="#72777a" d="M17.778 0h-16c-0.982 0-1.778 0.796-1.778 1.778v24.889c0 0.982 0.796 1.778 1.778 1.778h10.844c-2.038-1.267-3.626-3.090-4.57-5.258l-2.719-0.075c-0.982 0-1.778-0.796-1.778-1.778s0.796-1.778 1.778-1.778h1.838c-0.025-0.311-0.060-0.615-0.060-0.928 0.003-0.934 0.118-1.839 0.331-2.706l-2.109 0.079c-0.982 0-1.778-0.796-1.778-1.778s0.796-1.778 1.778-1.778h3.595c0.933-1.442 2.131-2.632 3.534-3.528l-7.128-0.028c-0.982 0-1.778-0.796-1.778-1.778s0.796-1.778 1.778-1.778h8.889c0.982 0 1.778 0.796 1.778 1.778-0.012 0.123-0.036 0.236-0.071 0.344 0.811-0.219 1.74-0.34 2.696-0.344 0.315 0 0.621 0.023 0.927 0.046v-5.38c0 0 0 0 0 0 0-0.981-0.794-1.776-1.774-1.778z"></path>
</svg>
