<?xml version="1.0" encoding="utf-8"?>
<!-- Generated by IcoMoon.io -->
<!DOCTYPE svg PUBLIC "-//W3C//DTD SVG 1.1//EN" "http://www.w3.org/Graphics/SVG/1.1/DTD/svg11.dtd">
<svg version="1.1" xmlns="http://www.w3.org/2000/svg" xmlns:xlink="http://www.w3.org/1999/xlink" width="32" height="32" viewBox="0 0 32 32">
<path fill="#72777a" d="M28.444 10.667h-1.778v-7.111c-0.006-1.961-1.594-3.55-3.555-3.556h-14.223c-1.961 0.006-3.55 1.594-3.556 3.555v7.112h-1.778c-1.961 0.006-3.55 1.594-3.556 3.555v10.667c0.006 1.961 1.594 3.55 3.555 3.556h3.556c0.006 1.961 1.594 3.55 3.555 3.556h10.667c1.961-0.006 3.55-1.594 3.556-3.555l3.556-0.001c1.961-0.006 3.55-1.594 3.556-3.555v-10.667c-0.006-1.961-1.594-3.55-3.555-3.556zM5.333 17.778c-0.982 0-1.778-0.796-1.778-1.778s0.796-1.778 1.778-1.778c0.982 0 1.778 0.796 1.778 1.778s-0.796 1.778-1.778 1.778zM8.889 10.667v-6.222c0-0.491 0.398-0.889 0.889-0.889h12.444c0.491 0 0.889 0.398 0.889 0.889v6.222h-14.222zM21.333 27.556c0 0.491-0.398 0.889-0.889 0.889h-8.889c-0.491 0-0.889-0.398-0.889-0.889v-4.444h10.667v4.444z"></path>
</svg>
