<?xml version="1.0" encoding="utf-8"?>
<!-- Generated by IcoMoon.io -->
<!DOCTYPE svg PUBLIC "-//W3C//DTD SVG 1.1//EN" "http://www.w3.org/Graphics/SVG/1.1/DTD/svg11.dtd">
<svg version="1.1" xmlns="http://www.w3.org/2000/svg" xmlns:xlink="http://www.w3.org/1999/xlink" width="32" height="32" viewBox="0 0 32 32">
<path fill="#72777a" d="M31.808 25.689c-0.291 0.582-0.883 0.974-1.566 0.974-0.291 0-0.565-0.071-0.806-0.197l-0.945-0.475v4.231c-0.031 0.963-0.82 1.732-1.788 1.732s-1.756-0.769-1.787-1.729l-0-4.234-0.994 0.48c-0.223 0.108-0.485 0.172-0.762 0.172-0.982 0-1.778-0.796-1.778-1.778 0-0.668 0.368-1.25 0.913-1.554l2.845-1.422c0.492-0.332 1.067-0.526 1.659-0.556 0.499 0.093 0.942 0.272 1.336 0.523l1.171 0.583c0.572 0.286 1.145 0.578 1.721 0.859 0.585 0.295 0.98 0.891 0.98 1.58 0 0.296-0.073 0.576-0.202 0.821z"></path>
<path fill="#72777a" d="M27.876 4.498l-11.556-4.444c-0.095-0.034-0.205-0.053-0.32-0.053s-0.225 0.020-0.327 0.055l-11.549 4.442c-0.334 0.137-0.566 0.459-0.569 0.835v16h-1.778c-0.982 0-1.778 0.796-1.778 1.778v7.111c0 0.982 0.796 1.778 1.778 1.778h17.813c-1.131-1.464-1.813-3.326-1.813-5.347 0-2.883 1.388-5.442 3.532-7.045l0.023-8.941h3.556v7.289c0.534-0.113 1.149-0.178 1.778-0.178s1.243 0.065 1.836 0.188l-0.058-12.632c-0.003-0.377-0.235-0.698-0.563-0.833zM10.667 21.333h-3.556v-10.667h3.556v10.667zM17.778 21.333h-3.556v-10.667h3.556v10.667z"></path>
</svg>
