<?xml version="1.0" encoding="utf-8"?>
<!-- Generated by IcoMoon.io -->
<!DOCTYPE svg PUBLIC "-//W3C//DTD SVG 1.1//EN" "http://www.w3.org/Graphics/SVG/1.1/DTD/svg11.dtd">
<svg version="1.1" xmlns="http://www.w3.org/2000/svg" xmlns:xlink="http://www.w3.org/1999/xlink" width="32" height="32" viewBox="0 0 32 32">
<path fill="#72777a" d="M25.956 0h-19.911c-1.378 0.017-2.489 1.138-2.489 2.519 0 0.008 0 0.016 0 0.025v26.914c-0 0.007-0 0.015-0 0.023 0 1.381 1.111 2.502 2.487 2.519h19.913c1.378-0.017 2.489-1.138 2.489-2.519 0-0.008-0-0.016-0-0.025v-26.914c0-0.007 0-0.015 0-0.023 0-1.381-1.111-2.502-2.487-2.519zM16 28.444c-0.982 0-1.778-0.796-1.778-1.778s0.796-1.778 1.778-1.778c0.982 0 1.778 0.796 1.778 1.778s-0.796 1.778-1.778 1.778zM17.778 17.547v3.787c0 0.982-0.796 1.778-1.778 1.778s-1.778-0.796-1.778-1.778v-5.333c0-0.982 0.796-1.778 1.778-1.778 1.964 0 3.556-1.592 3.556-3.556s-1.592-3.556-3.556-3.556c-1.964 0-3.556 1.592-3.556 3.556 0 0.982-0.796 1.778-1.778 1.778s-1.778-0.796-1.778-1.778c0-0.002 0-0.003 0-0.005 0-3.927 3.184-7.111 7.111-7.111s7.111 3.184 7.111 7.111c0 3.296-2.242 6.068-5.284 6.874z"></path>
</svg>
