<?xml version="1.0" encoding="utf-8"?>
<!-- Generated by IcoMoon.io -->
<!DOCTYPE svg PUBLIC "-//W3C//DTD SVG 1.1//EN" "http://www.w3.org/Graphics/SVG/1.1/DTD/svg11.dtd">
<svg version="1.1" xmlns="http://www.w3.org/2000/svg" xmlns:xlink="http://www.w3.org/1999/xlink" width="32" height="32" viewBox="0 0 32 32">
<path fill="#72777a" d="M30.222 12.444h-0.622c-1.015-2.119-3.142-3.556-5.605-3.556-1.889 0-3.58 0.845-4.717 2.178-0.989-0.251-2.116-0.4-3.278-0.4s-2.289 0.149-3.364 0.429c-1.051-1.362-2.743-2.207-4.631-2.207-2.463 0-4.59 1.437-5.589 3.518l-0.638 0.037c-0.982 0-1.778 0.796-1.778 1.778s0.796 1.778 1.778 1.778h0.071c0.471 3.010 3.046 5.285 6.151 5.285 3.42 0 6.195-2.759 6.222-6.172-0-0.26-0.019-0.512-0.057-0.759 0.554-0.074 1.188-0.132 1.835-0.132s1.281 0.058 1.895 0.17c-0.098 0.209-0.118 0.462-0.118 0.719 0.027 3.416 2.802 6.174 6.222 6.174 3.106 0 5.68-2.276 6.147-5.25l0.076-0.035c0.982 0 1.778-0.796 1.778-1.778s-0.796-1.778-1.778-1.778zM8 17.778c-1.473 0-2.667-1.194-2.667-2.667s1.194-2.667 2.667-2.667c1.473 0 2.667 1.194 2.667 2.667s-1.194 2.667-2.667 2.667zM24 17.778c-1.473 0-2.667-1.194-2.667-2.667s1.194-2.667 2.667-2.667c1.473 0 2.667 1.194 2.667 2.667s-1.194 2.667-2.667 2.667z"></path>
</svg>
