<?xml version="1.0" encoding="utf-8"?>
<!-- Generated by IcoMoon.io -->
<!DOCTYPE svg PUBLIC "-//W3C//DTD SVG 1.1//EN" "http://www.w3.org/Graphics/SVG/1.1/DTD/svg11.dtd">
<svg version="1.1" xmlns="http://www.w3.org/2000/svg" xmlns:xlink="http://www.w3.org/1999/xlink" width="32" height="32" viewBox="0 0 32 32">
<path fill="#72777a" d="M24.889 0h-1.778v17.223c0 0.002 0 0.003 0 0.005 0 0.144-0.054 0.275-0.143 0.374-0.098 0.109-0.239 0.177-0.397 0.177-0.005 0-0.010-0-0.015-0-0.001 0-0.003 0-0.004 0-0.144 0-0.275-0.054-0.374-0.143l-3.511-3.415-3.511 3.412c-0.099 0.088-0.23 0.142-0.374 0.142-0.002 0-0.004 0-0.005-0-0.003 0-0.007 0-0.011 0-0.158 0-0.3-0.069-0.397-0.177-0.091-0.099-0.146-0.232-0.146-0.377 0-0 0-0 0-0.001v-17.221h-7.111c-0.982 0-1.778 0.796-1.778 1.778v28.444c0 0.982 0.796 1.778 1.778 1.778h17.778c0.982 0 1.778-0.796 1.778-1.778v-28.444c0-0.982-0.796-1.778-1.778-1.778z"></path>
</svg>
