<?xml version="1.0" encoding="utf-8"?>
<!-- Generated by IcoMoon.io -->
<!DOCTYPE svg PUBLIC "-//W3C//DTD SVG 1.1//EN" "http://www.w3.org/Graphics/SVG/1.1/DTD/svg11.dtd">
<svg version="1.1" xmlns="http://www.w3.org/2000/svg" xmlns:xlink="http://www.w3.org/1999/xlink" width="32" height="32" viewBox="0 0 32 32">
<path fill="#72777a" d="M30.222 12.444h-0.622c-0.804-1.682-2.305-2.92-4.118-3.352l6.003-6.053c0.323-0.323 0.523-0.769 0.523-1.262 0-0.986-0.799-1.785-1.785-1.785-0.493 0-0.939 0.2-1.262 0.523l-10.4 10.404c-0.77-0.16-1.654-0.252-2.56-0.252-0.016-0-0.034-0-0.052-0-1.144 0-2.253 0.149-3.309 0.429-1.053-1.36-2.744-2.205-4.631-2.205-2.462 0-4.588 1.436-5.587 3.516l-0.644 0.037c-0.982 0-1.778 0.796-1.778 1.778s0.796 1.778 1.778 1.778h0.071c0.45 3.030 3.031 5.33 6.151 5.333h0.143l-7.623 7.627c-0.321 0.324-0.52 0.77-0.52 1.262s0.199 0.938 0.52 1.262c0.325 0.319 0.77 0.516 1.262 0.516s0.937-0.197 1.263-0.516l14.912-14.915c0.678 2.753 3.125 4.763 6.042 4.763 3.12 0 5.704-2.3 6.146-5.298l0.079-0.034c0.982 0 1.778-0.796 1.778-1.778s-0.796-1.778-1.778-1.778zM8 17.778c-1.473 0-2.667-1.194-2.667-2.667s1.194-2.667 2.667-2.667c1.473 0 2.667 1.194 2.667 2.667s-1.194 2.667-2.667 2.667zM24 17.778c-1.473 0-2.667-1.194-2.667-2.667s1.194-2.667 2.667-2.667c1.473 0 2.667 1.194 2.667 2.667s-1.194 2.667-2.667 2.667z"></path>
</svg>
