<?xml version="1.0" encoding="utf-8"?>
<!-- Generated by IcoMoon.io -->
<!DOCTYPE svg PUBLIC "-//W3C//DTD SVG 1.1//EN" "http://www.w3.org/Graphics/SVG/1.1/DTD/svg11.dtd">
<svg version="1.1" xmlns="http://www.w3.org/2000/svg" xmlns:xlink="http://www.w3.org/1999/xlink" width="32" height="32" viewBox="0 0 32 32">
<path fill="#72777a" d="M0 17.778c0 7.84 6.382 14.222 14.222 14.222s14.222-6.382 14.222-14.222c0-0.978-0.8-1.778-1.778-1.778s-1.778 0.8-1.778 1.778c0 5.884-4.782 10.667-10.667 10.667s-10.667-4.782-10.667-10.667 4.782-10.667 10.667-10.667h7.111v1.778c0 0.658 0.356 1.262 0.942 1.564 0.267 0.142 0.551 0.213 0.836 0.213 0.338 0 0.693-0.107 0.978-0.302l5.333-3.556c0.498-0.32 0.8-0.889 0.8-1.476s-0.302-1.156-0.8-1.476l-5.333-3.556c-0.284-0.196-0.64-0.302-0.978-0.302-0.284 0-0.569 0.071-0.836 0.213-0.587 0.302-0.942 0.907-0.942 1.564v1.778h-7.111c-7.84 0-14.222 6.382-14.222 14.222z"></path>
</svg>
