<?xml version="1.0" encoding="utf-8"?>
<!-- Generated by IcoMoon.io -->
<!DOCTYPE svg PUBLIC "-//W3C//DTD SVG 1.1//EN" "http://www.w3.org/Graphics/SVG/1.1/DTD/svg11.dtd">
<svg version="1.1" xmlns="http://www.w3.org/2000/svg" xmlns:xlink="http://www.w3.org/1999/xlink" width="32" height="32" viewBox="0 0 32 32">
<path fill="#72777a" d="M5.454 10.667h-0.242c-1.914 0.076-3.436 1.645-3.436 3.571 0 0.038 0.001 0.077 0.002 0.115l-0 1.523c-0.001 0.033-0.002 0.071-0.002 0.109 0 1.925 1.523 3.495 3.429 3.57l0.249 0c1.914-0.076 3.436-1.645 3.436-3.571 0-0.038-0.001-0.077-0.002-0.115l0-1.523c0.001-0.033 0.002-0.071 0.002-0.109 0-1.925-1.523-3.495-3.429-3.57zM5.333 21.333c-2.941 0.010-5.323 2.392-5.333 5.332v3.557c0.001 0.975 0.792 1.765 1.767 1.765 0.004 0 0.008 0 0.011-0l7.111 0.012c0.982 0 1.778-0.796 1.778-1.778v-3.556c-0.010-2.941-2.392-5.323-5.332-5.333z"></path>
<path fill="#72777a" d="M16 10.667c0 0.982-0.796 1.778-1.778 1.778s-1.778-0.796-1.778-1.778c0-0.982 0.796-1.778 1.778-1.778s1.778 0.796 1.778 1.778z"></path>
<path fill="#72777a" d="M12.444 13.333c0 0.491-0.398 0.889-0.889 0.889s-0.889-0.398-0.889-0.889c0-0.491 0.398-0.889 0.889-0.889s0.889 0.398 0.889 0.889z"></path>
<path fill="#72777a" d="M32 6.702c0.001 0.036 0.002 0.078 0.002 0.12 0 1.995-1.575 3.623-3.55 3.707-0.020 0-0.035 0.001-0.050 0.001-0.435 0-0.848-0.092-1.221-0.257-0.505 1.286-1.739 2.17-3.181 2.17s-2.676-0.884-3.192-2.139c-0.362 0.134-0.776 0.226-1.21 0.226-0.015 0-0.030-0-0.045-0-1.98-0.084-3.555-1.712-3.555-3.707 0-0.042 0.001-0.085 0.002-0.127-0.001-0.031-0.002-0.074-0.002-0.118 0-1.995 1.575-3.623 3.55-3.707 0.173 0.003 0.333 0.017 0.489 0.041 0.562-1.151 1.724-1.93 3.071-1.953 0.011-0 0.021-0 0.030-0 0.42 0 0.82 0.084 1.185 0.235 0.611-0.729 1.53-1.185 2.556-1.195 1.92 0.075 3.457 1.607 3.539 3.516 0.965 0.733 1.583 1.876 1.583 3.163 0 0.008-0 0.016-0 0.024z"></path>
</svg>
