<?xml version="1.0" encoding="utf-8"?>
<!-- Generated by IcoMoon.io -->
<!DOCTYPE svg PUBLIC "-//W3C//DTD SVG 1.1//EN" "http://www.w3.org/Graphics/SVG/1.1/DTD/svg11.dtd">
<svg version="1.1" xmlns="http://www.w3.org/2000/svg" xmlns:xlink="http://www.w3.org/1999/xlink" width="32" height="32" viewBox="0 0 32 32">
<path fill="#72777a" d="M28.444 14.222c0 0.982-0.796 1.778-1.778 1.778-0.566-0.003-1.070-0.265-1.402-0.672l-0.074-0.11c-1.347-1.995-3.284-3.503-5.558-4.284-0.608-0.186-1.219-0.283-1.851-0.29l-0.004 1.801c-0.006 0.676-0.399 1.259-0.968 1.539-0.244 0.126-0.521 0.197-0.814 0.197-0.4 0-0.77-0.132-1.067-0.356l-7.107-5.318c-0.434-0.328-0.711-0.843-0.711-1.422s0.277-1.094 0.707-1.419l7.116-5.31c0.291-0.222 0.66-0.355 1.061-0.355 0.294 0 0.572 0.072 0.816 0.2 0.566 0.283 0.957 0.864 0.968 1.537l0 1.818c3.822 0 10.507 5.493 10.667 10.667zM3.556 17.778c0-0.982 0.796-1.778 1.778-1.778 0.566 0.003 1.070 0.265 1.402 0.672l0.074 0.11c1.347 1.995 3.284 3.503 5.558 4.284 0.608 0.186 1.219 0.283 1.851 0.29l0.004-1.801c0.006-0.676 0.399-1.259 0.968-1.539 0.244-0.126 0.521-0.197 0.814-0.197 0.4 0 0.77 0.132 1.067 0.356l7.107 5.318c0.434 0.328 0.711 0.843 0.711 1.422s-0.277 1.094-0.707 1.419l-7.116 5.31c-0.291 0.222-0.66 0.355-1.061 0.355-0.294 0-0.572-0.072-0.816-0.2-0.566-0.284-0.957-0.864-0.968-1.537l-0-1.818c-3.822 0-10.507-5.493-10.667-10.667z"></path>
</svg>
