<?xml version="1.0" encoding="utf-8"?>
<!-- Generated by IcoMoon.io -->
<!DOCTYPE svg PUBLIC "-//W3C//DTD SVG 1.1//EN" "http://www.w3.org/Graphics/SVG/1.1/DTD/svg11.dtd">
<svg version="1.1" xmlns="http://www.w3.org/2000/svg" xmlns:xlink="http://www.w3.org/1999/xlink" width="32" height="32" viewBox="0 0 32 32">
<path fill="#72777a" d="M8.373 3.054c-0.356 0.356-3.289 3.301-3.476 3.484-0.356 0.353-0.847 0.571-1.388 0.571-0.111 0-0.22-0.009-0.326-0.027-0.897-0.404-1.678-0.863-2.4-1.397-0.461-0.297-0.784-0.847-0.784-1.473 0-0.983 0.796-1.779 1.779-1.779 0.357 0 0.689 0.105 0.967 0.285l0.562 0.351 2.542-2.549c0.321-0.31 0.759-0.501 1.241-0.501 0.988 0 1.788 0.801 1.788 1.788 0 0.485-0.193 0.924-0.506 1.246zM31.484 3.054l-3.474 3.484c-0.355 0.353-0.845 0.572-1.386 0.572-0.112 0-0.222-0.009-0.329-0.027-0.897-0.404-1.679-0.863-2.402-1.397-0.461-0.297-0.784-0.847-0.784-1.473 0-0.983 0.797-1.779 1.779-1.779 0.357 0 0.689 0.105 0.967 0.285l0.562 0.351 2.542-2.549c0.323-0.322 0.77-0.521 1.262-0.521s0.939 0.199 1.262 0.521c0.32 0.326 0.518 0.773 0.518 1.267s-0.198 0.941-0.518 1.267zM19.022 4.075c0.325 0.322 0.525 0.769 0.525 1.262 0 0.982-0.796 1.779-1.779 1.779-0.489 0-0.932-0.197-1.253-0.517l-0.515-0.519-0.516 0.516c-0.324 0.319-0.769 0.515-1.26 0.515s-0.936-0.197-1.261-0.516c-0.322-0.323-0.52-0.769-0.52-1.262s0.199-0.939 0.521-1.262l0.515-0.515-0.516-0.516c-0.322-0.323-0.521-0.768-0.521-1.26 0-0.985 0.799-1.784 1.784-1.784 0.493 0 0.94 0.2 1.263 0.524l0.51 0.516 0.516-0.516c0.323-0.322 0.768-0.522 1.26-0.522 0.985 0 1.784 0.799 1.784 1.784 0 0.493-0.2 0.939-0.523 1.262l-0.516 0.51zM30.222 12.444v3.556c0 0.982-0.796 1.778-1.778 1.778h-10.667v3.876c2.089 0.754 3.556 2.72 3.556 5.028 0 2.946-2.388 5.333-5.333 5.333s-5.333-2.388-5.333-5.333c0-2.308 1.466-4.274 3.518-5.017l0.037-3.887h-10.667c-0.982 0-1.778-0.796-1.778-1.778v-3.556c0-0.982 0.796-1.778 1.778-1.778s1.778 0.796 1.778 1.778v1.778h8.889v-1.778c0-0.982 0.796-1.778 1.778-1.778s1.778 0.796 1.778 1.778v1.778h8.889v-1.778c0-0.982 0.796-1.778 1.778-1.778s1.778 0.796 1.778 1.778z"></path>
</svg>
