<?xml version="1.0" encoding="utf-8"?>
<!-- Generated by IcoMoon.io -->
<!DOCTYPE svg PUBLIC "-//W3C//DTD SVG 1.1//EN" "http://www.w3.org/Graphics/SVG/1.1/DTD/svg11.dtd">
<svg version="1.1" xmlns="http://www.w3.org/2000/svg" xmlns:xlink="http://www.w3.org/1999/xlink" width="32" height="32" viewBox="0 0 32 32">
<path fill="#72777a" d="M12.674 2.459l6.238 4.8c0.853 0.924 0.853 2.347 0 3.271l-6.238 4.8c-0.39 0.418-0.945 0.678-1.56 0.678-0.31 0-0.605-0.066-0.872-0.186-0.822-0.386-1.355-1.225-1.354-2.146v-3.010h-1.778c-1.961 0.006-3.55 1.594-3.556 3.555v3.556c0.006 1.961 1.594 3.549 3.555 3.556 0.982 0 1.778 0.796 1.778 1.778s-0.796 1.778-1.778 1.778c-3.927 0-7.111-3.184-7.111-7.111v-3.556c0-3.927 3.184-7.111 7.111-7.111h1.778v-2.999c0-0.923 0.533-1.76 1.369-2.151 0.252-0.113 0.547-0.18 0.857-0.18 0.615 0 1.169 0.26 1.558 0.676zM19.326 29.541l-6.238-4.8c-0.853-0.924-0.853-2.347 0-3.271l6.238-4.8c0.39-0.418 0.945-0.678 1.56-0.678 0.31 0 0.605 0.066 0.872 0.186 0.822 0.386 1.355 1.223 1.355 2.146v3.010h1.778c1.961-0.006 3.55-1.594 3.556-3.555v-3.556c-0.006-1.961-1.594-3.55-3.555-3.556-0.982 0-1.778-0.796-1.778-1.778s0.796-1.778 1.778-1.778c3.927 0 7.111 3.184 7.111 7.111v3.556c0 3.927-3.184 7.111-7.111 7.111h-1.78v3.004c0 0.923-0.533 1.76-1.369 2.151-0.251 0.113-0.545 0.178-0.853 0.178-0.617 0-1.172-0.262-1.562-0.68z"></path>
</svg>
