<?xml version="1.0" encoding="utf-8"?>
<!-- Generated by IcoMoon.io -->
<!DOCTYPE svg PUBLIC "-//W3C//DTD SVG 1.1//EN" "http://www.w3.org/Graphics/SVG/1.1/DTD/svg11.dtd">
<svg version="1.1" xmlns="http://www.w3.org/2000/svg" xmlns:xlink="http://www.w3.org/1999/xlink" width="32" height="32" viewBox="0 0 32 32">
<path fill="#72777a" d="M8.924 8.018h-0.089zM10.151 19.175c0.323 0.322 0.523 0.767 0.523 1.26s-0.2 0.938-0.523 1.259c-0.311 0.308-0.738 0.498-1.21 0.498-0.006 0-0.012-0-0.018-0h-0.035c-0.364-0.023-0.698-0.132-0.987-0.308-0.008-0.012-0.239-0.155-0.275-0.19l-6.916-5.184c-0.424-0.326-0.699-0.829-0.711-1.397l-0-0.016c0.011-0.577 0.285-1.088 0.707-1.419l6.92-5.18c0.036-0.036 0.267-0.178 0.284-0.196 0.263-0.17 0.579-0.279 0.918-0.302l0.059-0c0.005-0 0.011-0 0.016-0 0.483 0 0.922 0.19 1.247 0.499 0.322 0.321 0.522 0.766 0.522 1.258s-0.2 0.937-0.522 1.259l-0.089 0.089-2.080 2.021c-0.536 0.489-0.871 1.191-0.871 1.972 0 0.001 0 0.001 0 0.002s0 0.003 0 0.004c0 0.778 0.335 1.477 0.869 1.962l2.082 2.023z"></path>
<path fill="#72777a" d="M32 22.222c0 0.982-0.796 1.778-1.778 1.778-0.566-0.003-1.070-0.265-1.402-0.672l-0.074-0.11c-1.347-1.995-3.284-3.503-5.558-4.284-0.608-0.186-1.219-0.283-1.851-0.29l-0.004 1.801c-0.006 0.676-0.399 1.259-0.968 1.539-0.244 0.126-0.521 0.197-0.814 0.197-0.4 0-0.77-0.132-1.067-0.356l-7.107-5.318c-0.434-0.328-0.711-0.843-0.711-1.422s0.277-1.094 0.707-1.419l7.116-5.324c0.291-0.222 0.66-0.355 1.061-0.355 0.294 0 0.572 0.072 0.816 0.2 0.566 0.284 0.956 0.864 0.968 1.537l0 1.833c3.822 0 10.507 5.493 10.667 10.667z"></path>
</svg>
