<?xml version="1.0" encoding="utf-8"?>
<!-- Generated by IcoMoon.io -->
<!DOCTYPE svg PUBLIC "-//W3C//DTD SVG 1.1//EN" "http://www.w3.org/Graphics/SVG/1.1/DTD/svg11.dtd">
<svg version="1.1" xmlns="http://www.w3.org/2000/svg" xmlns:xlink="http://www.w3.org/1999/xlink" width="32" height="32" viewBox="0 0 32 32">
<path fill="#72777a" d="M28.444 0h1.778c0.982 0 1.778 0.796 1.778 1.778v28.444c0 0.982-0.796 1.778-1.778 1.778h-1.778c-0.982 0-1.778-0.796-1.778-1.778v-28.444c0-0.982 0.796-1.778 1.778-1.778z"></path>
<path fill="#72777a" d="M19.556 8.889h1.778c0.982 0 1.778 0.796 1.778 1.778v19.556c0 0.982-0.796 1.778-1.778 1.778h-1.778c-0.982 0-1.778-0.796-1.778-1.778v-19.556c0-0.982 0.796-1.778 1.778-1.778z"></path>
<path fill="#72777a" d="M10.667 16h1.778c0.982 0 1.778 0.796 1.778 1.778v12.444c0 0.982-0.796 1.778-1.778 1.778h-1.778c-0.982 0-1.778-0.796-1.778-1.778v-12.444c0-0.982 0.796-1.778 1.778-1.778z"></path>
<path fill="#72777a" d="M1.78 23.111h1.774c0.983 0 1.78 0.797 1.78 1.78v5.33c0 0.983-0.797 1.78-1.78 1.78h-1.774c-0.983 0-1.78-0.797-1.78-1.78v-5.33c0-0.983 0.797-1.78 1.78-1.78z"></path>
</svg>
