<?xml version="1.0" encoding="utf-8"?>
<!-- Generated by IcoMoon.io -->
<!DOCTYPE svg PUBLIC "-//W3C//DTD SVG 1.1//EN" "http://www.w3.org/Graphics/SVG/1.1/DTD/svg11.dtd">
<svg version="1.1" xmlns="http://www.w3.org/2000/svg" xmlns:xlink="http://www.w3.org/1999/xlink" width="32" height="32" viewBox="0 0 32 32">
<path fill="#72777a" d="M26.667 0h-21.333c-0.982 0-1.778 0.796-1.778 1.778v28.444c0 0.982 0.796 1.778 1.778 1.778h21.333c0.982 0 1.778-0.796 1.778-1.778v-28.444c0-0.982-0.796-1.778-1.778-1.778zM10.667 26.636c0 0.982-0.796 1.778-1.778 1.778s-1.778-0.796-1.778-1.778v-3.556c0-0.982 0.796-1.778 1.778-1.778s1.778 0.796 1.778 1.778v3.556zM7.111 9.778c0-2.455 1.99-4.444 4.444-4.444v4.444h4.444c0 2.455-1.99 4.444-4.444 4.444s-4.444-1.99-4.444-4.444zM17.778 26.61c0 0.982-0.796 1.778-1.778 1.778s-1.778-0.796-1.778-1.778v-8.889c0-0.982 0.796-1.778 1.778-1.778s1.778 0.796 1.778 1.778v8.889zM13.333 8v-4.444c2.455 0 4.444 1.99 4.444 4.444h-4.444zM24.889 26.667c0 0.982-0.796 1.778-1.778 1.778s-1.778-0.796-1.778-1.778v-19.556c0-0.982 0.796-1.778 1.778-1.778s1.778 0.796 1.778 1.778v19.556z"></path>
</svg>
