<?xml version="1.0" encoding="utf-8"?>
<!-- Generated by IcoMoon.io -->
<!DOCTYPE svg PUBLIC "-//W3C//DTD SVG 1.1//EN" "http://www.w3.org/Graphics/SVG/1.1/DTD/svg11.dtd">
<svg version="1.1" xmlns="http://www.w3.org/2000/svg" xmlns:xlink="http://www.w3.org/1999/xlink" width="32" height="32" viewBox="0 0 32 32">
<path fill="#72777a" d="M25.294 28.848c-0.982-0-1.777-0.796-1.777-1.778 0-0.491 0.199-0.935 0.52-1.257l1.778-1.778c0.322-0.322 0.767-0.522 1.259-0.522 0.982 0 1.779 0.796 1.779 1.779 0 0.491-0.199 0.935-0.52 1.257l-1.778 1.778c-0.322 0.322-0.766 0.521-1.257 0.521zM15.271 28.848c-0.982-0-1.777-0.796-1.777-1.778 0-0.491 0.199-0.935 0.521-1.257l11.801-11.801c0.322-0.322 0.767-0.522 1.259-0.522 0.982 0 1.779 0.796 1.779 1.779 0 0.491-0.199 0.935-0.52 1.257l-11.801 11.801c-0.322 0.322-0.766 0.521-1.257 0.521zM4.889 28.848c-0.982-0-1.777-0.796-1.777-1.778 0-0.491 0.199-0.935 0.521-1.257l22.181-22.181c0.322-0.322 0.767-0.521 1.258-0.521 0.982 0 1.778 0.796 1.778 1.778 0 0.491-0.199 0.935-0.52 1.257l-22.183 22.181c-0.322 0.322-0.766 0.521-1.257 0.521z"></path>
</svg>
