<?xml version="1.0" encoding="utf-8"?>
<!-- Generated by IcoMoon.io -->
<!DOCTYPE svg PUBLIC "-//W3C//DTD SVG 1.1//EN" "http://www.w3.org/Graphics/SVG/1.1/DTD/svg11.dtd">
<svg version="1.1" xmlns="http://www.w3.org/2000/svg" xmlns:xlink="http://www.w3.org/1999/xlink" width="32" height="32" viewBox="0 0 32 32">
<path fill="#72777a" d="M28.444 0h-24.889c-1.961 0.006-3.55 1.594-3.556 3.555v24.889c0.006 1.961 1.594 3.55 3.555 3.556h24.889c1.961-0.006 3.55-1.594 3.556-3.555v-24.889c-0.006-1.961-1.594-3.55-3.555-3.556zM12.444 28.444c-0.982 0-1.778-0.796-1.778-1.778-0.010-2.941-2.392-5.323-5.332-5.333-0.983 0-1.779-0.796-1.779-1.778s0.796-1.778 1.778-1.778c4.909 0 8.889 3.98 8.889 8.889 0 0.982-0.796 1.778-1.778 1.778zM19.556 28.444c-0.982 0-1.778-0.796-1.778-1.778-0.008-6.87-5.575-12.436-12.444-12.444-0.983 0-1.779-0.796-1.779-1.778s0.796-1.778 1.778-1.778c8.837 0 16 7.163 16 16 0 0.982-0.796 1.778-1.778 1.778zM26.667 28.444c-0.982 0-1.778-0.796-1.778-1.778-0.007-10.797-8.758-19.548-19.555-19.556-0.983 0-1.779-0.796-1.779-1.778s0.796-1.778 1.778-1.778c12.764 0 23.111 10.347 23.111 23.111 0 0.982-0.796 1.778-1.778 1.778z"></path>
</svg>
