<?xml version="1.0" encoding="utf-8"?>
<!-- Generated by IcoMoon.io -->
<!DOCTYPE svg PUBLIC "-//W3C//DTD SVG 1.1//EN" "http://www.w3.org/Graphics/SVG/1.1/DTD/svg11.dtd">
<svg version="1.1" xmlns="http://www.w3.org/2000/svg" xmlns:xlink="http://www.w3.org/1999/xlink" width="32" height="32" viewBox="0 0 32 32">
<path fill="#72777a" d="M30.222 0h-28.444c-0.982 0-1.778 0.796-1.778 1.778v28.444c0 0.982 0.796 1.778 1.778 1.778h28.444c0.982 0 1.778-0.796 1.778-1.778v-28.444c0-0.982-0.796-1.778-1.778-1.778zM24.889 3.556h3.556v3.556h-3.556v-3.556zM24.889 10.667h3.556v3.556h-3.556v-3.556zM24.889 17.778h3.556v3.556h-3.556v-3.556zM7.111 28.444h-3.556v-3.556h3.556v3.556zM7.111 21.333h-3.556v-3.556h3.556v3.556zM7.111 14.222h-3.556v-3.556h3.556v3.556zM7.111 7.111h-3.556v-3.556h3.556v3.556zM14.222 28.444h-3.556v-3.556h3.556v3.556zM14.222 21.333h-3.556v-3.556h3.556v3.556zM14.222 14.222h-3.556v-3.556h3.556v3.556zM14.222 7.111h-3.556v-3.556h3.556v3.556zM21.333 28.444h-3.556v-3.556h3.556v3.556zM21.333 21.333h-3.556v-3.556h3.556v3.556zM21.333 14.222h-3.556v-3.556h3.556v3.556zM21.333 7.111h-3.556v-3.556h3.556v3.556zM28.444 28.444h-3.556v-3.556h3.556v3.556z"></path>
</svg>
