<?xml version="1.0" encoding="utf-8"?>
<!-- Generated by IcoMoon.io -->
<!DOCTYPE svg PUBLIC "-//W3C//DTD SVG 1.1//EN" "http://www.w3.org/Graphics/SVG/1.1/DTD/svg11.dtd">
<svg version="1.1" xmlns="http://www.w3.org/2000/svg" xmlns:xlink="http://www.w3.org/1999/xlink" width="32" height="32" viewBox="0 0 32 32">
<path fill="#72777a" d="M28.444 16h-5.333v-4.231c1.653-0.369 3.044-0.785 4.394-1.285 0.249-0.096 0.627-0.462 0.81-0.926 0.084-0.2 0.131-0.418 0.131-0.648 0-0.288-0.073-0.559-0.202-0.795l-3.551-7.085c-0.254-0.594-0.833-1.003-1.508-1.003-0.199 0-0.389 0.035-0.565 0.1-1.917 1.001-4.195 1.603-6.61 1.632-2.434-0.029-4.712-0.63-6.724-1.675-0.082-0.022-0.272-0.057-0.471-0.057-0.675 0-1.255 0.409-1.504 0.993l-3.56 7.104c-0.124 0.227-0.198 0.498-0.198 0.786 0 0.229 0.046 0.448 0.131 0.647 0.184 0.464 0.562 0.83 1.033 0.999 1.128 0.427 2.52 0.843 3.945 1.169l0.227 4.275h-5.333c-0.988 0.018-1.778 0.825-1.778 1.813v1.76c0.004 0.973 0.794 1.76 1.767 1.76 0.004 0 0.007 0 0.011-0h1.777v8.889c0 0.982 0.796 1.778 1.778 1.778h1.778c0.982 0 1.778-0.796 1.778-1.778v-1.778h10.667v1.778c0 0.982 0.796 1.778 1.778 1.778h1.778c0.982 0 1.778-0.796 1.778-1.778v-8.889h1.778c0.003 0 0.007 0 0.011 0 0.973 0 1.763-0.787 1.767-1.76v-1.76c0-0 0-0 0-0 0-0.989-0.792-1.793-1.776-1.813zM12.444 12.338c1.182 0.107 2.37 0.142 3.556 0.107 1.186 0.036 2.373 0 3.556-0.107v3.662h-7.111v-3.662zM21.333 24.889h-10.667v-3.556h10.667v3.556z"></path>
</svg>
