<?xml version="1.0" encoding="utf-8"?>
<!-- Generated by IcoMoon.io -->
<!DOCTYPE svg PUBLIC "-//W3C//DTD SVG 1.1//EN" "http://www.w3.org/Graphics/SVG/1.1/DTD/svg11.dtd">
<svg version="1.1" xmlns="http://www.w3.org/2000/svg" xmlns:xlink="http://www.w3.org/1999/xlink" width="32" height="32" viewBox="0 0 32 32">
<path fill="#72777a" d="M14.4 0h-0.356c-2.845 0.007-5.149 2.311-5.156 5.155v2.134c0.007 2.845 2.311 5.149 5.155 5.156h0.356c2.845-0.007 5.148-2.311 5.156-5.155v-2.134c-0.007-2.845-2.311-5.149-5.155-5.156zM19.701 16.86h-0.002zM16.491 26.176c-0.49-0.491-0.88-1.084-1.133-1.743-0.709-0.89-1.132-1.994-1.132-3.196 0-0.28 0.023-0.554 0.067-0.821-0.045-0.212-0.069-0.49-0.069-0.773 0-1.204 0.426-2.31 1.135-3.173 0.242-0.654 0.633-1.257 1.133-1.758 0.021-0.021 0.048-0.036 0.071-0.057-0.694-0.264-1.497-0.422-2.335-0.432-3.927 0.012-7.103 3.189-7.115 7.11v4.742c0.002 1.3 1.057 2.354 2.357 2.354 0.005 0 0.010 0 0.015-0l7.405 0.016v-1.911c-0.145-0.117-0.275-0.234-0.398-0.357zM26.617 19.271c-0.114-0.409-0.384-0.742-0.739-0.938-0.007-0.024-0.006-0.048-0.006-0.072 0-0.808-0.655-1.463-1.463-1.463-0.030 0-0.060 0.001-0.089 0.003-0.185-0.366-0.514-0.637-0.91-0.744-0.124-0.034-0.256-0.052-0.391-0.052-0.294 0-0.568 0.085-0.799 0.231-0.219-0.146-0.493-0.231-0.786-0.231-0.135 0-0.267 0.018-0.391 0.052-0.396 0.107-0.725 0.378-0.91 0.736-0.031 0.006-0.062 0.005-0.094 0.005-0.806 0-1.46 0.653-1.46 1.46 0 0.032 0.001 0.063 0.003 0.094-0.366 0.184-0.637 0.514-0.745 0.91-0.034 0.125-0.052 0.256-0.052 0.391 0 0.294 0.085 0.567 0.231 0.798-0.147 0.219-0.232 0.493-0.232 0.787 0 0.57 0.319 1.066 0.789 1.318 0.007 0.024 0.006 0.048 0.006 0.072 0 0.808 0.655 1.463 1.463 1.463 0.030 0 0.060-0.001 0.089-0.003 0.067 0.16 0.175 0.302 0.316 0.409v7.253c0 0.062 0.020 0.124 0.053 0.178 0.040 0.044 0.097 0.071 0.16 0.071s0.12-0.027 0.16-0.071l1.405-1.422 1.404 1.422c0.036 0.041 0.089 0.068 0.142 0.071 0.004 0 0.008 0 0.012 0 0.065 0 0.124-0.027 0.165-0.071 0.033-0.050 0.052-0.112 0.053-0.178v-7.254c0.14-0.107 0.249-0.249 0.32-0.409 0.027 0.002 0.058 0.003 0.090 0.003 0.806 0 1.46-0.653 1.46-1.46 0-0.032-0.001-0.063-0.003-0.094 0.366-0.184 0.637-0.514 0.745-0.91 0.034-0.125 0.052-0.256 0.052-0.391 0-0.294-0.085-0.567-0.231-0.798 0.146-0.219 0.231-0.493 0.231-0.786 0-0.135-0.018-0.267-0.052-0.392zM24.181 20.676c-0.081 0.713-0.536 1.304-1.161 1.577-0.243 0.106-0.512 0.165-0.795 0.165s-0.552-0.059-0.795-0.165c-0.625-0.273-1.079-0.864-1.16-1.568-0.001-0.080-0.019-0.169-0.019-0.24s0.018-0.16 0.018-0.231c0.081-0.713 0.536-1.304 1.161-1.577 0.512-0.218 1.077-0.218 1.577-0.005 0.638 0.278 1.092 0.869 1.172 1.573 0.001 0.080 0.019 0.169 0.019 0.24s-0.021 0.16-0.021 0.231h0.004z"></path>
</svg>
