<?xml version="1.0" encoding="utf-8"?>
<!-- Generated by IcoMoon.io -->
<!DOCTYPE svg PUBLIC "-//W3C//DTD SVG 1.1//EN" "http://www.w3.org/Graphics/SVG/1.1/DTD/svg11.dtd">
<svg version="1.1" xmlns="http://www.w3.org/2000/svg" xmlns:xlink="http://www.w3.org/1999/xlink" width="32" height="32" viewBox="0 0 32 32">
<path fill="#72777a" d="M31.040 0.889c-0.002 0-0.003 0-0.005 0-0.125 0-0.246 0.019-0.359 0.056 0.008 0.015-30.054 11.020-30.054 11.020-0.368 0.161-0.621 0.522-0.622 0.942-0 0.004-0 0.010-0 0.015 0 0.346 0.183 0.65 0.458 0.819 0.040 0.020 6.031 3.7 7.933 4.861 0.304 0.191 0.503 0.525 0.503 0.906 0 0.038-0.002 0.075-0.006 0.112-0.16 1.418-0.497 4.6-0.497 4.639 0 0 0 0 0 0 0 0.544 0.436 0.985 0.977 0.995l3.841-0.018c0.345 0.006 0.644 0.201 0.798 0.486l2.918 4.94c0.183 0.272 0.488 0.45 0.835 0.453 0.002 0 0.003 0 0.005 0 0.372 0 0.693-0.215 0.846-0.528l13.265-28.272c0.078-0.12 0.125-0.267 0.125-0.425 0-0.007-0-0.014-0-0.021-0.007-0.53-0.43-0.96-0.958-0.977zM12.391 21.067l0.676-6.293 18.258-13.084z"></path>
</svg>
