<?xml version="1.0" encoding="utf-8"?>
<!-- Generated by IcoMoon.io -->
<!DOCTYPE svg PUBLIC "-//W3C//DTD SVG 1.1//EN" "http://www.w3.org/Graphics/SVG/1.1/DTD/svg11.dtd">
<svg version="1.1" xmlns="http://www.w3.org/2000/svg" xmlns:xlink="http://www.w3.org/1999/xlink" width="32" height="32" viewBox="0 0 32 32">
<path fill="#72777a" d="M32 26.667c0 2.946-2.388 5.333-5.333 5.333s-5.333-2.388-5.333-5.333c0-0.232 0.020-0.46 0.057-0.682l-12.359-6.145c-0.958 0.924-2.263 1.493-3.701 1.493-2.946 0-5.333-2.388-5.333-5.333s2.388-5.333 5.333-5.333c1.438 0 2.744 0.569 3.703 1.495l12.354-6.17c-0.034-0.198-0.053-0.425-0.053-0.658 0-0.001 0-0.002 0-0.003 0-2.946 2.388-5.333 5.333-5.333s5.333 2.388 5.333 5.333c0 2.946-2.388 5.333-5.333 5.333-1.437 0-2.741-0.568-3.699-1.492l-12.354 6.17c0.034 0.198 0.053 0.425 0.053 0.658s-0.019 0.46-0.057 0.682l12.359 6.145c0.957-0.922 2.261-1.49 3.698-1.49 2.944 0 5.331 2.386 5.333 5.33z"></path>
</svg>
