<?xml version="1.0" encoding="utf-8"?>
<!-- Generated by IcoMoon.io -->
<!DOCTYPE svg PUBLIC "-//W3C//DTD SVG 1.1//EN" "http://www.w3.org/Graphics/SVG/1.1/DTD/svg11.dtd">
<svg version="1.1" xmlns="http://www.w3.org/2000/svg" xmlns:xlink="http://www.w3.org/1999/xlink" width="32" height="32" viewBox="0 0 32 32">
<path fill="#72777a" d="M0.521 3.044l5.849 5.845-2.293 2.293c-0.317 0.321-0.512 0.762-0.512 1.249 0 0.249 0.051 0.486 0.143 0.701 0.262 0.64 0.891 1.091 1.626 1.091 0 0 0 0 0 0h7.111c0.982 0 1.778-0.796 1.778-1.778v-7.111c0-0.002 0-0.004 0-0.007 0-0.734-0.451-1.363-1.091-1.625-0.215-0.092-0.452-0.143-0.701-0.143-0.487 0-0.928 0.196-1.249 0.513l-2.293 2.297-5.845-5.849c-0.323-0.323-0.769-0.523-1.262-0.523-0.986 0-1.785 0.799-1.785 1.785 0 0.493 0.2 0.939 0.523 1.262zM0.521 28.96l5.849-5.849-2.293-2.293c-0.317-0.321-0.512-0.762-0.512-1.249 0-0.249 0.051-0.486 0.143-0.701 0.262-0.64 0.89-1.091 1.624-1.091 0 0 0.001 0 0.001 0h7.111c0.982 0 1.778 0.796 1.778 1.778v7.111c0 0.002 0 0.004 0 0.007 0 0.734-0.451 1.363-1.091 1.625-0.215 0.092-0.452 0.143-0.701 0.143-0.487 0-0.928-0.196-1.249-0.513l-2.293-2.297-5.845 5.849c-0.323 0.323-0.769 0.523-1.262 0.523-0.986 0-1.785-0.799-1.785-1.785 0-0.493 0.2-0.939 0.523-1.262zM31.479 3.044l-5.849 5.845 2.293 2.293c0.317 0.321 0.512 0.762 0.512 1.249 0 0.249-0.051 0.486-0.143 0.701-0.262 0.64-0.891 1.091-1.626 1.091-0 0-0 0-0 0h-7.111c-0.982 0-1.778-0.796-1.778-1.778v-7.111c0-0.002 0-0.004 0-0.007 0-0.734 0.451-1.363 1.091-1.625 0.215-0.092 0.452-0.143 0.701-0.143 0.487 0 0.928 0.196 1.249 0.513l2.293 2.297 5.849-5.849c0.323-0.322 0.768-0.521 1.26-0.521 0.985 0 1.783 0.798 1.783 1.783 0 0.493-0.2 0.939-0.524 1.262zM31.479 28.96l-5.849-5.849 2.293-2.293c0.317-0.321 0.512-0.762 0.512-1.249 0-0.249-0.051-0.486-0.143-0.701-0.262-0.64-0.89-1.091-1.624-1.091-0 0-0.001 0-0.001 0h-7.111c-0.982 0-1.778 0.796-1.778 1.778v7.111c0 0.002 0 0.004 0 0.007 0 0.734 0.451 1.363 1.091 1.625 0.215 0.092 0.452 0.143 0.701 0.143 0.487 0 0.928-0.196 1.249-0.513l2.293-2.297 5.849 5.849c0.323 0.322 0.768 0.521 1.26 0.521 0.985 0 1.783-0.798 1.783-1.783 0-0.493-0.2-0.939-0.524-1.262z"></path>
</svg>
