<?xml version="1.0" encoding="utf-8"?>
<!-- Generated by IcoMoon.io -->
<!DOCTYPE svg PUBLIC "-//W3C//DTD SVG 1.1//EN" "http://www.w3.org/Graphics/SVG/1.1/DTD/svg11.dtd">
<svg version="1.1" xmlns="http://www.w3.org/2000/svg" xmlns:xlink="http://www.w3.org/1999/xlink" width="32" height="32" viewBox="0 0 32 32">
<path fill="#72777a" d="M31.111 0.677c0.548 0.491 0.891 1.2 0.891 1.989 0 0.684-0.258 1.308-0.681 1.78l-15.998 17.775c-0.105 0.12-0.222 0.225-0.349 0.316-0.015 1.669-0.469 3.225-1.256 4.562-0.331 0.568-0.744 1.094-1.22 1.556-3.913 3.931-11.609 4.002-12.446 2.242-0.267-0.587 0.391-1.013 2.329-4.356 2.311-4.036 2.489-5.333 3.467-6.311 0.176-0.183 0.373-0.345 0.587-0.48 1.154-0.805 2.586-1.286 4.13-1.286 0.274 0 0.544 0.015 0.809 0.045l0.038 0.068 15.929-17.689c0.491-0.549 1.201-0.892 1.991-0.892 0.685 0 1.31 0.258 1.782 0.683z"></path>
</svg>
