<?xml version="1.0" encoding="utf-8"?>
<!-- Generated by IcoMoon.io -->
<!DOCTYPE svg PUBLIC "-//W3C//DTD SVG 1.1//EN" "http://www.w3.org/Graphics/SVG/1.1/DTD/svg11.dtd">
<svg version="1.1" xmlns="http://www.w3.org/2000/svg" xmlns:xlink="http://www.w3.org/1999/xlink" width="32" height="32" viewBox="0 0 32 32">
<path fill="#72777a" d="M31.733 13.070l-7.2 7.396 1.701 10.436c0.009 0.048 0.014 0.103 0.014 0.159 0 0.316-0.159 0.594-0.402 0.76-0.15 0.113-0.335 0.18-0.537 0.18-0.005 0-0.010-0-0.015-0-0.001 0-0.002 0-0.004 0-0.163 0-0.315-0.046-0.443-0.127l-8.848-4.894-8.859 4.896c-0.13 0.072-0.286 0.115-0.451 0.115-0.52 0-0.942-0.422-0.942-0.942 0-0.053 0.004-0.105 0.013-0.156l1.706-10.425-7.2-7.396c-0.165-0.162-0.268-0.387-0.268-0.636 0-0.11 0.020-0.215 0.056-0.312 0.104-0.331 0.389-0.581 0.74-0.633l9.907-1.524 4.444-9.476c0.173-0.296 0.489-0.492 0.851-0.492s0.678 0.196 0.848 0.487l4.447 9.48 9.908 1.525c0.354 0.054 0.638 0.304 0.741 0.633 0.036 0.097 0.055 0.201 0.055 0.31 0 0.249-0.102 0.473-0.267 0.635z"></path>
</svg>
