<?xml version="1.0" encoding="utf-8"?>
<!-- Generated by IcoMoon.io -->
<!DOCTYPE svg PUBLIC "-//W3C//DTD SVG 1.1//EN" "http://www.w3.org/Graphics/SVG/1.1/DTD/svg11.dtd">
<svg version="1.1" xmlns="http://www.w3.org/2000/svg" xmlns:xlink="http://www.w3.org/1999/xlink" width="32" height="32" viewBox="0 0 32 32">
<path fill="#72777a" d="M16 7.051l2.075 4.427 0.805 1.714 6.763 1.040-3.655 3.755-1.244 1.284 0.288 1.767 0.836 5.12-5.867-3.241-5.867 3.241 0.836-5.115 0.29-1.778-1.244-1.285-3.657-3.746 6.757-1.042 0.805-1.716 2.080-4.427zM16 0c-0.001 0-0.002 0-0.002 0-0.362 0-0.678 0.196-0.848 0.488l-4.447 9.48-9.906 1.524c-0.354 0.054-0.638 0.304-0.741 0.633-0.036 0.097-0.055 0.201-0.055 0.31 0 0.249 0.102 0.473 0.267 0.635l7.2 7.396-1.707 10.436c-0.007 0.044-0.011 0.094-0.011 0.146 0 0.52 0.422 0.942 0.942 0.942 0.164 0 0.319-0.042 0.454-0.116l8.856-4.894 8.853 4.896c0.124 0.078 0.275 0.124 0.437 0.124h0.018c0.201 0 0.387-0.067 0.536-0.179 0.244-0.166 0.403-0.445 0.403-0.761 0-0.057-0.005-0.113-0.015-0.168l-1.7-10.425 7.196-7.396c0.165-0.162 0.268-0.387 0.268-0.636 0-0.11-0.020-0.215-0.056-0.312-0.104-0.331-0.389-0.581-0.74-0.633l-9.911-1.524-4.444-9.476c-0.172-0.294-0.485-0.489-0.844-0.491z"></path>
</svg>
