<?xml version="1.0" encoding="utf-8"?>
<!-- Generated by IcoMoon.io -->
<!DOCTYPE svg PUBLIC "-//W3C//DTD SVG 1.1//EN" "http://www.w3.org/Graphics/SVG/1.1/DTD/svg11.dtd">
<svg version="1.1" xmlns="http://www.w3.org/2000/svg" xmlns:xlink="http://www.w3.org/1999/xlink" width="32" height="32" viewBox="0 0 32 32">
<path fill="#72777a" d="M28.444 12.772c0-7.189-5.582-12.772-12.444-12.772s-12.444 5.582-12.444 12.444c-2.068 1.061-3.556 3.015-3.556 5.333v3.556c0 2.946 2.388 5.333 5.333 5.333h1.778c0.982 0 1.778-0.796 1.778-1.778v-10.667c0-0.982-0.796-1.778-1.778-1.778 0-4.909 3.98-8.889 8.889-8.889s8.889 3.98 8.889 8.889c-0.982 0-1.778 0.796-1.778 1.778v10.667c0 0.982 0.796 1.778 1.778 1.778v1.778h-4.608c-0.366-1.033-1.344-1.778-2.503-1.778h-3.556c-1.473 0-2.667 1.194-2.667 2.667s1.194 2.667 2.667 2.667h10.667c1.964 0 3.556-1.592 3.556-3.556v-2.103c2.085-0.748 3.551-2.706 3.556-5.007v-3.556c-0.004-2.301-1.47-4.259-3.518-4.995l-40.926 97.439z"></path>
</svg>
