<?xml version="1.0" encoding="utf-8"?>
<!-- Generated by IcoMoon.io -->
<!DOCTYPE svg PUBLIC "-//W3C//DTD SVG 1.1//EN" "http://www.w3.org/Graphics/SVG/1.1/DTD/svg11.dtd">
<svg version="1.1" xmlns="http://www.w3.org/2000/svg" xmlns:xlink="http://www.w3.org/1999/xlink" width="32" height="32" viewBox="0 0 32 32">
<path fill="#72777a" d="M26.667 3.556h-3.556c-0.006-1.961-1.594-3.55-3.555-3.556h-7.112c-1.961 0.006-3.55 1.594-3.556 3.555l-3.556 0.001c-1.961 0.006-3.55 1.594-3.556 3.555v21.334c0.006 1.961 1.594 3.55 3.555 3.556h21.334c1.961-0.006 3.55-1.594 3.556-3.555v-21.334c-0.006-1.961-1.594-3.55-3.555-3.556zM7.111 26.667c-0.982 0-1.778-0.796-1.778-1.778s0.796-1.778 1.778-1.778c0.982 0 1.778 0.796 1.778 1.778s-0.796 1.778-1.778 1.778zM7.111 19.556c-0.982 0-1.778-0.796-1.778-1.778s0.796-1.778 1.778-1.778c0.982 0 1.778 0.796 1.778 1.778s-0.796 1.778-1.778 1.778zM7.111 12.444c-0.982 0-1.778-0.796-1.778-1.778s0.796-1.778 1.778-1.778c0.982 0 1.778 0.796 1.778 1.778s-0.796 1.778-1.778 1.778zM24.889 26.667h-10.667c-0.982 0-1.778-0.796-1.778-1.778s0.796-1.778 1.778-1.778h10.667c0.982 0 1.778 0.796 1.778 1.778s-0.796 1.778-1.778 1.778zM24.889 19.556h-10.667c-0.982 0-1.778-0.796-1.778-1.778s0.796-1.778 1.778-1.778h10.667c0.982 0 1.778 0.796 1.778 1.778s-0.796 1.778-1.778 1.778zM24.889 12.444h-10.667c-0.982 0-1.778-0.796-1.778-1.778s0.796-1.778 1.778-1.778h10.667c0.982 0 1.778 0.796 1.778 1.778s-0.796 1.778-1.778 1.778z"></path>
</svg>
