<?xml version="1.0" encoding="utf-8"?>
<!-- Generated by IcoMoon.io -->
<!DOCTYPE svg PUBLIC "-//W3C//DTD SVG 1.1//EN" "http://www.w3.org/Graphics/SVG/1.1/DTD/svg11.dtd">
<svg version="1.1" xmlns="http://www.w3.org/2000/svg" xmlns:xlink="http://www.w3.org/1999/xlink" width="32" height="32" viewBox="0 0 32 32">
<path fill="#72777a" d="M30.222 3.556h-12.444v-1.778c0-0.982-0.796-1.778-1.778-1.778s-1.778 0.796-1.778 1.778v1.778h-12.444c-0.982 0-1.778 0.796-1.778 1.778s0.796 1.778 1.778 1.778v6.347c0 1.577 0.485 3.115 1.387 4.409 0.292 0.412 0.619 0.8 0.978 1.156 0.359 0.357 0.752 0.679 1.173 0.96 0.412 0.288 0.853 0.533 1.316 0.729 0.937 0.409 1.947 0.622 2.969 0.622h4.622v3.609l-4.693 3.911c-0.748 0.633-0.853 1.748-0.231 2.507 0.325 0.392 0.812 0.64 1.358 0.64 0.004 0 0.008 0 0.012-0 0.414-0.004 0.817-0.148 1.137-0.409l2.418-2.009v0.64c0 0.982 0.796 1.778 1.778 1.778s1.778-0.796 1.778-1.778v-0.64l2.418 2.009c0.32 0.261 0.724 0.405 1.138 0.409 0.003 0 0.007 0 0.011 0 0.545 0 1.032-0.248 1.355-0.637 0.255-0.31 0.408-0.706 0.408-1.139 0-0.549-0.246-1.040-0.634-1.369l-4.696-3.913v-3.609h4.658c0.007 0 0.016 0 0.024 0 1.054 0 2.054-0.229 2.953-0.64 0.459-0.199 0.892-0.442 1.294-0.726 0.398-0.265 0.791-0.587 1.15-0.945 0.359-0.363 0.686-0.754 0.978-1.173 0.901-1.287 1.387-2.82 1.387-4.391v-6.347c0.982 0 1.778-0.796 1.778-1.778s-0.796-1.778-1.778-1.778zM19.556 17.778h-7.111c-0.982 0-1.778-0.796-1.778-1.778s0.796-1.778 1.778-1.778h7.111c0.982 0 1.778 0.796 1.778 1.778s-0.796 1.778-1.778 1.778zM24.889 10.667h-17.778c-0.982 0-1.778-0.796-1.778-1.778s0.796-1.778 1.778-1.778h17.778c0.982 0 1.778 0.796 1.778 1.778s-0.796 1.778-1.778 1.778z"></path>
</svg>
