<?xml version="1.0" encoding="utf-8"?>
<!-- Generated by IcoMoon.io -->
<!DOCTYPE svg PUBLIC "-//W3C//DTD SVG 1.1//EN" "http://www.w3.org/Graphics/SVG/1.1/DTD/svg11.dtd">
<svg version="1.1" xmlns="http://www.w3.org/2000/svg" xmlns:xlink="http://www.w3.org/1999/xlink" width="32" height="32" viewBox="0 0 32 32">
<path fill="#72777a" d="M30.222 0h-28.444c-0.982 0-1.778 0.796-1.778 1.778v28.444c0 0.982 0.796 1.778 1.778 1.778h28.444c0.982 0 1.778-0.796 1.778-1.778v-28.444c0-0.982-0.796-1.778-1.778-1.778zM5.333 28.444c-0.982 0-1.778-0.796-1.778-1.778s0.796-1.778 1.778-1.778c0.982 0 1.778 0.796 1.778 1.778s-0.796 1.778-1.778 1.778zM5.333 21.333c-0.030 0.002-0.065 0.003-0.101 0.003-0.928 0-1.68-0.752-1.68-1.68 0-0.035 0.001-0.071 0.003-0.106-0.002-0.025-0.003-0.061-0.003-0.096 0-0.928 0.752-1.68 1.68-1.68 0.035 0 0.071 0.001 0.106 0.003 0.025-0.002 0.061-0.003 0.096-0.003 0.928 0 1.68 0.752 1.68 1.68 0 0.035-0.001 0.071-0.003 0.106 0.002 0.025 0.003 0.061 0.003 0.096 0 0.928-0.752 1.68-1.68 1.68-0.035 0-0.071-0.001-0.106-0.003zM5.333 14.222c-0.030 0.002-0.065 0.003-0.101 0.003-0.928 0-1.68-0.752-1.68-1.68 0-0.035 0.001-0.071 0.003-0.106-0.002-0.025-0.003-0.061-0.003-0.096 0-0.928 0.752-1.68 1.68-1.68 0.035 0 0.071 0.001 0.106 0.003 0.025-0.002 0.061-0.003 0.096-0.003 0.928 0 1.68 0.752 1.68 1.68 0 0.035-0.001 0.071-0.003 0.106 0.002 0.025 0.003 0.061 0.003 0.096 0 0.928-0.752 1.68-1.68 1.68-0.035 0-0.071-0.001-0.106-0.003zM5.333 7.111c-0.030 0.002-0.065 0.003-0.101 0.003-0.928 0-1.68-0.752-1.68-1.68 0-0.035 0.001-0.071 0.003-0.106-0.002-0.025-0.003-0.061-0.003-0.096 0-0.928 0.752-1.68 1.68-1.68 0.035 0 0.071 0.001 0.106 0.003 0.025-0.002 0.061-0.003 0.096-0.003 0.928 0 1.68 0.752 1.68 1.68 0 0.035-0.001 0.071-0.003 0.106 0.002 0.025 0.003 0.061 0.003 0.096 0 0.928-0.752 1.68-1.68 1.68-0.035 0-0.071-0.001-0.106-0.003zM26.667 28.444h-14.222c-0.982 0-1.778-0.796-1.778-1.778s0.796-1.778 1.778-1.778h14.222c0.982 0 1.778 0.796 1.778 1.778s-0.796 1.778-1.778 1.778zM26.667 21.333h-14.222c-0.982 0-1.778-0.796-1.778-1.778s0.796-1.778 1.778-1.778h14.222c0.982 0 1.778 0.796 1.778 1.778s-0.796 1.778-1.778 1.778zM26.667 14.222h-14.222c-0.982 0-1.778-0.796-1.778-1.778s0.796-1.778 1.778-1.778h14.222c0.982 0 1.778 0.796 1.778 1.778s-0.796 1.778-1.778 1.778zM26.667 7.111h-14.222c-0.982 0-1.778-0.796-1.778-1.778s0.796-1.778 1.778-1.778h14.222c0.982 0 1.778 0.796 1.778 1.778s-0.796 1.778-1.778 1.778z"></path>
</svg>
