<?xml version="1.0" encoding="utf-8"?>
<!-- Generated by IcoMoon.io -->
<!DOCTYPE svg PUBLIC "-//W3C//DTD SVG 1.1//EN" "http://www.w3.org/Graphics/SVG/1.1/DTD/svg11.dtd">
<svg version="1.1" xmlns="http://www.w3.org/2000/svg" xmlns:xlink="http://www.w3.org/1999/xlink" width="32" height="32" viewBox="0 0 32 32">
<path fill="#72777a" d="M28.444 0h-6.933c-0.009-0-0.019-0.001-0.029-0.001-0.053 0-0.104 0.007-0.153 0.019-0.415 0.039-0.785 0.222-1.063 0.497l-19.822 19.822c-0.276 0.308-0.444 0.717-0.444 1.166 0 0.003 0 0.005 0 0.008 0.004 0.473 0.186 0.903 0.481 1.228 0.015 0.006 0.027 0.018 0.034 0.034l8.676 8.694c0.018 0 0.018 0 0.018 0.018 0.325 0.319 0.771 0.516 1.262 0.516s0.937-0.197 1.262-0.516l19.751-19.751c0.275-0.278 0.457-0.648 0.497-1.060 0.012-0.052 0.019-0.103 0.019-0.155 0-0.010-0-0.021-0.001-0.031l0-6.932zM26.667 7.111c-0.982 0-1.778-0.796-1.778-1.778s0.796-1.778 1.778-1.778c0.982 0 1.778 0.796 1.778 1.778s-0.796 1.778-1.778 1.778z"></path>
</svg>
