<?xml version="1.0" encoding="utf-8"?>
<!-- Generated by IcoMoon.io -->
<!DOCTYPE svg PUBLIC "-//W3C//DTD SVG 1.1//EN" "http://www.w3.org/Graphics/SVG/1.1/DTD/svg11.dtd">
<svg version="1.1" xmlns="http://www.w3.org/2000/svg" xmlns:xlink="http://www.w3.org/1999/xlink" width="32" height="32" viewBox="0 0 32 32">
<path fill="#72777a" d="M21.191 4.533c0.089-0.293 0.141-0.629 0.142-0.977-0.006-1.962-1.594-3.55-3.555-3.556h-3.556c-1.961 0.006-3.55 1.594-3.556 3.555 0.001 0.349 0.053 0.686 0.149 1.003-5.339 2.107-9.038 7.23-9.038 13.216 0 7.855 6.367 14.222 14.222 14.222s14.222-6.367 14.222-14.222c0-5.986-3.699-11.109-8.935-13.207zM24.889 21.333h-8.889c-0.982 0-1.778-0.796-1.778-1.778v-10.667c0-0.982 0.796-1.778 1.778-1.778s1.778 0.796 1.778 1.778v8.889h7.111c0.982 0 1.778 0.796 1.778 1.778s-0.796 1.778-1.778 1.778z"></path>
</svg>
