<?xml version="1.0" encoding="utf-8"?>
<!-- Generated by IcoMoon.io -->
<!DOCTYPE svg PUBLIC "-//W3C//DTD SVG 1.1//EN" "http://www.w3.org/Graphics/SVG/1.1/DTD/svg11.dtd">
<svg version="1.1" xmlns="http://www.w3.org/2000/svg" xmlns:xlink="http://www.w3.org/1999/xlink" width="32" height="32" viewBox="0 0 32 32">
<path fill="#72777a" d="M23.703 8.297c-0.648-0.648-1.049-1.543-1.049-2.532s0.401-1.884 1.049-2.532l2.99-2.99c-0.557-0.157-1.198-0.247-1.859-0.247-3.936 0-7.127 3.191-7.127 7.127 0 0.663 0.091 1.305 0.26 1.915l-8.956 8.889c-0.556-0.155-1.194-0.244-1.854-0.244-3.956 0-7.163 3.207-7.163 7.163s3.207 7.163 7.163 7.163c3.956 0 7.163-3.207 7.163-7.163 0-0.659-0.089-1.298-0.256-1.904l8.949-8.896c0.559 0.158 1.201 0.248 1.864 0.248 3.936 0 7.127-3.191 7.127-7.127 0-0.663-0.091-1.305-0.26-1.914l-2.978 3.046c-0.648 0.648-1.543 1.049-2.532 1.049s-1.884-0.401-2.532-1.049zM9.6 27.47c-0.648 0.648-1.543 1.048-2.531 1.048-1.977 0-3.58-1.603-3.58-3.58s1.603-3.58 3.58-3.58c0.988 0 1.883 0.4 2.531 1.048s1.049 1.543 1.049 2.532-0.401 1.884-1.049 2.532z"></path>
</svg>
