<?xml version="1.0" encoding="utf-8"?>
<!-- Generated by IcoMoon.io -->
<!DOCTYPE svg PUBLIC "-//W3C//DTD SVG 1.1//EN" "http://www.w3.org/Graphics/SVG/1.1/DTD/svg11.dtd">
<svg version="1.1" xmlns="http://www.w3.org/2000/svg" xmlns:xlink="http://www.w3.org/1999/xlink" width="32" height="32" viewBox="0 0 32 32">
<path fill="#72777a" d="M21.333 23.147c0 0.982-0.796 1.778-1.778 1.778-0.566-0.002-1.071-0.264-1.402-0.672l-0.074-0.11c-1.346-2-3.283-3.512-5.558-4.297-0.608-0.186-1.219-0.283-1.851-0.29l-0.004 1.813c-0.006 0.677-0.399 1.261-0.968 1.542-0.244 0.126-0.521 0.197-0.814 0.197-0.4 0-0.77-0.132-1.067-0.356l-7.107-5.33c-0.434-0.328-0.711-0.843-0.711-1.422s0.277-1.094 0.707-1.419l7.116-5.337c0.293-0.222 0.665-0.356 1.067-0.356 0.969 0 1.758 0.776 1.777 1.741l0 1.815c3.822 0 10.507 5.511 10.667 10.702z"></path>
<path fill="#72777a" d="M29.511 0h-19.911c-1.378 0.017-2.489 1.138-2.489 2.519 0 0.008 0 0.016 0 0.025v3.106c0.529-0.198 1.139-0.313 1.776-0.316 0.672 0.014 1.306 0.15 1.889 0.386-0.072-0.122-0.098-0.248-0.11-0.38-0-0.988 0.795-1.784 1.777-1.784h14.222c0.982 0 1.778 0.796 1.778 1.778s-0.796 1.778-1.778 1.778h-13.849c0.623 0.67 1.077 1.507 1.286 2.436 0.864 0.377 1.59 0.741 2.279 1.158l10.284-0.038c0.982 0 1.778 0.796 1.778 1.778s-0.796 1.778-1.778 1.778h-5.906c0.978 1.036 1.837 2.203 2.541 3.467l3.364 0.088c0.982 0 1.778 0.796 1.778 1.778s-0.796 1.778-1.778 1.778h-2c0.114 0.499 0.192 1.083 0.22 1.681l0.001 0.132c-0.008 0.627-0.125 1.225-0.332 1.779l2.111-0.036c0.982 0 1.778 0.796 1.778 1.778s-0.796 1.778-1.778 1.778h-14.222c-0.982 0-1.778-0.796-1.778-1.778 0.012-0.139 0.039-0.267 0.080-0.389-0.555 0.237-1.195 0.374-1.864 0.389-0.64-0.003-1.246-0.116-1.808-0.321l0.037 3.059c-0 0.009-0 0.019-0 0.030 0 1.39 1.105 2.523 2.485 2.566l19.915 0c1.384-0.042 2.489-1.174 2.489-2.564 0-0.011-0-0.022-0-0.033l0-26.914c0-0.005 0-0.012 0-0.018 0-1.36-1.098-2.463-2.456-2.471h-0.033z"></path>
</svg>
