<?xml version="1.0" encoding="utf-8"?>
<!-- Generated by IcoMoon.io -->
<!DOCTYPE svg PUBLIC "-//W3C//DTD SVG 1.1//EN" "http://www.w3.org/Graphics/SVG/1.1/DTD/svg11.dtd">
<svg version="1.1" xmlns="http://www.w3.org/2000/svg" xmlns:xlink="http://www.w3.org/1999/xlink" width="32" height="32" viewBox="0 0 32 32">
<path fill="#72777a" d="M16 3.556c6.873 0 12.444 5.572 12.444 12.444s-5.572 12.444-12.444 12.444c-6.873 0-12.444-5.572-12.444-12.444 0.008-6.87 5.575-12.436 12.444-12.444zM16 0c-8.837 0-16 7.163-16 16s7.163 16 16 16c8.837 0 16-7.163 16-16s-7.163-16-16-16z"></path>
<path fill="#72777a" d="M22.592 20.073c0.693 0.699 0.693 1.826 0 2.524-0.325 0.319-0.77 0.515-1.261 0.515s-0.937-0.197-1.262-0.516l-4.069-4.071-4.069 4.069c-0.325 0.319-0.77 0.515-1.261 0.515s-0.937-0.197-1.262-0.516c-0.321-0.324-0.52-0.77-0.52-1.262s0.199-0.938 0.52-1.262l4.069-4.071-4.069-4.068c-0.306-0.32-0.495-0.755-0.495-1.233 0-0.986 0.799-1.785 1.785-1.785 0.478 0 0.913 0.188 1.233 0.495l4.069 4.070 4.069-4.069c0.32-0.306 0.754-0.494 1.232-0.494 0.986 0 1.785 0.799 1.785 1.785 0 0.479-0.189 0.914-0.495 1.234l-4.069 4.065 4.069 4.073z"></path>
</svg>
