<?xml version="1.0" encoding="utf-8"?>
<!-- Generated by IcoMoon.io -->
<!DOCTYPE svg PUBLIC "-//W3C//DTD SVG 1.1//EN" "http://www.w3.org/Graphics/SVG/1.1/DTD/svg11.dtd">
<svg version="1.1" xmlns="http://www.w3.org/2000/svg" xmlns:xlink="http://www.w3.org/1999/xlink" width="32" height="32" viewBox="0 0 32 32">
<path fill="#72777a" d="M31.111 17.778c0 7.855-6.367 14.222-14.222 14.222s-14.222-6.367-14.222-14.222c0-0.982 0.796-1.778 1.778-1.778s1.778 0.796 1.778 1.778c0 5.891 4.776 10.667 10.667 10.667s10.667-4.776 10.667-10.667c0-5.891-4.776-10.667-10.667-10.667h-7.111v1.778c0 0.004 0 0.008 0 0.012 0 0.671-0.378 1.254-0.933 1.547-0.25 0.139-0.538 0.218-0.844 0.218-0.366 0-0.705-0.113-0.985-0.306l-5.327-3.552c-0.485-0.319-0.801-0.86-0.801-1.476s0.316-1.157 0.794-1.471l5.34-3.56c0.275-0.184 0.614-0.293 0.978-0.293 0.979 0 1.773 0.791 1.778 1.768v1.778h7.111c7.851 0.010 14.212 6.372 14.222 14.221z"></path>
</svg>
