<?xml version="1.0" encoding="utf-8"?>
<!-- Generated by IcoMoon.io -->
<!DOCTYPE svg PUBLIC "-//W3C//DTD SVG 1.1//EN" "http://www.w3.org/Graphics/SVG/1.1/DTD/svg11.dtd">
<svg version="1.1" xmlns="http://www.w3.org/2000/svg" xmlns:xlink="http://www.w3.org/1999/xlink" width="32" height="32" viewBox="0 0 32 32">
<path fill="#72777a" d="M31.733 5.6l-5.316-5.333c-0.163-0.165-0.39-0.267-0.64-0.267h-23.289c-1.378 0.017-2.489 1.138-2.489 2.519 0 0.008 0 0.016 0 0.025v26.914c-0 0.007-0 0.015-0 0.023 0 1.381 1.111 2.502 2.487 2.519h27.024c1.378-0.017 2.489-1.138 2.489-2.519 0-0.008-0-0.016-0-0.025v-23.234c0-0.003 0-0.007 0-0.011 0-0.241-0.102-0.459-0.266-0.611zM28.444 28.444h-24.889v-17.956c0.345 0.158 0.722 0.236 1.102 0.231h13.796c1.588-0.006 2.874-1.292 2.88-2.879v-4.285h3.342l3.769 3.787v21.102z"></path>
<path fill="#72777a" d="M21.333 19.556c0 2.946-2.388 5.333-5.333 5.333s-5.333-2.388-5.333-5.333c0-2.946 2.388-5.333 5.333-5.333s5.333 2.388 5.333 5.333z"></path>
</svg>
