<?xml version="1.0" encoding="utf-8"?>
<!-- Generated by IcoMoon.io -->
<!DOCTYPE svg PUBLIC "-//W3C//DTD SVG 1.1//EN" "http://www.w3.org/Graphics/SVG/1.1/DTD/svg11.dtd">
<svg version="1.1" xmlns="http://www.w3.org/2000/svg" xmlns:xlink="http://www.w3.org/1999/xlink" width="32" height="32" viewBox="0 0 32 32">
<path fill="#72777a" d="M21.191 16.676c-0.266 0.651-0.895 1.102-1.629 1.102-0.002 0-0.005 0-0.007 0h-1.777v9.778c0 0.982-0.796 1.778-1.778 1.778s-1.778-0.796-1.778-1.778v-9.778h-1.778c-0.002 0-0.004 0-0.007 0-0.734 0-1.363-0.451-1.625-1.091-0.092-0.215-0.143-0.452-0.143-0.701 0-0.487 0.196-0.928 0.513-1.249l3.555-3.555c0.325-0.319 0.771-0.516 1.262-0.516s0.937 0.197 1.262 0.516l3.555 3.555c0.317 0.321 0.512 0.762 0.512 1.249 0 0.249-0.051 0.486-0.143 0.701z"></path>
<path fill="#72777a" d="M25.404 9.796c-1.19-4.147-4.949-7.13-9.404-7.13s-8.214 2.983-9.387 7.061c-3.722 0.339-6.626 3.412-6.626 7.162 0 3.927 3.184 7.111 7.111 7.111 0.005 0 0.009 0 0.014 0h3.555v-2.969c-1.438-0.513-2.564-1.592-3.13-2.961-0.272-0.641-0.423-1.346-0.423-2.086 0-1.468 0.593-2.798 1.553-3.763l3.623-3.618c0.961-0.924 2.27-1.493 3.711-1.493s2.75 0.569 3.713 1.494l0.034 0.030 0.030 0.032 3.6 3.598c0.932 0.962 1.506 2.276 1.506 3.723 0 2.31-1.463 4.279-3.513 5.030l-0.037 2.981h3.556c0.004 0 0.009 0 0.013 0 3.927 0 7.111-3.184 7.111-7.111 0-3.751-2.904-6.823-6.586-7.092z"></path>
</svg>
