<?xml version="1.0" encoding="utf-8"?>
<!-- Generated by IcoMoon.io -->
<!DOCTYPE svg PUBLIC "-//W3C//DTD SVG 1.1//EN" "http://www.w3.org/Graphics/SVG/1.1/DTD/svg11.dtd">
<svg version="1.1" xmlns="http://www.w3.org/2000/svg" xmlns:xlink="http://www.w3.org/1999/xlink" width="32" height="32" viewBox="0 0 32 32">
<path fill="#72777a" d="M32 30.222c0 0.982-0.796 1.778-1.778 1.778h-28.444c-0.982 0-1.778-0.796-1.778-1.778v-28.444c0-0.982 0.796-1.778 1.778-1.778s1.778 0.796 1.778 1.778v26.667h26.667c0.982 0 1.778 0.796 1.778 1.778z"></path>
<path fill="#72777a" d="M31.698 2.756l-1.849 2.773c0.249 0.489 0.379 1.031 0.373 1.582-0.006 1.884-1.476 3.422-3.332 3.537l-2.588 5.156c0.368 0.551 0.587 1.228 0.587 1.956 0 1.964-1.592 3.556-3.556 3.556-1.958 0-3.546-1.582-3.555-3.538v-0.054l-3.609-2.169c-0.315 0.178-0.658 0.306-1.013 0.373l-2.578 7.751c-0.245 0.709-0.906 1.209-1.684 1.209-0.002 0-0.003 0-0.005 0-0.204-0.005-0.399-0.037-0.584-0.093-0.694-0.247-1.194-0.912-1.194-1.694 0-0.2 0.033-0.392 0.093-0.572l2.574-7.738c-0.552-0.623-0.889-1.448-0.889-2.352 0-1.964 1.592-3.556 3.556-3.556s3.556 1.592 3.556 3.556c0 0.002 0 0.004 0 0.005v0.053l3.609 2.169c0.462-0.261 0.981-0.409 1.511-0.427l2.578-5.156c-0.368-0.552-0.587-1.231-0.587-1.961 0-1.966 1.591-3.561 3.555-3.568 0.012-0 0.026-0.001 0.039-0.001 0.068 0 0.135 0.007 0.199 0.020l1.842-2.774c0.329-0.406 0.826-0.663 1.384-0.663 0.982 0 1.778 0.796 1.778 1.778 0 0.308-0.078 0.597-0.216 0.85z"></path>
</svg>
