<?xml version="1.0" encoding="utf-8"?>
<!-- Generated by IcoMoon.io -->
<!DOCTYPE svg PUBLIC "-//W3C//DTD SVG 1.1//EN" "http://www.w3.org/Graphics/SVG/1.1/DTD/svg11.dtd">
<svg version="1.1" xmlns="http://www.w3.org/2000/svg" xmlns:xlink="http://www.w3.org/1999/xlink" width="32" height="32" viewBox="0 0 32 32">
<path fill="#72777a" d="M31.452 24.764l-12.444-19.556c-0.64-1-1.746-1.654-3.004-1.654s-2.364 0.654-2.996 1.64l-12.453 19.57c-0.346 0.539-0.552 1.197-0.552 1.902 0 1.963 1.59 3.554 3.552 3.556h24.889c0.001 0 0.003 0 0.004 0 1.964 0 3.556-1.592 3.556-3.556 0-0.706-0.206-1.363-0.56-1.916zM19.556 12.444c0.982 0 1.778 0.796 1.778 1.778s-0.796 1.778-1.778 1.778c-0.982 0-1.778-0.796-1.778-1.778s0.796-1.778 1.778-1.778zM16 7.111c0.982 0 1.778 0.796 1.778 1.778s-0.796 1.778-1.778 1.778c-0.982 0-1.778-0.796-1.778-1.778s0.796-1.778 1.778-1.778zM12.444 12.444c0.982 0 1.778 0.796 1.778 1.778s-0.796 1.778-1.778 1.778c-0.982 0-1.778-0.796-1.778-1.778s0.796-1.778 1.778-1.778zM5.333 26.667c-0.982 0-1.778-0.796-1.778-1.778s0.796-1.778 1.778-1.778c0.982 0 1.778 0.796 1.778 1.778s-0.796 1.778-1.778 1.778zM8.889 21.333c-0.982 0-1.778-0.796-1.778-1.778s0.796-1.778 1.778-1.778c0.982 0 1.778 0.796 1.778 1.778s-0.796 1.778-1.778 1.778zM12.444 26.667c-0.982 0-1.778-0.796-1.778-1.778s0.796-1.778 1.778-1.778c0.982 0 1.778 0.796 1.778 1.778s-0.796 1.778-1.778 1.778zM16 21.333c-0.982 0-1.778-0.796-1.778-1.778s0.796-1.778 1.778-1.778c0.982 0 1.778 0.796 1.778 1.778s-0.796 1.778-1.778 1.778zM19.556 26.667c-0.982 0-1.778-0.796-1.778-1.778s0.796-1.778 1.778-1.778c0.982 0 1.778 0.796 1.778 1.778s-0.796 1.778-1.778 1.778zM23.111 21.333c-0.982 0-1.778-0.796-1.778-1.778s0.796-1.778 1.778-1.778c0.982 0 1.778 0.796 1.778 1.778s-0.796 1.778-1.778 1.778zM26.667 26.667c-0.982 0-1.778-0.796-1.778-1.778s0.796-1.778 1.778-1.778c0.982 0 1.778 0.796 1.778 1.778s-0.796 1.778-1.778 1.778z"></path>
</svg>
