<?xml version="1.0" encoding="utf-8"?>
<!-- Generated by IcoMoon.io -->
<!DOCTYPE svg PUBLIC "-//W3C//DTD SVG 1.1//EN" "http://www.w3.org/Graphics/SVG/1.1/DTD/svg11.dtd">
<svg version="1.1" xmlns="http://www.w3.org/2000/svg" xmlns:xlink="http://www.w3.org/1999/xlink" width="32" height="32" viewBox="0 0 32 32">
<path fill="#72777a" d="M26.539 7.986l4.942-4.942c0.323-0.323 0.523-0.769 0.523-1.262 0-0.986-0.799-1.785-1.785-1.785-0.493 0-0.939 0.2-1.262 0.523l-5.92 5.92c-2.073-0.701-4.46-1.106-6.941-1.106-0.034 0-0.067 0-0.1 0-8.827-0-15.995 4.786-15.995 10.667 0.263 3.538 2.394 6.523 5.401 7.993l-4.88 4.967c-0.321 0.324-0.52 0.77-0.52 1.262s0.199 0.938 0.52 1.262c0.325 0.319 0.77 0.516 1.262 0.516s0.937-0.197 1.263-0.516l5.92-5.92c2.067 0.699 4.449 1.102 6.924 1.102 0.039 0 0.078-0 0.117-0 8.83 0 15.994-4.782 15.994-10.667 0-3.2-2.121-6.059-5.461-8.014zM7.111 16c-0 0.011-0 0.025-0 0.038 0 1.809 0.551 3.489 1.495 4.881l-0.517 0.467c-2.841-1.383-4.533-3.445-4.533-5.387 0-2.222 2.222-4.604 5.849-5.956-1.422 1.566-2.293 3.656-2.293 5.949 0 0.002 0 0.005 0 0.007zM19.556 16c-0.006 0-0.013 0-0.019 0-0.294 0-0.569-0.079-0.806-0.218l2.39-2.378c0.134 0.229 0.213 0.505 0.213 0.798 0 0.007-0 0.014-0 0.020 0 0.981-0.796 1.777-1.778 1.777zM22.596 21.952c1.422-1.567 2.293-3.658 2.293-5.952 0-0.011 0-0.025 0-0.038 0-1.809-0.551-3.489-1.495-4.881l0.517-0.467c2.844 1.387 4.533 3.449 4.533 5.387 0 2.226-2.226 4.604-5.849 5.956z"></path>
</svg>
