<?xml version="1.0" encoding="utf-8"?>
<!-- Generated by IcoMoon.io -->
<!DOCTYPE svg PUBLIC "-//W3C//DTD SVG 1.1//EN" "http://www.w3.org/Graphics/SVG/1.1/DTD/svg11.dtd">
<svg version="1.1" xmlns="http://www.w3.org/2000/svg" xmlns:xlink="http://www.w3.org/1999/xlink" width="32" height="32" viewBox="0 0 32 32">
<path fill="#72777a" d="M16 5.333c-8.836 0-16 4.782-16 10.667s7.164 10.667 16 10.667 16-4.782 16-10.667-7.164-10.667-16-10.667zM19.556 16c-0.982 0-1.778-0.796-1.778-1.778s0.796-1.778 1.778-1.778c0.982 0 1.778 0.796 1.778 1.778s-0.796 1.778-1.778 1.778zM3.556 16c0-2.222 2.222-4.604 5.849-5.956-1.423 1.569-2.293 3.66-2.293 5.956s0.871 4.387 2.3 5.963c-3.633-1.359-5.856-3.741-5.856-5.963zM22.596 21.956c1.422-1.569 2.293-3.66 2.293-5.956s-0.871-4.387-2.3-5.963c3.633 1.359 5.856 3.741 5.856 5.963s-2.222 4.604-5.849 5.956z"></path>
</svg>
