<?xml version="1.0" encoding="utf-8"?>
<!-- Generated by IcoMoon.io -->
<!DOCTYPE svg PUBLIC "-//W3C//DTD SVG 1.1//EN" "http://www.w3.org/Graphics/SVG/1.1/DTD/svg11.dtd">
<svg version="1.1" xmlns="http://www.w3.org/2000/svg" xmlns:xlink="http://www.w3.org/1999/xlink" width="32" height="32" viewBox="0 0 32 32">
<path fill="#72777a" d="M14.222 6.222v19.556c-0.001 0.363-0.217 0.675-0.528 0.816-0.102 0.047-0.216 0.074-0.336 0.074-0.009 0-0.018-0-0.027-0-0.23-0.007-0.44-0.093-0.605-0.232l-5.563-5.101h-5.422c-0.961-0.002-1.74-0.781-1.742-1.742v-7.182c0.002-0.961 0.781-1.74 1.742-1.742h5.405l5.582-5.102c0.16-0.144 0.373-0.232 0.606-0.232 0.128 0 0.25 0.027 0.36 0.074 0.31 0.141 0.526 0.453 0.527 0.815zM23.111 30.222c0-0.001 0-0.001 0-0.002 0-0.415 0.143-0.796 0.383-1.096 3.021-3.499 4.863-8.095 4.863-13.122 0-4.98-1.808-9.539-4.804-13.054-0.232-0.278-0.387-0.675-0.387-1.109 0-0.984 0.798-1.781 1.781-1.781 0.492 0 0.938 0.2 1.26 0.522 0.132 0.132 12.903 14.439 0.089 30.738-0.328 0.423-0.837 0.692-1.408 0.692-0.982 0-1.778-0.796-1.778-1.778 0-0.003 0-0.007 0-0.010z"></path>
<path fill="#72777a" d="M18.325 26.169c-0.336-0.324-0.544-0.778-0.544-1.28 0-0.476 0.187-0.908 0.492-1.227 1.816-2.033 2.955-4.707 3.039-7.644-0.084-2.972-1.223-5.646-3.050-7.691-0.294-0.307-0.481-0.739-0.481-1.215 0-0.502 0.208-0.956 0.544-1.28 0.321-0.307 0.756-0.496 1.236-0.496 0.497 0 0.947 0.203 1.271 0.53 2.476 2.651 4.011 6.209 4.057 10.124-0.045 3.933-1.578 7.491-4.061 10.151-0.316 0.32-0.767 0.524-1.265 0.524-0.48 0-0.916-0.189-1.238-0.497z"></path>
</svg>
