<?xml version="1.0" encoding="utf-8"?>
<!-- Generated by IcoMoon.io -->
<!DOCTYPE svg PUBLIC "-//W3C//DTD SVG 1.1//EN" "http://www.w3.org/Graphics/SVG/1.1/DTD/svg11.dtd">
<svg version="1.1" xmlns="http://www.w3.org/2000/svg" xmlns:xlink="http://www.w3.org/1999/xlink" width="32" height="32" viewBox="0 0 32 32">
<path fill="#72777a" d="M3.556 0h7.111c1.964 0 3.556 1.592 3.556 3.556v14.222c0 1.964-1.592 3.556-3.556 3.556h-7.111c-1.964 0-3.556-1.592-3.556-3.556v-14.222c0-1.964 1.592-3.556 3.556-3.556z"></path>
<path fill="#72777a" d="M3.556 24.889h7.111c1.964 0 3.556 1.592 3.556 3.556s-1.592 3.556-3.556 3.556h-7.111c-1.964 0-3.556-1.592-3.556-3.556s1.592-3.556 3.556-3.556z"></path>
<path fill="#72777a" d="M21.333 0h7.111c1.964 0 3.556 1.592 3.556 3.556v5.333c0 1.964-1.592 3.556-3.556 3.556h-7.111c-1.964 0-3.556-1.592-3.556-3.556v-5.333c0-1.964 1.592-3.556 3.556-3.556z"></path>
<path fill="#72777a" d="M21.333 16h7.111c1.964 0 3.556 1.592 3.556 3.556v8.889c0 1.964-1.592 3.556-3.556 3.556h-7.111c-1.964 0-3.556-1.592-3.556-3.556v-8.889c0-1.964 1.592-3.556 3.556-3.556z"></path>
</svg>
