<?xml version="1.0" encoding="utf-8"?>
<!-- Generated by IcoMoon.io -->
<!DOCTYPE svg PUBLIC "-//W3C//DTD SVG 1.1//EN" "http://www.w3.org/Graphics/SVG/1.1/DTD/svg11.dtd">
<svg version="1.1" xmlns="http://www.w3.org/2000/svg" xmlns:xlink="http://www.w3.org/1999/xlink" width="32" height="32" viewBox="0 0 32 32">
<path fill="#72777a" d="M24.889 10.667c0 1.964-1.592 3.556-3.556 3.556s-3.556-1.592-3.556-3.556c0-1.964 1.592-3.556 3.556-3.556s3.556 1.592 3.556 3.556z"></path>
<path fill="#72777a" d="M1.778 32c-0.982-0-1.777-0.796-1.777-1.778 0-0.491 0.199-0.935 0.52-1.257l12.444-12.444c0.319-0.309 0.755-0.499 1.235-0.499 0.982 0 1.778 0.796 1.778 1.778 0 0.48-0.19 0.916-0.5 1.236l-12.444 12.444c-0.322 0.322-0.766 0.521-1.257 0.521zM26.667 7.111c-0.982-0-1.777-0.796-1.777-1.778 0-0.491 0.199-0.935 0.52-1.257l3.556-3.556c0.319-0.309 0.755-0.499 1.235-0.499 0.982 0 1.778 0.796 1.778 1.778 0 0.48-0.19 0.916-0.5 1.236l-3.555 3.555c-0.322 0.322-0.766 0.521-1.257 0.521zM21.333 5.333c-0.982 0-1.778-0.796-1.778-1.778v-1.778c0-0.982 0.796-1.778 1.778-1.778s1.778 0.796 1.778 1.778v1.778c0 0.982-0.796 1.778-1.778 1.778zM21.333 21.333c-0.982 0-1.778-0.796-1.778-1.778v-1.778c0-0.982 0.796-1.778 1.778-1.778s1.778 0.796 1.778 1.778v1.778c0 0.982-0.796 1.778-1.778 1.778z"></path>
<path fill="#72777a" d="M21.333 5.333c-0.982 0-1.778-0.796-1.778-1.778v-1.778c0-0.982 0.796-1.778 1.778-1.778s1.778 0.796 1.778 1.778v1.778c0 0.982-0.796 1.778-1.778 1.778zM21.333 21.333c-0.982 0-1.778-0.796-1.778-1.778v-1.778c0-0.982 0.796-1.778 1.778-1.778s1.778 0.796 1.778 1.778v1.778c0 0.982-0.796 1.778-1.778 1.778zM14.222 12.444h-1.778c-0.982 0-1.778-0.796-1.778-1.778s0.796-1.778 1.778-1.778h1.778c0.982 0 1.778 0.796 1.778 1.778s-0.796 1.778-1.778 1.778zM30.222 12.444h-1.778c-0.982 0-1.778-0.796-1.778-1.778s0.796-1.778 1.778-1.778h1.778c0.982 0 1.778 0.796 1.778 1.778s-0.796 1.778-1.778 1.778zM16 7.111c-0.491-0-0.935-0.199-1.257-0.521l-3.556-3.556c-0.309-0.319-0.499-0.755-0.499-1.235 0-0.982 0.796-1.778 1.778-1.778 0.48 0 0.916 0.19 1.236 0.5l3.555 3.555c0.322 0.322 0.52 0.766 0.52 1.257 0 0.982-0.796 1.778-1.777 1.778zM30.222 21.333c-0.491-0-0.935-0.199-1.257-0.521l-3.556-3.556c-0.309-0.319-0.499-0.755-0.499-1.235 0-0.982 0.796-1.778 1.778-1.778 0.48 0 0.916 0.19 1.236 0.5l3.555 3.555c0.322 0.322 0.52 0.766 0.52 1.257 0 0.982-0.796 1.778-1.777 1.778z"></path>
</svg>
