<?xml version="1.0" encoding="utf-8"?>
<!-- Generated by IcoMoon.io -->
<!DOCTYPE svg PUBLIC "-//W3C//DTD SVG 1.1//EN" "http://www.w3.org/Graphics/SVG/1.1/DTD/svg11.dtd">
<svg version="1.1" xmlns="http://www.w3.org/2000/svg" xmlns:xlink="http://www.w3.org/1999/xlink" width="32" height="32" viewBox="0 0 32 32">
<path fill="#72777a" d="M30.972 25.941l-5.031-5.031c-0.628-0.637-1.501-1.032-2.466-1.032-0.021 0-0.041 0-0.062 0.001-0.023-0.001-0.054-0.001-0.084-0.001-0.291 0-0.573 0.039-0.841 0.113l-1.596-1.623c1.386-1.865 2.219-4.213 2.219-6.756 0-0.020-0-0.040-0-0.059 0-6.379-5.174-11.553-11.556-11.553s-11.556 5.174-11.556 11.556c0 6.382 5.174 11.556 11.556 11.556 0.014 0 0.031 0 0.047 0 2.546 0 4.896-0.834 6.794-2.244l1.587 1.639c-0.316 1.227 0.036 2.53 0.924 3.431l5.031 5.031c0.644 0.644 1.534 1.043 2.516 1.043 1.964 0 3.557-1.592 3.557-3.557 0-0.982-0.398-1.87-1.041-2.514zM16.889 14.222h-2.667v2.667c0 1.473-1.194 2.667-2.667 2.667s-2.667-1.194-2.667-2.667v-2.667h-2.667c-1.473 0-2.667-1.194-2.667-2.667s1.194-2.667 2.667-2.667h2.667v-2.667c0-1.473 1.194-2.667 2.667-2.667s2.667 1.194 2.667 2.667v2.667h2.667c1.473 0 2.667 1.194 2.667 2.667s-1.194 2.667-2.667 2.667z"></path>
</svg>
